<svg width="35" height="35" viewBox="0 0 35 35" fill="none" xmlns="http://www.w3.org/2000/svg">
<g id="Group 2">
<path id="Vector" d="M23.2297 3.42556C24.7673 1.86507 27.3702 3.40018 26.7467 5.50144C26.6395 5.86157 26.6316 6.24383 26.7221 6.60844C26.8125 6.97305 26.9987 7.30676 27.2622 7.57503C27.5256 7.84331 27.8549 8.03624 28.2176 8.13398C28.5811 8.23172 28.9632 8.23058 29.325 8.13073C31.4378 7.54878 32.9219 10.1797 31.3333 11.6879C31.0611 11.9464 30.8626 12.273 30.759 12.6338C30.6554 12.9948 30.6501 13.3768 30.744 13.7404C30.8371 14.104 31.0268 14.4359 31.2911 14.7019C31.5563 14.9678 31.8883 15.158 32.251 15.2529C34.3717 15.8064 34.3427 18.8274 32.2114 19.3381C31.847 19.4267 31.5125 19.611 31.2429 19.8721C30.9733 20.1331 30.7783 20.4615 30.6782 20.8231C30.5781 21.1847 30.5763 21.5666 30.6729 21.9291C30.7695 22.2917 30.961 22.6219 31.2288 22.8856C32.7893 24.424 31.2525 27.026 29.1511 26.4034C28.791 26.2962 28.409 26.2883 28.0446 26.3788C27.6802 26.4701 27.3465 26.6563 27.0786 26.9197C26.8108 27.1823 26.6176 27.5125 26.5201 27.8752C26.4226 28.2378 26.4235 28.6198 26.5228 28.9816C27.105 31.0936 24.474 32.5786 22.9662 30.9891C22.7072 30.7169 22.3805 30.5184 22.0196 30.4139C21.6586 30.3103 21.2766 30.305 20.9122 30.399C20.5486 30.4921 20.2167 30.6818 19.9506 30.947C19.6845 31.2122 19.494 31.5441 19.3991 31.9077C18.8476 34.0275 15.8268 33.9994 15.3139 31.8681C15.227 31.5028 15.0435 31.1674 14.7826 30.8969C14.5227 30.6264 14.1943 30.4306 13.8325 30.3296C13.4707 30.2286 13.0878 30.2269 12.7251 30.3235C12.3624 30.4201 12.0323 30.6124 11.7679 30.8802C10.2285 32.4407 7.62741 30.9039 8.25091 28.8025C8.35716 28.4425 8.36595 28.0605 8.27462 27.696C8.18417 27.3316 7.99711 26.9979 7.73454 26.73C7.47109 26.4622 7.14179 26.269 6.77911 26.1715C6.41643 26.0741 6.03443 26.0749 5.67262 26.175C3.55978 26.7564 2.07394 24.1258 3.66429 22.616C3.93652 22.3575 4.13498 22.0308 4.23861 21.67C4.34223 21.3091 4.34749 20.9271 4.25353 20.5634C4.16044 20.1999 3.97076 19.8679 3.70644 19.6019C3.44123 19.336 3.1093 19.1458 2.74662 19.051C0.625864 18.4992 0.654838 15.478 2.78613 14.9658C3.15144 14.8781 3.48603 14.6944 3.7565 14.4338C4.02609 14.1731 4.22192 13.845 4.32291 13.4834C4.42302 13.1217 4.42564 12.7397 4.32904 12.3769C4.23244 12.0141 4.04102 11.6837 3.77406 11.4199C2.21357 9.87994 3.74858 7.27918 5.85001 7.90241C6.21006 8.00876 6.59207 8.01692 6.9565 7.92603C7.32094 7.83523 7.65464 7.64871 7.92248 7.38579C8.19031 7.12287 8.3835 6.79312 8.48097 6.43053C8.57933 6.06802 8.57845 5.68594 8.47921 5.32379C7.897 3.21147 10.528 1.72544 12.0366 3.31605C12.2948 3.58837 12.6215 3.78657 12.9824 3.89019C13.3433 3.99382 13.7253 3.99909 14.0889 3.90547C14.4525 3.81177 14.7844 3.62262 15.0505 3.35759C15.3166 3.09256 15.5062 2.76114 15.6011 2.39785C16.1552 0.277623 19.1761 0.306166 19.6863 2.43754C19.775 2.80163 19.9585 3.13551 20.2193 3.40484C20.4801 3.67417 20.8077 3.86929 21.1686 3.96993C21.5295 4.07057 21.9107 4.0732 22.2725 3.97748C22.6351 3.88176 22.9653 3.69129 23.2297 3.42556Z" fill="#A88CFF"/>
<path id="Vector_2" d="M12.7897 22.3234C12.6014 22.3232 12.4175 22.2651 12.2642 22.1573C12.1095 22.0494 11.9912 21.8967 11.9256 21.7198C11.8613 21.543 11.8511 21.3503 11.8993 21.168C11.946 20.9855 12.0482 20.822 12.1927 20.6995C13.0204 19.9904 14.0933 18.9808 15.3312 17.7997C17.3355 15.9069 19.6083 13.761 21.6798 12.1213C21.7747 12.043 21.8842 11.9843 22.001 11.9489C22.1192 11.9134 22.2433 11.9017 22.3644 11.9147C22.4871 11.9276 22.6053 11.9648 22.7133 12.0241C22.8213 12.0835 22.9162 12.1636 22.9921 12.2599C23.068 12.3564 23.1235 12.4671 23.1571 12.5855C23.1892 12.7039 23.1994 12.8277 23.1834 12.9497C23.1673 13.0716 23.1279 13.1891 23.0666 13.2954C23.0038 13.4016 22.9221 13.4945 22.8243 13.5686C20.8156 15.1503 18.5749 17.2752 16.5998 19.1415C15.34 20.3279 14.2539 21.3534 13.3911 22.0914C13.2262 22.2393 13.0116 22.3218 12.7897 22.3234ZM15.5531 13.558C16.3253 13.558 16.9501 12.9325 16.9501 12.1608C16.9501 11.3892 16.3253 10.7637 15.5531 10.7637C14.7823 10.7637 14.1561 11.3892 14.1561 12.1608C14.1561 12.9325 14.7823 13.558 15.5531 13.558Z" fill="black"/>
<path id="Vector_3" d="M15.5502 14.4815C15.0626 14.4811 14.5882 14.3271 14.1926 14.0414C13.7984 13.7557 13.5036 13.3528 13.3503 12.8901C13.197 12.4273 13.1941 11.9279 13.3401 11.4631C13.4875 10.9983 13.7765 10.5915 14.1678 10.3006C14.559 10.0095 15.0319 9.84919 15.5195 9.84204C16.0071 9.83503 16.4844 9.98174 16.883 10.2613C17.2829 10.5408 17.5836 10.9391 17.7442 11.3995C17.9048 11.8599 17.915 12.359 17.7749 12.826C17.6333 13.3055 17.3399 13.7259 16.9384 14.0245C16.5384 14.323 16.0509 14.4833 15.5502 14.4815ZM15.5502 11.6872C15.4728 11.6871 15.3954 11.707 15.3268 11.7451C15.2582 11.7822 15.1998 11.8357 15.156 11.9008C15.1137 11.9659 15.0874 12.0405 15.0801 12.1181C15.0728 12.1958 15.0845 12.2742 15.1152 12.346C15.1443 12.418 15.1925 12.4815 15.2524 12.5307C15.3137 12.5798 15.3852 12.6134 15.4611 12.6285C15.5385 12.6434 15.6173 12.6391 15.6918 12.6162C15.7662 12.5933 15.8334 12.5523 15.8888 12.4969C15.9443 12.4416 15.9837 12.3736 16.0071 12.2988C16.0246 12.239 16.0304 12.1764 16.0246 12.1145C16.0173 12.0524 15.9998 11.9923 15.9691 11.9374C15.9399 11.8827 15.8991 11.8342 15.8509 11.7948C15.8027 11.7555 15.7473 11.726 15.6874 11.7082C15.6436 11.6946 15.5969 11.6875 15.5502 11.6872ZM19.531 23.3551C20.3032 23.3551 20.928 22.7296 20.928 21.9579C20.928 21.1863 20.3032 20.5606 19.531 20.5606C18.7602 20.5606 18.134 21.1863 18.134 21.9579C18.134 22.7296 18.7602 23.3551 19.531 23.3551Z" fill="black"/>
<path id="Vector_4" d="M18.5707 24.0702C18.8744 24.2074 19.2043 24.2789 19.5371 24.2775C20.0933 24.276 20.6305 24.0745 21.0509 23.7096C21.4713 23.3449 21.7457 22.8413 21.826 22.2907C21.9063 21.7401 21.7852 21.1789 21.4859 20.7099C21.1867 20.2407 20.7297 19.8949 20.1955 19.7352C19.8772 19.6396 19.54 19.6139 19.2101 19.6599C18.8802 19.7059 18.5634 19.8225 18.2831 20.0018C18.0014 20.181 17.762 20.4188 17.5825 20.6988C17.4015 20.9788 17.2832 21.2945 17.235 21.6245C17.1869 21.9544 17.2102 22.2907 17.3051 22.6105C17.3985 22.9304 17.5606 23.2263 17.7781 23.4781C17.997 23.73 18.2671 23.9315 18.5707 24.0702Z" fill="black"/>
<path id="Vector_5" d="M17.36 34.0367H17.331C16.7374 34.0376 16.1613 33.8365 15.6959 33.4676C15.2305 33.0988 14.9047 32.5824 14.7703 32.0037C14.7053 31.735 14.5701 31.4883 14.3778 31.2898C14.1864 31.0905 13.944 30.9464 13.6779 30.8727C13.4118 30.7989 13.1299 30.7972 12.863 30.8683C12.596 30.9394 12.3528 31.0808 12.1587 31.2775C11.7407 31.6973 11.1962 31.9651 10.6087 32.0406C10.0221 32.1153 9.42672 31.9923 8.91738 31.692C8.40805 31.3908 8.01376 30.928 7.79685 30.3783C7.57907 29.8277 7.55186 29.2209 7.71783 28.6527C7.79686 28.3875 7.80301 28.1056 7.73627 27.836C7.66953 27.5673 7.53165 27.3214 7.33758 27.1238C7.1435 26.9254 6.89939 26.784 6.63156 26.712C6.36372 26.6408 6.08183 26.6417 5.81486 26.7163C5.24318 26.8744 4.6346 26.8367 4.08663 26.6092C3.53866 26.3818 3.08204 25.9778 2.79049 25.4606C2.49894 24.9442 2.38829 24.3444 2.4761 23.7576C2.5648 23.1708 2.84668 22.6303 3.27785 22.2222C3.47807 22.0319 3.62473 21.7914 3.70113 21.5256C3.77753 21.2597 3.78105 20.9783 3.71256 20.7104C3.64318 20.4425 3.50443 20.1979 3.3086 20.002C3.11365 19.806 2.86951 19.6659 2.60167 19.5961C2.02824 19.4463 1.52067 19.109 1.16062 18.638C0.799701 18.1669 0.607385 17.5889 0.612654 16.9959C0.618801 16.4028 0.82252 15.8287 1.19135 15.3645C1.56105 14.9004 2.07478 14.5729 2.65086 14.4341C2.91957 14.3696 3.1672 14.2343 3.36567 14.0423C3.56501 13.8504 3.70903 13.6087 3.78367 13.3423C3.85744 13.0758 3.8592 12.7944 3.78807 12.5272C3.71694 12.2598 3.57556 12.0165 3.37885 11.8222C2.95909 11.405 2.69124 10.8598 2.61572 10.2729C2.54107 9.68605 2.66404 9.09092 2.96524 8.58159C3.26557 8.07226 3.72836 7.6777 4.27809 7.46044C4.82869 7.24319 5.43549 7.21552 6.00366 7.38176C6.26886 7.46097 6.55164 7.46756 6.82035 7.40064C7.08907 7.33381 7.33496 7.19603 7.53255 7.00161C7.73013 6.80727 7.87239 6.5634 7.94352 6.29556C8.01465 6.02773 8.01289 5.74566 7.93825 5.4787C7.78106 4.90676 7.81969 4.29863 8.04714 3.75092C8.27546 3.2033 8.67942 2.74745 9.19665 2.4559C9.71301 2.16435 10.3119 2.05379 10.8985 2.1417C11.4851 2.22969 12.0261 2.51114 12.4344 2.94135C12.625 3.1421 12.8647 3.28822 13.1308 3.36471C13.3969 3.4412 13.6779 3.44515 13.9457 3.3763C14.2136 3.30737 14.4586 3.16801 14.6544 2.97279C14.8502 2.77758 14.9907 2.53345 15.0601 2.26578C15.2024 1.69305 15.5343 1.18504 16.0006 0.823849C16.4678 0.46275 17.0421 0.269554 17.6322 0.275525H17.6612C18.2557 0.27491 18.8336 0.476449 19.299 0.846944C19.7644 1.21744 20.0893 1.73511 20.2228 2.31496C20.2869 2.58385 20.4222 2.8307 20.6145 3.02978C20.8059 3.22886 21.0474 3.37296 21.3144 3.44726C21.5804 3.52146 21.8623 3.52313 22.1293 3.45209C22.3963 3.38095 22.6404 3.23966 22.8345 3.04287C23.2516 2.62337 23.7969 2.355 24.3835 2.28001C24.9701 2.20501 25.5655 2.32769 26.0749 2.62873C26.5842 2.92985 26.9785 3.39202 27.1963 3.94228C27.4132 4.49262 27.4413 5.09969 27.2744 5.66742C27.1954 5.93306 27.1892 6.21513 27.256 6.48411C27.3227 6.75309 27.4606 6.99923 27.6547 7.19682C27.8496 7.39449 28.0929 7.53632 28.3607 7.60762C28.6285 7.67893 28.9104 7.677 29.1774 7.60218C29.75 7.44499 30.3576 7.48336 30.9056 7.71125C31.4536 7.93922 31.9093 8.34361 32.2009 8.86014C32.4924 9.37676 32.6031 9.97601 32.5144 10.5626C32.4266 11.1493 32.1456 11.6897 31.7153 12.0981C31.5142 12.2885 31.3684 12.529 31.292 12.7948C31.2156 13.0606 31.2112 13.3421 31.2806 13.61C31.3491 13.8778 31.4887 14.1224 31.6836 14.3184C31.8786 14.5143 32.1227 14.6545 32.3906 14.7243C32.9649 14.874 33.4716 15.2112 33.8325 15.6824C34.1926 16.1534 34.3849 16.7314 34.3796 17.3244C34.3743 17.9176 34.1706 18.4917 33.8009 18.9558C33.4321 19.42 32.9183 19.7475 32.3414 19.8863C32.0727 19.9508 31.8259 20.086 31.6266 20.278C31.4272 20.4699 31.2832 20.7117 31.2094 20.9781C31.1348 21.2445 31.133 21.5259 31.2042 21.7932C31.2753 22.0604 31.4167 22.3039 31.6134 22.4982C32.0332 22.9154 32.3019 23.4606 32.3765 24.0475C32.4512 24.6342 32.3291 25.2296 32.0279 25.739C31.7267 26.2483 31.2648 26.6426 30.7142 26.8595C30.1636 27.0773 29.5567 27.1045 28.9886 26.9385C28.7234 26.8595 28.4415 26.8533 28.1728 26.9201C27.9032 26.9868 27.6573 27.1247 27.4597 27.3188C27.2621 27.5128 27.1199 27.757 27.0479 28.0248C26.9767 28.2926 26.9785 28.5745 27.0522 28.8415C27.2094 29.4132 27.1708 30.0209 26.9425 30.568C26.715 31.115 26.3102 31.5708 25.7947 31.8615C25.2784 32.153 24.6795 32.2637 24.0937 32.1767C23.5071 32.0889 22.9671 31.8088 22.5587 31.3794C22.3681 31.1783 22.1275 31.0325 21.8615 30.9552C21.5963 30.8788 21.3144 30.8753 21.0465 30.9438C20.7787 31.0132 20.5337 31.1519 20.3378 31.3478C20.142 31.5427 20.0024 31.7868 19.9321 32.0547C19.7881 32.6255 19.4562 33.1322 18.9899 33.4913C18.5227 33.8505 17.9493 34.0428 17.36 34.0367ZM13.2476 29.6951C13.4935 29.6951 13.7385 29.7293 13.9756 29.7943C14.434 29.9199 14.8494 30.1666 15.1787 30.5082C15.5071 30.8507 15.7381 31.2749 15.8452 31.7377C15.9242 32.0758 16.1148 32.3778 16.3861 32.5947C16.6566 32.8117 16.9929 32.932 17.3398 32.9355C17.6876 32.939 18.0257 32.8257 18.3014 32.6141C18.5763 32.4024 18.773 32.1039 18.8582 31.7675C18.9776 31.3082 19.2182 30.8894 19.5537 30.5539C19.89 30.2193 20.3089 29.9796 20.769 29.861C21.2283 29.7425 21.7113 29.7495 22.1671 29.8804C22.6228 30.0112 23.0355 30.2624 23.3622 30.6066C23.6002 30.8577 23.9155 31.0228 24.258 31.0747C24.6004 31.1256 24.9499 31.0615 25.2511 30.8911C25.5532 30.7216 25.7886 30.4556 25.9212 30.135C26.0538 29.8154 26.0757 29.4606 25.9835 29.1269C25.8571 28.6694 25.8553 28.1864 25.9791 27.728C26.1021 27.2696 26.3462 26.8525 26.6852 26.5205C27.0233 26.1886 27.4457 25.9532 27.9058 25.8391C28.3669 25.7249 28.8498 25.7354 29.3047 25.8716C29.6358 25.969 29.9906 25.9532 30.312 25.8268C30.6343 25.7003 30.9039 25.4694 31.0795 25.1717C31.2551 24.874 31.3262 24.5262 31.2815 24.1837C31.2376 23.8408 31.0795 23.5228 30.8336 23.28C30.4955 22.9467 30.2531 22.5291 30.1311 22.0705C30.009 21.6121 30.0116 21.1292 30.139 20.6721C30.2663 20.2149 30.5139 19.8001 30.8547 19.4707C31.1963 19.1413 31.6204 18.9091 32.0815 18.7983C32.4195 18.7193 32.7216 18.529 32.9385 18.258C33.1554 17.987 33.2758 17.6509 33.2793 17.3036C33.2828 16.9563 33.1695 16.618 32.9579 16.3427C32.7462 16.0674 32.4485 15.871 32.1113 15.7852C31.652 15.6656 31.2332 15.4252 30.8986 15.0893C30.5631 14.7532 30.3243 14.3337 30.2057 13.8741C30.0872 13.4145 30.0942 12.9316 30.225 12.4754C30.3559 12.0193 30.6062 11.6065 30.9504 11.2798C31.2007 11.0417 31.3649 10.7269 31.4158 10.3853C31.4668 10.0436 31.4026 9.69474 31.2323 9.39389C31.0628 9.09312 30.7976 8.85751 30.4788 8.72455C30.16 8.5916 29.8061 8.56886 29.4724 8.66001C29.0149 8.78629 28.5319 8.78796 28.0735 8.66466C27.6151 8.54128 27.1989 8.29759 26.8661 7.9588C26.5341 7.61991 26.2979 7.19831 26.1837 6.73772C26.0696 6.27704 26.0801 5.79414 26.2154 5.33916C26.3137 5.00757 26.2988 4.65253 26.1723 4.3306C26.0459 4.00858 25.8149 3.7381 25.5172 3.56221C25.2195 3.38631 24.8709 3.31501 24.5284 3.35971C24.1851 3.40441 23.8672 3.56247 23.6239 3.80879C23.2911 4.14653 22.8731 4.38909 22.4147 4.51115C21.9563 4.63321 21.4733 4.63049 21.0158 4.50316C20.5591 4.37591 20.1438 4.12862 19.8145 3.7871C19.4852 3.44559 19.2533 3.02214 19.1427 2.56076C19.0628 2.22258 18.8731 1.92084 18.6017 1.70385C18.3304 1.48677 17.994 1.36708 17.6472 1.36374C17.2994 1.36049 16.9613 1.47386 16.6865 1.68567C16.4107 1.89757 16.2149 2.19562 16.1297 2.53222C16.0094 2.99149 15.7697 3.41037 15.4333 3.74548C15.097 4.08067 14.6781 4.3198 14.218 4.43826C13.7587 4.55664 13.2757 4.55005 12.8199 4.41903C12.3633 4.28792 11.9506 4.03729 11.6239 3.69305C11.3859 3.44278 11.0706 3.27909 10.729 3.22807C10.3874 3.17696 10.0388 3.24142 9.73759 3.41117C9.43726 3.58092 9.20193 3.84621 9.06845 4.16498C8.93584 4.48384 8.91299 4.83791 9.00432 5.17108C9.1299 5.62755 9.13166 6.10922 9.00872 6.56656C8.88665 7.02382 8.64428 7.44016 8.30707 7.77263C7.96986 8.10501 7.55011 8.3415 7.09083 8.45759C6.63243 8.57377 6.15031 8.56534 5.6963 8.43318C5.36436 8.33474 5.00959 8.34993 4.6873 8.47647C4.36502 8.60293 4.09454 8.83345 3.91891 9.13132C3.74328 9.42919 3.67215 9.77729 3.71605 10.1203C3.76084 10.4634 3.91892 10.7816 4.16568 11.0245C4.50289 11.3577 4.74614 11.7751 4.86821 12.2336C4.99027 12.6921 4.98763 13.1748 4.8603 13.6319C4.73296 14.089 4.48621 14.5038 4.14461 14.8334C3.80388 15.1629 3.38061 15.3951 2.9187 15.5061C2.58061 15.5852 2.2794 15.7755 2.06162 16.0465C1.84471 16.3175 1.72439 16.6536 1.72088 17.0008C1.71737 17.3482 1.83066 17.6865 2.0423 17.9619C2.25481 18.2372 2.5525 18.4335 2.88883 18.5193C3.34811 18.6386 3.767 18.8787 4.10246 19.2146C4.43791 19.5505 4.67676 19.9699 4.79531 20.4294C4.91386 20.889 4.90684 21.3718 4.776 21.8278C4.64515 22.2839 4.394 22.6966 4.04976 23.0231C3.79948 23.2611 3.63614 23.576 3.58433 23.9176C3.5334 24.2593 3.59839 24.6079 3.76787 24.9091C3.93736 25.2094 4.20257 25.4457 4.52134 25.5783C4.84011 25.7117 5.19488 25.7337 5.52771 25.6432C5.98523 25.5168 6.46821 25.5159 6.92661 25.6388C7.385 25.7627 7.80213 26.0068 8.13407 26.3458C8.46602 26.6847 8.70224 27.1063 8.8164 27.5664C8.93057 28.0274 8.92002 28.5104 8.78478 28.9653C8.68731 29.2964 8.70311 29.6512 8.82957 29.9734C8.95602 30.2948 9.187 30.5644 9.48469 30.7401C9.78239 30.9157 10.1301 30.9868 10.4726 30.9429C10.816 30.8981 11.1339 30.7401 11.3762 30.4942C11.6195 30.243 11.9101 30.0428 12.2316 29.9058C12.553 29.768 12.8981 29.6968 13.2476 29.6951Z" fill="#A88CFF"/>
</g>
</svg>
