<svg width="14" height="14" viewBox="0 0 14 14" fill="none" xmlns="http://www.w3.org/2000/svg">
<g id="Frame 37138">
<path id="Vector" d="M6.99003 13.5301C10.3885 13.5301 13.1434 10.7752 13.1434 7.37669C13.1434 3.97823 10.3885 1.22382 6.99003 1.22382C3.59156 1.22382 0.837158 3.97823 0.837158 7.37669C0.837158 10.7752 3.59156 13.5301 6.99003 13.5301Z" fill="#FFF129"/>
<path id="Vector_2" d="M6.98981 13.8455C5.71036 13.8455 4.45994 13.4662 3.39636 12.7555C2.33227 12.0447 1.50339 11.0341 1.01361 9.85237C0.524331 8.67016 0.396031 7.36983 0.646015 6.11482C0.895491 4.86031 1.51154 3.70764 2.41576 2.80291C3.32049 1.89869 4.47316 1.28264 5.72767 1.03316C6.98268 0.783177 8.28302 0.911477 9.46523 1.40075C10.6469 1.89054 11.6576 2.71941 12.3683 3.7835C13.0791 4.84708 13.4584 6.09751 13.4584 7.37696C13.4563 9.09173 12.7741 10.7362 11.5613 11.9485C10.3491 13.1612 8.70457 13.8435 6.98981 13.8455ZM6.98981 1.53975C5.8351 1.53975 4.70635 1.88239 3.74612 2.5239C2.78641 3.16541 2.03798 4.07727 1.59605 5.1439C1.15413 6.21105 1.03906 7.3846 1.2641 8.51691C1.48964 9.64974 2.04562 10.6899 2.86228 11.506C3.67842 12.3227 4.71908 12.8787 5.8514 13.1037C6.98422 13.3287 8.15777 13.2132 9.22441 12.7712C10.291 12.3293 11.2029 11.5809 11.8444 10.6207C12.4859 9.66043 12.8281 8.53168 12.8275 7.37696C12.8245 5.83022 12.2084 4.34762 11.1143 3.25451C10.0197 2.16089 8.53656 1.54636 6.98981 1.54433V1.53975Z" fill="#FFF129"/>
<path id="Vector_3" d="M6.90801 10.4654C6.02059 10.4771 5.16168 10.1518 4.50541 9.55456C4.44431 9.49754 4.40918 9.41811 4.40664 9.33462C4.40409 9.25112 4.43515 9.16965 4.49268 9.10907C4.55021 9.04797 4.62964 9.01284 4.71314 9.0103C4.79664 9.00775 4.87759 9.03881 4.93868 9.09634C5.4636 9.59173 6.2212 9.86106 7.02003 9.83305C7.81886 9.80505 8.55659 9.4843 9.04536 8.95328C9.10238 8.8932 9.18078 8.85756 9.26326 8.85501C9.34625 8.85195 9.4267 8.88199 9.48779 8.938C9.54889 8.994 9.58504 9.0719 9.58911 9.15438C9.59318 9.23737 9.56467 9.31832 9.50917 9.37993C8.90687 10.0347 8.00723 10.4293 7.04141 10.4608C6.99762 10.4644 6.9523 10.4654 6.90801 10.4654Z" fill="black"/>
<path id="Vector_4" d="M5.02218 6.85803C4.89846 6.85854 4.77728 6.82188 4.67443 6.75315C4.57159 6.68442 4.49114 6.58717 4.4438 6.47262C4.39645 6.35857 4.38423 6.23282 4.40816 6.11164C4.43209 5.98996 4.49166 5.87846 4.57923 5.7914C4.6668 5.70383 4.77831 5.64426 4.89948 5.61982C5.02065 5.59589 5.1464 5.60862 5.26096 5.65597C5.375 5.70332 5.47276 5.78376 5.54149 5.88661C5.60971 5.98945 5.64637 6.11012 5.64637 6.23384C5.64587 6.39931 5.58018 6.55815 5.46308 6.67525C5.34598 6.79184 5.18764 6.85803 5.02218 6.85803ZM5.01606 6.23384C5.01606 6.23537 5.01708 6.23689 5.0181 6.23791C5.01912 6.23893 5.02065 6.23944 5.02218 6.23944V6.23384H5.01606ZM8.96134 6.85803C8.83762 6.85854 8.71696 6.82188 8.61412 6.75315C8.51076 6.68442 8.43083 6.58717 8.38348 6.47262C8.33613 6.35857 8.3234 6.23282 8.34733 6.11164C8.37177 5.98996 8.43133 5.87846 8.5189 5.7914C8.60596 5.70383 8.71747 5.64426 8.83915 5.61982C8.96032 5.59589 9.08608 5.60862 9.20013 5.65597C9.31468 5.70332 9.41193 5.78376 9.48066 5.88661C9.5494 5.98945 9.58604 6.11012 9.58553 6.23384C9.58553 6.39931 9.51936 6.55815 9.40276 6.67525C9.28566 6.79184 9.1268 6.85803 8.96134 6.85803ZM8.95523 6.23384C8.95523 6.23537 8.95625 6.23689 8.95727 6.23791C8.95829 6.23893 8.95981 6.23944 8.96134 6.23944V6.23384H8.95523Z" fill="black"/>
</g>
</svg>
