<svg width="38" height="38" viewBox="0 0 38 38" fill="none" xmlns="http://www.w3.org/2000/svg">
<g id="Group 2">
<path id="Vector" d="M18.9998 36.5394C28.6874 36.5394 36.5409 28.6854 36.5409 18.9982C36.5409 9.31022 28.6874 1.45703 18.9998 1.45703C9.31211 1.45703 1.45876 9.31022 1.45876 18.9982C1.45876 28.6854 9.31211 36.5394 18.9998 36.5394Z" fill="#FFF129"/>
<path id="Vector_2" d="M19 37.0612C15.4272 37.0612 11.9346 36.0024 8.96388 34.0171C5.99319 32.0325 3.67774 29.2113 2.31046 25.9102C0.943093 22.609 0.585282 18.9769 1.28219 15.4728C1.9791 11.9687 3.69945 8.74993 6.22574 6.22314C8.75196 3.69717 11.9707 1.97633 15.4748 1.27934C18.979 0.581517 22.6112 0.939148 25.9121 2.30651C29.213 3.67388 32.0345 5.98858 34.0197 8.95952C36.0048 11.9296 37.0645 15.4221 37.0649 18.9952C37.0597 23.7851 35.1549 28.3771 31.7682 31.7639C28.3815 35.1507 23.7897 37.0562 19 37.0612ZM19 1.97965C15.6343 1.97965 12.3441 2.97772 9.54559 4.84745C6.74707 6.71718 4.56594 9.3754 3.27801 12.4844C1.98999 15.5942 1.65314 19.016 2.30988 22.3171C2.96661 25.6182 4.58749 28.6507 6.96756 31.0303C9.34756 33.4099 12.3799 35.0309 15.681 35.6872C18.9822 36.3434 22.4038 36.0065 25.5133 34.7182C28.6227 33.4298 31.2804 31.2482 33.1501 28.4495C35.0198 25.6515 36.0176 22.3612 36.0173 18.9952C36.0117 14.4839 34.217 10.1589 31.0269 6.9692C27.8367 3.77868 23.5114 1.98464 19 1.97965Z" fill="#FFF129"/>
<path id="Vector_3" d="M18.9998 20.5242C18.6979 20.5242 18.4028 20.4343 18.1517 20.2671C17.9007 20.0991 17.7051 19.8604 17.5896 19.5818C17.474 19.3032 17.4438 18.9963 17.5027 18.7002C17.5615 18.4041 17.7069 18.1321 17.9204 17.9183C18.1339 17.7046 18.4059 17.5599 18.702 17.5008C18.9981 17.4418 19.305 17.4717 19.584 17.5873C19.8629 17.7029 20.1013 17.8984 20.2691 18.1496C20.4367 18.4007 20.5263 18.696 20.5263 18.9979C20.5255 19.4021 20.3644 19.7897 20.0784 20.0759C19.7922 20.362 19.4044 20.5233 18.9998 20.5242ZM18.9998 18.5189C18.9051 18.5189 18.8125 18.5471 18.7338 18.5995C18.655 18.6519 18.5936 18.7268 18.5574 18.8141C18.5211 18.9023 18.5116 18.9979 18.5301 19.0911C18.5486 19.1842 18.5942 19.2691 18.6612 19.3364C18.7281 19.403 18.8135 19.4487 18.9064 19.467C18.9993 19.4862 19.0956 19.4762 19.1831 19.4404C19.2706 19.4038 19.3454 19.3423 19.398 19.2641C19.4506 19.1851 19.4787 19.0927 19.4787 18.9979C19.4783 18.8707 19.4278 18.7493 19.338 18.6594C19.2483 18.5696 19.1267 18.5189 18.9998 18.5189ZM18.9999 6.52863C18.861 6.52863 18.7278 6.47292 18.6296 6.37478C18.5313 6.27663 18.4761 6.14354 18.4761 6.00464V2.98298C18.4761 2.84408 18.5313 2.71099 18.6296 2.61284C18.7278 2.5147 18.861 2.45898 18.9999 2.45898C19.1388 2.45898 19.2721 2.5147 19.3703 2.61284C19.4685 2.71099 19.5237 2.84408 19.5237 2.98298V5.99883C19.5245 6.06787 19.5115 6.13689 19.4856 6.20094C19.4596 6.26498 19.4211 6.32404 19.3725 6.37311C19.3237 6.42218 19.2657 6.46126 19.2018 6.48788C19.1378 6.5145 19.0692 6.52863 18.9999 6.52863ZM18.9999 35.2158C18.861 35.2158 18.7278 35.1609 18.6296 35.0628C18.5313 34.9638 18.4761 34.8308 18.4761 34.6919V31.6768C18.4761 31.5379 18.5313 31.404 18.6296 31.3059C18.7278 31.2077 18.861 31.1528 18.9999 31.1528C19.1388 31.1528 19.2721 31.2077 19.3703 31.3059C19.4685 31.404 19.5237 31.5379 19.5237 31.6768V34.6919C19.5237 34.8308 19.4685 34.9638 19.3703 35.0628C19.2721 35.1609 19.1388 35.2158 18.9999 35.2158ZM34.8514 19.3647H31.8359C31.697 19.3647 31.5637 19.309 31.4655 19.2109C31.3673 19.1127 31.312 18.9796 31.312 18.8407C31.312 18.7018 31.3673 18.5688 31.4655 18.4706C31.5637 18.3716 31.697 18.3167 31.8359 18.3167H34.8514C34.9903 18.3167 35.1235 18.3716 35.2217 18.4706C35.32 18.5688 35.3752 18.7018 35.3752 18.8407C35.3752 18.9796 35.32 19.1127 35.2217 19.2109C35.1235 19.309 34.9903 19.3647 34.8514 19.3647ZM6.16401 19.3647H3.14849C3.00959 19.3647 2.87635 19.309 2.77812 19.2109C2.67989 19.1127 2.62466 18.9796 2.62466 18.8407C2.62466 18.7018 2.67989 18.5688 2.77812 18.4706C2.87635 18.3716 3.00959 18.3167 3.14849 18.3167H6.16401C6.30291 18.3167 6.43615 18.3716 6.53438 18.4706C6.63261 18.5688 6.68783 18.7018 6.68783 18.8407C6.68783 18.9796 6.63261 19.1127 6.53438 19.2109C6.43615 19.309 6.30291 19.3647 6.16401 19.3647ZM11.7341 6.61347C11.6429 6.61347 11.5535 6.58851 11.4746 6.54277C11.3958 6.49702 11.3305 6.43133 11.2851 6.35148L10.7075 5.35341C10.6419 5.23364 10.6257 5.09308 10.6627 4.96083C10.6996 4.82942 10.7866 4.71714 10.905 4.64894C11.0236 4.5799 11.1641 4.56076 11.2966 4.59486C11.4292 4.62896 11.5432 4.71297 11.6144 4.83025L12.1921 5.82832C12.2611 5.94809 12.2797 6.09115 12.2438 6.22506C12.2079 6.35897 12.1204 6.47373 12.0005 6.5436C11.9197 6.59018 11.8277 6.61513 11.7341 6.61347ZM31.5724 11.9207C31.4572 11.9207 31.3451 11.8825 31.2537 11.8126C31.1623 11.7419 31.0966 11.6438 31.0668 11.5323C31.0369 11.4209 31.0446 11.3028 31.0887 11.1963C31.1328 11.0899 31.2107 11.0009 31.3105 10.9435L32.3087 10.3671C32.3683 10.3305 32.4346 10.3072 32.5037 10.2964C32.5727 10.2864 32.6431 10.2897 32.7108 10.3072C32.7784 10.3246 32.8418 10.3546 32.8975 10.397C32.9531 10.4394 32.9998 10.4918 33.0347 10.5526C33.0696 10.6133 33.0921 10.6798 33.1008 10.7488C33.1096 10.8187 33.1043 10.8886 33.0854 10.9559C33.0667 11.0233 33.0345 11.0857 32.9911 11.1406C32.9477 11.1955 32.8937 11.2404 32.8325 11.2737L31.8343 11.85C31.7548 11.8966 31.6644 11.9207 31.5724 11.9207ZM5.42926 27.0299C5.31406 27.0299 5.20203 26.9917 5.11062 26.921C5.01913 26.8511 4.95343 26.753 4.92365 26.6415C4.89379 26.5301 4.90153 26.412 4.94561 26.3055C4.98961 26.1991 5.06762 26.1101 5.16735 26.0527L6.16559 25.4763C6.22522 25.4397 6.29151 25.4164 6.36055 25.4056C6.42958 25.3956 6.49995 25.3989 6.56765 25.4164C6.63527 25.4339 6.69873 25.4638 6.75437 25.5062C6.81001 25.5486 6.85667 25.601 6.89161 25.6618C6.92646 25.7225 6.949 25.789 6.95773 25.8581C6.96638 25.9279 6.96122 25.9978 6.94234 26.0652C6.92355 26.1325 6.89144 26.1949 6.84802 26.2498C6.80452 26.3047 6.75063 26.3496 6.68933 26.3829L5.69117 26.9593C5.61166 27.0058 5.52125 27.0299 5.42926 27.0299ZM26.8433 32.7647C26.7522 32.7639 26.6628 32.7389 26.5841 32.6932C26.5053 32.6475 26.4399 32.5817 26.3943 32.5027L25.8167 31.5047C25.7822 31.4448 25.7598 31.3791 25.7507 31.3109C25.7416 31.2427 25.7461 31.1736 25.7638 31.1071C25.7815 31.0405 25.8121 30.9782 25.854 30.9233C25.8958 30.8684 25.948 30.8226 26.0075 30.7885C26.0671 30.7536 26.1329 30.7312 26.2011 30.722C26.2693 30.7129 26.3386 30.7178 26.4051 30.7353C26.4715 30.7528 26.5339 30.7836 26.5886 30.826C26.6432 30.8676 26.6891 30.9199 26.7236 30.979L27.3013 31.9771C27.3708 32.0977 27.3896 32.2407 27.3537 32.3755C27.3178 32.5094 27.2301 32.6242 27.1097 32.694C27.0289 32.7414 26.9369 32.7656 26.8433 32.7647ZM6.41686 11.9374C6.32537 11.9374 6.23554 11.9124 6.15652 11.8667L5.15678 11.292C5.03635 11.2229 4.94844 11.1081 4.91234 10.9734C4.87624 10.8395 4.89504 10.6964 4.96449 10.5758C5.03394 10.4552 5.14838 10.3679 5.28271 10.3313C5.41703 10.2955 5.56009 10.3138 5.68061 10.3837L6.67877 10.9601C6.77857 11.0175 6.85651 11.1065 6.90059 11.2129C6.94467 11.3194 6.95241 11.4375 6.92255 11.549C6.89269 11.6604 6.82698 11.7585 6.73558 11.8284C6.64417 11.8991 6.53213 11.9365 6.41686 11.9374ZM26.2492 6.60515C26.1577 6.60515 26.0678 6.58021 25.9888 6.53446C25.9292 6.50036 25.8768 6.45461 25.8348 6.39971C25.7928 6.34565 25.762 6.28327 25.7441 6.21673C25.7261 6.1502 25.7215 6.08117 25.7304 6.01296C25.7392 5.94476 25.7614 5.87905 25.7957 5.81917L26.3719 4.82109C26.4045 4.75788 26.4494 4.70215 26.5041 4.65724C26.5586 4.61233 26.6218 4.57906 26.6897 4.5591C26.7576 4.53914 26.8288 4.53332 26.899 4.54164C26.9692 4.54996 27.0371 4.57242 27.0984 4.60818C27.1597 4.64311 27.2132 4.69052 27.2557 4.74707C27.2982 4.80363 27.3288 4.86851 27.3457 4.93671C27.3626 5.00574 27.3653 5.07728 27.3538 5.14714C27.3424 5.21701 27.3168 5.28353 27.2788 5.34342L26.7042 6.34316C26.6579 6.42301 26.5916 6.48872 26.5118 6.53446C26.4319 6.58104 26.3414 6.60515 26.2492 6.60515ZM11.1744 32.7647C11.0827 32.7647 10.9925 32.7406 10.9126 32.6957C10.7923 32.6258 10.7046 32.5119 10.6687 32.378C10.6328 32.2432 10.6516 32.1002 10.7211 31.9804L11.2957 30.9807C11.3652 30.8601 11.4796 30.7719 11.6139 30.7361C11.7482 30.7004 11.8913 30.7187 12.0118 30.7885C12.1323 30.8576 12.2202 30.9723 12.2563 31.1063C12.2923 31.241 12.2736 31.3841 12.2041 31.5047L11.6279 32.5027C11.5822 32.5826 11.5162 32.6483 11.4365 32.6949C11.3568 32.7406 11.2664 32.7647 11.1744 32.7647ZM32.581 27.0117C32.4893 27.0117 32.399 26.9884 32.3192 26.9426L31.3209 26.3671C31.2581 26.3338 31.2026 26.2889 31.1576 26.2348C31.1127 26.1799 31.0792 26.1167 31.0593 26.0493C31.0394 25.9811 31.0335 25.9096 31.0419 25.8397C31.0502 25.769 31.0727 25.7017 31.1081 25.6401C31.1434 25.5794 31.1907 25.5254 31.2472 25.4829C31.3038 25.4405 31.3684 25.4097 31.4371 25.3931C31.5058 25.3765 31.5772 25.3731 31.647 25.3848C31.7168 25.3964 31.7835 25.4222 31.8433 25.4596L32.8429 26.0344C32.9427 26.0926 33.0207 26.1816 33.0647 26.288C33.1088 26.3945 33.1166 26.5126 33.0867 26.6232C33.0568 26.7347 32.9911 26.8337 32.8997 26.9035C32.8083 26.9734 32.6963 27.0117 32.581 27.0117Z" fill="black"/>
<path id="Vector_4" d="M19 18.5187C18.8611 18.5187 18.7279 18.4638 18.6297 18.3657C18.5314 18.2667 18.4762 18.1336 18.4762 17.9947V9.01535C18.4762 8.87645 18.5314 8.74336 18.6297 8.64521C18.7279 8.54707 18.8611 8.49219 19 8.49219C19.1389 8.49219 19.2722 8.54707 19.3704 8.64521C19.4686 8.74336 19.5238 8.87645 19.5238 9.01535V17.9947C19.5238 18.1336 19.4686 18.2667 19.3704 18.3657C19.2722 18.4638 19.1389 18.5187 19 18.5187ZM19 27.8124C18.8611 27.8124 18.7279 27.7567 18.6297 27.6586C18.5314 27.5604 18.4762 27.4274 18.4762 27.2885V20C18.4762 19.8611 18.5314 19.728 18.6297 19.6299C18.7279 19.5317 18.8611 19.4768 19 19.4768C19.1389 19.4768 19.2722 19.5317 19.3704 19.6299C19.4686 19.728 19.5238 19.8611 19.5238 20V27.2885C19.5238 27.4274 19.4686 27.5604 19.3704 27.6586C19.2722 27.7567 19.1389 27.8124 19 27.8124Z" fill="black"/>
<path id="Vector_5" d="M18.9824 29.0062C18.8828 29.007 18.7852 28.9787 18.701 28.9255C18.6167 28.8731 18.5493 28.7974 18.5064 28.7076L17.4424 26.4029C17.4049 26.3222 17.3882 26.234 17.3938 26.1459C17.3995 26.0577 17.4274 25.972 17.4748 25.898C17.5223 25.8232 17.5878 25.7616 17.6653 25.7192C17.7428 25.6768 17.8299 25.6543 17.9183 25.6543H20.0031C20.0903 25.6543 20.1761 25.6759 20.2529 25.7175C20.3296 25.7591 20.3947 25.819 20.4423 25.8922C20.4899 25.9654 20.5184 26.0494 20.5253 26.1367C20.5322 26.2232 20.5173 26.3105 20.4819 26.3904L19.4613 28.6951C19.4206 28.7874 19.3542 28.8656 19.2701 28.9213C19.1859 28.9762 19.0875 29.0062 18.9869 29.0062H18.9824ZM18.7369 26.7015L18.9719 27.2121L19.1979 26.7015H18.7369Z" fill="black"/>
</g>
</svg>
