<svg width="237" height="238" viewBox="0 0 237 238" fill="none" xmlns="http://www.w3.org/2000/svg">
<g id="Group 2">
<path id="Vector" d="M158.74 22.2394C169.532 11.2868 187.8 22.0613 183.424 36.8093C182.672 39.3369 182.617 42.0198 183.252 44.5789C183.887 47.138 185.193 49.4801 187.042 51.3631C188.891 53.246 191.203 54.6001 193.748 55.2861C196.3 55.9721 198.981 55.9641 201.52 55.2633C216.35 51.1788 226.766 69.6446 215.616 80.2298C213.706 82.0443 212.313 84.3365 211.585 86.8691C210.858 89.4023 210.821 92.0834 211.481 94.6357C212.134 97.1874 213.465 99.5172 215.32 101.384C217.182 103.25 219.512 104.585 222.057 105.251C236.942 109.136 236.738 130.34 221.78 133.924C219.222 134.546 216.874 135.839 214.981 137.672C213.089 139.504 211.721 141.809 211.018 144.347C210.316 146.885 210.303 149.565 210.981 152.11C211.659 154.655 213.003 156.972 214.883 158.823C225.835 169.62 215.049 187.883 200.3 183.513C197.773 182.761 195.092 182.705 192.534 183.34C189.976 183.981 187.634 185.288 185.754 187.137C183.874 188.98 182.518 191.297 181.834 193.843C181.15 196.388 181.156 199.069 181.853 201.609C185.939 216.432 167.473 226.854 156.891 215.698C155.072 213.788 152.78 212.395 150.246 211.661C147.713 210.934 145.032 210.897 142.474 211.557C139.922 212.21 137.593 213.541 135.725 215.403C133.858 217.264 132.52 219.594 131.854 222.145C127.984 237.024 106.781 236.827 103.182 221.868C102.572 219.304 101.283 216.95 99.4529 215.051C97.6285 213.153 95.3235 211.778 92.7841 211.07C90.2448 210.361 87.5574 210.348 85.0119 211.026C82.4664 211.704 80.149 213.054 78.2938 214.934C67.4892 225.887 49.2329 215.1 53.609 200.351C54.3548 197.824 54.4164 195.143 53.7754 192.585C53.1406 190.027 51.8276 187.685 49.9848 185.805C48.1357 183.926 45.8245 182.57 43.279 181.885C40.7334 181.201 38.0523 181.207 35.5129 181.91C20.6835 185.99 10.255 167.527 21.4171 156.93C23.3278 155.116 24.7207 152.823 25.448 150.291C26.1753 147.758 26.2123 145.076 25.5528 142.524C24.8994 139.973 23.5681 137.643 21.7129 135.776C19.8515 133.909 17.5218 132.574 14.9763 131.909C0.0914433 128.036 0.294809 106.831 15.2536 103.236C17.8176 102.621 20.1659 101.332 22.0643 99.5024C23.9565 97.6725 25.3309 95.3698 26.0397 92.8317C26.7423 90.2935 26.7607 87.6124 26.0827 85.0657C25.4048 82.5195 24.0612 80.2002 22.1875 78.3487C11.235 67.5404 22.0087 49.2866 36.7579 53.6609C39.285 54.4072 41.9661 54.4646 44.524 53.8266C47.0818 53.1893 49.424 51.8802 51.3038 50.0348C53.1837 48.1895 54.5396 45.8751 55.2237 43.3302C55.914 40.7859 55.9079 38.1042 55.2114 35.5624C51.125 20.7367 69.5908 10.3068 80.1797 21.4708C81.9918 23.3821 84.2846 24.7732 86.8178 25.5005C89.351 26.2278 92.0321 26.2648 94.5838 25.6077C97.1355 24.9501 99.4653 23.6225 101.333 21.7623C103.2 19.9022 104.532 17.5761 105.197 15.0262C109.087 0.145098 130.289 0.345428 133.87 15.3048C134.492 17.8602 135.781 20.2036 137.611 22.0939C139.442 23.9843 141.741 25.3538 144.274 26.0601C146.807 26.7665 149.482 26.785 152.021 26.1131C154.567 25.4413 156.884 24.1044 158.74 22.2394Z" fill="#FFF129"/>
<path id="Vector_2" d="M85.4662 154.878C84.1445 154.877 82.8534 154.469 81.7777 153.712C80.6916 152.955 79.8619 151.883 79.4008 150.642C78.95 149.401 78.8781 148.048 79.2162 146.769C79.5441 145.488 80.2613 144.341 81.2756 143.481C87.0849 138.504 94.6155 131.418 103.304 123.128C117.371 109.843 133.324 94.7821 147.862 83.2731C148.528 82.7239 149.297 82.3121 150.117 82.0631C150.946 81.8142 151.817 81.7322 152.668 81.8234C153.528 81.9135 154.358 82.1748 155.116 82.5908C155.875 83.0078 156.54 83.5702 157.073 84.2465C157.606 84.9237 157.995 85.7004 158.231 86.5313C158.456 87.3622 158.528 88.231 158.415 89.0876C158.303 89.9431 158.026 90.7679 157.596 91.5137C157.155 92.2596 156.581 92.9113 155.895 93.4317C141.797 104.533 126.07 119.447 112.208 132.546C103.366 140.872 95.7425 148.07 89.6873 153.25C88.5295 154.288 87.0235 154.867 85.4662 154.878ZM104.861 93.357C110.281 93.357 114.666 88.9667 114.666 83.5508C114.666 78.135 110.281 73.7446 104.861 73.7446C99.4515 73.7446 95.056 78.135 95.056 83.5508C95.056 88.9667 99.4515 93.357 104.861 93.357Z" fill="black"/>
<path id="Vector_3" d="M104.843 99.8326C101.421 99.8295 98.0906 98.7486 95.3141 96.7435C92.5477 94.7384 90.4783 91.9106 89.4025 88.6628C88.3267 85.4149 88.3062 81.9098 89.3307 78.6476C90.3656 75.3853 92.3941 72.5299 95.14 70.4879C97.8858 68.4449 101.205 67.32 104.627 67.2697C108.05 67.2206 111.4 68.2503 114.197 70.2123C117.004 72.1744 119.115 74.9694 120.242 78.2009C121.369 81.4324 121.441 84.9353 120.457 88.2129C119.463 91.5786 117.404 94.5294 114.586 96.6247C111.779 98.7199 108.357 99.8449 104.843 99.8326ZM104.843 80.2203C104.3 80.2193 103.757 80.3596 103.275 80.627C102.793 80.8873 102.384 81.2623 102.076 81.7192C101.779 82.1762 101.595 82.6997 101.544 83.2448C101.492 83.7899 101.574 84.3401 101.789 84.8442C101.994 85.3493 102.332 85.7949 102.752 86.1402C103.183 86.4855 103.685 86.7212 104.218 86.8267C104.761 86.9312 105.314 86.9015 105.836 86.7406C106.359 86.5798 106.83 86.2919 107.22 85.9036C107.609 85.5153 107.886 85.0378 108.05 84.5132C108.173 84.0931 108.213 83.6536 108.172 83.2192C108.121 82.7837 107.998 82.3617 107.783 81.9764C107.578 81.5922 107.291 81.2521 106.953 80.9754C106.615 80.6998 106.226 80.4928 105.806 80.3678C105.499 80.2725 105.17 80.2224 104.843 80.2203ZM132.783 162.113C138.203 162.113 142.588 157.723 142.588 152.307C142.588 146.891 138.203 142.5 132.783 142.5C127.373 142.5 122.977 146.891 122.977 152.307C122.977 157.723 127.373 162.113 132.783 162.113Z" fill="black"/>
<path id="Vector_4" d="M126.042 167.143C128.173 168.106 130.489 168.608 132.825 168.598C136.728 168.588 140.499 167.174 143.45 164.612C146.4 162.053 148.326 158.518 148.89 154.654C149.454 150.789 148.603 146.851 146.503 143.559C144.403 140.266 141.196 137.838 137.446 136.718C135.212 136.046 132.845 135.866 130.53 136.189C128.214 136.512 125.991 137.33 124.024 138.588C122.046 139.847 120.366 141.516 119.106 143.481C117.836 145.446 117.005 147.662 116.667 149.978C116.329 152.293 116.493 154.654 117.159 156.899C117.815 159.143 118.952 161.22 120.479 162.988C122.016 164.756 123.911 166.17 126.042 167.143Z" fill="black"/>
<path id="Vector_5" d="M117.545 237.09H117.341C113.175 237.096 109.131 235.684 105.865 233.096C102.598 230.507 100.312 226.883 99.3685 222.821C98.9124 220.935 97.9633 219.203 96.6134 217.81C95.2698 216.411 93.5687 215.4 91.7012 214.883C89.8336 214.365 87.8551 214.353 85.9814 214.852C84.1077 215.351 82.4004 216.343 81.0383 217.724C78.1045 220.67 74.283 222.55 70.1596 223.08C66.0424 223.604 61.8636 222.741 58.2888 220.633C54.7139 218.519 51.9465 215.271 50.4241 211.412C48.8956 207.548 48.7046 203.289 49.8695 199.301C50.4242 197.44 50.4673 195.461 49.9989 193.569C49.5305 191.683 48.5628 189.957 47.2006 188.571C45.8385 187.178 44.1252 186.185 42.2453 185.68C40.3655 185.181 38.3869 185.187 36.5132 185.711C32.5008 186.82 28.2294 186.555 24.3834 184.959C20.5374 183.362 17.3325 180.527 15.2862 176.897C13.2399 173.273 12.4633 169.063 13.0796 164.944C13.7022 160.826 15.6806 157.032 18.7068 154.168C20.1121 152.832 21.1415 151.144 21.6777 149.278C22.2139 147.413 22.2386 145.437 21.7579 143.557C21.271 141.677 20.2971 139.96 18.9226 138.585C17.5543 137.21 15.8408 136.226 13.961 135.736C9.93623 134.684 6.37378 132.318 3.84675 129.012C1.31356 125.705 -0.0362408 121.649 0.000740105 117.486C0.0438845 113.324 1.47372 109.294 4.06238 106.036C6.65721 102.779 10.2629 100.48 14.3062 99.5057C16.1922 99.0533 17.9302 98.1035 19.3232 96.7562C20.7223 95.4089 21.7331 93.7127 22.257 91.8427C22.7748 89.9727 22.7871 87.9973 22.2879 86.1217C21.7886 84.2456 20.7964 82.5377 19.4157 81.1737C16.4696 78.2454 14.5896 74.4191 14.0595 70.3001C13.5356 66.181 14.3987 62.004 16.5128 58.4292C18.6207 54.8544 21.8688 52.0851 25.7271 50.5602C29.5916 49.0354 33.8506 48.8412 37.8383 50.008C39.6997 50.5639 41.6844 50.6102 43.5704 50.1405C45.4564 49.6715 47.1823 48.7044 48.5691 47.3398C49.9559 45.9758 50.9543 44.2642 51.4535 42.3844C51.9528 40.5045 51.9404 38.5248 51.4165 36.6511C50.3133 32.6368 50.5844 28.3686 52.1808 24.5244C53.7833 20.6809 56.6186 17.4814 60.2489 15.4351C63.873 13.3888 68.0764 12.6129 72.1936 13.2298C76.3108 13.8474 80.1075 15.8228 82.9736 18.8423C84.311 20.2513 85.9938 21.2769 87.8613 21.8137C89.7289 22.3506 91.701 22.3783 93.5809 21.8951C95.4608 21.4112 97.1804 20.4331 98.5549 19.063C99.9293 17.6928 100.916 15.9794 101.402 14.1007C102.401 10.0809 104.731 6.51534 108.004 3.9803C111.283 1.44587 115.313 0.0898908 119.455 0.131803H119.659C123.831 0.127488 127.887 1.54202 131.154 4.1424C134.42 6.74277 136.701 10.3761 137.638 14.4459C138.087 16.3331 139.037 18.0657 140.387 19.463C141.73 20.8602 143.425 21.8716 145.299 22.3931C147.166 22.9139 149.145 22.9256 151.019 22.427C152.892 21.9277 154.606 20.936 155.968 19.5548C158.896 16.6105 162.723 14.7269 166.84 14.2006C170.957 13.6742 175.136 14.5353 178.711 16.6481C182.286 18.7616 185.053 22.0054 186.582 25.8675C188.104 29.7301 188.301 33.9909 187.13 37.9756C186.576 39.8401 186.533 41.8198 187.001 43.7077C187.469 45.5956 188.437 47.3232 189.799 48.7099C191.167 50.0973 192.875 51.0928 194.755 51.5933C196.635 52.0937 198.613 52.0802 200.487 51.555C204.505 50.4518 208.77 50.7211 212.616 52.3205C216.462 53.9206 219.661 56.7589 221.708 60.3842C223.754 64.0102 224.531 68.2162 223.908 72.3334C223.292 76.4512 221.319 80.2442 218.299 83.1103C216.888 84.4465 215.865 86.1347 215.328 88.0003C214.792 89.866 214.761 91.8414 215.248 93.7219C215.729 95.6018 216.709 97.3183 218.077 98.694C219.446 100.069 221.159 101.053 223.039 101.543C227.07 102.594 230.626 104.96 233.159 108.267C235.686 111.573 237.036 115.63 236.999 119.792C236.962 123.955 235.532 127.985 232.937 131.242C230.349 134.5 226.743 136.799 222.694 137.773C220.808 138.225 219.076 139.175 217.677 140.522C216.278 141.869 215.267 143.566 214.749 145.436C214.225 147.306 214.213 149.281 214.712 151.157C215.211 153.033 216.204 154.741 217.584 156.105C220.53 159.033 222.416 162.86 222.94 166.979C223.464 171.097 222.607 175.276 220.493 178.851C218.379 182.426 215.137 185.193 211.273 186.715C207.408 188.244 203.149 188.435 199.162 187.27C197.3 186.715 195.322 186.672 193.436 187.141C191.543 187.609 189.818 188.577 188.431 189.939C187.044 191.301 186.046 193.015 185.54 194.894C185.041 196.774 185.053 198.753 185.571 200.626C186.674 204.639 186.403 208.904 184.801 212.744C183.204 216.584 180.363 219.783 176.745 221.823C173.121 223.869 168.917 224.646 164.806 224.035C160.689 223.419 156.898 221.453 154.032 218.439C152.695 217.027 151.006 216.004 149.139 215.462C147.277 214.926 145.299 214.901 143.419 215.382C141.539 215.869 139.819 216.843 138.445 218.217C137.071 219.585 136.091 221.299 135.598 223.179C134.587 227.185 132.257 230.741 128.984 233.262C125.705 235.783 121.68 237.133 117.545 237.09ZM88.681 206.617C90.4067 206.617 92.1264 206.858 93.7905 207.314C97.0079 208.195 99.9232 209.927 102.234 212.325C104.54 214.728 106.161 217.705 106.913 220.954C107.467 223.327 108.805 225.447 110.709 226.969C112.608 228.492 114.968 229.336 117.403 229.361C119.844 229.385 122.217 228.59 124.152 227.105C126.081 225.619 127.462 223.524 128.06 221.163C128.898 217.94 130.587 215 132.941 212.645C135.302 210.297 138.242 208.614 141.471 207.782C144.695 206.95 148.085 206.999 151.284 207.918C154.482 208.836 157.379 210.599 159.672 213.015C161.342 214.778 163.555 215.937 165.959 216.3C168.363 216.658 170.816 216.208 172.93 215.012C175.05 213.822 176.702 211.955 177.632 209.705C178.563 207.462 178.717 204.972 178.07 202.63C177.183 199.418 177.17 196.028 178.039 192.811C178.902 189.594 180.616 186.666 182.995 184.336C185.368 182.007 188.332 180.355 191.562 179.553C194.798 178.752 198.188 178.826 201.38 179.781C203.704 180.466 206.194 180.355 208.45 179.467C210.712 178.58 212.604 176.959 213.837 174.869C215.07 172.78 215.569 170.339 215.254 167.935C214.946 165.528 213.837 163.297 212.111 161.592C209.738 159.253 208.037 156.322 207.18 153.103C206.323 149.885 206.342 146.496 207.236 143.288C208.129 140.079 209.867 137.168 212.259 134.856C214.657 132.544 217.633 130.914 220.869 130.137C223.242 129.582 225.362 128.247 226.885 126.345C228.407 124.443 229.252 122.084 229.276 119.646C229.301 117.208 228.506 114.834 227.02 112.901C225.535 110.969 223.446 109.591 221.079 108.989C217.855 108.149 214.915 106.462 212.567 104.104C210.213 101.746 208.536 98.8013 207.704 95.5753C206.872 92.3499 206.921 88.9606 207.84 85.7587C208.758 82.5574 210.515 79.6599 212.931 77.3671C214.687 75.6962 215.84 73.4866 216.197 71.089C216.555 68.6908 216.105 66.242 214.909 64.1304C213.72 62.0194 211.858 60.3657 209.621 59.4326C207.384 58.4994 204.9 58.3398 202.558 58.9796C199.346 59.8659 195.957 59.8776 192.739 59.0122C189.522 58.1463 186.6 56.4359 184.264 54.058C181.935 51.6795 180.277 48.7204 179.475 45.4877C178.674 42.2543 178.748 38.865 179.697 35.6717C180.388 33.3444 180.283 30.8525 179.395 28.5929C178.508 26.3328 176.887 24.4344 174.797 23.1999C172.708 21.9653 170.261 21.4649 167.857 21.7786C165.447 22.0923 163.216 23.2017 161.509 24.9306C159.173 27.3011 156.239 29.0035 153.022 29.8602C149.804 30.7169 146.414 30.6978 143.203 29.8041C139.998 28.911 137.083 27.1753 134.772 24.7783C132.46 22.3814 130.833 19.4094 130.057 16.1711C129.496 13.7975 128.164 11.6797 126.26 10.1567C124.355 8.63311 121.995 7.79304 119.56 7.76962C117.119 7.74681 114.746 8.54249 112.817 10.0291C110.882 11.5164 109.507 13.6083 108.91 15.9707C108.065 19.1942 106.383 22.1342 104.022 24.4862C101.661 26.8388 98.7213 28.5171 95.4916 29.3486C92.2681 30.1794 88.8783 30.1332 85.6794 29.2136C82.4744 28.2934 79.5775 26.5343 77.2847 24.1182C75.6144 22.3617 73.4017 21.2128 71.0041 20.8547C68.6065 20.496 66.1596 20.9484 64.0455 22.1398C61.9376 23.3312 60.2859 25.1932 59.349 27.4305C58.4183 29.6685 58.2579 32.1536 58.8989 34.492C59.7803 37.6958 59.7927 41.0765 58.9298 44.2864C58.0731 47.4957 56.3719 50.4179 54.0052 52.7514C51.6384 55.0842 48.6923 56.7441 45.4688 57.5589C42.2515 58.3743 38.8676 58.3152 35.6811 57.3875C33.3513 56.6966 30.8613 56.8032 28.5993 57.6914C26.3373 58.5789 24.4389 60.1969 23.2062 62.2875C21.9735 64.3782 21.4742 66.8214 21.7824 69.2288C22.0968 71.6369 23.2063 73.8706 24.9382 75.5748C27.305 77.9138 29.0123 80.8433 29.869 84.0613C30.7257 87.2792 30.7072 90.6673 29.8135 93.8754C28.9198 97.0841 27.1879 99.9951 24.7903 102.308C22.3988 104.621 19.4281 106.251 16.1861 107.03C13.8131 107.585 11.699 108.92 10.1705 110.823C8.64812 112.725 7.80364 115.084 7.77899 117.521C7.75433 119.959 8.54952 122.333 10.0349 124.266C11.5265 126.199 13.6158 127.576 15.9765 128.178C19.2 129.016 22.14 130.701 24.4944 133.059C26.8489 135.416 28.5253 138.36 29.3574 141.585C30.1894 144.81 30.1402 148.199 29.2218 151.4C28.3034 154.601 26.5407 157.497 24.1246 159.789C22.368 161.46 21.2215 163.67 20.8579 166.067C20.5004 168.465 20.9566 170.912 22.1461 173.026C23.3357 175.134 25.1971 176.792 27.4344 177.723C29.6718 178.66 32.1618 178.814 34.4978 178.179C37.709 177.291 41.0988 177.285 44.3162 178.148C47.5335 179.017 50.4612 180.731 52.791 183.11C55.1208 185.489 56.7788 188.447 57.58 191.677C58.3813 194.913 58.3072 198.303 57.3581 201.495C56.6739 203.819 56.7849 206.309 57.6724 208.571C58.5599 210.827 60.1811 212.719 62.2705 213.952C64.3599 215.185 66.8007 215.684 69.2044 215.376C71.6143 215.061 73.8454 213.952 75.5465 212.226C77.2538 210.463 79.2939 209.058 81.5498 208.097C83.8056 207.129 86.2279 206.63 88.681 206.617Z" fill="#FFF129"/>
</g>
</svg>
