<svg width="53" height="74" viewBox="0 0 53 74" fill="none" xmlns="http://www.w3.org/2000/svg">
<g id="Group 1832">
<path id="Vector" d="M52.037 26.1218C52.037 21.7065 50.8927 17.3663 48.7153 13.5252C46.538 9.68415 43.402 6.47323 39.6128 4.20593C35.8245 1.93863 31.5122 0.692438 27.0981 0.589036C22.6839 0.485635 18.3179 1.52851 14.4269 3.61587C10.5368 5.70313 7.25379 8.76371 4.89827 12.4986C2.54369 16.2335 1.19673 20.5153 0.990308 24.9259C0.783882 29.3364 1.72552 33.7251 3.72098 37.6636C5.71738 41.6021 8.70065 44.9557 12.3796 47.3971C16.7918 50.3305 19.3849 55.3275 19.3849 60.6314V61.36H33.6142V60.5221C33.6142 55.2803 36.1893 50.3388 40.562 47.4557C44.0919 45.1291 46.9895 41.9613 48.9925 38.2374C50.9955 34.5136 52.0417 30.3503 52.037 26.1218Z" fill="#FFF129"/>
<path id="Vector_2" d="M33.6139 61.9441H19.3846C19.2291 61.9441 19.0802 61.8828 18.9709 61.7725C18.8606 61.6622 18.7984 61.5133 18.7984 61.3578V60.6292C18.7984 55.46 16.2854 50.6969 12.0541 47.8893C7.37609 44.7847 3.82348 40.2554 1.92134 34.973C0.0192009 29.6905 -0.130672 23.9358 1.49529 18.5616C3.12031 13.1876 6.4335 8.48001 10.9438 5.13675C15.4541 1.79339 20.922 -0.00779809 26.5361 2.53784e-05C32.151 0.00784885 37.6133 1.82431 42.1142 5.1802C46.616 8.53609 49.916 13.2528 51.5259 18.6315C53.1358 24.0101 52.9709 29.7643 51.0537 35.0414C49.1374 40.3186 45.5716 44.8379 40.885 47.9295C36.6971 50.6953 34.2002 55.3997 34.2002 60.5142V61.3512C34.2012 61.4285 34.187 61.5058 34.1578 61.5774C34.1286 61.65 34.0862 61.715 34.0315 61.7706C33.9768 61.8253 33.9118 61.8696 33.8402 61.8988C33.7685 61.929 33.6922 61.9441 33.6139 61.9441ZM19.9709 60.7715H33.0276V60.5142C33.0276 55.0056 35.7234 49.9348 40.2318 46.9445C43.6807 44.6738 46.5104 41.5814 48.4681 37.9454C50.425 34.3095 51.4477 30.244 51.4439 26.1148C51.4439 12.5455 40.4053 1.3517 26.8377 1.16742C21.4508 1.09446 16.1846 2.76737 11.827 5.93578C7.46941 9.10428 4.25425 13.5982 2.66317 18.7455C1.07208 23.8928 1.18897 29.417 2.99779 34.4921C4.80661 39.5672 8.20934 43.9204 12.6979 46.9009C17.2478 49.9264 19.9643 55.0542 19.9643 60.6179L19.9709 60.7715Z" fill="#FFF129"/>
<path id="Vector_3" d="M28.2156 63.3108C28.2863 63.3409 28.3627 63.357 28.44 63.3579C28.5163 63.3588 28.5927 63.3438 28.6634 63.3145C28.735 63.2853 28.8 63.242 28.8538 63.1873C28.9084 63.1336 28.9518 63.0685 28.981 62.9978C29.0103 62.9262 29.0263 62.8508 29.0263 62.7735L29.4325 29.3647C31.8239 29.1988 33.8693 28.6041 35.5339 27.5872C38.5181 25.7646 40.1978 22.4041 39.6181 19.4139C39.2863 17.7051 38.0487 16.1103 36.3869 15.2727C34.9306 14.5322 33.3396 14.4619 32.0209 15.08C28.7859 16.5995 28.3627 20.8797 28.3259 23.9704L28.2741 28.2406C27.7302 28.2483 27.1571 28.2334 26.5567 28.1954C25.9553 28.1574 25.3577 28.1015 24.762 28.0278C24.5075 27.1313 24.1644 26.2621 23.7393 25.4329C22.3047 22.6956 19.837 20.8377 17.2788 20.5848C15.6161 20.4206 13.6621 21.1694 13.3143 22.8798C13.0004 24.4211 14.1598 25.9338 16.4163 26.9238C18.7841 27.9653 21.2791 28.6914 23.8364 29.0832C24.155 30.4838 24.385 31.9034 24.5226 33.3332C25.4963 42.0051 25.648 50.7496 24.975 59.4499C24.9628 59.6055 25.0137 59.7591 25.1145 59.8779C25.2163 59.9966 25.3605 60.0692 25.5161 60.0815C25.6716 60.0937 25.8252 60.0428 25.944 59.942C26.0628 59.8402 26.1363 59.6959 26.1476 59.5404C26.8263 50.7658 26.6736 41.9468 25.6923 33.2009C25.5594 31.8732 25.3558 30.5534 25.0825 29.2474C25.55 29.2993 26.0185 29.3412 26.4916 29.3696C27.0996 29.4088 27.6916 29.425 28.2665 29.4183L27.8603 62.765C27.8593 62.8423 27.8735 62.9187 27.9017 62.9903C27.931 63.0619 27.9734 63.127 28.0271 63.1816C28.0808 63.2373 28.1449 63.2806 28.2156 63.3108Z" fill="black"/>
<path id="Vector_4" d="M14.4654 23.1163C14.6464 22.2234 15.7746 21.7393 16.8351 21.7393C16.9482 21.7387 17.0603 21.7444 17.1725 21.7561C19.3348 21.9705 21.4556 23.5887 22.7008 25.9776C23.009 26.5761 23.2682 27.1985 23.4765 27.8388C21.2087 27.4451 18.9974 26.7785 16.8907 25.8537C15.5673 25.2723 14.2335 24.2487 14.4654 23.1163Z" fill="#FFF129"/>
<path id="Vector_5" d="M32.5188 16.1476C32.9656 15.9402 33.452 15.8339 33.945 15.836C34.6123 15.8447 35.2684 16.0119 35.8594 16.3235C37.2063 17.0086 38.2083 18.2802 38.4713 19.6421C38.9605 22.1617 37.5032 25.0196 34.9281 26.591C33.4454 27.4973 31.6111 28.0266 29.4517 28.1941L29.5035 23.9893C29.5356 20.9806 29.9126 17.3688 32.5188 16.1476Z" fill="#FFF129"/>
<path id="Vector_6" d="M26.6191 59.068C28.6872 59.0105 30.7562 59.0746 32.8166 59.2602C34.2843 59.3932 36.0318 59.8069 36.5022 61.2039C37.1724 63.1993 34.5897 64.8894 34.4502 66.9847C34.3738 68.1338 35.0534 69.2931 34.7339 70.4007C34.502 71.1943 33.7875 71.7712 33.0099 72.0512C32.2322 72.3302 31.3915 72.3603 30.5658 72.3858C29.2509 72.4272 23.8291 72.4225 22.682 72.3858C21.8581 72.3603 21.0155 72.332 20.2378 72.0512C19.4602 71.7693 18.7457 71.1943 18.5157 70.4007C18.1943 69.2931 18.8739 68.1338 18.7985 66.9847C18.6599 64.8875 16.0801 63.1993 16.7465 61.2039C17.2121 59.8069 18.9597 59.3932 20.432 59.2602C22.2719 59.067 24.1232 58.9963 25.9725 59.0472L26.6191 59.068Z" fill="#A88CFF"/>
<path id="Vector_7" d="M26.7489 73.0025C25.0117 73.0025 23.2576 72.9911 22.6581 72.9723C21.8371 72.9468 20.9058 72.9167 20.0349 72.6037C18.9877 72.2267 18.2072 71.4651 17.947 70.5649C17.7227 69.7929 17.882 69.0577 18.0366 68.3536C18.1525 67.92 18.2091 67.4723 18.2034 67.0236C18.1535 66.2498 17.6794 65.5004 17.1788 64.7067C16.4945 63.6265 15.7206 62.4002 16.1731 61.0212C16.6208 59.6809 18.0291 58.8891 20.361 58.6761C22.2245 58.4819 24.0974 58.4103 25.9703 58.4612L26.6132 58.4819C28.6982 58.4244 30.7841 58.4894 32.8616 58.6761C35.1907 58.8872 36.598 59.6809 37.0495 61.0212C37.5104 62.4021 36.7366 63.6275 36.0447 64.7067C35.5423 65.5004 35.0701 66.2498 35.0182 67.0236C35.0135 67.4723 35.0701 67.9191 35.1851 68.3517C35.3397 69.0606 35.4989 69.7929 35.2756 70.5649C35.0145 71.4651 34.234 72.2267 33.1887 72.6037C32.3158 72.9167 31.3846 72.9468 30.5636 72.9723C29.9273 72.9921 28.3457 73.0025 26.7489 73.0025ZM24.7488 59.6158C23.3047 59.6158 22.0869 59.6978 20.4732 59.8439C18.653 60.0108 17.5841 60.5292 17.291 61.3898C16.9979 62.2513 17.5436 63.0949 18.1667 64.0799C18.7228 64.9631 19.2997 65.8746 19.3713 66.9463C19.3854 67.5043 19.3194 68.0624 19.1752 68.6015C19.0461 69.1935 18.9255 69.7524 19.0668 70.2388C19.2224 70.7779 19.7361 71.2436 20.4251 71.5C21.1132 71.7563 21.9172 71.7761 22.6883 71.7997C23.7977 71.8346 29.2213 71.8412 30.5353 71.7997C31.3054 71.7761 32.1009 71.7507 32.7984 71.5C33.495 71.2483 34.0012 70.7779 34.1567 70.2388C34.2971 69.7524 34.1765 69.1935 34.0483 68.6015C33.905 68.0624 33.84 67.5043 33.8532 66.9463C33.9239 65.8746 34.4998 64.9631 35.0578 64.0799C35.6809 63.0949 36.2191 62.2372 35.9344 61.3898C35.6498 60.5424 34.5771 60.008 32.7513 59.8439C30.7144 59.6611 28.668 59.597 26.6236 59.6545H26.5877L25.9317 59.6337C25.5207 59.6224 25.1277 59.6158 24.7488 59.6158Z" fill="#A88CFF"/>
<path id="Vector_8" d="M19.4751 63.4176C19.3196 63.4223 19.1688 63.3657 19.0547 63.2592C18.9416 63.1537 18.8747 63.0066 18.869 62.8511C18.8634 62.6956 18.9199 62.5438 19.0264 62.4307C19.133 62.3166 19.28 62.2497 19.4355 62.2441C23.5537 61.9481 27.6869 61.9349 31.807 62.2045C31.8833 62.2092 31.9587 62.229 32.0276 62.2629C32.0973 62.2968 32.1586 62.3449 32.2095 62.4024C32.2604 62.4599 32.299 62.5278 32.3235 62.6004C32.348 62.6739 32.3584 62.7502 32.3527 62.8275C32.3414 62.9821 32.2698 63.1263 32.1538 63.2291C32.037 63.3318 31.8843 63.3836 31.7297 63.3752C27.6634 63.1084 23.5838 63.1216 19.5194 63.4138L19.4751 63.4176ZM21.2745 66.5837C21.119 66.5884 20.9682 66.5328 20.8541 66.4263C20.7401 66.3207 20.6732 66.1737 20.6675 66.0182C20.6618 65.8627 20.7184 65.7109 20.824 65.5968C20.9305 65.4837 21.0775 65.4159 21.2331 65.4102C24.8809 65.15 28.5428 65.15 32.1906 65.4102C32.3461 65.4215 32.4904 65.4941 32.5931 65.611C32.6949 65.7288 32.7467 65.8824 32.7354 66.038C32.7251 66.1935 32.6525 66.3387 32.5347 66.4405C32.4168 66.5432 32.2641 66.5941 32.1086 66.5837C28.5155 66.3292 24.9091 66.3321 21.3169 66.5913L21.2745 66.5837ZM29.6843 70.1448H27.6737C27.5182 70.1448 27.3693 70.0826 27.259 69.9733C27.1497 69.863 27.0874 69.7141 27.0874 69.5585C27.0874 69.403 27.1497 69.2541 27.259 69.1438C27.3693 69.0335 27.5182 68.9722 27.6737 68.9722H29.6843C29.8398 68.9722 29.9887 69.0335 30.099 69.1438C30.2083 69.2541 30.2706 69.403 30.2706 69.5585C30.2706 69.7141 30.2083 69.863 30.099 69.9733C29.9887 70.0826 29.8398 70.1448 29.6843 70.1448Z" fill="black"/>
</g>
</svg>
