<svg width="70" height="67" viewBox="0 0 70 67" fill="none" xmlns="http://www.w3.org/2000/svg">
<g id="Group 1">
<path id="Vector" d="M39.3168 27.7436C48.2491 21.7333 55.6797 19.88 58.2945 24.2806C59.8903 26.9672 58.4636 29.981 55.5426 31.8828C57.8966 31.3008 62.5373 30.8844 63.9941 36.321C64.8841 39.6428 62.4461 43.3615 58.5759 44.3985C58.5759 44.3985 63.088 44.8642 63.5702 48.7373C64.1214 53.2 59.7726 54.8274 56.3429 55.7383C49.1094 57.6765 34.1556 60.8724 28.1966 61.8163C26.7722 62.0398 24.3247 61.6372 23.8702 60.2587C22.4761 56.0097 19.8386 46.06 18.1133 40.9226C17.7602 39.8777 18.8838 38.7129 19.9058 38.3054C26.7488 35.5756 30.6866 28.6005 31.5223 21.4751C31.8316 18.9065 31.7029 16.2769 32.2942 13.7625C33.0366 10.6158 35.2374 7.4796 38.8827 7.64622C39.7554 7.67713 40.6105 7.89912 41.3877 8.29719C42.165 8.69498 42.8451 9.25886 43.3802 9.94871C47.7127 15.7664 42.8613 25.3544 39.3168 27.7436Z" fill="#A88CFF"/>
<path id="Vector_2" d="M15.8131 65.514C15.4726 65.6046 15.1103 65.5604 14.8016 65.391C14.4926 65.2217 14.2608 64.9399 14.1542 64.604C13.0577 61.1473 11.8808 56.8765 10.7416 52.7456C9.60223 48.6149 8.43976 44.3971 7.35633 40.9893C7.2462 40.6425 7.27827 40.266 7.44566 39.9428C7.61306 39.6197 7.90194 39.3761 8.24881 39.266C8.59569 39.1558 8.97219 39.1879 9.29532 39.3553C9.61851 39.5229 9.86183 39.8116 9.97203 40.1587C11.0696 43.6193 12.2455 47.8862 13.3847 52.0172C14.524 56.1478 15.6865 60.3656 16.7673 63.7782C16.8219 63.9495 16.842 64.1298 16.827 64.3089C16.8118 64.4881 16.7615 64.6623 16.6789 64.822C16.5961 64.9817 16.4827 65.1235 16.3453 65.2392C16.2078 65.3548 16.0488 65.4424 15.8775 65.4968L15.8131 65.514Z" fill="black"/>
<path id="Vector_3" d="M56.5373 55.6803L56.3369 55.734C49.1941 57.6479 34.1193 60.8762 28.0446 61.843C26.118 62.1442 22.9331 61.5622 22.2073 59.3521C21.5654 57.3953 20.6661 54.2667 19.7163 50.9489C18.5695 46.9417 17.3815 42.7957 16.4534 40.0273C15.8463 38.2315 17.3221 36.3846 19.0329 35.6869C25.9195 32.9373 29.1059 25.762 29.7952 19.9654C29.9059 19.0477 29.9562 18.1299 30.0111 17.1541C30.0577 15.4545 30.2556 13.7621 30.6024 12.0973C31.4168 8.65966 33.9982 4.71985 38.5878 4.92961C39.6634 4.97011 40.7168 5.24693 41.6732 5.7407C42.6297 6.23419 43.4655 6.93241 44.1216 7.78559C45.8717 10.1551 46.4785 13.2366 45.8784 16.7021C45.503 18.8052 44.7862 20.8327 43.756 22.7043C51.1095 19.412 56.4498 17.7782 59.1054 22.2407C60.3823 24.3884 60.2197 26.8081 58.8149 28.92C61.8658 29.319 64.0613 31.2935 64.9543 34.6264C65.7653 37.6531 64.3521 40.8985 61.704 42.8651C62.4833 43.3224 63.1464 43.9535 63.6422 44.7089C64.1378 45.4643 64.4527 46.3239 64.5619 47.2207C65.2845 53.1865 59.129 54.9858 56.5373 55.6803ZM37.1773 7.82169C35.051 8.39143 33.7773 10.6142 33.2744 12.748C32.9664 14.2623 32.7938 15.8013 32.759 17.3464C32.7031 18.3184 32.6488 19.3264 32.5279 20.3279C31.5287 28.7054 26.7536 35.5968 20.0605 38.2661C19.8392 38.3478 19.6365 38.4732 19.4646 38.635C19.2927 38.7966 19.1551 38.9914 19.0598 39.2074C20.0066 41.999 21.2026 46.1752 22.3576 50.2128C23.3002 53.504 24.1906 56.6149 24.8183 58.5186C24.9045 58.8403 26.3467 59.3499 27.6267 59.149C33.6354 58.2079 48.5546 54.989 55.635 53.0998L55.6842 53.0866C60.3906 51.8256 62.1776 50.2316 61.8508 47.5902C61.5196 44.8407 58.1138 44.4636 58.0806 44.4604C57.7617 44.4276 57.4644 44.284 57.2405 44.0547C57.0165 43.8254 56.88 43.5248 56.8547 43.2054C56.8294 42.8858 56.9167 42.5676 57.1017 42.3057C57.2867 42.0439 57.5575 41.8554 57.8672 41.7724C60.9846 40.9371 63.0217 38.0071 62.3161 35.3739C61.4595 32.177 59.172 31.01 55.5202 31.9236C55.2053 32.0007 54.8734 31.9638 54.5832 31.8194C54.2931 31.675 54.0635 31.4326 53.935 31.1351C53.8066 30.8373 53.7878 30.5038 53.8822 30.1938C53.9763 29.8837 54.1773 29.6169 54.4495 29.441C56.3591 28.1993 58.1159 25.9486 56.7726 23.689C55.0028 20.7165 49.8526 22.9238 40.9062 27.0807L39.5546 27.7106C39.2414 27.8576 38.8845 27.8806 38.5551 27.7754C38.2255 27.6702 37.9481 27.4445 37.7782 27.1432C37.6082 26.8422 37.5584 26.4878 37.6386 26.1514C37.719 25.8151 37.9232 25.5215 38.211 25.3294C40.0756 24.0715 42.5272 20.2519 43.1967 16.2892C43.524 14.3931 43.5798 11.6653 41.9411 9.46876C41.5282 8.94147 41.0047 8.51142 40.4072 8.20894C39.8098 7.90668 39.1531 7.73926 38.4836 7.71899C38.0456 7.68463 37.6046 7.71912 37.1773 7.82169Z" fill="#A88CFF"/>
<path id="Vector_4" d="M58.0074 30.4621L53.8192 31.5844C53.468 31.6785 53.094 31.6292 52.7789 31.4475C52.4641 31.2657 52.2344 30.9663 52.1403 30.6151C52.0462 30.2639 52.0954 29.8897 52.2772 29.5749C52.4591 29.26 52.7584 29.0303 53.1096 28.9362L57.3091 27.811C57.6603 27.7169 58.0345 27.7661 58.3494 27.9478C58.6642 28.1296 58.8939 28.4291 58.988 28.7803C59.0821 29.1314 59.0329 29.5056 58.8511 29.8205C58.6694 30.1353 58.3699 30.365 58.0187 30.4591L58.0074 30.4621ZM61.6052 43.8893L57.4169 45.0115C57.0658 45.1056 56.6917 45.0562 56.3767 44.8745C56.0618 44.6927 55.8321 44.3932 55.738 44.042C55.6439 43.6909 55.6931 43.3167 55.8749 43.0018C56.0569 42.6869 56.3562 42.4573 56.7073 42.3632L60.9069 41.2379C61.258 41.1438 61.6323 41.193 61.9471 41.3748C62.2619 41.5565 62.4916 41.856 62.5857 42.2072C62.6798 42.5584 62.6306 42.9326 62.4489 43.2474C62.2671 43.5623 61.9677 43.7922 61.6165 43.8863L61.6052 43.8893Z" fill="black"/>
</g>
</svg>
