<svg width="21" height="22" viewBox="0 0 21 22" fill="none" xmlns="http://www.w3.org/2000/svg">
<g id="Group 1">
<path id="Vector" d="M10.5024 20.6112C15.8398 20.6112 20.1665 16.2846 20.1665 10.9465C20.1665 5.6098 15.8398 1.2832 10.5024 1.2832C5.16499 1.2832 0.838257 5.6098 0.838257 10.9465C0.838257 16.2846 5.16499 20.6112 10.5024 20.6112Z" fill="white"/>
<path id="Vector_2" d="M10.5024 21.4473C8.42558 21.4473 6.39523 20.8324 4.66819 19.6786C2.94114 18.5261 1.59498 16.8851 0.799933 14.9674C0.00488191 13.0483 -0.203398 10.9375 0.201448 8.9C0.606293 6.86379 1.60616 4.99263 3.07449 3.52337C4.54282 2.05544 6.41373 1.05462 8.4506 0.648714C10.4875 0.244135 12.5989 0.451763 14.5176 1.24628C16.4364 2.0408 18.0764 3.38628 19.2302 5.11373C20.3841 6.83985 21 8.87072 21 10.9468C20.9975 13.731 19.8907 16.3994 17.9227 18.3677C15.9546 20.3373 13.286 21.4446 10.5024 21.4473ZM10.5024 2.11665C8.7551 2.11665 7.04709 2.63436 5.59406 3.60455C4.14117 4.57474 3.00861 5.95484 2.33986 7.56783C1.67097 9.18215 1.49583 10.9588 1.83666 12.673C2.17736 14.3858 3.01872 15.9602 4.25415 17.1952C5.48958 18.4316 7.06372 19.2727 8.77732 19.6134C10.4909 19.9541 12.2672 19.7784 13.8813 19.1103C15.4955 18.4409 16.8749 17.3083 17.8454 15.855C18.8157 14.4031 19.3334 12.6943 19.333 10.9468C19.3305 8.60588 18.3993 6.36208 16.7437 4.7065C15.0882 3.05092 12.8436 2.11931 10.5024 2.11665Z" fill="white"/>
<path id="Vector_3" d="M6.35609 11.6471C6.16884 11.6471 5.98678 11.5846 5.83959 11.4688C5.69239 11.353 5.58845 11.1907 5.5448 11.0083C5.50101 10.826 5.51991 10.6344 5.59843 10.4653C5.67695 10.295 5.81044 10.1553 5.97746 10.0714C8.55226 8.75521 11.3098 7.83293 14.1579 7.33519C14.2677 7.31124 14.3814 7.30857 14.4917 7.32987C14.6022 7.35116 14.7073 7.39507 14.8006 7.45762C14.8939 7.52017 14.9735 7.60136 15.0347 7.69585C15.0959 7.78901 15.1374 7.89547 15.1567 8.00593C15.176 8.11639 15.1727 8.23085 15.147 8.33998C15.1213 8.44911 15.0737 8.55292 15.007 8.64342C14.9405 8.73391 14.8562 8.80976 14.7594 8.86699C14.6626 8.92422 14.5552 8.96149 14.4437 8.97613C11.7591 9.44592 9.15979 10.315 6.73245 11.5553C6.61614 11.6152 6.48718 11.6471 6.35609 11.6471ZM8.52804 15.2005C8.32854 15.2019 8.13544 15.1313 7.98359 15.0009C7.83187 14.8718 7.73166 14.6921 7.70105 14.4952C7.67057 14.2982 7.7117 14.0959 7.8171 13.9269C7.9225 13.7579 8.08527 13.6315 8.27558 13.5716L14.1936 11.6911C14.2979 11.6578 14.4077 11.6445 14.5169 11.6538C14.626 11.6631 14.7322 11.6937 14.8295 11.7443C14.9269 11.7936 15.0133 11.8627 15.0839 11.9466C15.1546 12.0304 15.2083 12.1263 15.2415 12.2314C15.2748 12.3352 15.2873 12.4457 15.2781 12.5548C15.2689 12.6639 15.2385 12.7704 15.1883 12.8675C15.138 12.9647 15.0692 13.0512 14.9856 13.1217C14.9019 13.1923 14.8053 13.2455 14.7009 13.2788L8.78051 15.1606C8.69893 15.1872 8.61375 15.2005 8.52804 15.2005Z" fill="black"/>
</g>
</svg>
