<svg width="47" height="18" viewBox="0 0 47 18" fill="none" xmlns="http://www.w3.org/2000/svg">
<g id="SSS">
<path d="M14.784 12.1258C14.784 15.0738 12.76 17.0098 7.766 17.0098C2.288 17.0098 0 14.6778 0 10.6518H4.136C4.136 12.8518 4.994 13.6658 7.854 13.6658C9.812 13.6658 10.67 13.2698 10.67 12.3018C10.67 11.7518 10.23 11.3338 9.35 11.1138L4.158 9.74979C1.474 9.02379 0.638 7.46179 0.638 5.50379C0.638 2.48979 2.882 0.883789 6.952 0.883789C11.792 0.883789 14.19 3.17179 14.19 6.53779H10.076C10.076 4.86579 9.13 4.16179 7.018 4.16179C5.544 4.16179 4.774 4.53579 4.774 5.41579C4.774 5.85579 5.016 6.22979 5.984 6.49379L11.022 7.74779C13.596 8.38579 14.784 9.85979 14.784 12.1258Z" fill="black"/>
<path d="M30.8113 12.1258C30.8113 15.0738 28.7873 17.0098 23.7933 17.0098C18.3153 17.0098 16.0273 14.6778 16.0273 10.6518H20.1633C20.1633 12.8518 21.0213 13.6658 23.8813 13.6658C25.8393 13.6658 26.6973 13.2698 26.6973 12.3018C26.6973 11.7518 26.2573 11.3338 25.3773 11.1138L20.1853 9.74979C17.5013 9.02379 16.6653 7.46179 16.6653 5.50379C16.6653 2.48979 18.9093 0.883789 22.9793 0.883789C27.8193 0.883789 30.2173 3.17179 30.2173 6.53779H26.1033C26.1033 4.86579 25.1573 4.16179 23.0453 4.16179C21.5713 4.16179 20.8013 4.53579 20.8013 5.41579C20.8013 5.85579 21.0433 6.22979 22.0113 6.49379L27.0493 7.74779C29.6233 8.38579 30.8113 9.85979 30.8113 12.1258Z" fill="black"/>
<path d="M46.8387 12.1258C46.8387 15.0738 44.8147 17.0098 39.8207 17.0098C34.3427 17.0098 32.0547 14.6778 32.0547 10.6518H36.1907C36.1907 12.8518 37.0487 13.6658 39.9087 13.6658C41.8667 13.6658 42.7247 13.2698 42.7247 12.3018C42.7247 11.7518 42.2847 11.3338 41.4047 11.1138L36.2127 9.74979C33.5287 9.02379 32.6927 7.46179 32.6927 5.50379C32.6927 2.48979 34.9367 0.883789 39.0067 0.883789C43.8467 0.883789 46.2447 3.17179 46.2447 6.53779H42.1307C42.1307 4.86579 41.1847 4.16179 39.0727 4.16179C37.5987 4.16179 36.8287 4.53579 36.8287 5.41579C36.8287 5.85579 37.0707 6.22979 38.0387 6.49379L43.0767 7.74779C45.6507 8.38579 46.8387 9.85979 46.8387 12.1258Z" fill="black"/>
</g>
</svg>
