<svg width="32" height="32" viewBox="0 0 32 32" fill="none" xmlns="http://www.w3.org/2000/svg">
<g id="woman-holding-big-barking-score">
<path id="Vector" d="M6.67104 41.2771C6.6466 41.2773 6.62242 41.2716 6.60032 41.2609C6.56808 41.2453 6.54156 41.2193 6.5257 41.1871C6.50958 41.1551 6.50464 41.1185 6.51166 41.0831L7.35692 36.7785C7.36446 36.7401 7.38577 36.7057 7.41671 36.6816C7.44765 36.6576 7.48613 36.6454 7.52539 36.6475C7.56439 36.6496 7.60158 36.6657 7.62966 36.693C7.658 36.7203 7.67542 36.7567 7.6788 36.7957L7.94399 39.82C7.94607 39.8421 7.94347 39.8645 7.93645 39.8858C7.92943 39.9069 7.918 39.9264 7.90318 39.9427C7.6073 40.2722 6.80312 41.2115 6.7948 41.2209C6.77946 41.2386 6.76048 41.2529 6.73916 41.2625C6.71784 41.2724 6.6947 41.2773 6.67104 41.2771ZM7.45468 37.9691L6.95027 40.5402C7.17725 40.2774 7.44766 39.9651 7.61432 39.7776L7.45468 37.9691ZM33.5314 30.0115C33.4994 30.0115 33.4682 30.0019 33.4417 29.9845C33.4149 29.9668 33.3941 29.9416 33.3816 29.9122C31.1591 24.7015 27.1554 25.6669 25.2317 26.1297C25.0954 26.1622 24.967 26.1934 24.8539 26.2181L24.7837 26.2335C24.4114 26.3159 24.0276 26.4009 23.6329 26.3824C23.1371 26.3601 22.7091 26.1622 22.4593 25.8409C22.4455 25.824 22.4356 25.8047 22.4296 25.7839C22.4237 25.7631 22.4218 25.7413 22.4244 25.7197C22.4268 25.6984 22.4335 25.6776 22.4442 25.6589C22.4549 25.6399 22.4692 25.6235 22.4863 25.6102C22.5032 25.597 22.523 25.5871 22.5438 25.5816C22.5646 25.5759 22.5864 25.5746 22.608 25.5775C22.6293 25.5803 22.6499 25.5874 22.6686 25.5985C22.6873 25.6095 22.7034 25.624 22.7164 25.6412C22.9078 25.8874 23.2473 26.039 23.647 26.0572C23.9987 26.0736 24.3617 25.9935 24.7124 25.9176L24.7832 25.9017C24.8929 25.878 25.02 25.8474 25.1552 25.8149C27.0093 25.369 31.3508 24.3258 33.6811 29.7866C33.698 29.8264 33.6986 29.8711 33.6824 29.9112C33.6666 29.9512 33.6351 29.9832 33.5956 30.0003C33.5751 30.0081 33.5532 30.012 33.5314 30.0115Z" fill="black"/>
<path id="Vector_2" d="M38.0335 41.795C37.9997 41.795 37.9667 41.7846 37.9391 41.7649C37.9116 41.7454 37.8908 41.7176 37.8796 41.6856C36.8406 38.7081 34.7377 33.1383 33.3816 29.912C33.3647 29.8722 33.3644 29.8272 33.3808 29.7872C33.3969 29.7472 33.4284 29.7154 33.4682 29.6985C33.5082 29.6819 33.5529 29.6816 33.593 29.6978C33.633 29.7141 33.6647 29.7456 33.6816 29.7854C35.0401 33.0174 37.1464 38.5944 38.1872 41.5787C38.1942 41.5987 38.1973 41.6203 38.196 41.6416C38.1947 41.663 38.1895 41.6838 38.1801 41.703C38.1708 41.7222 38.1578 41.7394 38.1419 41.7537C38.1258 41.7677 38.1073 41.7787 38.0871 41.7857C38.0699 41.7919 38.052 41.795 38.0335 41.795ZM16.9444 9.03722C17.668 9.45595 20.6036 11.1267 21.7091 11.8511C21.7091 11.8511 22.0586 13.9964 22.1241 15.1865C22.1241 15.1865 22.6958 15.1744 23.005 15.6118C23.4119 15.0093 23.9958 13.8801 23.7028 12.0823C22.6033 5.2812 18.6586 4.59168 17.7857 4.56376C16.7322 4.53212 16.0898 5.48406 16.0898 5.48406C16.0898 5.48406 14.594 4.04501 12.4755 5.11881C9.59106 6.58066 6.9427 10.995 5.46876 11.6436C3.25377 12.6183 0.409186 11.1388 -1.63889 12.428C-2.9002 13.2222 -3.39292 15.0335 -2.70899 16.3567C-2.02506 17.6798 -0.261718 18.3242 1.11542 17.7524C1.03495 19.0086 1.08194 20.3058 1.56395 21.4685C2.04594 22.6312 3.02905 23.6455 4.26244 23.8878C5.36606 24.1023 6.4812 23.6933 7.5602 23.3761C8.6392 23.0587 9.8638 22.8507 10.8388 23.4104C11.2772 23.6621 11.8024 24.4247 12.7053 24.4299C12.4076 22.2735 12.1825 20.4956 12.0886 20.103C11.896 19.2896 11.4813 19.2519 10.9514 18.9798C10.3763 18.6857 9.80036 18.468 9.67816 18.0427C9.3906 17.0429 9.5609 16.7768 9.96104 16.285C10.3503 15.8067 11.6037 16.56 11.3214 14.6403C11.5452 14.5477 16.4168 9.65739 16.9444 9.03722Z" fill="black"/>
<path id="Vector_3" d="M12.7106 24.5938C12.0073 24.5902 11.5289 24.1789 11.1451 23.8495C11.0268 23.74 10.8994 23.641 10.764 23.5536C9.80222 23.0019 8.5745 23.2535 7.61224 23.5346C7.4851 23.5718 7.35796 23.6097 7.23082 23.6485C6.25712 23.9415 5.25066 24.2449 4.23736 24.0476C3.04396 23.8152 1.96317 22.8521 1.41696 21.5352C0.914951 20.3233 0.893085 18.9764 0.942407 17.9942C0.649803 18.0848 0.34516 18.1305 0.0388544 18.1296C-1.13031 18.1296 -2.3051 17.4871 -2.84993 16.4342C-3.57525 15.0315 -3.05928 13.1351 -1.72213 12.2934C-0.592477 11.582 0.770261 11.6798 2.08786 11.7742C3.22542 11.8556 4.40158 11.9398 5.40666 11.4978C6.0057 11.234 6.84888 10.2705 7.82206 9.15526C9.11842 7.67156 10.7315 5.82541 12.4053 4.97679C13.5509 4.39567 14.522 4.53199 15.1346 4.74833C15.4707 4.86531 15.7861 5.03475 16.0693 5.25037C16.3061 4.96886 16.9127 4.3738 17.7954 4.40079C18.0489 4.40823 19.3837 4.50456 20.768 5.65698C22.3498 6.97552 23.3948 9.12873 23.8685 12.0562C24.0908 13.4328 23.8466 14.6616 23.142 15.7028C23.1275 15.7247 23.1077 15.7426 23.0846 15.7551C23.0612 15.7676 23.0354 15.7742 23.0092 15.7745C22.9832 15.7745 22.9574 15.7683 22.9343 15.7563C22.9114 15.7443 22.8914 15.7269 22.8766 15.7056C22.6226 15.3465 22.1364 15.3488 22.1322 15.3492H22.1299C22.088 15.3493 22.048 15.3334 22.0175 15.3047C21.9871 15.2761 21.9689 15.2369 21.9666 15.1952C21.9089 14.1484 21.6249 12.3283 21.5644 11.9477C20.6289 11.3429 18.5632 10.1537 17.4423 9.50932L16.9826 9.24459C16.5638 9.70521 15.283 11.0074 14.139 12.1515C12.2915 13.9986 11.7023 14.5444 11.4995 14.7104C11.5707 15.2687 11.5167 15.6447 11.331 15.8899C11.1251 16.1616 10.803 16.203 10.544 16.2365C10.3456 16.2621 10.1745 16.283 10.0916 16.3863C9.72838 16.8325 9.56276 17.0377 9.83862 17.9961C9.92286 18.2883 10.3131 18.4799 10.765 18.7014C10.8524 18.7442 10.9408 18.7879 11.0297 18.8335C11.1186 18.8792 11.2018 18.9164 11.2837 18.9536C11.7075 19.1457 12.0746 19.3118 12.2566 20.067C12.3268 20.3577 12.4612 21.3519 12.6479 22.7283C12.7176 23.2447 12.7943 23.8118 12.8767 24.4074C12.8801 24.4306 12.8785 24.454 12.872 24.4766C12.8653 24.499 12.8541 24.5197 12.8388 24.5374C12.8234 24.5551 12.8044 24.5694 12.7831 24.579C12.7618 24.5886 12.7387 24.5936 12.7153 24.5933L12.7106 24.5938ZM9.40442 22.8989C9.92832 22.8989 10.4509 22.998 10.9249 23.2712C11.0783 23.3685 11.2226 23.4792 11.3562 23.6025C11.6773 23.8789 12.0364 24.1877 12.5221 24.2538C12.4501 23.7304 12.3827 23.2301 12.3203 22.7725C12.142 21.4572 12.0016 20.4182 11.935 20.1437C11.7904 19.5435 11.533 19.4268 11.1441 19.2504C11.0585 19.2118 10.9701 19.1718 10.8765 19.1239C10.7829 19.0759 10.7021 19.0364 10.6165 18.9945C10.1163 18.7493 9.64466 18.5176 9.5209 18.0868C9.21176 17.013 9.4156 16.6948 9.83394 16.1793C9.99904 15.9764 10.2525 15.9438 10.4975 15.9122C10.7263 15.8824 10.9431 15.8545 11.0663 15.6917C11.2023 15.5125 11.2335 15.1655 11.1594 14.6611C11.1545 14.6273 11.1602 14.5928 11.1761 14.5624C11.1919 14.5321 11.2169 14.5075 11.2473 14.4922C11.5601 14.2852 16.2255 9.62843 16.8201 8.92869C16.8448 8.89957 16.8792 8.88007 16.9166 8.8736C16.9543 8.86712 16.993 8.87412 17.0258 8.89333C17.1548 8.96824 17.3516 9.08269 17.5996 9.22413C18.7478 9.88432 20.8858 11.114 21.7981 11.7119C21.8168 11.7243 21.8329 11.7404 21.8454 11.7593C21.8576 11.7782 21.866 11.7994 21.8696 11.8217C21.873 11.8426 22.1954 13.8251 22.2778 15.0319C22.5394 15.0619 22.7856 15.1706 22.984 15.3436C23.5604 14.402 23.7437 13.343 23.5422 12.1087C23.0817 9.26087 22.0768 7.17699 20.5548 5.90775C19.2522 4.82371 18.0156 4.73393 17.7811 4.72693C16.8329 4.69716 16.2302 5.5672 16.2242 5.57604C16.211 5.59557 16.1935 5.612 16.173 5.62412C16.1527 5.63626 16.1301 5.64382 16.1064 5.64629C16.083 5.64879 16.0591 5.64611 16.0368 5.63847C16.0144 5.63085 15.9939 5.61842 15.9767 5.60209C15.919 5.54671 14.5345 4.25797 12.5496 5.2643C10.9343 6.08502 9.3441 7.90419 8.06698 9.36601C7.0665 10.511 6.20304 11.4997 5.53718 11.7923C4.45836 12.2674 3.24122 12.1799 2.06412 12.0957C0.740465 12.0026 -0.509667 11.9096 -1.54907 12.5656C-2.74897 13.3207 -3.2119 15.0226 -2.56099 16.2816C-1.9101 17.5406 -0.253307 18.1459 1.05639 17.6034C1.08195 17.5929 1.10977 17.589 1.13725 17.5921C1.16473 17.5953 1.19094 17.6054 1.21343 17.6215C1.23592 17.6376 1.25394 17.6592 1.26577 17.6842C1.2776 17.7092 1.28288 17.7368 1.28111 17.7644C1.2197 18.7275 1.19783 20.1525 1.71752 21.4078C2.22231 22.6267 3.21145 23.5159 4.29924 23.727C5.23298 23.909 6.2007 23.6173 7.13722 23.3354C7.26566 23.2967 7.39358 23.2582 7.52124 23.221C8.08934 23.0549 8.74792 22.8989 9.40442 22.8989ZM11.2585 14.4899C11.2559 14.4908 11.253 14.4921 11.2507 14.4936L11.2585 14.4899Z" fill="black"/>
<path id="Vector_4" d="M31.6898 46.1284C32.0156 45.8957 32.2836 45.8279 32.6991 45.8027C33.2779 45.7702 35.6766 47.4492 37.3586 48.2394C37.3656 48.3291 37.3586 48.1523 37.3586 48.2394C36.6956 47.1632 35.8581 46.4922 34.7606 45.7083C34.2952 45.3828 33.9232 45.0104 33.8301 44.4522C33.736 44.1067 33.7807 43.7383 33.9544 43.4252C34.1283 43.1124 34.4177 42.8797 34.7606 42.7773C35.3022 42.652 35.7692 42.8628 36.1951 43.1088C36.2096 43.0537 36.2221 42.9978 36.2328 42.9414C36.3193 42.4562 36.2835 41.9567 36.128 41.4887C35.9725 41.021 35.7026 40.5993 35.3425 40.2626C34.4414 39.4371 33.1284 39.2637 31.9066 39.2501C30.9761 39.2395 30.4025 39.2348 29.5934 39.3575C30.7566 38.9719 32.164 37.9655 32.9261 36.6478C33.5308 35.601 33.8881 33.9563 33.5308 32.4764C33.1736 30.9964 31.8689 29.8566 30.3466 29.8472C28.6405 29.8366 27.7318 30.9905 26.5535 32.2236C23.9587 34.9409 20.8465 37.4387 17.1394 38.0515C15.6473 38.2985 14.1231 38.2276 12.6149 38.3308C11.1064 38.434 9.55571 38.7403 8.33294 39.6303C6.6432 40.8616 5.6279 42.3691 5.62842 43.7422C5.9412 45.4506 8.65768 57.7985 8.65768 57.7985C9.81728 60.1482 19.1297 59.7758 21.7456 59.599C30.8887 58.9789 35.5664 57.5911 36.5689 56.2167C37.3068 55.2056 37.0044 53.8437 36.3474 53.2524C35.057 53.2665 34.4707 53.513 33.2183 53.0827C32.7995 52.943 32.4357 52.5026 32.2961 52.0372C32.1565 51.5255 32.4222 50.8165 32.9339 50.6769C34.1073 50.3293 35.3118 50.9358 36.4798 50.9712C36.5162 50.9483 36.5492 50.92 36.5773 50.8875C35.317 49.8696 33.6463 49.718 32.1729 48.9614C31.6609 48.7287 31.2288 48.21 31.0892 47.6518C30.9017 47.0933 31.2246 46.4077 31.6898 46.1284Z" fill="#A88CFF"/>
<path id="Vector_5" d="M17.6308 59.8968C16.6826 59.8968 15.659 59.8737 14.6452 59.8095C11.0981 59.5833 9.03471 58.9309 8.51159 57.8712C8.50587 57.8595 8.50145 57.8473 8.49859 57.8345C8.47129 57.7108 5.77795 45.4637 5.46803 43.7724C5.46621 43.7628 5.46543 43.7527 5.46569 43.7428C5.46569 42.3297 6.47579 40.7827 8.23729 39.4991C9.30017 38.7245 10.688 38.3015 12.605 38.1694C13.1443 38.1322 13.6931 38.1169 14.2235 38.1023C15.1775 38.0758 16.1634 38.0485 17.1142 37.8912C20.1939 37.3793 23.1556 35.5452 26.4362 32.1127C26.5454 31.9978 26.6531 31.8842 26.7592 31.7711C27.8166 30.6471 28.7294 29.6752 30.3482 29.6859C31.902 29.6958 33.3075 30.8538 33.6895 32.4398C34.0935 34.1147 33.6068 35.7974 33.067 36.7308C32.4651 37.7716 31.4945 38.5919 30.5783 39.0976C30.9883 39.0786 31.3999 39.0831 31.9085 39.0888C32.9479 39.1005 34.4466 39.2222 35.4525 40.1439C35.8324 40.4998 36.1176 40.9452 36.2817 41.4392C36.446 41.9332 36.4842 42.4607 36.3927 42.9732C36.3815 43.0304 36.3685 43.0899 36.3526 43.151C36.3464 43.1752 36.3347 43.1978 36.3183 43.2171C36.3019 43.236 36.2814 43.2511 36.2583 43.2607C36.2349 43.2706 36.2099 43.2748 36.1847 43.2732C36.1597 43.2714 36.1353 43.2641 36.1134 43.2514C35.6566 42.9877 35.2588 42.8328 34.8033 42.936C34.5012 43.0262 34.2466 43.2314 34.094 43.5072C33.9414 43.7831 33.9032 44.1078 33.9874 44.4118C33.9887 44.4167 33.9898 44.4216 33.9905 44.4266C34.0626 44.8592 34.321 45.2032 34.854 45.5763C35.8618 46.296 36.7533 46.9829 37.4498 48.0793C37.4743 48.0973 37.4938 48.1209 37.5068 48.1485C37.5198 48.1758 37.5255 48.2059 37.5237 48.2361C37.5307 48.4152 37.3869 48.4288 37.3705 48.4298C37.3427 48.4316 37.3146 48.4259 37.2897 48.4134C37.2645 48.4012 37.2429 48.3822 37.2273 48.3591C36.5294 48.025 35.732 47.5578 34.9616 47.1056C34.0516 46.5716 33.0215 45.9666 32.7199 45.9666H32.7082C32.2873 45.9905 32.0626 46.0596 31.7847 46.2604L31.7735 46.2676C31.3892 46.5003 31.0757 47.1022 31.2423 47.6001C31.2436 47.604 31.2447 47.6079 31.2455 47.6118C31.3721 48.1175 31.7712 48.6001 32.2384 48.8125L32.2459 48.8159C32.8252 49.1136 33.4482 49.3198 34.0501 49.5195C34.9598 49.8203 35.9 50.132 36.6784 50.7607C36.6964 50.7753 36.7109 50.7935 36.7213 50.8143C36.7317 50.8348 36.7374 50.8574 36.7385 50.8806C36.7393 50.9037 36.7354 50.9268 36.7268 50.9482C36.7179 50.9697 36.7049 50.989 36.688 51.0048C36.6613 51.0306 36.6548 51.0376 36.6524 51.0402C36.6423 51.0519 36.6306 51.062 36.6178 51.0706C36.6137 51.0732 36.6038 51.0802 36.577 51.1008C36.5471 51.1231 36.5107 51.1348 36.4735 51.1338C36.0232 51.1203 35.5674 51.0241 35.1244 50.9315C34.38 50.7747 33.6733 50.6263 32.9768 50.8327C32.5525 50.9487 32.3338 51.5675 32.45 51.996C32.5795 52.4273 32.9154 52.8129 33.2667 52.9296C34.1361 53.2284 34.6577 53.1907 35.3797 53.1387C35.659 53.1181 35.9743 53.0952 36.3425 53.0921C36.3833 53.0911 36.4231 53.1062 36.4533 53.134C37.1854 53.7933 37.466 55.2616 36.6974 56.3148C36.147 57.0691 34.6075 57.7734 32.2454 58.3509C29.6145 58.9949 26.0839 59.4676 21.7529 59.764C21.1575 59.8019 19.5481 59.8968 17.6308 59.8968ZM8.81137 57.7443C9.82147 59.7029 17.401 59.7304 21.7321 59.4364C26.0444 59.1441 29.5557 58.6715 32.169 58.0326C35.0578 57.326 36.0833 56.6029 36.4351 56.1203C37.0864 55.2296 36.876 54.0016 36.2814 53.4163C35.952 53.4221 35.6738 53.4423 35.4039 53.4629C34.6723 53.5159 34.0943 53.556 33.163 53.2377C32.7121 53.0874 32.2992 52.6241 32.1393 52.0849C32.0629 51.7742 32.0918 51.4468 32.2207 51.1543C32.3603 50.8286 32.6066 50.5992 32.8902 50.5215C33.6622 50.293 34.4409 50.4568 35.1938 50.6146C35.5274 50.6848 35.8451 50.7542 36.1623 50.7867C35.4998 50.3442 34.743 50.0935 33.9482 49.8307C33.3356 49.6274 32.7017 49.4175 32.1006 49.1094C31.5424 48.8541 31.0845 48.3014 30.9319 47.6989C30.7192 47.0474 31.1045 46.2957 31.6009 45.9936C31.9701 45.7313 32.2803 45.6681 32.6903 45.6434C33.0564 45.621 33.8533 46.0791 35.1267 46.8259C35.7112 47.1688 36.31 47.5206 36.8664 47.8133C36.2507 47.0097 35.4993 46.4385 34.6665 45.8433C34.2633 45.5615 33.7825 45.1515 33.6715 44.4895C33.5712 44.1044 33.6234 43.6955 33.8174 43.3478C34.0113 43.0005 34.3322 42.7413 34.7126 42.6248L34.7243 42.6214C35.2359 42.5034 35.679 42.6521 36.0825 42.8635C36.154 42.4124 36.114 41.9506 35.966 41.5187C35.8178 41.0866 35.5661 40.6977 35.2328 40.3854C34.3093 39.5396 32.8913 39.427 31.9053 39.4159C31.0138 39.4057 30.4249 39.399 29.6181 39.5214C29.5776 39.5279 29.536 39.5188 29.5019 39.4962C29.4676 39.4733 29.4434 39.4385 29.4338 39.3984C29.4242 39.3584 29.4301 39.3163 29.4504 39.2807C29.4707 39.2448 29.5035 39.218 29.5427 39.2055C30.6001 38.8556 32.0132 37.9029 32.7854 36.5689C33.3356 35.6183 33.7305 33.9969 33.3736 32.5175C33.0262 31.0751 31.7527 30.0218 30.3466 30.013C28.8704 30.0041 28.0022 30.9271 26.9968 31.996C26.8907 32.1091 26.7828 32.224 26.671 32.3392C23.3399 35.824 20.32 37.691 17.1672 38.2126C16.1946 38.3738 15.1975 38.4011 14.2329 38.4276C13.7053 38.4424 13.1601 38.4575 12.6274 38.4942C10.7746 38.6221 9.44031 39.0251 8.42943 39.7619C6.75867 40.9795 5.79823 42.4241 5.79121 43.7282C6.10685 45.4362 8.68839 57.1817 8.81137 57.7443Z" fill="#A88CFF"/>
<path id="Vector_6" d="M15.7086 27.8983C14.3496 27.8983 12.5379 27.695 11.5954 26.7309C11.5793 26.7158 11.5666 26.6979 11.5577 26.6776C11.5489 26.6576 11.5442 26.6357 11.5439 26.6139C11.5439 26.5918 11.5481 26.5702 11.5564 26.5499C11.565 26.5296 11.5772 26.5112 11.5931 26.4958C11.6087 26.4805 11.6274 26.4685 11.6479 26.4605C11.6682 26.4524 11.6901 26.4488 11.7122 26.4496C11.734 26.4501 11.7556 26.4553 11.7756 26.4646C11.7956 26.4737 11.8133 26.487 11.8281 26.5034C12.5972 27.2901 14.294 27.6716 16.4839 27.5507C19.0855 27.4069 21.7682 26.5658 22.4642 25.6758C22.4775 25.6589 22.4938 25.6449 22.5126 25.6342C22.531 25.6238 22.5516 25.617 22.5729 25.6144C22.5942 25.6118 22.6155 25.6137 22.6363 25.6194C22.6569 25.6251 22.6761 25.6347 22.693 25.648C22.7096 25.6612 22.7239 25.6776 22.7343 25.6963C22.7447 25.7148 22.7515 25.7353 22.7541 25.7567C22.7567 25.778 22.7551 25.7993 22.7494 25.8201C22.7434 25.8406 22.7338 25.8599 22.7206 25.8768C22.341 26.3625 21.4759 26.8351 20.2864 27.2075C19.0564 27.5813 17.7858 27.806 16.5019 27.8759C16.2666 27.8889 15.998 27.8983 15.7086 27.8983Z" fill="black"/>
<path id="Vector_7" d="M-1.77566 41.795C-1.80317 41.795 -1.83026 41.7882 -1.85439 41.775C-1.87849 41.7617 -1.89888 41.7427 -1.91357 41.7193C-1.92826 41.6962 -1.93681 41.6694 -1.9384 41.6421C-1.94001 41.6145 -1.9346 41.5872 -1.92269 41.5623C-0.648355 38.8858 0.0309205 36.2804 0.576218 34.1866C1.11496 32.1186 1.54069 30.4855 2.3079 29.5973C3.10906 28.6704 4.08983 27.9341 5.14585 27.4679C6.30025 26.956 7.49131 26.8044 8.58877 27.0239C8.78195 27.0626 8.97461 27.1123 9.16103 27.1635C9.55207 27.2654 9.92179 27.3619 10.3024 27.3619H10.3136C10.8383 27.359 11.4303 27.0909 11.552 26.5829C11.5629 26.5418 11.5894 26.5067 11.6258 26.4849C11.6622 26.463 11.7056 26.4563 11.747 26.4659C11.7883 26.4758 11.8242 26.5013 11.8471 26.5371C11.8697 26.573 11.8778 26.6162 11.8689 26.6578C11.7103 27.3296 10.9672 27.6843 10.3154 27.6874C9.88877 27.6874 9.47797 27.5823 9.07887 27.4786C8.89687 27.4321 8.70889 27.3821 8.52507 27.3455C6.11045 26.8634 3.85721 28.3038 2.55355 29.8113C1.83566 30.6418 1.4188 32.2428 0.890247 34.2695C0.341257 36.3776 -0.342204 39.0008 -1.63004 41.7037C-1.64345 41.731 -1.66417 41.7539 -1.68989 41.77C-1.7156 41.7861 -1.74532 41.7947 -1.77566 41.795ZM-3.01558 29.9197C-3.03757 29.9197 -3.05936 29.9153 -3.07959 29.9067C-3.09982 29.8982 -3.11809 29.8854 -3.13328 29.8696C-5.32843 27.5696 -7.37947 25.1363 -9.27469 22.5836C-9.3081 22.5711 -9.33641 22.5477 -9.35518 22.5175L-9.54501 22.2159C-9.56651 22.1803 -9.5735 22.1377 -9.56461 22.0971C-9.55569 22.0563 -9.53154 22.0207 -9.49709 21.9973C-9.46267 21.9739 -9.42055 21.9645 -9.37944 21.9713C-9.33833 21.9778 -9.30136 22.0001 -9.27609 22.0332C-7.31624 24.7049 -5.18572 27.2475 -2.89787 29.6444C-2.8758 29.6673 -2.86101 29.6964 -2.85529 29.7279C-2.84959 29.7591 -2.85323 29.7916 -2.86576 29.8209C-2.87832 29.8503 -2.8992 29.8753 -2.92582 29.8927C-2.95247 29.9104 -2.98368 29.9197 -3.01558 29.9197ZM-6.14676 31.221C-6.17993 31.2213 -6.21235 31.2112 -6.23981 31.1927L-8.13526 29.8854C-8.15286 29.8732 -8.16789 29.8576 -8.17946 29.8394C-8.19106 29.8215 -8.19896 29.8014 -8.20276 29.7804C-8.20658 29.7593 -8.20619 29.7375 -8.20161 29.7167C-8.19706 29.6956 -8.18843 29.6759 -8.17621 29.6582C-8.16399 29.6408 -8.14842 29.6257 -8.1304 29.614C-8.11238 29.6025 -8.09226 29.5945 -8.07117 29.5908C-8.05009 29.5869 -8.02845 29.5875 -8.00752 29.5919C-7.98659 29.5966 -7.96676 29.6051 -7.94918 29.6174L-6.0537 30.9241C-6.0251 30.9439 -6.00357 30.9725 -5.99226 31.0052C-5.98095 31.0383 -5.98046 31.0739 -5.99086 31.1069C-6.00126 31.1402 -6.02201 31.169 -6.05006 31.1896C-6.07812 31.2101 -6.11199 31.2213 -6.14676 31.221ZM-9.02717 37.8375C-9.04297 37.8373 -9.05865 37.8349 -9.07371 37.83L-14.8206 36.0443C-14.8418 36.0388 -14.8617 36.029 -14.8791 36.0154C-14.8964 36.0019 -14.9109 35.985 -14.9215 35.966C-14.9322 35.9468 -14.9389 35.9255 -14.9412 35.9036C-14.9434 35.8818 -14.9412 35.8597 -14.9347 35.8386C-14.9282 35.8178 -14.9175 35.7983 -14.9033 35.7814C-14.889 35.7648 -14.8716 35.751 -14.8519 35.7411C-14.8323 35.7315 -14.8108 35.7255 -14.7889 35.7242C-14.7669 35.7229 -14.745 35.7263 -14.7243 35.7336L-8.97878 37.5193C-8.94181 37.5307 -8.91017 37.5552 -8.88955 37.5879C-8.86893 37.6209 -8.86069 37.6599 -8.86628 37.6982C-8.87189 37.7366 -8.89098 37.7717 -8.92012 37.7972C-8.94927 37.8227 -8.98658 37.837 -9.02532 37.8375H-9.02717ZM-10.2643 39.5218C-10.3038 39.5213 -10.3419 39.5067 -10.3714 39.4805C-10.4008 39.4539 -10.4198 39.4178 -10.4245 39.3785C-10.4293 39.3393 -10.4197 39.2998 -10.3974 39.267C-10.3751 39.2345 -10.3417 39.2111 -10.3034 39.2012L-9.25794 38.9397C-9.23712 38.9342 -9.21541 38.9329 -9.19406 38.936C-9.17274 38.9389 -9.15223 38.9462 -9.13369 38.9571C-9.11515 38.968 -9.099 38.9826 -9.08611 39C-9.07324 39.0171 -9.06393 39.0369 -9.0587 39.0577C-9.05345 39.0785 -9.05244 39.1003 -9.05566 39.1217C-9.05886 39.143 -9.06627 39.1633 -9.07745 39.1817C-9.08863 39.2002 -9.10335 39.216 -9.12074 39.2288C-9.13816 39.2415 -9.15789 39.2506 -9.17885 39.2556L-10.2243 39.5171C-10.2374 39.5202 -10.2508 39.5218 -10.2643 39.5218ZM39.1814 27.7909C39.1494 27.7906 39.1182 27.7812 39.0917 27.7636C39.0649 27.7459 39.0441 27.7207 39.0316 27.6913C39.0192 27.6619 39.0155 27.6294 39.0215 27.5979C39.0272 27.5665 39.042 27.5374 39.0641 27.5145L45.0153 21.373C45.0296 21.3559 45.0475 21.3418 45.0675 21.3317C45.0876 21.3218 45.1094 21.3158 45.1318 21.3148C45.1544 21.3137 45.1767 21.3171 45.1975 21.3252C45.2186 21.333 45.2378 21.3452 45.254 21.3608C45.2698 21.3764 45.2826 21.3951 45.2911 21.4159C45.2995 21.4367 45.3036 21.4591 45.3031 21.4814C45.3026 21.5038 45.2974 21.5259 45.2878 21.5462C45.2784 21.5667 45.2646 21.5847 45.248 21.5995L39.2974 27.7409C39.2823 27.7565 39.2643 27.769 39.2443 27.7776C39.2246 27.7862 39.203 27.7906 39.1814 27.7909ZM37.5754 26.3182C37.547 26.3177 37.5195 26.3099 37.4953 26.2956C37.4709 26.281 37.4508 26.2608 37.4368 26.2363C37.4228 26.2119 37.4152 26.1841 37.415 26.156C37.415 26.1276 37.422 26.1001 37.4358 26.0754L38.3515 24.4418C38.3738 24.4067 38.4089 24.3815 38.4495 24.3713C38.4898 24.3612 38.5327 24.3672 38.5691 24.3877C38.6053 24.4083 38.6323 24.4421 38.6445 24.4821C38.6567 24.5219 38.6531 24.565 38.6344 24.6022L37.7186 26.2363C37.7041 26.2615 37.6833 26.2823 37.6581 26.2966C37.6328 26.3112 37.6042 26.3185 37.5754 26.3182ZM42.5812 34.2415C42.545 34.2417 42.5102 34.23 42.4816 34.2082C42.453 34.1866 42.4324 34.1559 42.4231 34.1213C42.4137 34.0868 42.4161 34.0498 42.4296 34.0166C42.4434 33.9835 42.4675 33.9557 42.4987 33.9378C45.1175 32.4144 47.8774 31.1477 50.7397 30.1556C50.7805 30.1415 50.8255 30.1441 50.8642 30.1631C50.9032 30.1821 50.9329 30.2156 50.9472 30.2564C50.9612 30.2973 50.9586 30.342 50.9396 30.381C50.9207 30.4197 50.8871 30.4496 50.8463 30.4637C48.0035 31.4485 45.2628 32.7062 42.6625 34.2191C42.6378 34.2339 42.6098 34.2417 42.5812 34.2415ZM45.0943 36.973C45.0543 36.973 45.0153 36.9582 44.9854 36.9314C44.9555 36.9046 44.9365 36.8677 44.9321 36.8277C44.9279 36.7879 44.9386 36.7476 44.962 36.7151C44.9854 36.6823 45.0202 36.6597 45.0595 36.6511L47.1533 36.1933C47.1741 36.1889 47.1956 36.1883 47.2167 36.1922C47.2378 36.1959 47.2578 36.2039 47.2757 36.2154C47.2939 36.2268 47.3093 36.2419 47.3215 36.2596C47.3337 36.277 47.3423 36.2968 47.347 36.3178C47.3514 36.3386 47.3519 36.3602 47.348 36.3813C47.3444 36.4023 47.3363 36.4223 47.3249 36.4405C47.3132 36.4585 47.2983 36.4738 47.2807 36.486C47.2632 36.4983 47.2435 36.5071 47.2224 36.5115L45.1289 36.9694C45.1175 36.9717 45.106 36.973 45.0943 36.973ZM27.0911 33.4888C26.6421 33.4864 26.1962 33.4108 25.7714 33.2649C25.7511 33.2581 25.7324 33.2475 25.716 33.2334C25.6999 33.2194 25.6866 33.2022 25.6773 33.1833C25.6676 33.164 25.6619 33.1432 25.6604 33.1219C25.6591 33.1006 25.6617 33.0793 25.6684 33.059C25.6752 33.0387 25.6858 33.0197 25.6999 33.0036C25.7139 32.9875 25.7311 32.9742 25.7503 32.9649C25.7693 32.9552 25.7901 32.9495 25.8114 32.948C25.833 32.9467 25.8543 32.9493 25.8746 32.956C28.1106 33.7046 29.6594 32.2116 30.2215 31.5315C30.2491 31.4982 30.2886 31.4771 30.3318 31.4732C30.3747 31.4691 30.4176 31.4823 30.4509 31.5099C30.4841 31.5377 30.5049 31.5772 30.5091 31.6204C30.513 31.6633 30.4997 31.7062 30.4722 31.7395C29.9842 32.3255 28.8038 33.4888 27.0911 33.4888ZM-13.5295 44.9639C-13.57 44.9636 -13.609 44.9485 -13.6388 44.921C-13.6687 44.8937 -13.6873 44.8562 -13.6909 44.8157C-13.6946 44.7754 -13.6831 44.7351 -13.6587 44.7028C-13.6342 44.6706 -13.5986 44.6485 -13.5588 44.6409L-8.92109 43.778C-8.87912 43.7712 -8.83614 43.7811 -8.80138 43.8056C-8.76659 43.83 -8.74278 43.8672 -8.735 43.9088C-8.7272 43.9506 -8.7361 43.9938 -8.75976 44.0292C-8.78339 44.0645 -8.81992 44.0892 -8.86155 44.0981L-13.4992 44.961C-13.5092 44.9628 -13.5193 44.9639 -13.5295 44.9639ZM13.1679 27.58C13.1289 27.5797 13.0909 27.5657 13.0613 27.5402C13.0316 27.5145 13.0121 27.4791 13.0064 27.4404C12.7859 25.8427 12.6479 24.928 12.5148 24.0398C12.3816 23.1517 12.2431 22.2352 12.0215 20.6357C11.9597 20.1856 11.8871 19.792 11.6308 19.531C11.4547 19.3519 11.2096 19.2556 10.9496 19.1537C10.805 19.0994 10.6636 19.0373 10.5258 18.9676C9.96755 18.6745 9.58119 18.1362 9.52217 17.5625C9.45717 16.9288 9.82793 16.2886 10.3856 16.0737C10.4644 16.0445 10.5447 16.0196 10.6261 15.9988C10.7592 15.9625 10.8846 15.9285 10.9779 15.8592C11.2171 15.6796 11.2272 15.3037 11.2028 14.9245C11.1999 14.8813 11.2142 14.8388 11.2428 14.8062C11.2714 14.7737 11.3117 14.7538 11.3549 14.751C11.3981 14.7481 11.4404 14.7626 11.4732 14.7911C11.5057 14.8196 11.5255 14.8599 11.5283 14.9031C11.5572 15.3512 11.5377 15.8462 11.1739 16.1198C11.0304 16.2272 10.8692 16.271 10.7127 16.3138C10.6389 16.3342 10.5687 16.3533 10.5039 16.3784C10.078 16.5432 9.79569 17.0386 9.84639 17.5309C9.89293 17.9961 10.2127 18.4381 10.6768 18.681C10.8045 18.7445 10.9355 18.8011 11.0692 18.8508C11.3484 18.9606 11.6391 19.0741 11.8635 19.3026C12.2165 19.6618 12.2904 20.1986 12.345 20.5909C12.5655 22.1881 12.7035 23.1033 12.8372 23.9915C12.9705 24.8796 13.1089 25.7961 13.3299 27.3957C13.3332 27.4172 13.3322 27.4391 13.3267 27.4601C13.3215 27.4809 13.3122 27.5007 13.2992 27.5181C13.2862 27.5355 13.2698 27.5501 13.2511 27.561C13.2324 27.5719 13.2118 27.579 13.1902 27.5818L13.1679 27.58ZM17.3944 21.2929C17.0089 21.2932 16.6241 21.2573 16.2452 21.1856C16.2042 21.1759 16.1685 21.1507 16.1457 21.1156C16.123 21.0805 16.1145 21.0376 16.1225 20.9965C16.1303 20.9552 16.1537 20.9185 16.188 20.8941C16.2224 20.8699 16.2645 20.8598 16.3061 20.8658C17.4574 21.0805 18.6463 20.951 19.7243 20.4937C20.2563 20.2662 20.6613 19.9977 20.9619 19.6724C21.3808 19.2221 21.6655 18.574 21.8152 17.7467C22.1493 15.8987 21.6961 12.5684 21.55 11.8845C21.5446 11.8632 21.5435 11.8411 21.5466 11.8194C21.55 11.7977 21.5578 11.7769 21.5693 11.7582C21.581 11.7396 21.596 11.7235 21.614 11.7108C21.6319 11.6982 21.6522 11.6893 21.6738 11.6847C21.6951 11.6802 21.7175 11.68 21.739 11.6842C21.7604 11.6884 21.7809 11.6969 21.7991 11.7092C21.8173 11.7215 21.8326 11.7374 21.8446 11.7558C21.8566 11.7743 21.8646 11.7949 21.8683 11.8166C22.0172 12.5145 22.4782 15.9108 22.1358 17.8049C21.9749 18.6945 21.6603 19.3975 21.2011 19.8939C20.8683 20.2535 20.4273 20.5475 19.8517 20.7937C19.0746 21.1237 18.2387 21.2935 17.3944 21.2929Z" fill="black"/>
<path id="Vector_8" d="M21.2406 26.7802C21.2048 26.7802 21.1699 26.7683 21.1416 26.7464C21.1132 26.7246 21.093 26.6939 21.0839 26.6593C20.8288 25.7093 20.4994 23.1363 20.3915 20.2386C20.3907 20.2173 20.3941 20.196 20.4016 20.176C20.4092 20.156 20.4203 20.1375 20.4349 20.1216C20.4495 20.106 20.4671 20.0933 20.4864 20.0845C20.5059 20.0756 20.5269 20.0707 20.5483 20.0699C20.5698 20.0691 20.5912 20.0725 20.6112 20.0798C20.6312 20.0873 20.6497 20.0988 20.6653 20.1133C20.6809 20.1279 20.6936 20.1453 20.7024 20.1648C20.7115 20.1843 20.7165 20.2051 20.7173 20.2267C20.8241 23.1005 21.1481 25.6422 21.3985 26.5751C21.4039 26.5956 21.4052 26.6172 21.4026 26.6385C21.3998 26.6599 21.3927 26.6801 21.3821 26.6989C21.3714 26.7173 21.3571 26.7334 21.34 26.7464C21.3231 26.7597 21.3036 26.7691 21.283 26.7745C21.2692 26.7784 21.2549 26.7802 21.2406 26.7802ZM11.5564 18.2055C11.1553 18.2055 10.6792 17.8738 10.5482 17.4899C10.5406 17.4696 10.5372 17.448 10.5383 17.4263C10.5393 17.4046 10.5445 17.3834 10.5539 17.3638C10.5632 17.3442 10.5765 17.3267 10.5926 17.3123C10.6087 17.2979 10.6277 17.2868 10.6482 17.2798C10.6685 17.2727 10.6904 17.2699 10.7119 17.2713C10.7335 17.2728 10.7548 17.2786 10.7741 17.2883C10.7936 17.2981 10.8108 17.3116 10.8248 17.328C10.8388 17.3445 10.8495 17.3637 10.856 17.3843C10.9519 17.6635 11.3508 17.8998 11.5897 17.8784C11.6329 17.8745 11.676 17.888 11.7093 17.9157C11.7426 17.9435 11.7634 17.9834 11.7673 18.0266C11.7712 18.0698 11.7577 18.1128 11.7298 18.1461C11.7023 18.1793 11.6622 18.2002 11.6191 18.2041C11.5978 18.205 11.5767 18.2055 11.5564 18.2055ZM17.5544 16.6823C17.5135 16.6825 17.474 16.6674 17.4439 16.6398C17.4134 16.6123 17.3947 16.5744 17.3913 16.5336C17.3877 16.4929 17.3994 16.4523 17.4246 16.4199C17.4496 16.3876 17.4857 16.3658 17.526 16.3589C17.7317 16.3222 18.001 16.2351 18.1165 16.0267C18.1404 15.9778 18.1531 15.924 18.1531 15.8694C18.1531 15.8149 18.1404 15.7611 18.1165 15.7122C18.1043 15.6835 18.085 15.6583 18.0606 15.6388C18.0364 15.6194 18.0075 15.6062 17.9769 15.6005C17.9342 15.598 17.8913 15.5998 17.8489 15.6061C17.7512 15.6164 17.6298 15.6294 17.5112 15.5684C17.2886 15.454 17.2642 15.1771 17.2533 15.059L17.1004 13.351C17.0983 13.3296 17.1007 13.3081 17.1072 13.2876C17.1137 13.2671 17.1241 13.2481 17.1378 13.2316C17.1516 13.2152 17.1685 13.2016 17.1875 13.1916C17.2065 13.1817 17.2273 13.1756 17.2486 13.1737C17.2702 13.1718 17.2918 13.1742 17.3121 13.1806C17.3326 13.187 17.3516 13.1974 17.3682 13.2112C17.3846 13.225 17.3981 13.2419 17.408 13.2609C17.4181 13.28 17.4241 13.3008 17.4259 13.3222L17.5791 15.0301C17.5843 15.0836 17.5986 15.2465 17.662 15.279C17.7122 15.2921 17.765 15.2932 17.8159 15.2823C17.883 15.2728 17.9509 15.2711 18.0182 15.2772C18.1017 15.2893 18.181 15.3219 18.2488 15.3721C18.3167 15.4222 18.371 15.4884 18.4072 15.5647C18.4561 15.6607 18.4813 15.767 18.4807 15.8747C18.4802 15.9824 18.4537 16.0885 18.4041 16.184C18.2644 16.438 17.981 16.6092 17.5861 16.6794C17.5757 16.6815 17.565 16.6824 17.5544 16.6823Z" fill="black"/>
<path id="Vector_9" d="M14.888 15.9082C14.849 15.9082 14.8113 15.8943 14.7817 15.869C14.7523 15.8437 14.7328 15.8086 14.7268 15.7701C14.7209 15.7316 14.7289 15.6923 14.7497 15.6592C14.7703 15.6262 14.802 15.6016 14.8392 15.59L15.6907 15.3224C15.7317 15.3095 15.7765 15.3134 15.8147 15.3334C15.8532 15.3534 15.8818 15.3878 15.8948 15.429C15.9078 15.4702 15.9039 15.5149 15.8838 15.5532C15.8638 15.5915 15.8295 15.6203 15.7882 15.6332L14.9369 15.9022C14.9211 15.9067 14.9044 15.9087 14.888 15.9082Z" fill="#A88CFF"/>
<path id="Vector_10" d="M22.0456 18.1037C22.0066 18.1039 21.9687 18.0902 21.939 18.0649C21.9091 18.0396 21.8896 18.0045 21.8836 17.966C21.8774 17.9274 21.8855 17.888 21.906 17.8549C21.9268 17.8217 21.9585 17.7971 21.9957 17.7854C22.3862 17.6607 23.2151 16.941 22.9522 15.8992C22.842 15.4624 22.3792 15.3102 22.1507 15.347C22.108 15.354 22.0643 15.3437 22.0292 15.3185C21.9941 15.2933 21.9707 15.2552 21.9637 15.2125C21.9567 15.1699 21.9668 15.1262 21.9921 15.0912C22.0173 15.0561 22.0555 15.0325 22.0981 15.0255C22.4884 14.9622 23.1124 15.2023 23.2681 15.8197C23.5781 17.0475 22.641 17.9213 22.0948 18.0957C22.0789 18.1008 22.0623 18.1035 22.0456 18.1037ZM15.2113 13.6019L15.2053 13.6025C15.1639 13.6062 15.1335 13.6427 15.1374 13.6839L15.2071 14.4456C15.211 14.4868 15.2474 14.5171 15.2885 14.5133L15.2945 14.5128C15.3358 14.509 15.3662 14.4725 15.3623 14.4314L15.2926 13.6697C15.2887 13.6285 15.2523 13.5981 15.2113 13.6019Z" fill="black"/>
<path id="Vector_11" d="M15.2819 14.7932C15.1938 14.7932 15.1088 14.7602 15.0433 14.7007C14.978 14.6413 14.9372 14.5596 14.9289 14.4717L14.8597 13.7096C14.8511 13.6162 14.88 13.5231 14.94 13.451C15.0001 13.3788 15.0862 13.3335 15.1798 13.3249H15.1852C15.2786 13.3166 15.3714 13.3456 15.4434 13.4056C15.5152 13.4656 15.5604 13.5517 15.5692 13.645L15.6389 14.4071C15.6475 14.5004 15.6186 14.5933 15.5586 14.6654C15.4988 14.7374 15.4127 14.7827 15.3194 14.7914H15.3131C15.304 14.7928 15.2929 14.7932 15.2819 14.7932Z" fill="black"/>
<path id="Vector_12" d="M19.944 15.4457C19.9373 15.4462 19.9305 15.4462 19.924 15.4457L19.0377 15.3373C18.9948 15.332 18.9558 15.3099 18.9293 15.2759C18.9025 15.2419 18.8905 15.1987 18.8957 15.1558C18.9009 15.1129 18.923 15.0739 18.9571 15.0473C18.9911 15.0207 19.0343 15.0087 19.0772 15.0139L19.9635 15.1228C19.9849 15.1241 20.0059 15.1296 20.0252 15.1389C20.0444 15.1483 20.0616 15.1613 20.0759 15.1774C20.0899 15.1934 20.1008 15.2121 20.1078 15.2323C20.1149 15.2526 20.118 15.274 20.1167 15.2954C20.1154 15.3168 20.1099 15.3377 20.1006 15.3569C20.0912 15.3762 20.0779 15.3935 20.0621 15.4077C20.046 15.4219 20.0272 15.4328 20.007 15.4398C19.9867 15.4468 19.9654 15.4497 19.944 15.4484V15.4457Z" fill="#A88CFF"/>
<path id="Vector_13" d="M19.32 14.1454L19.326 14.1449C19.3671 14.1411 19.3975 14.1046 19.3939 14.0634L19.3239 13.3017C19.3203 13.2605 19.2839 13.2302 19.2425 13.234L19.2366 13.2345C19.1955 13.2383 19.1651 13.2748 19.1687 13.3159L19.2386 14.0776C19.2423 14.1188 19.2787 14.1492 19.32 14.1454Z" fill="black"/>
<path id="Vector_14" d="M19.3125 14.4244C19.2243 14.4242 19.1396 14.391 19.0743 14.3315C19.0093 14.2719 18.9687 14.1902 18.9609 14.1024L18.891 13.3431C18.8827 13.2497 18.9115 13.1567 18.9716 13.0846C19.0317 13.0125 19.1177 12.9671 19.2111 12.9583H19.2186C19.3119 12.9503 19.4045 12.9795 19.4763 13.0396C19.5483 13.0996 19.5933 13.1857 19.6021 13.2789L19.6718 14.041C19.6804 14.1343 19.6515 14.2272 19.5914 14.2993C19.5316 14.3714 19.4456 14.4167 19.3522 14.4253H19.3447C19.334 14.4247 19.3234 14.4244 19.3125 14.4244ZM20.5358 20.3931L20.6182 21.5563C20.6182 21.5563 18.6747 21.4604 16.7346 21.0943C16.7346 21.0943 18.7607 21.5725 20.5358 20.3931Z" fill="black"/>
<path id="Vector_15" d="M20.6167 21.7202H20.6089C19.3767 21.6466 18.1498 21.5049 16.9332 21.2964C16.7965 21.2758 16.7133 21.2566 16.6974 21.253C16.6764 21.2485 16.6566 21.24 16.6389 21.228C16.6212 21.2158 16.6062 21.2004 16.5947 21.1825C16.5711 21.1464 16.5627 21.1022 16.5718 21.06C16.5807 21.0177 16.6062 20.9807 16.6423 20.9571C16.6784 20.9337 16.7226 20.9254 16.7648 20.9342L16.9267 20.9641C17.4233 21.0426 19.0288 21.1991 20.444 20.2579C20.4679 20.2418 20.4952 20.2325 20.5238 20.2306C20.5522 20.2286 20.5808 20.2343 20.6063 20.2468C20.632 20.2595 20.6538 20.2785 20.6697 20.3024C20.6856 20.3261 20.6949 20.3536 20.6967 20.382L20.7792 21.5452C20.7807 21.5676 20.7776 21.5899 20.7703 21.611C20.7628 21.632 20.7511 21.6513 20.736 21.6677C20.7207 21.684 20.7022 21.6973 20.6817 21.7061C20.6611 21.715 20.639 21.7197 20.6167 21.7197V21.7202ZM18.8799 21.2446C19.5894 21.3237 20.1627 21.3655 20.4414 21.3843L20.391 20.6752C19.9222 20.9467 19.4116 21.1391 18.8799 21.2446ZM36.7629 51.1072C36.7286 51.1072 36.6951 51.0963 36.6672 51.076C36.6477 51.0614 36.6207 51.0419 36.5913 51.0178C36.2736 50.7702 35.3072 50.0165 33.2602 49.4718C32.6892 49.3202 31.6703 48.9716 31.2566 48.3416C30.8924 47.7865 30.7015 46.8877 31.3643 46.1828C32.0114 45.4938 33.0675 45.5492 34.1887 46.3318C35.1852 47.0265 36.3035 47.6466 37.6074 48.2272C37.6277 48.2355 37.6459 48.2477 37.6612 48.2633C37.6766 48.2787 37.6888 48.2971 37.6968 48.3174C37.7049 48.3377 37.7091 48.3593 37.7085 48.3811C37.708 48.4027 37.7033 48.4243 37.6945 48.4443C37.6857 48.464 37.6727 48.482 37.6568 48.4968C37.6409 48.5119 37.6222 48.5233 37.6017 48.5309C37.5811 48.5384 37.5593 48.5415 37.5377 48.5405C37.5159 48.5394 37.4946 48.534 37.4748 48.5246C36.1517 47.9355 35.016 47.3055 34.0028 46.5988C33.0111 45.9069 32.136 45.8367 31.6014 46.4056C31.0668 46.9748 31.2293 47.7085 31.5289 48.163C31.8965 48.7214 32.9204 49.0446 33.3434 49.1572C35.4549 49.7188 36.4605 50.5032 36.791 50.7609C36.8193 50.783 36.8417 50.8007 36.8589 50.8131C36.8864 50.8334 36.907 50.862 36.9176 50.8945C36.928 50.9273 36.9278 50.9624 36.9171 50.9949C36.9064 51.0276 36.8859 51.056 36.8581 51.076C36.8303 51.0963 36.797 51.1072 36.7627 51.1072H36.7629Z" fill="black"/>
<path id="Vector_16" d="M37.5413 48.5389C37.5135 48.5392 37.4859 48.5321 37.4615 48.5189C37.4371 48.5054 37.4165 48.4859 37.4017 48.4622C37.3892 48.4422 37.3744 48.4157 37.3552 48.3873C37.1942 48.1081 36.7668 47.3736 35.1545 46.1745C34.5604 45.7325 33.8254 45.0723 33.6957 44.4358C33.556 43.7474 33.9156 42.8964 34.763 42.6647C35.472 42.471 36.2931 42.9213 36.7556 43.4221C37.7363 44.4824 38.3751 45.1989 38.9721 46.208C38.9851 46.2265 38.9942 46.2473 38.9986 46.2694C39.0033 46.2912 39.0033 46.3141 38.9986 46.3362C38.9939 46.358 38.9846 46.3788 38.9716 46.3973C38.9586 46.4155 38.9417 46.4308 38.9224 46.4423C38.9029 46.4537 38.8814 46.4612 38.859 46.4638C38.8369 46.4667 38.814 46.4646 38.7927 46.4584C38.7711 46.4519 38.7511 46.441 38.7339 46.4264C38.7168 46.4118 38.7027 46.3939 38.6929 46.3736C38.1123 45.3929 37.4833 44.6875 36.5174 43.6431C36.1066 43.1988 35.4007 42.8285 34.8498 42.9788C34.1618 43.1647 33.9063 43.8365 34.0157 44.3708C34.1007 44.7894 34.5739 45.3365 35.35 45.9132C37.0156 47.1526 37.4677 47.9308 37.638 48.224C37.6531 48.25 37.6656 48.2706 37.6768 48.2896C37.6921 48.3143 37.7007 48.3429 37.7012 48.372C37.702 48.4011 37.6947 48.43 37.6804 48.4554C37.6661 48.4809 37.6453 48.502 37.6204 48.5168C37.5951 48.5314 37.5663 48.5392 37.5372 48.5389H37.5413ZM21.0363 25.5897C21.0363 25.5897 21.1179 25.5432 21.2411 25.4826C21.2411 25.4826 22.5409 25.4137 22.5903 25.7408C22.595 25.7762 22.0479 26.2527 21.2411 26.6173L21.0363 25.5897Z" fill="black"/>
<path id="Vector_17" d="M21.2412 26.7803C21.2152 26.7803 21.1897 26.7741 21.1665 26.7621C21.1447 26.751 21.1257 26.7351 21.1109 26.7153C21.0961 26.6958 21.0859 26.6732 21.081 26.649L20.8769 25.6213C20.8701 25.588 20.874 25.5531 20.8883 25.5219C20.9026 25.491 20.9263 25.4653 20.9559 25.4484C20.9591 25.4484 21.0428 25.3984 21.1689 25.3366C21.1886 25.3269 21.2102 25.3215 21.2323 25.3204C21.7734 25.2916 22.6899 25.3051 22.7489 25.7182C22.7598 25.7921 22.77 25.862 22.3126 26.1891C21.997 26.4132 21.6608 26.6064 21.308 26.7658C21.2869 26.7751 21.2643 26.7801 21.2412 26.7803ZM21.2196 25.6759L21.3592 26.3807C21.7183 26.2047 22.0563 25.9881 22.3662 25.7354C22.193 25.6642 21.7357 25.6228 21.2825 25.6423L21.2196 25.6759ZM12.9906 26.155C12.9906 26.155 11.7428 26.3412 11.7122 26.6173C11.7122 26.6173 12.4399 27.2075 13.1679 27.4186L12.9906 26.155Z" fill="black"/>
<path id="Vector_18" d="M13.1679 27.58C13.1523 27.5803 13.1364 27.5782 13.1213 27.5735C12.3705 27.3556 11.6386 26.7673 11.6079 26.7426C11.5868 26.7251 11.5704 26.7028 11.56 26.6776C11.5499 26.6523 11.546 26.625 11.5489 26.5977C11.5712 26.3991 11.8018 26.2577 12.3208 26.1243C12.6414 26.0419 12.9521 25.9948 12.9651 25.9925C12.9864 25.9893 13.0082 25.9904 13.0293 25.9958C13.0501 26.001 13.0699 26.0107 13.0873 26.0237C13.1044 26.0364 13.119 26.0528 13.1302 26.0715C13.1411 26.09 13.1481 26.1108 13.1512 26.1321L13.3293 27.3939C13.3327 27.417 13.3312 27.4407 13.3244 27.463C13.3179 27.4854 13.3065 27.5062 13.2911 27.5239C13.2758 27.5415 13.2571 27.5556 13.2357 27.5655C13.2144 27.5751 13.1913 27.58 13.1679 27.58ZM11.9521 26.5936C12.2675 26.8268 12.6089 27.0223 12.9698 27.1762L12.8525 26.3414C12.4695 26.4113 12.1146 26.5099 11.9521 26.5951V26.5936ZM1.65745 44.8061C1.62087 44.8061 1.5853 44.7938 1.55654 44.7712C1.52779 44.7486 1.50748 44.7169 1.49895 44.6813C1.4904 44.6456 1.49409 44.6082 1.50943 44.5752C1.52477 44.5419 1.55085 44.5146 1.58348 44.4982C2.0865 44.2411 2.62522 44.0609 3.18165 43.9637C3.2031 43.959 3.2253 43.9585 3.24686 43.9626C3.26844 43.9668 3.28898 43.9754 3.3072 43.9876C3.32543 43.9998 3.34098 44.0157 3.35294 44.0341C3.3649 44.0523 3.37301 44.0731 3.37678 44.0947C3.38055 44.1163 3.3799 44.1386 3.37488 44.16C3.36986 44.1813 3.36055 44.2016 3.34753 44.2192C3.33453 44.2369 3.31807 44.2517 3.29914 44.2629C3.28024 44.2741 3.25926 44.2814 3.23747 44.2842C2.713 44.376 2.20519 44.5458 1.73098 44.7881C1.70825 44.7998 1.68306 44.8061 1.65745 44.8061ZM2.08177 45.5003C2.0428 45.5005 2.00507 45.4867 1.9754 45.4613C1.94576 45.436 1.92619 45.4009 1.92021 45.3625C1.91425 45.324 1.92229 45.2845 1.94288 45.2514C1.96347 45.2184 1.99527 45.1937 2.03245 45.182L3.18861 44.8146C3.209 44.8081 3.23045 44.8055 3.25177 44.8074C3.27309 44.8092 3.29384 44.8152 3.31284 44.825C3.33188 44.8347 3.34875 44.8482 3.36256 44.8646C3.37636 44.8809 3.38684 44.8997 3.39334 44.9202C3.39984 44.9405 3.40228 44.9621 3.40049 44.9834C3.3987 45.0047 3.39274 45.0255 3.38294 45.0445C3.37311 45.0635 3.35967 45.0804 3.34334 45.0941C3.32699 45.1079 3.30811 45.1183 3.28773 45.1248L2.13109 45.4925C2.11515 45.4977 2.09851 45.5003 2.08177 45.5003ZM21.4923 35.4507C21.4595 35.4507 21.4273 35.4409 21.4003 35.4221C21.373 35.4037 21.3522 35.3772 21.3402 35.3465C21.0773 34.6668 20.7893 31.7356 20.782 29.6444C20.782 29.1395 20.7773 28.5678 20.5129 28.1159C20.2911 27.7358 19.7815 27.3533 19.0759 27.5259C19.034 27.5358 18.9901 27.5288 18.9534 27.5062C18.9167 27.4838 18.8907 27.4477 18.8803 27.4061C18.8702 27.3645 18.877 27.3203 18.8991 27.2836C18.9212 27.2467 18.957 27.2202 18.9986 27.2095C19.8782 26.9948 20.5157 27.4747 20.7945 27.9513C21.1026 28.4788 21.1052 29.1242 21.1075 29.6429C21.1169 31.6654 21.3984 34.5891 21.646 35.2287C21.6553 35.2534 21.6587 35.2802 21.6556 35.3064C21.6525 35.3327 21.6431 35.3577 21.6283 35.3795C21.6135 35.4013 21.5934 35.4193 21.57 35.4318C21.5466 35.444 21.5206 35.4507 21.4941 35.4507H21.4923Z" fill="black"/>
<path id="Vector_19" d="M19.6346 28.7035C19.7412 28.7035 19.8275 28.6172 19.8275 28.5106C19.8275 28.404 19.7412 28.3174 19.6346 28.3174C19.528 28.3174 19.4414 28.404 19.4414 28.5106C19.4414 28.6172 19.528 28.7035 19.6346 28.7035Z" fill="black"/>
<path id="Vector_20" d="M19.6346 28.866C19.5642 28.866 19.4953 28.8452 19.4368 28.8059C19.3783 28.7669 19.3325 28.7113 19.3057 28.646C19.2787 28.581 19.2717 28.5095 19.2854 28.4404C19.2992 28.3715 19.3333 28.308 19.3829 28.2581C19.4329 28.2084 19.4963 28.1746 19.5655 28.1609C19.6344 28.1471 19.7061 28.1544 19.7711 28.1814C19.8361 28.2084 19.8918 28.2539 19.9308 28.3127C19.9698 28.3712 19.9906 28.4401 19.9906 28.5106C19.9903 28.6047 19.9529 28.6952 19.886 28.762C19.8192 28.8285 19.729 28.866 19.6346 28.866ZM19.6346 28.4801C19.6286 28.4801 19.6227 28.482 19.6177 28.4853C19.6128 28.4887 19.6089 28.4934 19.6065 28.4989C19.6045 28.5043 19.6037 28.5106 19.605 28.5163C19.606 28.5223 19.6089 28.5277 19.6133 28.5319C19.6175 28.536 19.6229 28.5389 19.6286 28.5402C19.6346 28.5412 19.6406 28.5407 19.6461 28.5384C19.6518 28.536 19.6565 28.5321 19.6598 28.5272C19.663 28.5223 19.6648 28.5165 19.6648 28.5106C19.6648 28.5025 19.6617 28.4947 19.6559 28.489C19.6502 28.4835 19.6427 28.4801 19.6346 28.4801ZM19.8275 31.8828C19.9344 31.8828 20.0207 31.7962 20.0207 31.6896C20.0207 31.583 19.9344 31.4967 19.8275 31.4967C19.7209 31.4967 19.6346 31.583 19.6346 31.6896C19.6346 31.7962 19.7209 31.8828 19.8275 31.8828Z" fill="black"/>
<path id="Vector_21" d="M19.8276 32.0465C19.7574 32.0465 19.6885 32.0257 19.6297 31.9867C19.5712 31.9477 19.5255 31.892 19.4984 31.827C19.4716 31.762 19.4644 31.6903 19.4781 31.6214C19.4917 31.5522 19.5257 31.4888 19.5754 31.4388C19.625 31.3892 19.6885 31.3551 19.7576 31.3413C19.8265 31.3276 19.8983 31.3346 19.9633 31.3616C20.0283 31.3884 20.0839 31.4342 20.1232 31.4927C20.1622 31.5512 20.1833 31.6201 20.1833 31.6905C20.183 31.7846 20.1456 31.8751 20.079 31.9417C20.0122 32.0085 19.922 32.0462 19.8276 32.0465ZM19.8276 31.6606C19.8216 31.6606 19.8159 31.6622 19.8107 31.6656C19.8057 31.669 19.8018 31.6736 19.7995 31.6791C19.7969 31.6845 19.7964 31.6908 19.7974 31.6968C19.7987 31.7025 19.8016 31.7079 19.8057 31.7124C19.8102 31.7165 19.8156 31.7194 19.8213 31.7207C19.8273 31.7217 19.8336 31.7212 19.839 31.7189C19.8445 31.7165 19.8492 31.7124 19.8525 31.7074C19.8559 31.7025 19.8575 31.6965 19.8575 31.6905C19.8575 31.6864 19.8567 31.6825 19.8554 31.6788C19.8538 31.6752 19.8518 31.6718 19.8489 31.669C19.8463 31.6661 19.8429 31.6638 19.8393 31.6622C19.8356 31.6606 19.8317 31.6598 19.8276 31.6598V31.6606ZM20.2134 34.9834C20.32 34.9834 20.4063 34.8971 20.4063 34.7905C20.4063 34.6839 20.32 34.5973 20.2134 34.5973C20.1068 34.5973 20.0202 34.6839 20.0202 34.7905C20.0202 34.8971 20.1068 34.9834 20.2134 34.9834Z" fill="black"/>
<path id="Vector_22" d="M-1.46578 59.3734C-2.28696 59.3734 -3.1342 59.039 -4.02239 57.8409C-5.85968 55.3639 -5.42142 53.4711 -5.13154 52.2187C-5.09712 52.0697 -5.06457 51.9293 -5.03849 51.8001C-4.63279 49.7492 -3.86002 49.2721 -3.43523 49.1704C-3.04255 49.0773 -2.64847 49.2242 -2.38048 49.5659C-2.35597 49.5999 -2.34557 49.6421 -2.35147 49.6837C-2.35735 49.7253 -2.37908 49.763 -2.4121 49.789C-2.44512 49.815 -2.4869 49.8269 -2.52869 49.823C-2.57049 49.8189 -2.60908 49.7986 -2.63638 49.7669C-2.82667 49.5243 -3.09 49.4224 -3.35939 49.4876C-3.63855 49.555 -4.33644 49.9213 -4.71887 51.8632C-4.74539 51.9971 -4.77841 52.1425 -4.81193 52.2917C-5.08828 53.4856 -5.5061 55.2903 -3.75859 57.6464C-2.43212 59.4347 -1.30341 59.1352 0.00348059 58.785C0.263117 58.7155 0.531566 58.6453 0.804202 58.5894C1.68818 58.4113 2.1567 58.279 2.58708 58.0845C3.00859 57.8939 3.51759 57.316 3.37196 56.7271C3.3059 56.4554 3.16539 56.258 2.95323 56.1413C2.63265 55.9632 2.14786 55.9653 1.58769 56.1488C1.34435 56.2284 1.11079 56.33 0.863301 56.4382C0.317067 56.6758 -0.247758 56.9223 -1.02053 56.9829C-1.06372 56.9863 -1.10649 56.9725 -1.13943 56.9442C-1.17237 56.9161 -1.19278 56.876 -1.19619 56.8329C-1.19957 56.7897 -1.18566 56.7468 -1.15752 56.7141C-1.12939 56.6811 -1.08933 56.6605 -1.04614 56.6571C-0.327759 56.601 0.210077 56.3659 0.733483 56.1384C0.987971 56.0277 1.22852 55.9226 1.48626 55.8384C2.13345 55.6267 2.71084 55.6327 3.11189 55.8555C3.40452 56.0183 3.59762 56.2856 3.68646 56.6465C3.8805 57.4415 3.224 58.1498 2.71921 58.3783C2.2037 58.6108 1.6491 58.7504 0.866551 58.9054C0.603665 58.9584 0.340337 59.0286 0.0858494 59.0964C-0.423621 59.2361 -0.939592 59.3734 -1.46578 59.3734ZM14.4637 12.7504C14.4344 12.7504 14.4058 12.7425 14.3805 12.7275C14.3553 12.7126 14.3345 12.6911 14.3207 12.6654C14.3067 12.6397 14.2999 12.6107 14.301 12.5814C14.302 12.5522 14.3111 12.5237 14.327 12.4991C14.4739 12.2724 14.7032 12.1116 14.9663 12.0508C15.2297 11.9901 15.5061 12.034 15.7375 12.1735C15.7747 12.1957 15.8012 12.2318 15.8116 12.2737C15.822 12.3156 15.8155 12.36 15.7931 12.397C15.771 12.434 15.7349 12.4607 15.693 12.4711C15.6509 12.4815 15.6067 12.4749 15.5695 12.4526C15.4104 12.357 15.2206 12.327 15.0396 12.3688C14.8589 12.4106 14.7014 12.5211 14.6005 12.6769C14.5857 12.6995 14.5654 12.7181 14.5415 12.731C14.5176 12.7438 14.4908 12.7505 14.4637 12.7504ZM18.5775 12.3005C18.546 12.3005 18.5151 12.2912 18.4885 12.274C18.4623 12.2567 18.4415 12.2321 18.4287 12.2033C18.416 12.1744 18.4118 12.1424 18.417 12.1113C18.4222 12.0801 18.4363 12.0512 18.4573 12.0278C18.6391 11.8286 18.8908 11.7075 19.1599 11.6902C19.429 11.6728 19.6942 11.7605 19.8998 11.9348C19.9159 11.9487 19.9295 11.9657 19.9391 11.9847C19.949 12.0038 19.9547 12.0246 19.9565 12.046C19.9581 12.0673 19.9555 12.0888 19.949 12.1091C19.9425 12.1295 19.9318 12.1484 19.918 12.1646C19.904 12.1809 19.8871 12.1943 19.8678 12.204C19.8489 12.2137 19.8281 12.2196 19.8067 12.2213C19.7854 12.223 19.7638 12.2204 19.7436 12.2138C19.7233 12.2072 19.7043 12.1967 19.6882 12.1828C19.5467 12.0624 19.3642 12.0017 19.1791 12.0135C18.994 12.0252 18.8206 12.1084 18.6958 12.2456C18.6807 12.2623 18.6627 12.2759 18.6422 12.2853C18.6219 12.2947 18.5998 12.2999 18.5775 12.3005ZM17.0557 18.4977C16.4325 18.4991 15.815 18.382 15.2357 18.1525C15.2151 18.145 15.1964 18.1335 15.1803 18.1187C15.1644 18.1038 15.1517 18.0859 15.1429 18.066C15.1338 18.0461 15.1291 18.0247 15.1286 18.0029C15.128 17.9811 15.1319 17.9595 15.14 17.9392C15.1481 17.919 15.1603 17.9006 15.1756 17.8851C15.191 17.8696 15.2092 17.8573 15.2292 17.849C15.2495 17.8407 15.271 17.8365 15.2929 17.8367C15.3145 17.8368 15.336 17.8414 15.3561 17.85C16.0544 18.1233 16.8084 18.2249 17.5541 18.1464C18.3 18.0679 19.0163 17.8115 19.6424 17.3988C19.6604 17.3868 19.6801 17.3785 19.7012 17.3743C19.7222 17.3701 19.7438 17.3701 19.7649 17.3742C19.7857 17.3784 19.8057 17.3866 19.8236 17.3985C19.8413 17.4104 19.8567 17.4256 19.8686 17.4434C19.8806 17.4612 19.8889 17.4812 19.8931 17.5021C19.8972 17.5231 19.8972 17.5447 19.8931 17.5657C19.8889 17.5867 19.8806 17.6067 19.8689 17.6245C19.8569 17.6423 19.8416 17.6576 19.8239 17.6695C19.0028 18.2121 18.0398 18.5003 17.0557 18.4977ZM20.8015 17.0363C20.7888 17.0363 20.776 17.0349 20.7638 17.0322C20.7217 17.022 20.6855 16.9957 20.6629 16.9589C20.6403 16.9221 20.633 16.8779 20.6429 16.8358C20.6445 16.8184 20.64 16.8008 20.6304 16.7862C20.6208 16.7716 20.6065 16.7607 20.5899 16.7553C20.5685 16.7516 20.5485 16.7437 20.5306 16.7322C20.5124 16.7206 20.4968 16.7056 20.4846 16.6881C20.4599 16.6526 20.4502 16.6088 20.4578 16.5662C20.4653 16.5236 20.4895 16.4858 20.5251 16.4611C20.5605 16.4363 20.6044 16.4267 20.6471 16.4343C20.6991 16.4447 20.7485 16.4654 20.7924 16.4952C20.8363 16.5249 20.8738 16.563 20.9029 16.6074C20.932 16.6518 20.952 16.7014 20.9617 16.7536C20.9715 16.8058 20.9708 16.8593 20.9596 16.9112C20.9513 16.9468 20.931 16.9785 20.9021 17.0012C20.8735 17.0239 20.8379 17.0363 20.8015 17.0363ZM14.1286 17.7659C14.0932 17.7658 14.0589 17.7542 14.0308 17.7329C14.0025 17.7116 13.982 17.6817 13.9723 17.6477C13.9573 17.5887 13.9541 17.5273 13.9632 17.4671C13.9723 17.407 13.9934 17.3492 14.0254 17.2974C14.0574 17.2456 14.0995 17.2008 14.1491 17.1657C14.1991 17.1306 14.2552 17.1059 14.3148 17.0931C14.3571 17.0854 14.4008 17.0948 14.4362 17.1192C14.4718 17.1436 14.496 17.181 14.504 17.2233C14.5118 17.2656 14.5027 17.3093 14.4786 17.3449C14.4544 17.3805 14.4172 17.405 14.3748 17.4132C14.3447 17.4223 14.3192 17.4421 14.3025 17.4688C14.2862 17.4956 14.2802 17.5274 14.2854 17.5584C14.2973 17.5999 14.2921 17.6444 14.2711 17.6821C14.25 17.7197 14.2149 17.7476 14.1733 17.7594C14.1588 17.7636 14.1439 17.7658 14.1286 17.7659ZM30.5388 45.5138C30.5174 45.5148 30.4961 45.5117 30.4758 45.5047C30.4556 45.4974 30.4371 45.4865 30.4212 45.4722C30.4054 45.4576 30.3924 45.4405 30.3833 45.421C30.3739 45.4017 30.3687 45.3807 30.3677 45.3593C30.3664 45.338 30.3695 45.3167 30.3768 45.2964C30.3841 45.2761 30.395 45.2577 30.4093 45.2418C30.4236 45.226 30.441 45.213 30.4605 45.2039C30.4797 45.1945 30.5008 45.1893 30.5221 45.1883L33.9827 44.8201C34.0259 44.8157 34.069 44.8284 34.1028 44.8557C34.1366 44.883 34.1582 44.9225 34.1626 44.9657C34.1673 45.0089 34.1546 45.0523 34.1273 45.0861C34.1 45.1196 34.0602 45.1412 34.017 45.1459L30.5564 45.5133L30.5388 45.5138ZM31.5678 53.3554C31.5247 53.3585 31.482 53.3445 31.4493 53.3164C31.4163 53.288 31.396 53.248 31.3929 53.2049C31.3895 53.1617 31.4035 53.1188 31.4319 53.086C31.4599 53.0533 31.5 53.033 31.5434 53.0296L32.8361 52.8276C32.8577 52.8234 32.8801 52.8234 32.9014 52.8281C32.923 52.8325 32.9432 52.8414 32.9612 52.8539C32.9794 52.8663 32.9945 52.8824 33.0062 52.9012C33.0179 52.9196 33.0257 52.9404 33.029 52.9623C33.0324 52.9838 33.0314 53.0059 33.0259 53.0273C33.0205 53.0486 33.0108 53.0686 32.9976 53.086C32.9843 53.1034 32.9677 53.118 32.9484 53.1289C32.9295 53.1398 32.9084 53.1466 32.8866 53.1492L31.5936 53.3515C31.585 53.3533 31.5764 53.3546 31.5678 53.3554Z" fill="black"/>
</g>
</svg>
