<svg width="14" height="18" viewBox="0 0 14 18" fill="none" xmlns="http://www.w3.org/2000/svg">
<path fill-rule="evenodd" clip-rule="evenodd" d="M4.74409 0.293014C4.90033 0.105456 5.11226 5.66402e-05 5.33325 0H8.66659C9.32963 0 9.96551 0.316086 10.4344 0.878722C10.9032 1.44136 11.1666 2.20446 11.1666 3.00015V12.0006C11.1666 12.7963 10.9032 13.5594 10.4344 14.122C9.96551 14.6846 9.32963 15.0007 8.66659 15.0007H2.83325C2.17021 15.0007 1.53433 14.6846 1.06549 14.122C0.596644 13.5594 0.333252 12.7963 0.333252 12.0006V6.00029C0.333299 5.73508 0.421128 5.48076 0.577419 5.29326L4.74409 0.293014V0.293014ZM8.66659 2.0001H6.16659V6.00029C6.16659 6.26552 6.07879 6.51989 5.92251 6.70743C5.76623 6.89498 5.55427 7.00034 5.33325 7.00034H1.99992V12.0006C1.99992 12.2658 2.08772 12.5202 2.244 12.7077C2.40028 12.8953 2.61224 13.0006 2.83325 13.0006H8.66659C8.8876 13.0006 9.09956 12.8953 9.25584 12.7077C9.41212 12.5202 9.49992 12.2658 9.49992 12.0006V3.00015C9.49992 2.73492 9.41212 2.48055 9.25584 2.293C9.09956 2.10546 8.8876 2.0001 8.66659 2.0001ZM3.17825 5.00024H4.49992V3.41417L3.17825 5.00024ZM12.8333 2.0001C13.0543 2.0001 13.2662 2.10546 13.4225 2.293C13.5788 2.48055 13.6666 2.73492 13.6666 3.00015V15.0007C13.6666 15.7964 13.4032 16.5595 12.9344 17.1222C12.4655 17.6848 11.8296 18.0009 11.1666 18.0009H2.83325C2.61224 18.0009 2.40028 17.8955 2.244 17.708C2.08772 17.5204 1.99992 17.2661 1.99992 17.0008C1.99992 16.7356 2.08772 16.4812 2.244 16.2937C2.40028 16.1061 2.61224 16.0008 2.83325 16.0008H11.1666C11.3876 16.0008 11.5996 15.8954 11.7558 15.7079C11.9121 15.5203 11.9999 15.266 11.9999 15.0007V3.00015C11.9999 2.73492 12.0877 2.48055 12.244 2.293C12.4003 2.10546 12.6122 2.0001 12.8333 2.0001V2.0001Z" fill="white"/>
</svg>
