<svg width="1639" height="904" viewBox="0 0 1639 904" fill="none" xmlns="http://www.w3.org/2000/svg">
<g clip-path="url(#clip0_1272_484)">
<rect width="1635.45" height="904" transform="translate(3.55029)" fill="white"/>
</g>
<path d="M8.51914 739.609C10.4037 738.93 13.7663 742.402 15.3524 743.244C17.1441 744.196 18.2227 746.326 19.2145 747.897C21.384 751.333 14.7549 763.097 10.0542 758.227C6.55089 754.597 7.6794 750.995 11.2706 747.775C13.0377 746.19 15.9377 744.812 18.5033 745.218C25.3738 746.306 30.6569 750.19 35.7226 754.05" stroke="#A88CFF" stroke-width="2" stroke-linecap="square"/>
<path d="M8.51914 739.609C10.4037 738.93 13.7663 742.402 15.3524 743.244C17.1441 744.196 18.2227 746.326 19.2145 747.897C21.384 751.333 14.7549 763.097 10.0542 758.227C6.55089 754.597 7.6794 750.995 11.2706 747.775C13.0377 746.19 15.9377 744.812 18.5033 745.218C25.3738 746.306 30.6569 750.19 35.7226 754.05" stroke="#A88CFF" stroke-width="2" stroke-linecap="square"/>
<path d="M8.51914 739.609C10.4037 738.93 13.7663 742.402 15.3524 743.244C17.1441 744.196 18.2227 746.326 19.2145 747.897C21.384 751.333 14.7549 763.097 10.0542 758.227C6.55089 754.597 7.6794 750.995 11.2706 747.775C13.0377 746.19 15.9377 744.812 18.5033 745.218C25.3738 746.306 30.6569 750.19 35.7226 754.05" stroke="#A88CFF" stroke-width="2" stroke-linecap="square"/>
<path d="M8.51914 739.609C10.4037 738.93 13.7663 742.402 15.3524 743.244C17.1441 744.196 18.2227 746.326 19.2145 747.897C21.384 751.333 14.7549 763.097 10.0542 758.227C6.55089 754.597 7.6794 750.995 11.2706 747.775C13.0377 746.19 15.9377 744.812 18.5033 745.218C25.3738 746.306 30.6569 750.19 35.7226 754.05" stroke="#A88CFF" stroke-width="2" stroke-linecap="square"/>
<path d="M8.51914 739.639C10.4037 738.959 13.7663 742.431 15.3524 743.274C17.1441 744.225 18.2227 746.355 19.2145 747.926C21.384 751.362 14.7549 763.126 10.0542 758.256C6.55089 754.627 7.6794 751.025 11.2706 747.804C13.0377 746.219 15.9377 744.842 18.5033 745.248C25.3738 746.335 30.6569 750.219 35.7226 754.08" stroke="#A88CFF" stroke-width="2" stroke-linecap="square"/>
<path d="M8.51914 739.639C10.4037 738.959 13.7663 742.431 15.3524 743.274C17.1441 744.225 18.2227 746.355 19.2145 747.926C21.384 751.362 14.7549 763.126 10.0542 758.256C6.55089 754.627 7.6794 751.025 11.2706 747.804C13.0377 746.219 15.9377 744.842 18.5033 745.248C25.3738 746.335 30.6569 750.219 35.7226 754.08" stroke="#A88CFF" stroke-width="2" stroke-linecap="square"/>
<path d="M8.51914 739.639C10.4037 738.959 13.7663 742.431 15.3524 743.274C17.1441 744.225 18.2227 746.355 19.2145 747.926C21.384 751.362 14.7549 763.126 10.0542 758.256C6.55089 754.627 7.6794 751.025 11.2706 747.804C13.0377 746.219 15.9377 744.842 18.5033 745.248C25.3738 746.335 30.6569 750.219 35.7226 754.08" stroke="#A88CFF" stroke-width="2" stroke-linecap="square"/>
<path d="M8.51914 739.639C10.4037 738.959 13.7663 742.431 15.3524 743.274C17.1441 744.225 18.2227 746.355 19.2145 747.926C21.384 751.362 14.7549 763.126 10.0542 758.256C6.55089 754.627 7.6794 751.025 11.2706 747.804C13.0377 746.219 15.9377 744.842 18.5033 745.248C25.3738 746.335 30.6569 750.219 35.7226 754.08" stroke="#A88CFF" stroke-width="2" stroke-linecap="square"/>
<path d="M344.603 496.344C346.488 495.664 349.85 499.136 351.436 499.979C353.228 500.93 354.307 503.06 355.299 504.631C357.468 508.067 350.839 519.831 346.138 514.961C342.635 511.332 343.763 507.73 347.355 504.509C349.122 502.924 352.022 501.547 354.587 501.953C361.458 503.04 366.741 506.924 371.807 510.785" stroke="#FFEF00" stroke-width="2" stroke-linecap="square"/>
<path d="M344.603 496.344C346.488 495.664 349.85 499.136 351.436 499.979C353.228 500.93 354.307 503.06 355.299 504.631C357.468 508.067 350.839 519.831 346.138 514.961C342.635 511.332 343.763 507.73 347.355 504.509C349.122 502.924 352.022 501.547 354.587 501.953C361.458 503.04 366.741 506.924 371.807 510.785" stroke="#FFEF00" stroke-width="2" stroke-linecap="square"/>
<path d="M68.8722 24.373C70.7567 23.6938 74.1193 27.1654 75.7054 28.0079C77.4971 28.9597 78.5757 31.0892 79.5676 32.6602C81.737 36.0964 75.108 47.8607 70.4072 42.9906C66.9039 39.3611 68.0324 35.7589 71.6236 32.5383C73.3907 30.9536 76.2907 29.5761 78.8563 29.9821C85.7269 31.0694 91.0099 34.9532 96.0756 38.8139" stroke="#FFEF00" stroke-width="2" stroke-linecap="square"/>
<path d="M77.1559 222.344C79.0404 221.664 82.403 225.136 83.9891 225.979C85.7808 226.93 86.8594 229.06 87.8513 230.631C90.0207 234.067 83.3917 245.831 78.6909 240.961C75.1876 237.332 76.3161 233.73 79.9073 230.509C81.6744 228.924 84.5744 227.547 87.14 227.953C94.0105 229.04 99.2936 232.924 104.359 236.785" stroke="#FFEF00" stroke-width="2" stroke-linecap="square"/>
<path d="M155.26 638.373C157.144 637.694 160.507 641.165 162.093 642.008C163.885 642.96 164.963 645.089 165.955 646.66C168.125 650.096 161.496 661.861 156.795 656.991C153.292 653.361 154.42 649.759 158.011 646.538C159.778 644.954 162.678 643.576 165.244 643.982C172.115 645.069 177.398 648.953 182.463 652.814" stroke="#FFEF00" stroke-width="2" stroke-linecap="square"/>
<path d="M219.163 304.344C221.048 303.664 224.41 307.136 225.996 307.979C227.788 308.93 228.867 311.06 229.859 312.631C232.028 316.067 225.399 327.831 220.698 322.961C217.195 319.332 218.323 315.73 221.915 312.509C223.682 310.924 226.582 309.547 229.147 309.953C236.018 311.04 241.301 314.924 246.367 318.785" stroke="#A88CFF" stroke-width="2" stroke-linecap="square"/>
<path d="M219.163 304.344C221.048 303.664 224.41 307.136 225.996 307.979C227.788 308.93 228.867 311.06 229.859 312.631C232.028 316.067 225.399 327.831 220.698 322.961C217.195 319.332 218.323 315.73 221.915 312.509C223.682 310.924 226.582 309.547 229.147 309.953C236.018 311.04 241.301 314.924 246.367 318.785" stroke="#A88CFF" stroke-width="2" stroke-linecap="square"/>
<path d="M219.163 304.344C221.048 303.664 224.41 307.136 225.996 307.979C227.788 308.93 228.867 311.06 229.859 312.631C232.028 316.067 225.399 327.831 220.698 322.961C217.195 319.332 218.323 315.73 221.915 312.509C223.682 310.924 226.582 309.547 229.147 309.953C236.018 311.04 241.301 314.924 246.367 318.785" stroke="#A88CFF" stroke-width="2" stroke-linecap="square"/>
<path d="M219.163 304.344C221.048 303.664 224.41 307.136 225.996 307.979C227.788 308.93 228.867 311.06 229.859 312.631C232.028 316.067 225.399 327.831 220.698 322.961C217.195 319.332 218.323 315.73 221.915 312.509C223.682 310.924 226.582 309.547 229.147 309.953C236.018 311.04 241.301 314.924 246.367 318.785" stroke="#A88CFF" stroke-width="2" stroke-linecap="square"/>
<path d="M219.163 304.344C221.048 303.664 224.41 307.136 225.996 307.979C227.788 308.93 228.867 311.06 229.859 312.631C232.028 316.067 225.399 327.831 220.698 322.961C217.195 319.332 218.323 315.73 221.915 312.509C223.682 310.924 226.582 309.547 229.147 309.953C236.018 311.04 241.301 314.924 246.367 318.785" stroke="#A88CFF" stroke-width="2" stroke-linecap="square"/>
<path d="M219.163 304.344C221.048 303.664 224.41 307.136 225.996 307.979C227.788 308.93 228.867 311.06 229.859 312.631C232.028 316.067 225.399 327.831 220.698 322.961C217.195 319.332 218.323 315.73 221.915 312.509C223.682 310.924 226.582 309.547 229.147 309.953C236.018 311.04 241.301 314.924 246.367 318.785" stroke="#A88CFF" stroke-width="2" stroke-linecap="square"/>
<path d="M219.163 304.344C221.048 303.664 224.41 307.136 225.996 307.979C227.788 308.93 228.867 311.06 229.859 312.631C232.028 316.067 225.399 327.831 220.698 322.961C217.195 319.332 218.323 315.73 221.915 312.509C223.682 310.924 226.582 309.547 229.147 309.953C236.018 311.04 241.301 314.924 246.367 318.785" stroke="#A88CFF" stroke-width="2" stroke-linecap="square"/>
<path d="M219.163 304.344C221.048 303.664 224.41 307.136 225.996 307.979C227.788 308.93 228.867 311.06 229.859 312.631C232.028 316.067 225.399 327.831 220.698 322.961C217.195 319.332 218.323 315.73 221.915 312.509C223.682 310.924 226.582 309.547 229.147 309.953C236.018 311.04 241.301 314.924 246.367 318.785" stroke="#A88CFF" stroke-width="2" stroke-linecap="square"/>
<path d="M219.163 304.344C221.048 303.664 224.41 307.136 225.996 307.979C227.788 308.93 228.867 311.06 229.859 312.631C232.028 316.067 225.399 327.831 220.698 322.961C217.195 319.332 218.323 315.73 221.915 312.509C223.682 310.924 226.582 309.547 229.147 309.953C236.018 311.04 241.301 314.924 246.367 318.785" stroke="#A88CFF" stroke-width="2" stroke-linecap="square"/>
<path d="M219.163 304.344C221.048 303.664 224.41 307.136 225.996 307.979C227.788 308.93 228.867 311.06 229.859 312.631C232.028 316.067 225.399 327.831 220.698 322.961C217.195 319.332 218.323 315.73 221.915 312.509C223.682 310.924 226.582 309.547 229.147 309.953C236.018 311.04 241.301 314.924 246.367 318.785" stroke="#A88CFF" stroke-width="2" stroke-linecap="square"/>
<path d="M219.163 304.344C221.048 303.664 224.41 307.136 225.996 307.979C227.788 308.93 228.867 311.06 229.859 312.631C232.028 316.067 225.399 327.831 220.698 322.961C217.195 319.332 218.323 315.73 221.915 312.509C223.682 310.924 226.582 309.547 229.147 309.953C236.018 311.04 241.301 314.924 246.367 318.785" stroke="#A88CFF" stroke-width="2" stroke-linecap="square"/>
<path d="M1551.66 141.373C1553.55 140.694 1556.91 144.165 1558.5 145.008C1560.29 145.96 1561.37 148.089 1562.36 149.66C1564.53 153.096 1557.9 164.861 1553.2 159.991C1549.7 156.361 1550.82 152.759 1554.42 149.538C1556.18 147.954 1559.08 146.576 1561.65 146.982C1568.52 148.069 1573.8 151.953 1578.87 155.814" stroke="#FFEF00" stroke-width="2" stroke-linecap="square"/>
<path d="M1273.57 198.344C1275.45 197.664 1278.81 201.136 1280.4 201.979C1282.19 202.93 1283.27 205.06 1284.26 206.631C1286.43 210.067 1279.8 221.831 1275.1 216.961C1271.6 213.332 1272.73 209.73 1276.32 206.509C1278.09 204.924 1280.99 203.547 1283.55 203.953C1290.42 205.04 1295.7 208.924 1300.77 212.785" stroke="#FFEF00" stroke-width="2" stroke-linecap="square"/>
<path d="M1435.69 331.373C1437.58 330.694 1440.94 334.165 1442.53 335.008C1444.32 335.96 1445.4 338.089 1446.39 339.66C1448.56 343.096 1441.93 354.861 1437.23 349.991C1433.72 346.361 1434.85 342.759 1438.44 339.538C1440.21 337.954 1443.11 336.576 1445.68 336.982C1452.55 338.069 1457.83 341.953 1462.9 345.814" stroke="#FFEF00" stroke-width="2" stroke-linecap="square"/>
<path d="M841.628 335.373C843.513 334.694 846.875 338.165 848.461 339.008C850.253 339.96 851.332 342.089 852.323 343.66C854.493 347.096 847.864 358.861 843.163 353.991C839.66 350.361 840.788 346.759 844.38 343.538C846.147 341.954 849.047 340.576 851.612 340.982C858.483 342.069 863.766 345.953 868.831 349.814" stroke="#A88CFF" stroke-width="2" stroke-linecap="square"/>
<path d="M1323.27 567.344C1325.15 566.664 1328.52 570.136 1330.1 570.979C1331.89 571.93 1332.97 574.06 1333.96 575.631C1336.13 579.067 1329.5 590.831 1324.8 585.961C1321.3 582.332 1322.43 578.73 1326.02 575.509C1327.79 573.924 1330.69 572.547 1333.25 572.953C1340.12 574.04 1345.41 577.924 1350.47 581.785" stroke="#FFEF00" stroke-width="2" stroke-linecap="square"/>
<path d="M1323.27 567.344C1325.15 566.664 1328.52 570.136 1330.1 570.979C1331.89 571.93 1332.97 574.06 1333.96 575.631C1336.13 579.067 1329.5 590.831 1324.8 585.961C1321.3 582.332 1322.43 578.73 1326.02 575.509C1327.79 573.924 1330.69 572.547 1333.25 572.953C1340.12 574.04 1345.41 577.924 1350.47 581.785" stroke="#FFEF00" stroke-width="2" stroke-linecap="square"/>
<path d="M1132.74 426.373C1134.63 425.694 1137.99 429.165 1139.58 430.008C1141.37 430.96 1142.45 433.089 1143.44 434.66C1145.61 438.096 1138.98 449.861 1134.28 444.991C1130.77 441.361 1131.9 437.759 1135.49 434.538C1137.26 432.954 1140.16 431.576 1142.73 431.982C1149.6 433.069 1154.88 436.953 1159.95 440.814" stroke="#FFEF00" stroke-width="2" stroke-linecap="square"/>
<path d="M1389.54 826.344C1391.42 825.664 1394.79 829.136 1396.37 829.979C1398.16 830.93 1399.24 833.06 1400.24 834.631C1402.4 838.067 1395.78 849.831 1391.07 844.961C1387.57 841.332 1388.7 837.73 1392.29 834.509C1394.06 832.924 1396.96 831.547 1399.52 831.953C1406.39 833.04 1411.68 836.924 1416.74 840.785" stroke="#A88CFF" stroke-width="2" stroke-linecap="square"/>
<path d="M1389.54 826.344C1391.42 825.664 1394.79 829.136 1396.37 829.979C1398.16 830.93 1399.24 833.06 1400.24 834.631C1402.4 838.067 1395.78 849.831 1391.07 844.961C1387.57 841.332 1388.7 837.73 1392.29 834.509C1394.06 832.924 1396.96 831.547 1399.52 831.953C1406.39 833.04 1411.68 836.924 1416.74 840.785" stroke="#A88CFF" stroke-width="2" stroke-linecap="square"/>
<path d="M1389.54 826.344C1391.42 825.664 1394.79 829.136 1396.37 829.979C1398.16 830.93 1399.24 833.06 1400.24 834.631C1402.4 838.067 1395.78 849.831 1391.07 844.961C1387.57 841.332 1388.7 837.73 1392.29 834.509C1394.06 832.924 1396.96 831.547 1399.52 831.953C1406.39 833.04 1411.68 836.924 1416.74 840.785" stroke="#A88CFF" stroke-width="2" stroke-linecap="square"/>
<path d="M1389.54 826.344C1391.42 825.664 1394.79 829.136 1396.37 829.979C1398.16 830.93 1399.24 833.06 1400.24 834.631C1402.4 838.067 1395.78 849.831 1391.07 844.961C1387.57 841.332 1388.7 837.73 1392.29 834.509C1394.06 832.924 1396.96 831.547 1399.52 831.953C1406.39 833.04 1411.68 836.924 1416.74 840.785" stroke="#A88CFF" stroke-width="2" stroke-linecap="square"/>
<path d="M1389.54 826.344C1391.42 825.664 1394.79 829.136 1396.37 829.979C1398.16 830.93 1399.24 833.06 1400.24 834.631C1402.4 838.067 1395.78 849.831 1391.07 844.961C1387.57 841.332 1388.7 837.73 1392.29 834.509C1394.06 832.924 1396.96 831.547 1399.52 831.953C1406.39 833.04 1411.68 836.924 1416.74 840.785" stroke="#A88CFF" stroke-width="2" stroke-linecap="square"/>
<path d="M1389.54 826.344C1391.42 825.664 1394.79 829.136 1396.37 829.979C1398.16 830.93 1399.24 833.06 1400.24 834.631C1402.4 838.067 1395.78 849.831 1391.07 844.961C1387.57 841.332 1388.7 837.73 1392.29 834.509C1394.06 832.924 1396.96 831.547 1399.52 831.953C1406.39 833.04 1411.68 836.924 1416.74 840.785" stroke="#A88CFF" stroke-width="2" stroke-linecap="square"/>
<path d="M1389.54 826.344C1391.42 825.664 1394.79 829.136 1396.37 829.979C1398.16 830.93 1399.24 833.06 1400.24 834.631C1402.4 838.067 1395.78 849.831 1391.07 844.961C1387.57 841.332 1388.7 837.73 1392.29 834.509C1394.06 832.924 1396.96 831.547 1399.52 831.953C1406.39 833.04 1411.68 836.924 1416.74 840.785" stroke="#A88CFF" stroke-width="2" stroke-linecap="square"/>
<path d="M1389.54 826.344C1391.42 825.664 1394.79 829.136 1396.37 829.979C1398.16 830.93 1399.24 833.06 1400.24 834.631C1402.4 838.067 1395.78 849.831 1391.07 844.961C1387.57 841.332 1388.7 837.73 1392.29 834.509C1394.06 832.924 1396.96 831.547 1399.52 831.953C1406.39 833.04 1411.68 836.924 1416.74 840.785" stroke="#A88CFF" stroke-width="2" stroke-linecap="square"/>
<path d="M1389.54 826.344C1391.42 825.664 1394.79 829.136 1396.37 829.979C1398.16 830.93 1399.24 833.06 1400.24 834.631C1402.4 838.067 1395.78 849.831 1391.07 844.961C1387.57 841.332 1388.7 837.73 1392.29 834.509C1394.06 832.924 1396.96 831.547 1399.52 831.953C1406.39 833.04 1411.68 836.924 1416.74 840.785" stroke="#A88CFF" stroke-width="2" stroke-linecap="square"/>
<path d="M1389.54 826.344C1391.42 825.664 1394.79 829.136 1396.37 829.979C1398.16 830.93 1399.24 833.06 1400.24 834.631C1402.4 838.067 1395.78 849.831 1391.07 844.961C1387.57 841.332 1388.7 837.73 1392.29 834.509C1394.06 832.924 1396.96 831.547 1399.52 831.953C1406.39 833.04 1411.68 836.924 1416.74 840.785" stroke="#A88CFF" stroke-width="2" stroke-linecap="square"/>
<path d="M1389.54 826.344C1391.42 825.664 1394.79 829.136 1396.37 829.979C1398.16 830.93 1399.24 833.06 1400.24 834.631C1402.4 838.067 1395.78 849.831 1391.07 844.961C1387.57 841.332 1388.7 837.73 1392.29 834.509C1394.06 832.924 1396.96 831.547 1399.52 831.953C1406.39 833.04 1411.68 836.924 1416.74 840.785" stroke="#A88CFF" stroke-width="2" stroke-linecap="square"/>
<path d="M1555.21 442.344C1557.1 441.664 1560.46 445.136 1562.05 445.979C1563.84 446.93 1564.92 449.06 1565.91 450.631C1568.08 454.067 1561.45 465.831 1556.75 460.961C1553.25 457.332 1554.37 453.73 1557.97 450.509C1559.73 448.924 1562.63 447.547 1565.2 447.953C1572.07 449.04 1577.35 452.924 1582.42 456.785" stroke="#A88CFF" stroke-width="2" stroke-linecap="square"/>
<path d="M1541.01 669.344C1542.9 668.664 1546.26 672.136 1547.85 672.979C1549.64 673.93 1550.72 676.06 1551.71 677.631C1553.88 681.067 1547.25 692.831 1542.55 687.961C1539.05 684.332 1540.17 680.73 1543.77 677.509C1545.53 675.924 1548.43 674.547 1551 674.953C1557.87 676.04 1563.15 679.924 1568.22 683.785" stroke="#A88CFF" stroke-width="2" stroke-linecap="square"/>
<path d="M823.877 38.373C825.762 37.6938 829.124 41.1654 830.71 42.0079C832.502 42.9597 833.581 45.0892 834.572 46.6602C836.742 50.0964 830.113 61.8607 825.412 56.9906C821.909 53.3611 823.037 49.7589 826.629 46.5383C828.396 44.9536 831.296 43.5761 833.861 43.9821C840.732 45.0694 846.015 48.9532 851.08 52.8139" stroke="#FFEF00" stroke-width="2" stroke-linecap="square"/>
<path d="M823.877 38.373C825.762 37.6938 829.124 41.1654 830.71 42.0079C832.502 42.9597 833.581 45.0892 834.572 46.6602C836.742 50.0964 830.113 61.8607 825.412 56.9906C821.909 53.3611 823.037 49.7589 826.629 46.5383C828.396 44.9536 831.296 43.5761 833.861 43.9821C840.732 45.0694 846.015 48.9532 851.08 52.8139" stroke="#FFEF00" stroke-width="2" stroke-linecap="square"/>
<path d="M711.455 229.373C713.339 228.694 716.702 232.165 718.288 233.008C720.08 233.96 721.158 236.089 722.15 237.66C724.32 241.096 717.69 252.861 712.99 247.991C709.486 244.361 710.615 240.759 714.206 237.538C715.973 235.954 718.873 234.576 721.439 234.982C728.309 236.069 733.592 239.953 738.658 243.814" stroke="#A88CFF" stroke-width="2" stroke-linecap="square"/>
<path d="M711.455 229.373C713.339 228.694 716.702 232.165 718.288 233.008C720.08 233.96 721.158 236.089 722.15 237.66C724.32 241.096 717.69 252.861 712.99 247.991C709.486 244.361 710.615 240.759 714.206 237.538C715.973 235.954 718.873 234.576 721.439 234.982C728.309 236.069 733.592 239.953 738.658 243.814" stroke="#A88CFF" stroke-width="2" stroke-linecap="square"/>
<path d="M711.455 229.373C713.339 228.694 716.702 232.165 718.288 233.008C720.08 233.96 721.158 236.089 722.15 237.66C724.32 241.096 717.69 252.861 712.99 247.991C709.486 244.361 710.615 240.759 714.206 237.538C715.973 235.954 718.873 234.576 721.439 234.982C728.309 236.069 733.592 239.953 738.658 243.814" stroke="#A88CFF" stroke-width="2" stroke-linecap="square"/>
<path d="M711.455 229.373C713.339 228.694 716.702 232.165 718.288 233.008C720.08 233.96 721.158 236.089 722.15 237.66C724.32 241.096 717.69 252.861 712.99 247.991C709.486 244.361 710.615 240.759 714.206 237.538C715.973 235.954 718.873 234.576 721.439 234.982C728.309 236.069 733.592 239.953 738.658 243.814" stroke="#A88CFF" stroke-width="2" stroke-linecap="square"/>
<path d="M711.455 229.373C713.339 228.694 716.702 232.165 718.288 233.008C720.08 233.96 721.158 236.089 722.15 237.66C724.32 241.096 717.69 252.861 712.99 247.991C709.486 244.361 710.615 240.759 714.206 237.538C715.973 235.954 718.873 234.576 721.439 234.982C728.309 236.069 733.592 239.953 738.658 243.814" stroke="#A88CFF" stroke-width="2" stroke-linecap="square"/>
<path d="M711.455 229.373C713.339 228.694 716.702 232.165 718.288 233.008C720.08 233.96 721.158 236.089 722.15 237.66C724.32 241.096 717.69 252.861 712.99 247.991C709.486 244.361 710.615 240.759 714.206 237.538C715.973 235.954 718.873 234.576 721.439 234.982C728.309 236.069 733.592 239.953 738.658 243.814" stroke="#A88CFF" stroke-width="2" stroke-linecap="square"/>
<path d="M711.455 229.373C713.339 228.694 716.702 232.165 718.288 233.008C720.08 233.96 721.158 236.089 722.15 237.66C724.32 241.096 717.69 252.861 712.99 247.991C709.486 244.361 710.615 240.759 714.206 237.538C715.973 235.954 718.873 234.576 721.439 234.982C728.309 236.069 733.592 239.953 738.658 243.814" stroke="#A88CFF" stroke-width="2" stroke-linecap="square"/>
<path d="M711.455 229.373C713.339 228.694 716.702 232.165 718.288 233.008C720.08 233.96 721.158 236.089 722.15 237.66C724.32 241.096 717.69 252.861 712.99 247.991C709.486 244.361 710.615 240.759 714.206 237.538C715.973 235.954 718.873 234.576 721.439 234.982C728.309 236.069 733.592 239.953 738.658 243.814" stroke="#A88CFF" stroke-width="2" stroke-linecap="square"/>
<path d="M711.455 229.373C713.339 228.694 716.702 232.165 718.288 233.008C720.08 233.96 721.158 236.089 722.15 237.66C724.32 241.096 717.69 252.861 712.99 247.991C709.486 244.361 710.615 240.759 714.206 237.538C715.973 235.954 718.873 234.576 721.439 234.982C728.309 236.069 733.592 239.953 738.658 243.814" stroke="#A88CFF" stroke-width="2" stroke-linecap="square"/>
<path d="M711.455 229.373C713.339 228.694 716.702 232.165 718.288 233.008C720.08 233.96 721.158 236.089 722.15 237.66C724.32 241.096 717.69 252.861 712.99 247.991C709.486 244.361 710.615 240.759 714.206 237.538C715.973 235.954 718.873 234.576 721.439 234.982C728.309 236.069 733.592 239.953 738.658 243.814" stroke="#A88CFF" stroke-width="2" stroke-linecap="square"/>
<path d="M711.455 229.373C713.339 228.694 716.702 232.165 718.288 233.008C720.08 233.96 721.158 236.089 722.15 237.66C724.32 241.096 717.69 252.861 712.99 247.991C709.486 244.361 710.615 240.759 714.206 237.538C715.973 235.954 718.873 234.576 721.439 234.982C728.309 236.069 733.592 239.953 738.658 243.814" stroke="#A88CFF" stroke-width="2" stroke-linecap="square"/>
<path d="M1154.04 69.3437C1155.93 68.6645 1159.29 72.1361 1160.88 72.9786C1162.67 73.9304 1163.75 76.0599 1164.74 77.6309C1166.91 81.0671 1160.28 92.8314 1155.58 87.9613C1152.08 84.3318 1153.2 80.7296 1156.8 77.509C1158.56 75.9243 1161.46 74.5468 1164.03 74.9528C1170.9 76.0401 1176.18 79.9239 1181.25 83.7846" stroke="#A88CFF" stroke-width="2" stroke-linecap="square"/>
<path d="M326.852 733.344C328.737 732.664 332.099 736.136 333.685 736.979C335.477 737.93 336.556 740.06 337.548 741.631C339.717 745.067 333.088 756.831 328.387 751.961C324.884 748.332 326.012 744.73 329.604 741.509C331.371 739.924 334.271 738.547 336.836 738.953C343.707 740.04 348.99 743.924 354.056 747.785" stroke="#FFEF00" stroke-width="2" stroke-linecap="square"/>
<path d="M326.852 733.344C328.737 732.664 332.099 736.136 333.685 736.979C335.477 737.93 336.556 740.06 337.548 741.631C339.717 745.067 333.088 756.831 328.387 751.961C324.884 748.332 326.012 744.73 329.604 741.509C331.371 739.924 334.271 738.547 336.836 738.953C343.707 740.04 348.99 743.924 354.056 747.785" stroke="#FFEF00" stroke-width="2" stroke-linecap="square"/>
<path d="M209.696 857.373C211.58 856.694 214.943 860.165 216.529 861.008C218.321 861.96 219.399 864.089 220.391 865.66C222.561 869.096 215.932 880.861 211.231 875.991C207.728 872.361 208.856 868.759 212.447 865.538C214.214 863.954 217.114 862.576 219.68 862.982C226.551 864.069 231.834 867.953 236.899 871.814" stroke="#A88CFF" stroke-width="2" stroke-linecap="square"/>
<path d="M209.696 857.373C211.58 856.694 214.943 860.165 216.529 861.008C218.321 861.96 219.399 864.089 220.391 865.66C222.561 869.096 215.932 880.861 211.231 875.991C207.728 872.361 208.856 868.759 212.447 865.538C214.214 863.954 217.114 862.576 219.68 862.982C226.551 864.069 231.834 867.953 236.899 871.814" stroke="#A88CFF" stroke-width="2" stroke-linecap="square"/>
<path d="M209.696 857.373C211.58 856.694 214.943 860.165 216.529 861.008C218.321 861.96 219.399 864.089 220.391 865.66C222.561 869.096 215.932 880.861 211.231 875.991C207.728 872.361 208.856 868.759 212.447 865.538C214.214 863.954 217.114 862.576 219.68 862.982C226.551 864.069 231.834 867.953 236.899 871.814" stroke="#A88CFF" stroke-width="2" stroke-linecap="square"/>
<path d="M209.696 857.373C211.58 856.694 214.943 860.165 216.529 861.008C218.321 861.96 219.399 864.089 220.391 865.66C222.561 869.096 215.932 880.861 211.231 875.991C207.728 872.361 208.856 868.759 212.447 865.538C214.214 863.954 217.114 862.576 219.68 862.982C226.551 864.069 231.834 867.953 236.899 871.814" stroke="#A88CFF" stroke-width="2" stroke-linecap="square"/>
<path d="M209.696 857.373C211.58 856.694 214.943 860.165 216.529 861.008C218.321 861.96 219.399 864.089 220.391 865.66C222.561 869.096 215.932 880.861 211.231 875.991C207.728 872.361 208.856 868.759 212.447 865.538C214.214 863.954 217.114 862.576 219.68 862.982C226.551 864.069 231.834 867.953 236.899 871.814" stroke="#A88CFF" stroke-width="2" stroke-linecap="square"/>
<path d="M209.696 857.373C211.58 856.694 214.943 860.165 216.529 861.008C218.321 861.96 219.399 864.089 220.391 865.66C222.561 869.096 215.932 880.861 211.231 875.991C207.728 872.361 208.856 868.759 212.447 865.538C214.214 863.954 217.114 862.576 219.68 862.982C226.551 864.069 231.834 867.953 236.899 871.814" stroke="#A88CFF" stroke-width="2" stroke-linecap="square"/>
<path d="M209.696 857.373C211.58 856.694 214.943 860.165 216.529 861.008C218.321 861.96 219.399 864.089 220.391 865.66C222.561 869.096 215.932 880.861 211.231 875.991C207.728 872.361 208.856 868.759 212.447 865.538C214.214 863.954 217.114 862.576 219.68 862.982C226.551 864.069 231.834 867.953 236.899 871.814" stroke="#A88CFF" stroke-width="2" stroke-linecap="square"/>
<path d="M209.696 857.373C211.58 856.694 214.943 860.165 216.529 861.008C218.321 861.96 219.399 864.089 220.391 865.66C222.561 869.096 215.932 880.861 211.231 875.991C207.728 872.361 208.856 868.759 212.447 865.538C214.214 863.954 217.114 862.576 219.68 862.982C226.551 864.069 231.834 867.953 236.899 871.814" stroke="#A88CFF" stroke-width="2" stroke-linecap="square"/>
<path d="M209.696 857.373C211.58 856.694 214.943 860.165 216.529 861.008C218.321 861.96 219.399 864.089 220.391 865.66C222.561 869.096 215.932 880.861 211.231 875.991C207.728 872.361 208.856 868.759 212.447 865.538C214.214 863.954 217.114 862.576 219.68 862.982C226.551 864.069 231.834 867.953 236.899 871.814" stroke="#A88CFF" stroke-width="2" stroke-linecap="square"/>
<path d="M209.696 857.373C211.58 856.694 214.943 860.165 216.529 861.008C218.321 861.96 219.399 864.089 220.391 865.66C222.561 869.096 215.932 880.861 211.231 875.991C207.728 872.361 208.856 868.759 212.447 865.538C214.214 863.954 217.114 862.576 219.68 862.982C226.551 864.069 231.834 867.953 236.899 871.814" stroke="#A88CFF" stroke-width="2" stroke-linecap="square"/>
<path d="M209.696 857.373C211.58 856.694 214.943 860.165 216.529 861.008C218.321 861.96 219.399 864.089 220.391 865.66C222.561 869.096 215.932 880.861 211.231 875.991C207.728 872.361 208.856 868.759 212.447 865.538C214.214 863.954 217.114 862.576 219.68 862.982C226.551 864.069 231.834 867.953 236.899 871.814" stroke="#A88CFF" stroke-width="2" stroke-linecap="square"/>
<defs>
<clipPath id="clip0_1272_484">
<rect width="1635.45" height="904" fill="white" transform="translate(3.55029)"/>
</clipPath>
</defs>
</svg>
