<svg width="1385" height="904" viewBox="0 0 1385 904" fill="none" xmlns="http://www.w3.org/2000/svg">
<g clip-path="url(#clip0_1272_482)">
<rect width="1382" height="904" transform="translate(3)" fill="white"/>
</g>
<path d="M7.19891 739.609C8.79141 738.93 11.6329 742.402 12.9732 743.244C14.4873 744.196 15.3987 746.326 16.2368 747.897C18.0701 751.333 12.4683 763.097 8.49609 758.227C5.53568 754.597 6.4893 750.995 9.52398 747.775C11.0172 746.19 13.4678 744.812 15.6358 745.218C21.4416 746.306 25.9059 750.19 30.1865 754.05" stroke="#A88CFF" stroke-width="2" stroke-linecap="square"/>
<path d="M7.19891 739.609C8.79141 738.93 11.6329 742.402 12.9732 743.244C14.4873 744.196 15.3987 746.326 16.2368 747.897C18.0701 751.333 12.4683 763.097 8.49609 758.227C5.53568 754.597 6.4893 750.995 9.52398 747.775C11.0172 746.19 13.4678 744.812 15.6358 745.218C21.4416 746.306 25.9059 750.19 30.1865 754.05" stroke="#A88CFF" stroke-width="2" stroke-linecap="square"/>
<path d="M7.19891 739.609C8.79141 738.93 11.6329 742.402 12.9732 743.244C14.4873 744.196 15.3987 746.326 16.2368 747.897C18.0701 751.333 12.4683 763.097 8.49609 758.227C5.53568 754.597 6.4893 750.995 9.52398 747.775C11.0172 746.19 13.4678 744.812 15.6358 745.218C21.4416 746.306 25.9059 750.19 30.1865 754.05" stroke="#A88CFF" stroke-width="2" stroke-linecap="square"/>
<path d="M7.19891 739.609C8.79141 738.93 11.6329 742.402 12.9732 743.244C14.4873 744.196 15.3987 746.326 16.2368 747.897C18.0701 751.333 12.4683 763.097 8.49609 758.227C5.53568 754.597 6.4893 750.995 9.52398 747.775C11.0172 746.19 13.4678 744.812 15.6358 745.218C21.4416 746.306 25.9059 750.19 30.1865 754.05" stroke="#A88CFF" stroke-width="2" stroke-linecap="square"/>
<path d="M7.19891 739.639C8.79141 738.959 11.6329 742.431 12.9732 743.274C14.4873 744.225 15.3987 746.355 16.2368 747.926C18.0701 751.362 12.4683 763.126 8.49609 758.256C5.53568 754.627 6.4893 751.025 9.52398 747.804C11.0172 746.219 13.4678 744.842 15.6358 745.248C21.4416 746.335 25.9059 750.219 30.1865 754.08" stroke="#A88CFF" stroke-width="2" stroke-linecap="square"/>
<path d="M7.19891 739.639C8.79141 738.959 11.6329 742.431 12.9732 743.274C14.4873 744.225 15.3987 746.355 16.2368 747.926C18.0701 751.362 12.4683 763.126 8.49609 758.256C5.53568 754.627 6.4893 751.025 9.52398 747.804C11.0172 746.219 13.4678 744.842 15.6358 745.248C21.4416 746.335 25.9059 750.219 30.1865 754.08" stroke="#A88CFF" stroke-width="2" stroke-linecap="square"/>
<path d="M7.19891 739.639C8.79141 738.959 11.6329 742.431 12.9732 743.274C14.4873 744.225 15.3987 746.355 16.2368 747.926C18.0701 751.362 12.4683 763.126 8.49609 758.256C5.53568 754.627 6.4893 751.025 9.52398 747.804C11.0172 746.219 13.4678 744.842 15.6358 745.248C21.4416 746.335 25.9059 750.219 30.1865 754.08" stroke="#A88CFF" stroke-width="2" stroke-linecap="square"/>
<path d="M7.19891 739.639C8.79141 738.959 11.6329 742.431 12.9732 743.274C14.4873 744.225 15.3987 746.355 16.2368 747.926C18.0701 751.362 12.4683 763.126 8.49609 758.256C5.53568 754.627 6.4893 751.025 9.52398 747.804C11.0172 746.219 13.4678 744.842 15.6358 745.248C21.4416 746.335 25.9059 750.219 30.1865 754.08" stroke="#A88CFF" stroke-width="2" stroke-linecap="square"/>
<path d="M291.199 497.344C292.791 496.664 295.633 500.136 296.973 500.979C298.487 501.93 299.399 504.06 300.237 505.631C302.07 509.067 296.468 520.831 292.496 515.961C289.536 512.332 290.489 508.73 293.524 505.509C295.017 503.924 297.468 502.547 299.636 502.953C305.442 504.04 309.906 507.924 314.187 511.785" stroke="#FFEF00" stroke-width="2" stroke-linecap="square"/>
<path d="M291.199 497.344C292.791 496.664 295.633 500.136 296.973 500.979C298.487 501.93 299.399 504.06 300.237 505.631C302.07 509.067 296.468 520.831 292.496 515.961C289.536 512.332 290.489 508.73 293.524 505.509C295.017 503.924 297.468 502.547 299.636 502.953C305.442 504.04 309.906 507.924 314.187 511.785" stroke="#FFEF00" stroke-width="2" stroke-linecap="square"/>
<path d="M58.1989 25.373C59.7914 24.6938 62.6329 28.1654 63.9732 29.0079C65.4873 29.9597 66.3987 32.0892 67.2368 33.6602C69.0701 37.0964 63.4683 48.8607 59.4961 43.9906C56.5357 40.3611 57.4893 36.7589 60.524 33.5383C62.0172 31.9536 64.4678 30.5761 66.6358 30.9821C72.4416 32.0694 76.9059 35.9532 81.1865 39.8139" stroke="#FFEF00" stroke-width="2" stroke-linecap="square"/>
<path d="M65.1989 223.344C66.7914 222.664 69.6329 226.136 70.9732 226.979C72.4873 227.93 73.3987 230.06 74.2368 231.631C76.0701 235.067 70.4683 246.831 66.4961 241.961C63.5357 238.332 64.4893 234.73 67.524 231.509C69.0172 229.924 71.4678 228.547 73.6358 228.953C79.4416 230.04 83.9059 233.924 88.1865 237.785" stroke="#FFEF00" stroke-width="2" stroke-linecap="square"/>
<path d="M131.199 639.373C132.791 638.694 135.633 642.165 136.973 643.008C138.487 643.96 139.399 646.089 140.237 647.66C142.07 651.096 136.468 662.861 132.496 657.991C129.536 654.361 130.489 650.759 133.524 647.538C135.017 645.954 137.468 644.576 139.636 644.982C145.442 646.069 149.906 649.953 154.187 653.814" stroke="#FFEF00" stroke-width="2" stroke-linecap="square"/>
<path d="M185.199 305.344C186.791 304.664 189.633 308.136 190.973 308.979C192.487 309.93 193.399 312.06 194.237 313.631C196.07 317.067 190.468 328.831 186.496 323.961C183.536 320.332 184.489 316.73 187.524 313.509C189.017 311.924 191.468 310.547 193.636 310.953C199.442 312.04 203.906 315.924 208.187 319.785" stroke="#A88CFF" stroke-width="2" stroke-linecap="square"/>
<path d="M185.199 305.344C186.791 304.664 189.633 308.136 190.973 308.979C192.487 309.93 193.399 312.06 194.237 313.631C196.07 317.067 190.468 328.831 186.496 323.961C183.536 320.332 184.489 316.73 187.524 313.509C189.017 311.924 191.468 310.547 193.636 310.953C199.442 312.04 203.906 315.924 208.187 319.785" stroke="#A88CFF" stroke-width="2" stroke-linecap="square"/>
<path d="M185.199 305.344C186.791 304.664 189.633 308.136 190.973 308.979C192.487 309.93 193.399 312.06 194.237 313.631C196.07 317.067 190.468 328.831 186.496 323.961C183.536 320.332 184.489 316.73 187.524 313.509C189.017 311.924 191.468 310.547 193.636 310.953C199.442 312.04 203.906 315.924 208.187 319.785" stroke="#A88CFF" stroke-width="2" stroke-linecap="square"/>
<path d="M185.199 305.344C186.791 304.664 189.633 308.136 190.973 308.979C192.487 309.93 193.399 312.06 194.237 313.631C196.07 317.067 190.468 328.831 186.496 323.961C183.536 320.332 184.489 316.73 187.524 313.509C189.017 311.924 191.468 310.547 193.636 310.953C199.442 312.04 203.906 315.924 208.187 319.785" stroke="#A88CFF" stroke-width="2" stroke-linecap="square"/>
<path d="M185.199 305.344C186.791 304.664 189.633 308.136 190.973 308.979C192.487 309.93 193.399 312.06 194.237 313.631C196.07 317.067 190.468 328.831 186.496 323.961C183.536 320.332 184.489 316.73 187.524 313.509C189.017 311.924 191.468 310.547 193.636 310.953C199.442 312.04 203.906 315.924 208.187 319.785" stroke="#A88CFF" stroke-width="2" stroke-linecap="square"/>
<path d="M185.199 305.344C186.791 304.664 189.633 308.136 190.973 308.979C192.487 309.93 193.399 312.06 194.237 313.631C196.07 317.067 190.468 328.831 186.496 323.961C183.536 320.332 184.489 316.73 187.524 313.509C189.017 311.924 191.468 310.547 193.636 310.953C199.442 312.04 203.906 315.924 208.187 319.785" stroke="#A88CFF" stroke-width="2" stroke-linecap="square"/>
<path d="M185.199 305.344C186.791 304.664 189.633 308.136 190.973 308.979C192.487 309.93 193.399 312.06 194.237 313.631C196.07 317.067 190.468 328.831 186.496 323.961C183.536 320.332 184.489 316.73 187.524 313.509C189.017 311.924 191.468 310.547 193.636 310.953C199.442 312.04 203.906 315.924 208.187 319.785" stroke="#A88CFF" stroke-width="2" stroke-linecap="square"/>
<path d="M185.199 305.344C186.791 304.664 189.633 308.136 190.973 308.979C192.487 309.93 193.399 312.06 194.237 313.631C196.07 317.067 190.468 328.831 186.496 323.961C183.536 320.332 184.489 316.73 187.524 313.509C189.017 311.924 191.468 310.547 193.636 310.953C199.442 312.04 203.906 315.924 208.187 319.785" stroke="#A88CFF" stroke-width="2" stroke-linecap="square"/>
<path d="M185.199 305.344C186.791 304.664 189.633 308.136 190.973 308.979C192.487 309.93 193.399 312.06 194.237 313.631C196.07 317.067 190.468 328.831 186.496 323.961C183.536 320.332 184.489 316.73 187.524 313.509C189.017 311.924 191.468 310.547 193.636 310.953C199.442 312.04 203.906 315.924 208.187 319.785" stroke="#A88CFF" stroke-width="2" stroke-linecap="square"/>
<path d="M185.199 305.344C186.791 304.664 189.633 308.136 190.973 308.979C192.487 309.93 193.399 312.06 194.237 313.631C196.07 317.067 190.468 328.831 186.496 323.961C183.536 320.332 184.489 316.73 187.524 313.509C189.017 311.924 191.468 310.547 193.636 310.953C199.442 312.04 203.906 315.924 208.187 319.785" stroke="#A88CFF" stroke-width="2" stroke-linecap="square"/>
<path d="M185.199 305.344C186.791 304.664 189.633 308.136 190.973 308.979C192.487 309.93 193.399 312.06 194.237 313.631C196.07 317.067 190.468 328.831 186.496 323.961C183.536 320.332 184.489 316.73 187.524 313.509C189.017 311.924 191.468 310.547 193.636 310.953C199.442 312.04 203.906 315.924 208.187 319.785" stroke="#A88CFF" stroke-width="2" stroke-linecap="square"/>
<path d="M1311.2 142.373C1312.79 141.694 1315.63 145.165 1316.97 146.008C1318.49 146.96 1319.4 149.089 1320.24 150.66C1322.07 154.096 1316.47 165.861 1312.5 160.991C1309.54 157.361 1310.49 153.759 1313.52 150.538C1315.02 148.954 1317.47 147.576 1319.64 147.982C1325.44 149.069 1329.91 152.953 1334.19 156.814" stroke="#FFEF00" stroke-width="2" stroke-linecap="square"/>
<path d="M1076.2 199.344C1077.79 198.664 1080.63 202.136 1081.97 202.979C1083.49 203.93 1084.4 206.06 1085.24 207.631C1087.07 211.067 1081.47 222.831 1077.5 217.961C1074.54 214.332 1075.49 210.73 1078.52 207.509C1080.02 205.924 1082.47 204.547 1084.64 204.953C1090.44 206.04 1094.91 209.924 1099.19 213.785" stroke="#FFEF00" stroke-width="2" stroke-linecap="square"/>
<path d="M306.199 111.373C307.791 110.694 310.633 114.165 311.973 115.008C313.487 115.96 314.399 118.089 315.237 119.66C317.07 123.096 311.468 134.861 307.496 129.991C304.536 126.361 305.489 122.759 308.524 119.538C310.017 117.954 312.468 116.576 314.636 116.982C320.442 118.069 324.906 121.953 329.187 125.814" stroke="#A88CFF" stroke-width="2" stroke-linecap="square"/>
<path d="M1213.2 332.373C1214.79 331.694 1217.63 335.165 1218.97 336.008C1220.49 336.96 1221.4 339.089 1222.24 340.66C1224.07 344.096 1218.47 355.861 1214.5 350.991C1211.54 347.361 1212.49 343.759 1215.52 340.538C1217.02 338.954 1219.47 337.576 1221.64 337.982C1227.44 339.069 1231.91 342.953 1236.19 346.814" stroke="#FFEF00" stroke-width="2" stroke-linecap="square"/>
<path d="M711.199 336.373C712.791 335.694 715.633 339.165 716.973 340.008C718.487 340.96 719.399 343.089 720.237 344.66C722.07 348.096 716.468 359.861 712.496 354.991C709.536 351.361 710.489 347.759 713.524 344.538C715.017 342.954 717.468 341.576 719.636 341.982C725.442 343.069 729.906 346.953 734.187 350.814" stroke="#A88CFF" stroke-width="2" stroke-linecap="square"/>
<path d="M1118.2 568.344C1119.79 567.664 1122.63 571.136 1123.97 571.979C1125.49 572.93 1126.4 575.06 1127.24 576.631C1129.07 580.067 1123.47 591.831 1119.5 586.961C1116.54 583.332 1117.49 579.73 1120.52 576.509C1122.02 574.924 1124.47 573.547 1126.64 573.953C1132.44 575.04 1136.91 578.924 1141.19 582.785" stroke="#FFEF00" stroke-width="2" stroke-linecap="square"/>
<path d="M1118.2 568.344C1119.79 567.664 1122.63 571.136 1123.97 571.979C1125.49 572.93 1126.4 575.06 1127.24 576.631C1129.07 580.067 1123.47 591.831 1119.5 586.961C1116.54 583.332 1117.49 579.73 1120.52 576.509C1122.02 574.924 1124.47 573.547 1126.64 573.953C1132.44 575.04 1136.91 578.924 1141.19 582.785" stroke="#FFEF00" stroke-width="2" stroke-linecap="square"/>
<path d="M957.199 427.373C958.791 426.694 961.633 430.165 962.973 431.008C964.487 431.96 965.399 434.089 966.237 435.66C968.07 439.096 962.468 450.861 958.496 445.991C955.536 442.361 956.489 438.759 959.524 435.538C961.017 433.954 963.468 432.576 965.636 432.982C971.442 434.069 975.906 437.953 980.187 441.814" stroke="#FFEF00" stroke-width="2" stroke-linecap="square"/>
<path d="M1213.2 802.344C1214.79 801.664 1217.63 805.136 1218.97 805.979C1220.49 806.93 1221.4 809.06 1222.24 810.631C1224.07 814.067 1218.47 825.831 1214.5 820.961C1211.54 817.332 1212.49 813.73 1215.52 810.509C1217.02 808.924 1219.47 807.547 1221.64 807.953C1227.44 809.04 1231.91 812.924 1236.19 816.785" stroke="#A88CFF" stroke-width="2" stroke-linecap="square"/>
<path d="M1213.2 802.344C1214.79 801.664 1217.63 805.136 1218.97 805.979C1220.49 806.93 1221.4 809.06 1222.24 810.631C1224.07 814.067 1218.47 825.831 1214.5 820.961C1211.54 817.332 1212.49 813.73 1215.52 810.509C1217.02 808.924 1219.47 807.547 1221.64 807.953C1227.44 809.04 1231.91 812.924 1236.19 816.785" stroke="#A88CFF" stroke-width="2" stroke-linecap="square"/>
<path d="M1213.2 802.344C1214.79 801.664 1217.63 805.136 1218.97 805.979C1220.49 806.93 1221.4 809.06 1222.24 810.631C1224.07 814.067 1218.47 825.831 1214.5 820.961C1211.54 817.332 1212.49 813.73 1215.52 810.509C1217.02 808.924 1219.47 807.547 1221.64 807.953C1227.44 809.04 1231.91 812.924 1236.19 816.785" stroke="#A88CFF" stroke-width="2" stroke-linecap="square"/>
<path d="M1213.2 802.344C1214.79 801.664 1217.63 805.136 1218.97 805.979C1220.49 806.93 1221.4 809.06 1222.24 810.631C1224.07 814.067 1218.47 825.831 1214.5 820.961C1211.54 817.332 1212.49 813.73 1215.52 810.509C1217.02 808.924 1219.47 807.547 1221.64 807.953C1227.44 809.04 1231.91 812.924 1236.19 816.785" stroke="#A88CFF" stroke-width="2" stroke-linecap="square"/>
<path d="M1213.2 802.344C1214.79 801.664 1217.63 805.136 1218.97 805.979C1220.49 806.93 1221.4 809.06 1222.24 810.631C1224.07 814.067 1218.47 825.831 1214.5 820.961C1211.54 817.332 1212.49 813.73 1215.52 810.509C1217.02 808.924 1219.47 807.547 1221.64 807.953C1227.44 809.04 1231.91 812.924 1236.19 816.785" stroke="#A88CFF" stroke-width="2" stroke-linecap="square"/>
<path d="M1213.2 802.344C1214.79 801.664 1217.63 805.136 1218.97 805.979C1220.49 806.93 1221.4 809.06 1222.24 810.631C1224.07 814.067 1218.47 825.831 1214.5 820.961C1211.54 817.332 1212.49 813.73 1215.52 810.509C1217.02 808.924 1219.47 807.547 1221.64 807.953C1227.44 809.04 1231.91 812.924 1236.19 816.785" stroke="#A88CFF" stroke-width="2" stroke-linecap="square"/>
<path d="M1213.2 802.344C1214.79 801.664 1217.63 805.136 1218.97 805.979C1220.49 806.93 1221.4 809.06 1222.24 810.631C1224.07 814.067 1218.47 825.831 1214.5 820.961C1211.54 817.332 1212.49 813.73 1215.52 810.509C1217.02 808.924 1219.47 807.547 1221.64 807.953C1227.44 809.04 1231.91 812.924 1236.19 816.785" stroke="#A88CFF" stroke-width="2" stroke-linecap="square"/>
<path d="M1213.2 802.344C1214.79 801.664 1217.63 805.136 1218.97 805.979C1220.49 806.93 1221.4 809.06 1222.24 810.631C1224.07 814.067 1218.47 825.831 1214.5 820.961C1211.54 817.332 1212.49 813.73 1215.52 810.509C1217.02 808.924 1219.47 807.547 1221.64 807.953C1227.44 809.04 1231.91 812.924 1236.19 816.785" stroke="#A88CFF" stroke-width="2" stroke-linecap="square"/>
<path d="M1213.2 802.344C1214.79 801.664 1217.63 805.136 1218.97 805.979C1220.49 806.93 1221.4 809.06 1222.24 810.631C1224.07 814.067 1218.47 825.831 1214.5 820.961C1211.54 817.332 1212.49 813.73 1215.52 810.509C1217.02 808.924 1219.47 807.547 1221.64 807.953C1227.44 809.04 1231.91 812.924 1236.19 816.785" stroke="#A88CFF" stroke-width="2" stroke-linecap="square"/>
<path d="M1213.2 802.344C1214.79 801.664 1217.63 805.136 1218.97 805.979C1220.49 806.93 1221.4 809.06 1222.24 810.631C1224.07 814.067 1218.47 825.831 1214.5 820.961C1211.54 817.332 1212.49 813.73 1215.52 810.509C1217.02 808.924 1219.47 807.547 1221.64 807.953C1227.44 809.04 1231.91 812.924 1236.19 816.785" stroke="#A88CFF" stroke-width="2" stroke-linecap="square"/>
<path d="M1213.2 802.344C1214.79 801.664 1217.63 805.136 1218.97 805.979C1220.49 806.93 1221.4 809.06 1222.24 810.631C1224.07 814.067 1218.47 825.831 1214.5 820.961C1211.54 817.332 1212.49 813.73 1215.52 810.509C1217.02 808.924 1219.47 807.547 1221.64 807.953C1227.44 809.04 1231.91 812.924 1236.19 816.785" stroke="#A88CFF" stroke-width="2" stroke-linecap="square"/>
<path d="M1352.2 660.344C1353.79 659.664 1356.63 663.136 1357.97 663.979C1359.49 664.93 1360.4 667.06 1361.24 668.631C1363.07 672.067 1357.47 683.831 1353.5 678.961C1350.54 675.332 1351.49 671.73 1354.52 668.509C1356.02 666.924 1358.47 665.547 1360.64 665.953C1366.44 667.04 1370.91 670.924 1375.19 674.785" stroke="#A88CFF" stroke-width="2" stroke-linecap="square"/>
<path d="M696.199 39.373C697.791 38.6938 700.633 42.1654 701.973 43.0079C703.487 43.9597 704.399 46.0892 705.237 47.6602C707.07 51.0964 701.468 62.8607 697.496 57.9906C694.536 54.3611 695.489 50.7589 698.524 47.5383C700.017 45.9536 702.468 44.5761 704.636 44.9821C710.442 46.0694 714.906 49.9532 719.187 53.8139" stroke="#FFEF00" stroke-width="2" stroke-linecap="square"/>
<path d="M696.199 39.373C697.791 38.6938 700.633 42.1654 701.973 43.0079C703.487 43.9597 704.399 46.0892 705.237 47.6602C707.07 51.0964 701.468 62.8607 697.496 57.9906C694.536 54.3611 695.489 50.7589 698.524 47.5383C700.017 45.9536 702.468 44.5761 704.636 44.9821C710.442 46.0694 714.906 49.9532 719.187 53.8139" stroke="#FFEF00" stroke-width="2" stroke-linecap="square"/>
<path d="M601.199 230.373C602.791 229.694 605.633 233.165 606.973 234.008C608.487 234.96 609.399 237.089 610.237 238.66C612.07 242.096 606.468 253.861 602.496 248.991C599.536 245.361 600.489 241.759 603.524 238.538C605.017 236.954 607.468 235.576 609.636 235.982C615.442 237.069 619.906 240.953 624.187 244.814" stroke="#A88CFF" stroke-width="2" stroke-linecap="square"/>
<path d="M601.199 230.373C602.791 229.694 605.633 233.165 606.973 234.008C608.487 234.96 609.399 237.089 610.237 238.66C612.07 242.096 606.468 253.861 602.496 248.991C599.536 245.361 600.489 241.759 603.524 238.538C605.017 236.954 607.468 235.576 609.636 235.982C615.442 237.069 619.906 240.953 624.187 244.814" stroke="#A88CFF" stroke-width="2" stroke-linecap="square"/>
<path d="M601.199 230.373C602.791 229.694 605.633 233.165 606.973 234.008C608.487 234.96 609.399 237.089 610.237 238.66C612.07 242.096 606.468 253.861 602.496 248.991C599.536 245.361 600.489 241.759 603.524 238.538C605.017 236.954 607.468 235.576 609.636 235.982C615.442 237.069 619.906 240.953 624.187 244.814" stroke="#A88CFF" stroke-width="2" stroke-linecap="square"/>
<path d="M601.199 230.373C602.791 229.694 605.633 233.165 606.973 234.008C608.487 234.96 609.399 237.089 610.237 238.66C612.07 242.096 606.468 253.861 602.496 248.991C599.536 245.361 600.489 241.759 603.524 238.538C605.017 236.954 607.468 235.576 609.636 235.982C615.442 237.069 619.906 240.953 624.187 244.814" stroke="#A88CFF" stroke-width="2" stroke-linecap="square"/>
<path d="M601.199 230.373C602.791 229.694 605.633 233.165 606.973 234.008C608.487 234.96 609.399 237.089 610.237 238.66C612.07 242.096 606.468 253.861 602.496 248.991C599.536 245.361 600.489 241.759 603.524 238.538C605.017 236.954 607.468 235.576 609.636 235.982C615.442 237.069 619.906 240.953 624.187 244.814" stroke="#A88CFF" stroke-width="2" stroke-linecap="square"/>
<path d="M601.199 230.373C602.791 229.694 605.633 233.165 606.973 234.008C608.487 234.96 609.399 237.089 610.237 238.66C612.07 242.096 606.468 253.861 602.496 248.991C599.536 245.361 600.489 241.759 603.524 238.538C605.017 236.954 607.468 235.576 609.636 235.982C615.442 237.069 619.906 240.953 624.187 244.814" stroke="#A88CFF" stroke-width="2" stroke-linecap="square"/>
<path d="M601.199 230.373C602.791 229.694 605.633 233.165 606.973 234.008C608.487 234.96 609.399 237.089 610.237 238.66C612.07 242.096 606.468 253.861 602.496 248.991C599.536 245.361 600.489 241.759 603.524 238.538C605.017 236.954 607.468 235.576 609.636 235.982C615.442 237.069 619.906 240.953 624.187 244.814" stroke="#A88CFF" stroke-width="2" stroke-linecap="square"/>
<path d="M601.199 230.373C602.791 229.694 605.633 233.165 606.973 234.008C608.487 234.96 609.399 237.089 610.237 238.66C612.07 242.096 606.468 253.861 602.496 248.991C599.536 245.361 600.489 241.759 603.524 238.538C605.017 236.954 607.468 235.576 609.636 235.982C615.442 237.069 619.906 240.953 624.187 244.814" stroke="#A88CFF" stroke-width="2" stroke-linecap="square"/>
<path d="M601.199 230.373C602.791 229.694 605.633 233.165 606.973 234.008C608.487 234.96 609.399 237.089 610.237 238.66C612.07 242.096 606.468 253.861 602.496 248.991C599.536 245.361 600.489 241.759 603.524 238.538C605.017 236.954 607.468 235.576 609.636 235.982C615.442 237.069 619.906 240.953 624.187 244.814" stroke="#A88CFF" stroke-width="2" stroke-linecap="square"/>
<path d="M601.199 230.373C602.791 229.694 605.633 233.165 606.973 234.008C608.487 234.96 609.399 237.089 610.237 238.66C612.07 242.096 606.468 253.861 602.496 248.991C599.536 245.361 600.489 241.759 603.524 238.538C605.017 236.954 607.468 235.576 609.636 235.982C615.442 237.069 619.906 240.953 624.187 244.814" stroke="#A88CFF" stroke-width="2" stroke-linecap="square"/>
<path d="M601.199 230.373C602.791 229.694 605.633 233.165 606.973 234.008C608.487 234.96 609.399 237.089 610.237 238.66C612.07 242.096 606.468 253.861 602.496 248.991C599.536 245.361 600.489 241.759 603.524 238.538C605.017 236.954 607.468 235.576 609.636 235.982C615.442 237.069 619.906 240.953 624.187 244.814" stroke="#A88CFF" stroke-width="2" stroke-linecap="square"/>
<path d="M975.199 70.3437C976.791 69.6645 979.633 73.1361 980.973 73.9786C982.487 74.9304 983.399 77.0599 984.237 78.6309C986.07 82.0671 980.468 93.8314 976.496 88.9613C973.536 85.3318 974.489 81.7296 977.524 78.509C979.017 76.9243 981.468 75.5468 983.636 75.9528C989.442 77.0401 993.906 80.9239 998.187 84.7846" stroke="#A88CFF" stroke-width="2" stroke-linecap="square"/>
<path d="M276.199 734.344C277.791 733.664 280.633 737.136 281.973 737.979C283.487 738.93 284.399 741.06 285.237 742.631C287.07 746.067 281.468 757.831 277.496 752.961C274.536 749.332 275.489 745.73 278.524 742.509C280.017 740.924 282.468 739.547 284.636 739.953C290.442 741.04 294.906 744.924 299.187 748.785" stroke="#FFEF00" stroke-width="2" stroke-linecap="square"/>
<path d="M276.199 734.344C277.791 733.664 280.633 737.136 281.973 737.979C283.487 738.93 284.399 741.06 285.237 742.631C287.07 746.067 281.468 757.831 277.496 752.961C274.536 749.332 275.489 745.73 278.524 742.509C280.017 740.924 282.468 739.547 284.636 739.953C290.442 741.04 294.906 744.924 299.187 748.785" stroke="#FFEF00" stroke-width="2" stroke-linecap="square"/>
<path d="M915.199 703.344C916.791 702.664 919.633 706.136 920.973 706.979C922.487 707.93 923.399 710.06 924.237 711.631C926.07 715.067 920.468 726.831 916.496 721.961C913.536 718.332 914.489 714.73 917.524 711.509C919.017 709.924 921.468 708.547 923.636 708.953C929.442 710.04 933.906 713.924 938.187 717.785" stroke="#A88CFF" stroke-width="2" stroke-linecap="square"/>
<path d="M915.199 703.344C916.791 702.664 919.633 706.136 920.973 706.979C922.487 707.93 923.399 710.06 924.237 711.631C926.07 715.067 920.468 726.831 916.496 721.961C913.536 718.332 914.489 714.73 917.524 711.509C919.017 709.924 921.468 708.547 923.636 708.953C929.442 710.04 933.906 713.924 938.187 717.785" stroke="#A88CFF" stroke-width="2" stroke-linecap="square"/>
<path d="M915.199 703.344C916.791 702.664 919.633 706.136 920.973 706.979C922.487 707.93 923.399 710.06 924.237 711.631C926.07 715.067 920.468 726.831 916.496 721.961C913.536 718.332 914.489 714.73 917.524 711.509C919.017 709.924 921.468 708.547 923.636 708.953C929.442 710.04 933.906 713.924 938.187 717.785" stroke="#A88CFF" stroke-width="2" stroke-linecap="square"/>
<path d="M915.199 703.344C916.791 702.664 919.633 706.136 920.973 706.979C922.487 707.93 923.399 710.06 924.237 711.631C926.07 715.067 920.468 726.831 916.496 721.961C913.536 718.332 914.489 714.73 917.524 711.509C919.017 709.924 921.468 708.547 923.636 708.953C929.442 710.04 933.906 713.924 938.187 717.785" stroke="#A88CFF" stroke-width="2" stroke-linecap="square"/>
<path d="M915.199 703.344C916.791 702.664 919.633 706.136 920.973 706.979C922.487 707.93 923.399 710.06 924.237 711.631C926.07 715.067 920.468 726.831 916.496 721.961C913.536 718.332 914.489 714.73 917.524 711.509C919.017 709.924 921.468 708.547 923.636 708.953C929.442 710.04 933.906 713.924 938.187 717.785" stroke="#A88CFF" stroke-width="2" stroke-linecap="square"/>
<path d="M915.199 703.344C916.791 702.664 919.633 706.136 920.973 706.979C922.487 707.93 923.399 710.06 924.237 711.631C926.07 715.067 920.468 726.831 916.496 721.961C913.536 718.332 914.489 714.73 917.524 711.509C919.017 709.924 921.468 708.547 923.636 708.953C929.442 710.04 933.906 713.924 938.187 717.785" stroke="#A88CFF" stroke-width="2" stroke-linecap="square"/>
<path d="M915.199 703.344C916.791 702.664 919.633 706.136 920.973 706.979C922.487 707.93 923.399 710.06 924.237 711.631C926.07 715.067 920.468 726.831 916.496 721.961C913.536 718.332 914.489 714.73 917.524 711.509C919.017 709.924 921.468 708.547 923.636 708.953C929.442 710.04 933.906 713.924 938.187 717.785" stroke="#A88CFF" stroke-width="2" stroke-linecap="square"/>
<path d="M915.199 703.344C916.791 702.664 919.633 706.136 920.973 706.979C922.487 707.93 923.399 710.06 924.237 711.631C926.07 715.067 920.468 726.831 916.496 721.961C913.536 718.332 914.489 714.73 917.524 711.509C919.017 709.924 921.468 708.547 923.636 708.953C929.442 710.04 933.906 713.924 938.187 717.785" stroke="#A88CFF" stroke-width="2" stroke-linecap="square"/>
<path d="M915.199 703.344C916.791 702.664 919.633 706.136 920.973 706.979C922.487 707.93 923.399 710.06 924.237 711.631C926.07 715.067 920.468 726.831 916.496 721.961C913.536 718.332 914.489 714.73 917.524 711.509C919.017 709.924 921.468 708.547 923.636 708.953C929.442 710.04 933.906 713.924 938.187 717.785" stroke="#A88CFF" stroke-width="2" stroke-linecap="square"/>
<path d="M915.199 703.344C916.791 702.664 919.633 706.136 920.973 706.979C922.487 707.93 923.399 710.06 924.237 711.631C926.07 715.067 920.468 726.831 916.496 721.961C913.536 718.332 914.489 714.73 917.524 711.509C919.017 709.924 921.468 708.547 923.636 708.953C929.442 710.04 933.906 713.924 938.187 717.785" stroke="#A88CFF" stroke-width="2" stroke-linecap="square"/>
<path d="M915.199 703.344C916.791 702.664 919.633 706.136 920.973 706.979C922.487 707.93 923.399 710.06 924.237 711.631C926.07 715.067 920.468 726.831 916.496 721.961C913.536 718.332 914.489 714.73 917.524 711.509C919.017 709.924 921.468 708.547 923.636 708.953C929.442 710.04 933.906 713.924 938.187 717.785" stroke="#A88CFF" stroke-width="2" stroke-linecap="square"/>
<path d="M177.199 858.373C178.791 857.694 181.633 861.165 182.973 862.008C184.487 862.96 185.399 865.089 186.237 866.66C188.07 870.096 182.468 881.861 178.496 876.991C175.536 873.361 176.489 869.759 179.524 866.538C181.017 864.954 183.468 863.576 185.636 863.982C191.442 865.069 195.906 868.953 200.187 872.814" stroke="#A88CFF" stroke-width="2" stroke-linecap="square"/>
<path d="M177.199 858.373C178.791 857.694 181.633 861.165 182.973 862.008C184.487 862.96 185.399 865.089 186.237 866.66C188.07 870.096 182.468 881.861 178.496 876.991C175.536 873.361 176.489 869.759 179.524 866.538C181.017 864.954 183.468 863.576 185.636 863.982C191.442 865.069 195.906 868.953 200.187 872.814" stroke="#A88CFF" stroke-width="2" stroke-linecap="square"/>
<path d="M177.199 858.373C178.791 857.694 181.633 861.165 182.973 862.008C184.487 862.96 185.399 865.089 186.237 866.66C188.07 870.096 182.468 881.861 178.496 876.991C175.536 873.361 176.489 869.759 179.524 866.538C181.017 864.954 183.468 863.576 185.636 863.982C191.442 865.069 195.906 868.953 200.187 872.814" stroke="#A88CFF" stroke-width="2" stroke-linecap="square"/>
<path d="M177.199 858.373C178.791 857.694 181.633 861.165 182.973 862.008C184.487 862.96 185.399 865.089 186.237 866.66C188.07 870.096 182.468 881.861 178.496 876.991C175.536 873.361 176.489 869.759 179.524 866.538C181.017 864.954 183.468 863.576 185.636 863.982C191.442 865.069 195.906 868.953 200.187 872.814" stroke="#A88CFF" stroke-width="2" stroke-linecap="square"/>
<path d="M177.199 858.373C178.791 857.694 181.633 861.165 182.973 862.008C184.487 862.96 185.399 865.089 186.237 866.66C188.07 870.096 182.468 881.861 178.496 876.991C175.536 873.361 176.489 869.759 179.524 866.538C181.017 864.954 183.468 863.576 185.636 863.982C191.442 865.069 195.906 868.953 200.187 872.814" stroke="#A88CFF" stroke-width="2" stroke-linecap="square"/>
<path d="M177.199 858.373C178.791 857.694 181.633 861.165 182.973 862.008C184.487 862.96 185.399 865.089 186.237 866.66C188.07 870.096 182.468 881.861 178.496 876.991C175.536 873.361 176.489 869.759 179.524 866.538C181.017 864.954 183.468 863.576 185.636 863.982C191.442 865.069 195.906 868.953 200.187 872.814" stroke="#A88CFF" stroke-width="2" stroke-linecap="square"/>
<path d="M177.199 858.373C178.791 857.694 181.633 861.165 182.973 862.008C184.487 862.96 185.399 865.089 186.237 866.66C188.07 870.096 182.468 881.861 178.496 876.991C175.536 873.361 176.489 869.759 179.524 866.538C181.017 864.954 183.468 863.576 185.636 863.982C191.442 865.069 195.906 868.953 200.187 872.814" stroke="#A88CFF" stroke-width="2" stroke-linecap="square"/>
<path d="M177.199 858.373C178.791 857.694 181.633 861.165 182.973 862.008C184.487 862.96 185.399 865.089 186.237 866.66C188.07 870.096 182.468 881.861 178.496 876.991C175.536 873.361 176.489 869.759 179.524 866.538C181.017 864.954 183.468 863.576 185.636 863.982C191.442 865.069 195.906 868.953 200.187 872.814" stroke="#A88CFF" stroke-width="2" stroke-linecap="square"/>
<path d="M177.199 858.373C178.791 857.694 181.633 861.165 182.973 862.008C184.487 862.96 185.399 865.089 186.237 866.66C188.07 870.096 182.468 881.861 178.496 876.991C175.536 873.361 176.489 869.759 179.524 866.538C181.017 864.954 183.468 863.576 185.636 863.982C191.442 865.069 195.906 868.953 200.187 872.814" stroke="#A88CFF" stroke-width="2" stroke-linecap="square"/>
<path d="M177.199 858.373C178.791 857.694 181.633 861.165 182.973 862.008C184.487 862.96 185.399 865.089 186.237 866.66C188.07 870.096 182.468 881.861 178.496 876.991C175.536 873.361 176.489 869.759 179.524 866.538C181.017 864.954 183.468 863.576 185.636 863.982C191.442 865.069 195.906 868.953 200.187 872.814" stroke="#A88CFF" stroke-width="2" stroke-linecap="square"/>
<path d="M177.199 858.373C178.791 857.694 181.633 861.165 182.973 862.008C184.487 862.96 185.399 865.089 186.237 866.66C188.07 870.096 182.468 881.861 178.496 876.991C175.536 873.361 176.489 869.759 179.524 866.538C181.017 864.954 183.468 863.576 185.636 863.982C191.442 865.069 195.906 868.953 200.187 872.814" stroke="#A88CFF" stroke-width="2" stroke-linecap="square"/>
<defs>
<clipPath id="clip0_1272_482">
<rect width="1382" height="904" fill="white" transform="translate(3)"/>
</clipPath>
</defs>
</svg>
