<svg width="17" height="17" viewBox="0 0 17 17" fill="none" xmlns="http://www.w3.org/2000/svg">
<g id="Group 3">
<path id="Vector" d="M8.8986 16.4448C13.2028 16.4448 16.692 12.9553 16.692 8.65136C16.692 4.34704 13.2028 0.85791 8.8986 0.85791C4.59443 0.85791 1.10522 4.34704 1.10522 8.65136C1.10522 12.9553 4.59443 16.4448 8.8986 16.4448Z" fill="#8E69FF"/>
<path id="Vector_2" d="M8.89843 16.6767C7.31102 16.6767 5.75928 16.2062 4.43942 15.3242C3.11956 14.4425 2.09082 13.189 1.48334 11.7223C0.87583 10.2557 0.716856 8.64191 1.02649 7.08507C1.33612 5.52823 2.10046 4.09813 3.22288 2.97549C4.34526 1.85322 5.77532 1.08866 7.3322 0.778992C8.88908 0.468954 10.5028 0.627847 11.9694 1.23536C13.436 1.84287 14.6896 2.87128 15.5716 4.19125C16.4536 5.51086 16.9244 7.06253 16.9245 8.65004C16.9222 10.7782 16.0759 12.8184 14.5712 14.3231C13.0666 15.8278 11.0265 16.6744 8.89843 16.6767ZM8.89843 1.09014C7.40304 1.09014 5.94124 1.53357 4.69787 2.36428C3.4545 3.19499 2.48544 4.37602 1.91322 5.75734C1.34096 7.13902 1.1913 8.65928 1.48308 10.126C1.77487 11.5926 2.49501 12.9399 3.55247 13.9972C4.60989 15.0544 5.95713 15.7746 7.4238 16.0662C8.89048 16.3578 10.4107 16.2081 11.7922 15.6357C13.1737 15.0633 14.3545 14.094 15.1852 12.8505C16.0159 11.6074 16.4592 10.1455 16.4591 8.65004C16.4566 6.6457 15.6593 4.72412 14.2419 3.30696C12.8245 1.88943 10.9028 1.09235 8.89843 1.09014Z" fill="#8E69FF"/>
<path id="Vector_3" d="M8.89845 9.32801C8.76431 9.32801 8.63316 9.2881 8.52164 9.21382C8.41011 9.13918 8.32319 9.03312 8.27187 8.90933C8.2205 8.78553 8.20709 8.64918 8.23325 8.51763C8.25941 8.38608 8.32401 8.26523 8.41887 8.17026C8.51373 8.07529 8.63456 8.01099 8.76612 7.98476C8.89767 7.95852 9.03403 7.97182 9.15797 8.02319C9.28191 8.07455 9.38782 8.16139 9.46235 8.27299C9.53685 8.38459 9.57665 8.51577 9.57665 8.64992C9.57628 8.82951 9.5047 9.00172 9.37762 9.12884C9.2505 9.25596 9.07819 9.32764 8.89845 9.32801ZM8.89845 8.43707C8.85636 8.43707 8.81523 8.44964 8.78023 8.47292C8.74524 8.4962 8.71797 8.52945 8.70186 8.56825C8.68575 8.60742 8.68153 8.64992 8.68974 8.69131C8.69798 8.73269 8.71823 8.77039 8.74797 8.80032C8.77772 8.82988 8.81564 8.85021 8.85691 8.85834C8.89819 8.86684 8.94098 8.8624 8.97986 8.84651C9.01873 8.83025 9.05195 8.80291 9.07534 8.76817C9.09874 8.73307 9.11119 8.69204 9.11119 8.64992C9.11104 8.59338 9.08857 8.53943 9.0487 8.49952C9.00883 8.45961 8.9548 8.43707 8.89845 8.43707ZM8.89848 3.10988C8.83677 3.10988 8.77757 3.08513 8.73393 3.04152C8.69029 2.99792 8.66575 2.93878 8.66575 2.87707V1.53457C8.66575 1.47285 8.69029 1.41372 8.73393 1.37012C8.77757 1.32651 8.83677 1.30176 8.89848 1.30176C8.9602 1.30176 9.0194 1.32651 9.06304 1.37012C9.10668 1.41372 9.13118 1.47285 9.13118 1.53457V2.87449C9.13155 2.90516 9.12578 2.93583 9.11426 2.96429C9.10273 2.99274 9.08562 3.01898 9.064 3.04078C9.04234 3.06258 9.01655 3.07995 8.98817 3.09177C8.95975 3.1036 8.92927 3.10988 8.89848 3.10988ZM8.89848 15.8554C8.83677 15.8554 8.77757 15.8311 8.73393 15.7874C8.69029 15.7435 8.66575 15.6844 8.66575 15.6226V14.2831C8.66575 14.2214 8.69029 14.1619 8.73393 14.1183C8.77757 14.0747 8.83677 14.0503 8.89848 14.0503C8.9602 14.0503 9.0194 14.0747 9.06304 14.1183C9.10668 14.1619 9.13118 14.2214 9.13118 14.2831V15.6226C9.13118 15.6844 9.10668 15.7435 9.06304 15.7874C9.0194 15.8311 8.9602 15.8554 8.89848 15.8554ZM15.9412 8.81288H14.6014C14.5397 8.81288 14.4805 8.78812 14.4369 8.74452C14.3932 8.70091 14.3687 8.64179 14.3687 8.58008C14.3687 8.51836 14.3932 8.45924 14.4369 8.41564C14.4805 8.37166 14.5397 8.34727 14.6014 8.34727H15.9412C16.0029 8.34727 16.0621 8.37166 16.1057 8.41564C16.1494 8.45924 16.1739 8.51836 16.1739 8.58008C16.1739 8.64179 16.1494 8.70091 16.1057 8.74452C16.0621 8.78812 16.0029 8.81288 15.9412 8.81288ZM3.19556 8.81288H1.85578C1.79407 8.81288 1.73487 8.78812 1.69123 8.74452C1.64758 8.70091 1.62305 8.64179 1.62305 8.58008C1.62305 8.51836 1.64758 8.45924 1.69123 8.41564C1.73487 8.37166 1.79407 8.34727 1.85578 8.34727H3.19556C3.25727 8.34727 3.31647 8.37166 3.36011 8.41564C3.40375 8.45924 3.42829 8.51836 3.42829 8.58008C3.42829 8.64179 3.40375 8.70091 3.36011 8.74452C3.31647 8.78812 3.25727 8.81288 3.19556 8.81288ZM5.67032 3.14757C5.62982 3.14757 5.59006 3.13648 5.55503 3.11616C5.52003 3.09583 5.49102 3.06665 5.47085 3.03117L5.2142 2.58773C5.18505 2.53452 5.17788 2.47207 5.19429 2.41332C5.21069 2.35493 5.24935 2.30504 5.30197 2.27474C5.35463 2.24407 5.41708 2.23557 5.47595 2.25072C5.53485 2.26587 5.58551 2.30319 5.61714 2.3553L5.87378 2.79874C5.90445 2.85195 5.91273 2.91551 5.89677 2.975C5.88084 3.0345 5.84197 3.08549 5.78868 3.11653C5.75276 3.13722 5.71189 3.14831 5.67032 3.14757ZM14.4843 5.50556C14.4332 5.50556 14.3834 5.48856 14.3428 5.45752C14.3022 5.42611 14.273 5.38251 14.2597 5.333C14.2464 5.28348 14.2499 5.231 14.2695 5.1837C14.289 5.1364 14.3237 5.09686 14.368 5.07136L14.8115 4.81528C14.838 4.79902 14.8674 4.78867 14.8981 4.78387C14.9288 4.77943 14.9601 4.78091 14.9901 4.78867C15.0202 4.79643 15.0484 4.80973 15.0731 4.82858C15.0978 4.84742 15.1185 4.87071 15.1341 4.89768C15.1496 4.92466 15.1596 4.95422 15.1634 4.98489C15.1673 5.01593 15.165 5.04697 15.1566 5.0769C15.1482 5.10684 15.134 5.13455 15.1147 5.15894C15.0954 5.18333 15.0714 5.20329 15.0442 5.21807L14.6007 5.47415C14.5654 5.49484 14.5253 5.50556 14.4843 5.50556ZM2.86911 12.2185C2.81793 12.2185 2.76816 12.2015 2.72754 12.1701C2.6869 12.139 2.6577 12.0954 2.64447 12.0459C2.63121 11.9964 2.63464 11.9439 2.65423 11.8966C2.67378 11.8493 2.70844 11.8098 2.75275 11.7843L3.19626 11.5282C3.22275 11.512 3.25221 11.5016 3.28288 11.4968C3.31355 11.4924 3.34481 11.4938 3.37489 11.5016C3.40493 11.5094 3.43313 11.5227 3.45785 11.5415C3.48257 11.5604 3.5033 11.5836 3.51882 11.6106C3.53431 11.6376 3.54432 11.6672 3.5482 11.6978C3.55205 11.7289 3.54976 11.7599 3.54137 11.7898C3.53302 11.8198 3.51875 11.8475 3.49946 11.8719C3.48014 11.8963 3.45619 11.9162 3.42896 11.931L2.98548 12.1871C2.95015 12.2078 2.90998 12.2185 2.86911 12.2185ZM12.3833 14.7664C12.3428 14.7661 12.3031 14.755 12.2681 14.7346C12.2331 14.7143 12.204 14.6851 12.1838 14.65L11.9271 14.2066C11.9118 14.18 11.9019 14.1508 11.8978 14.1205C11.8938 14.0902 11.8958 14.0595 11.9036 14.0299C11.9115 14.0004 11.9251 13.9727 11.9437 13.9483C11.9623 13.9239 11.9855 13.9036 12.0119 13.8884C12.0384 13.8729 12.0676 13.8629 12.0979 13.8589C12.1282 13.8548 12.159 13.857 12.1885 13.8648C12.2181 13.8725 12.2458 13.8862 12.2701 13.905C12.2943 13.9235 12.3147 13.9468 12.3301 13.973L12.5867 14.4165C12.6176 14.4701 12.626 14.5336 12.61 14.5935C12.5941 14.653 12.5551 14.704 12.5016 14.735C12.4657 14.7561 12.4248 14.7668 12.3833 14.7664ZM3.3079 5.51295C3.26725 5.51295 3.22734 5.50186 3.19223 5.48154L2.74805 5.2262C2.69454 5.19552 2.65549 5.14453 2.63945 5.08466C2.62341 5.02517 2.63176 4.96162 2.66262 4.90803C2.69347 4.85445 2.74432 4.81564 2.804 4.79938C2.86368 4.78349 2.92724 4.79163 2.98078 4.82267L3.42426 5.07875C3.46861 5.10425 3.50323 5.14379 3.52282 5.19109C3.5424 5.23839 3.54584 5.29087 3.53257 5.34038C3.51931 5.3899 3.49011 5.4335 3.4495 5.46454C3.40889 5.49595 3.35911 5.51258 3.3079 5.51295ZM12.1193 3.14387C12.0786 3.14387 12.0387 3.13279 12.0036 3.11247C11.9771 3.09732 11.9539 3.07699 11.9352 3.0526C11.9165 3.02858 11.9028 3.00087 11.8949 2.97131C11.8869 2.94174 11.8848 2.91107 11.8888 2.88077C11.8927 2.85047 11.9026 2.82127 11.9178 2.79467L12.1738 2.35123C12.1883 2.32314 12.2082 2.29839 12.2325 2.27843C12.2568 2.25848 12.2848 2.2437 12.315 2.23483C12.3452 2.22596 12.3768 2.22337 12.408 2.22707C12.4392 2.23077 12.4694 2.24074 12.4966 2.25663C12.5238 2.27215 12.5476 2.29322 12.5665 2.31834C12.5854 2.34347 12.5989 2.3723 12.6065 2.4026C12.614 2.43327 12.6152 2.46505 12.6101 2.49609C12.605 2.52713 12.5936 2.55669 12.5767 2.5833L12.3214 3.02747C12.3009 3.06295 12.2714 3.09215 12.236 3.11247C12.2004 3.13316 12.1602 3.14387 12.1193 3.14387ZM5.42166 14.7664C5.3809 14.7664 5.34081 14.7557 5.30533 14.7358C5.2519 14.7047 5.21291 14.6541 5.19698 14.5946C5.18102 14.5347 5.18937 14.4712 5.22023 14.418L5.47554 13.9738C5.5064 13.9202 5.55724 13.881 5.61692 13.8651C5.6766 13.8492 5.74016 13.8574 5.79371 13.8884C5.84721 13.9191 5.88627 13.9701 5.90231 14.0296C5.91831 14.0894 5.91 14.153 5.87914 14.2066L5.62313 14.65C5.60284 14.6855 5.5735 14.7147 5.5381 14.7354C5.5027 14.7557 5.46253 14.7664 5.42166 14.7664ZM14.9325 12.2104C14.8917 12.2104 14.8516 12.2 14.8161 12.1797L14.3726 11.924C14.3447 11.9092 14.32 11.8892 14.3001 11.8652C14.2801 11.8408 14.2652 11.8127 14.2564 11.7828C14.2475 11.7525 14.2449 11.7207 14.2487 11.6897C14.2524 11.6583 14.2624 11.6284 14.2781 11.601C14.2937 11.574 14.3148 11.55 14.3399 11.5312C14.365 11.5123 14.3937 11.4986 14.4243 11.4913C14.4548 11.4839 14.4865 11.4824 14.5175 11.4876C14.5485 11.4927 14.5782 11.5042 14.6047 11.5208L15.0488 11.7762C15.0932 11.802 15.1278 11.8416 15.1474 11.8889C15.167 11.9362 15.1704 11.9887 15.1572 12.0378C15.1439 12.0873 15.1147 12.1313 15.0741 12.1623C15.0335 12.1934 14.9837 12.2104 14.9325 12.2104Z" fill="black"/>
<path id="Vector_4" d="M8.8985 8.43666C8.83679 8.43666 8.77759 8.41226 8.73395 8.36866C8.69031 8.32468 8.66577 8.26556 8.66577 8.20385V4.21437C8.66577 4.15266 8.69031 4.09353 8.73395 4.04992C8.77759 4.00632 8.83679 3.98193 8.8985 3.98193C8.96022 3.98193 9.01942 4.00632 9.06306 4.04992C9.1067 4.09353 9.1312 4.15266 9.1312 4.21437V8.20385C9.1312 8.26556 9.1067 8.32468 9.06306 8.36866C9.01942 8.41226 8.96022 8.43666 8.8985 8.43666ZM8.8985 12.5658C8.83679 12.5658 8.77759 12.5411 8.73395 12.4974C8.69031 12.4538 8.66577 12.3947 8.66577 12.333V9.09479C8.66577 9.03308 8.69031 8.97395 8.73395 8.93035C8.77759 8.88674 8.83679 8.86235 8.8985 8.86235C8.96022 8.86235 9.01942 8.88674 9.06306 8.93035C9.1067 8.97395 9.1312 9.03308 9.1312 9.09479V12.333C9.1312 12.3947 9.1067 12.4538 9.06306 12.4974C9.01942 12.5411 8.96022 12.5658 8.8985 12.5658Z" fill="black"/>
<path id="Vector_5" d="M8.89057 13.0971C8.84634 13.0975 8.803 13.0849 8.76556 13.0613C8.72813 13.038 8.69816 13.0044 8.67913 12.9645L8.20639 11.9405C8.18972 11.9046 8.18229 11.8655 8.1848 11.8263C8.18732 11.7871 8.1997 11.7491 8.22076 11.7162C8.24186 11.6829 8.27098 11.6556 8.30542 11.6367C8.33986 11.6179 8.37855 11.6079 8.41783 11.6079H9.34407C9.38283 11.6079 9.42097 11.6175 9.45507 11.636C9.48914 11.6545 9.51808 11.6811 9.53922 11.7136C9.56035 11.7461 9.57303 11.7834 9.5761 11.8222C9.57916 11.8607 9.57255 11.8995 9.55681 11.935L9.10335 12.9589C9.08528 12.9999 9.05579 13.0347 9.0184 13.0594C8.981 13.0838 8.93728 13.0971 8.89257 13.0971H8.89057ZM8.78153 12.0732L8.88592 12.3L8.98632 12.0732H8.78153Z" fill="black"/>
</g>
</svg>
