<svg width="40" height="19" viewBox="0 0 40 19" fill="none" xmlns="http://www.w3.org/2000/svg">
<g id="Frame 37135">
<path id="Vector" d="M26.0487 13.7941L29.4942 13.9154C29.0545 12.2738 28.5487 8.70535 28.1091 7.06386L24.5707 5.47138L9.76123 2.94043L13.5678 7.37072L26.0487 13.7941Z" fill="black"/>
<path id="Vector_2" d="M30.685 1.89764C29.6076 4.24843 29.2816 5.40819 28.6661 8.24871C24.3191 6.49212 15.2976 4.65344 10.053 3.52045L26.417 11.7895C26.1498 12.5621 24.7839 15.2457 24.0479 18.2289C20.231 15.1797 13.9861 10.6387 0.354766 1.59522C0.335995 1.58549 0.321176 1.56988 0.312285 1.55077C0.303393 1.53165 0.301418 1.51016 0.306357 1.48971C0.310803 1.46926 0.322654 1.45098 0.338956 1.43779C0.355257 1.42455 0.375512 1.41719 0.396753 1.4168C7.78518 0.699543 21.9796 1.068 30.685 1.89764Z" fill="#8E69FF"/>
<path id="Vector_3" d="M24.048 18.5387C23.9769 18.5389 23.9077 18.5147 23.8524 18.47C19.1927 14.7516 11.8927 9.62724 0.181474 1.85499C0.111823 1.80846 0.0579797 1.74142 0.027353 1.66313C-0.00277963 1.58488 -0.00821628 1.49908 0.0120368 1.41757C0.0322899 1.33607 0.0772467 1.26276 0.140476 1.20773C0.203705 1.1527 0.282739 1.11862 0.366221 1.11007C7.85196 0.379428 22.1047 0.769275 30.7157 1.58646C30.7656 1.59111 30.814 1.60775 30.8565 1.63502C30.899 1.66234 30.9341 1.69944 30.9588 1.74325C30.984 1.78702 30.9978 1.83617 30.9998 1.88655C31.0017 1.93694 30.9914 1.98698 30.9696 2.03252C29.9155 4.33155 29.5959 5.4387 28.9715 8.32027C28.9621 8.36473 28.9428 8.40662 28.9152 8.44288C28.888 8.47913 28.8529 8.50897 28.8124 8.53026C28.7724 8.5515 28.728 8.5637 28.6825 8.56593C28.6371 8.5682 28.5916 8.56044 28.5496 8.5433C24.831 7.04092 17.5043 5.44137 12.3565 4.33688L26.5584 11.5132C26.6256 11.5471 26.6785 11.6043 26.7071 11.6742C26.7353 11.7441 26.7372 11.8219 26.7125 11.8932C26.6384 12.1082 26.4957 12.4374 26.2971 12.8942C25.7695 14.1057 24.8863 16.1335 24.3503 18.3058C24.338 18.3567 24.3128 18.4036 24.2772 18.4421C24.2422 18.4807 24.1972 18.5096 24.1478 18.5262C24.1152 18.5359 24.0816 18.5401 24.048 18.5387ZM1.04001 1.67745C12.1609 9.06608 19.25 14.0334 23.8657 17.6831C24.418 15.641 25.2271 13.7827 25.7241 12.6399C25.8446 12.3634 25.9488 12.1243 26.0249 11.9387L9.91185 3.79716C9.84368 3.76318 9.79033 3.70538 9.76168 3.63469C9.73303 3.56395 9.73155 3.48526 9.75674 3.41334C9.78243 3.34142 9.83331 3.28135 9.89999 3.2444C9.96668 3.20745 10.0447 3.19624 10.1188 3.21284C10.6543 3.32971 11.2342 3.4537 11.8418 3.58396C17.1783 4.72678 24.4299 6.28172 28.4355 7.82422C28.9779 5.35304 29.3276 4.15401 30.2198 2.16812C21.837 1.39915 8.50352 1.03691 1.04001 1.67568V1.67745Z" fill="#8E69FF"/>
</g>
</svg>
