<svg width="107" height="88" viewBox="0 0 107 88" fill="none" xmlns="http://www.w3.org/2000/svg">
<g id="Group 4">
<path id="Vector" d="M89.5685 18.9505L13.2757 26.469C12.2336 26.5715 11.4631 27.5121 11.5552 28.57L15.3771 72.412C15.4692 73.4701 16.3871 74.2442 17.4292 74.1419L93.7238 66.6236C94.7641 66.5206 95.5346 65.58 95.4425 64.5221L91.6224 20.6806C91.5285 19.622 90.6106 18.8479 89.5685 18.9505Z" fill="#8E69FF"/>
<path id="Vector_2" d="M16.5377 75.2628C15.9081 75.1139 15.3429 74.7672 14.9212 74.2717C14.4977 73.7757 14.242 73.1567 14.1864 72.5014L10.3598 28.6627C10.3235 28.2515 10.3678 27.8362 10.4888 27.4407C10.6099 27.0451 10.8077 26.6773 11.0678 26.358C11.3297 26.0391 11.6504 25.7754 12.0113 25.5815C12.3704 25.3874 12.7646 25.2679 13.17 25.229L89.4624 17.7044C89.8681 17.6639 90.2753 17.7044 90.6634 17.8248C91.0516 17.9451 91.4118 18.1424 91.7242 18.4054C92.0347 18.6681 92.2928 18.9915 92.4803 19.3568C92.6679 19.7218 92.7826 20.1218 92.817 20.5333L96.64 64.3711C96.6763 64.7821 96.632 65.1972 96.511 65.5926C96.39 65.988 96.1941 66.3561 95.9322 66.675C95.6721 66.9941 95.3514 67.258 94.9923 67.4523C94.6314 67.6462 94.237 67.766 93.8317 67.8051L17.5392 75.3299C17.2035 75.3626 16.866 75.34 16.5377 75.2628ZM89.8998 20.1484C89.8261 20.1314 89.7496 20.1265 89.6739 20.1341L13.3833 27.6591C13.2925 27.6665 13.2048 27.6923 13.1228 27.7343C13.0425 27.7767 12.97 27.8346 12.9114 27.9052C12.7953 28.0501 12.738 28.2346 12.7542 28.4204L16.5754 72.2575C16.5835 72.3508 16.6074 72.4409 16.6502 72.5237C16.6911 72.606 16.7494 72.6792 16.8187 72.7382C16.8898 72.7977 16.9702 72.8418 17.0586 72.8685C17.1469 72.8954 17.2378 72.9034 17.3293 72.8934L93.6209 65.3721C93.7119 65.3639 93.8015 65.3377 93.8821 65.294C93.9626 65.2505 94.0355 65.1913 94.0944 65.1194C94.1532 65.0476 94.1959 64.9641 94.2228 64.875C94.2498 64.7859 94.2589 64.6925 94.2488 64.6L90.4258 20.7622C90.4193 20.6705 90.3952 20.5811 90.3541 20.4993C90.313 20.4175 90.2565 20.3447 90.1873 20.2855C90.1049 20.2177 90.0062 20.1708 89.8998 20.1484Z" fill="#8E69FF"/>
<path id="Vector_3" d="M52.4586 53.5491C52.0573 53.452 51.6677 53.306 51.3021 53.115L11.1995 32.0179C10.9209 31.8674 10.7149 31.6116 10.6214 31.3047C10.5298 30.9982 10.5599 30.6659 10.7077 30.3803C10.8556 30.0948 11.1062 29.8786 11.4067 29.7788C11.709 29.6794 12.0348 29.704 12.3168 29.8482L52.4202 50.942C52.8751 51.1795 53.3894 51.279 53.9 51.228C54.4123 51.1775 54.8995 50.9785 55.3064 50.6556L91.0757 22.0803C91.1995 21.975 91.3434 21.896 91.4971 21.8476C91.6508 21.7992 91.8138 21.7831 91.9729 21.7993C92.132 21.8155 92.2871 21.8646 92.4275 21.9431C92.5679 22.0216 92.692 22.1283 92.7903 22.2564C92.8886 22.3843 92.9614 22.5319 93.0015 22.6891C93.0435 22.8466 93.0534 23.0114 93.0316 23.1737C93.0081 23.3355 92.9538 23.4914 92.8727 23.6327C92.7898 23.7735 92.679 23.896 92.5496 23.9935L56.7785 52.5683C56.1743 53.0508 55.4736 53.3897 54.7244 53.5594C53.977 53.7292 53.2028 53.7259 52.4586 53.5491ZM18.7115 70.9561C18.4998 70.9063 18.3058 70.7986 18.1512 70.6447C17.9966 70.4907 17.8858 70.2961 17.8309 70.0816C17.7778 69.8678 17.7824 69.6423 17.8446 69.4295C17.9086 69.2172 18.0264 69.0255 18.1874 68.8753C25.1302 62.389 32.5983 56.5119 40.5119 51.3084C40.6446 51.221 40.7934 51.1614 40.9482 51.1322C41.1029 51.1029 41.2634 51.1054 41.4165 51.1387C41.5697 51.172 41.7154 51.236 41.8453 51.327C41.9751 51.4181 42.0839 51.5339 42.1692 51.6685C42.2545 51.8032 42.3115 51.9533 42.3383 52.1108C42.3669 52.2688 42.3624 52.4303 42.3287 52.5873C42.295 52.7441 42.2292 52.8925 42.1389 53.0246C42.0486 53.1567 41.9344 53.2697 41.8018 53.357C34.0032 58.4838 26.6449 64.2742 19.8045 70.6648C19.6584 70.8002 19.4834 70.8979 19.2932 70.9488C19.1028 70.9998 18.9033 71.0023 18.7115 70.9561ZM87.8022 62.9992C87.7144 62.978 87.6273 62.9462 87.546 62.9057L63.8859 51.0158C63.7438 50.9446 63.6195 50.8464 63.5157 50.7256C63.4136 50.6055 63.3353 50.4654 63.2845 50.3133C63.1853 50.0069 63.2104 49.6718 63.3536 49.3815C63.424 49.2375 63.5211 49.109 63.641 49.0035C63.761 48.898 63.8997 48.817 64.0485 48.7653C64.35 48.6611 64.6802 48.6831 64.9644 48.8263L88.627 60.7131C88.8866 60.8477 89.09 61.0752 89.1963 61.3522C89.3007 61.6289 89.3048 61.9368 89.2036 62.2174C89.1025 62.4981 88.9044 62.7324 88.6464 62.8764C88.3884 63.0203 88.088 63.064 87.8022 62.9992Z" fill="black"/>
</g>
</svg>
