<svg width="40" height="22" viewBox="0 0 40 22" fill="none" xmlns="http://www.w3.org/2000/svg">
<g id="Frame 37137">
<path id="Vector" d="M33.0573 5.2098L23.5741 1.21022C23.3024 1.09513 23.0022 1.06653 22.7134 1.12729C20.8198 1.52618 12.9786 3.23466 1.11137 6.52083C0.898349 6.58159 0.715354 6.72027 0.599549 6.90899C0.483743 7.09843 0.44299 7.32361 0.485881 7.54163C0.905498 9.6197 2.10931 15.3464 3.58404 20.271C3.61764 20.3832 3.6734 20.4876 3.74775 20.5776C3.82209 20.6684 3.91359 20.7428 4.01725 20.7971C4.1209 20.8521 4.23456 20.885 4.35108 20.8957C4.4676 20.9057 4.58484 20.8929 4.69635 20.8571C7.49713 19.96 16.8388 17.102 26.916 15.4686C27.1154 15.4364 27.3063 15.3621 27.4765 15.252C27.6459 15.1419 27.791 14.9975 27.9018 14.8281L33.4083 6.34569C33.4697 6.25062 33.5091 6.14267 33.5248 6.03044C33.5398 5.91821 33.5305 5.80384 33.4969 5.6959C33.464 5.58795 33.4068 5.48787 33.3311 5.40423C33.2553 5.31988 33.1617 5.2534 33.0573 5.2098ZM26.5571 9.7834C26.1547 9.7834 25.7608 9.66403 25.4263 9.44028C25.0917 9.21653 24.8308 8.89842 24.6764 8.5267C24.5227 8.15426 24.4819 7.74536 24.5606 7.35005C24.6392 6.95545 24.8329 6.59303 25.1182 6.3078C25.4027 6.02329 25.7651 5.82957 26.1604 5.75093C26.555 5.6723 26.9646 5.71233 27.3363 5.86674C27.7081 6.02115 28.0262 6.28136 28.2499 6.61662C28.4737 6.95117 28.593 7.34505 28.593 7.74751C28.593 8.28722 28.3786 8.80477 27.9969 9.18722C27.6151 9.56895 27.0969 9.7834 26.5571 9.7834Z" fill="#8E69FF"/>
<path id="Vector_2" d="M4.42117 21.3689C4.13237 21.3674 3.85072 21.2731 3.61911 21.1001C3.3875 20.9271 3.21736 20.6848 3.13373 20.4081C1.67186 15.505 0.475917 9.84407 0.025562 7.63733C-0.0402041 7.3035 0.0219836 6.9568 0.199981 6.66657C0.378693 6.37705 0.659631 6.16474 0.987746 6.07324C12.7513 2.81639 20.5203 1.11576 22.6177 0.673273C22.9987 0.59178 23.3961 0.62966 23.755 0.781923L33.2382 4.78008C33.4062 4.85085 33.5563 4.95736 33.6785 5.09247C33.8008 5.22757 33.8915 5.38771 33.9452 5.56141C33.9988 5.73512 34.0131 5.91883 33.9881 6.09897C33.963 6.27983 33.898 6.45211 33.7993 6.60438L28.2871 15.0846C28.1413 15.3091 27.9504 15.5 27.726 15.6458C27.5022 15.7916 27.2506 15.8888 26.9861 15.931C16.9024 17.5673 7.48144 20.4567 4.83435 21.3038C4.70139 21.3467 4.56128 21.3689 4.42117 21.3689ZM23.0123 1.56183C22.9443 1.56183 22.8764 1.56898 22.81 1.58328C20.7162 2.02434 12.9772 3.71996 1.23651 6.97038C1.135 6.99826 1.0478 7.06402 0.99204 7.15338C0.936281 7.24273 0.916979 7.34996 0.936995 7.45362C1.37949 9.64749 2.56756 15.2748 4.02514 20.1408C4.04087 20.1937 4.06732 20.243 4.10235 20.2859C4.13738 20.3288 4.18099 20.3638 4.2296 20.3895C4.2782 20.4153 4.33181 20.431 4.38686 20.436C4.4419 20.4403 4.49766 20.4339 4.54985 20.4174C7.20766 19.5653 16.6901 16.6594 26.8374 15.0131C26.9725 14.991 27.1012 14.9402 27.2156 14.8659C27.33 14.7908 27.4272 14.6929 27.5022 14.5785L33.0137 6.09684C33.0387 6.05823 33.0545 6.01534 33.0609 5.96959C33.0673 5.92455 33.063 5.87809 33.0502 5.83448C33.0366 5.79088 33.0137 5.75013 32.983 5.71653C32.9522 5.68222 32.9151 5.65505 32.8729 5.63718L23.3883 1.63904C23.2689 1.589 23.1416 1.56254 23.0123 1.56183ZM26.5572 10.248C26.0625 10.2487 25.5786 10.1028 25.1668 9.82835C24.7551 9.55456 24.4341 9.16426 24.2439 8.70747C24.0538 8.24996 24.0038 7.74742 24.1003 7.26203C24.196 6.77665 24.4341 6.33059 24.7837 5.98031C25.1332 5.63075 25.5786 5.39199 26.0639 5.29477C26.5493 5.19826 27.0519 5.24759 27.5094 5.43632C27.9662 5.62575 28.3572 5.94599 28.6324 6.35775C28.9069 6.76879 29.0542 7.25274 29.0542 7.74742C29.0535 8.41009 28.7904 9.04487 28.3222 9.51381C27.8539 9.98204 27.2199 10.2465 26.5572 10.248ZM26.5572 6.1769C26.2462 6.17618 25.9424 6.26768 25.6836 6.43924C25.4249 6.61152 25.2226 6.85672 25.1032 7.14338C24.9838 7.43075 24.9524 7.74671 25.0124 8.05123C25.0725 8.35647 25.2219 8.63669 25.4413 8.85687C25.6608 9.07633 25.9403 9.22645 26.2455 9.28721C26.55 9.34869 26.866 9.31795 27.1534 9.19857C27.4407 9.0799 27.6859 8.87902 27.8589 8.62025C28.0319 8.36219 28.1241 8.05838 28.1241 7.74742C28.1234 7.33138 27.9583 6.93321 27.6645 6.63869C27.3714 6.34417 26.9732 6.17833 26.5572 6.1769Z" fill="#8E69FF"/>
<path id="Vector_3" d="M7.3263 11.582C7.21764 11.5812 7.11256 11.5426 7.02964 11.4726C6.946 11.4025 6.89025 11.3053 6.87095 11.1981C6.85165 11.0916 6.87023 10.9808 6.92385 10.8864C6.97746 10.7921 7.06253 10.7184 7.16404 10.6798C10.952 9.27657 17.7939 7.90405 20.1378 7.90405C20.2615 7.90405 20.3795 7.95338 20.4667 8.04059C20.5539 8.1278 20.6032 8.24575 20.6032 8.36942C20.6032 8.49237 20.5539 8.61105 20.4667 8.69826C20.3795 8.78547 20.2615 8.83407 20.1378 8.83407C17.8661 8.83407 11.1965 10.178 7.48857 11.5534C7.43639 11.5727 7.38134 11.582 7.3263 11.582ZM11.7348 13.4649C11.6276 13.4656 11.5239 13.4291 11.4403 13.3619C11.3573 13.2947 11.2994 13.2004 11.278 13.096C11.2558 12.9909 11.2708 12.8816 11.3195 12.7865C11.3688 12.6914 11.4496 12.6163 11.5475 12.5735C13.3267 11.7928 15.2361 11.3525 17.1776 11.2739C17.3006 11.2688 17.4214 11.3132 17.5122 11.3968C17.603 11.4805 17.6566 11.5963 17.6616 11.7199C17.6666 11.8429 17.623 11.9637 17.5394 12.0545C17.4557 12.1453 17.3392 12.1989 17.2162 12.2039C15.3905 12.2775 13.5941 12.6914 11.9206 13.4256C11.862 13.4513 11.7991 13.4649 11.7348 13.4649Z" fill="#45474D"/>
<path id="Vector_4" d="M26.5573 10.2479C26.0627 10.2486 25.5787 10.1028 25.1669 9.82829C24.7552 9.5545 24.4342 9.1642 24.2441 8.70741C24.0546 8.24991 24.0046 7.74736 24.1004 7.26198C24.1962 6.7766 24.4342 6.33054 24.7838 5.98026C25.1334 5.62998 25.5787 5.39193 26.0641 5.29471C26.5495 5.19821 27.052 5.24754 27.5095 5.43626C27.967 5.6257 28.3573 5.94594 28.6325 6.35769C28.9078 6.76873 29.0543 7.25269 29.0543 7.74737C29.0536 8.40932 28.7905 9.04481 28.3223 9.51376C27.8548 9.98198 27.22 10.2465 26.5573 10.2479ZM26.5573 6.17684C26.2464 6.17613 25.9426 6.26762 25.6838 6.43919C25.425 6.61147 25.2227 6.85667 25.1033 7.14332C24.984 7.43069 24.9525 7.74665 25.0125 8.05118C25.0726 8.35642 25.222 8.63664 25.4415 8.85681C25.6609 9.07627 25.9411 9.22639 26.2457 9.28715C26.5502 9.34863 26.8661 9.31718 27.1535 9.19851C27.4409 9.07985 27.6861 8.87897 27.8591 8.62019C28.0321 8.36213 28.1243 8.05832 28.1243 7.74737C28.1236 7.33132 27.9584 6.93315 27.6653 6.63863C27.3715 6.34412 26.9734 6.17827 26.5573 6.17684Z" fill="#45474D"/>
</g>
</svg>
