<svg width="107" height="88" viewBox="0 0 107 88" fill="none" xmlns="http://www.w3.org/2000/svg">
<g id="Group 4">
<path id="Vector" d="M89.5684 18.7363L13.2756 26.2549C12.2335 26.3574 11.463 27.298 11.5551 28.3559L15.377 72.1979C15.4691 73.256 16.387 74.0301 17.429 73.9278L93.7237 66.4095C94.764 66.3065 95.5345 65.3659 95.4424 64.308L91.6223 20.4664C91.5284 19.4079 90.6105 18.6338 89.5684 18.7363Z" fill="#FFAA29"/>
<path id="Vector_2" d="M16.5377 75.0487C15.9081 74.8998 15.3429 74.5531 14.9212 74.0576C14.4977 73.5616 14.242 72.9426 14.1864 72.2872L10.3598 28.4486C10.3235 28.0374 10.3678 27.6221 10.4888 27.2265C10.6099 26.831 10.8077 26.4632 11.0678 26.1439C11.3297 25.825 11.6504 25.5613 12.0113 25.3674C12.3704 25.1733 12.7646 25.0538 13.17 25.0149L89.4624 17.4903C89.8681 17.4498 90.2753 17.4903 90.6634 17.6107C91.0516 17.731 91.4118 17.9283 91.7242 18.1913C92.0347 18.4539 92.2928 18.7774 92.4803 19.1427C92.6679 19.5077 92.7826 19.9077 92.817 20.3192L96.64 64.157C96.6763 64.568 96.632 64.9831 96.511 65.3785C96.39 65.7739 96.1941 66.142 95.9322 66.4608C95.6721 66.78 95.3514 67.0439 94.9923 67.2382C94.6314 67.4321 94.237 67.5519 93.8317 67.591L17.5392 75.1158C17.2035 75.1485 16.866 75.1259 16.5377 75.0487ZM89.8998 19.9343C89.8261 19.9173 89.7496 19.9124 89.6739 19.92L13.3833 27.445C13.2925 27.4524 13.2048 27.4782 13.1228 27.5202C13.0425 27.5626 12.97 27.6205 12.9114 27.6911C12.7953 27.8359 12.738 28.0205 12.7542 28.2062L16.5754 72.0434C16.5835 72.1367 16.6074 72.2267 16.6502 72.3095C16.6911 72.3919 16.7494 72.4651 16.8187 72.5241C16.8898 72.5836 16.9702 72.6277 17.0586 72.6544C17.1469 72.6813 17.2378 72.6893 17.3293 72.6793L93.6209 65.158C93.7119 65.1498 93.8015 65.1236 93.8821 65.0799C93.9626 65.0364 94.0355 64.9772 94.0944 64.9053C94.1532 64.8335 94.1959 64.75 94.2228 64.6609C94.2498 64.5718 94.2589 64.4784 94.2488 64.3858L90.4258 20.5481C90.4193 20.4564 90.3952 20.367 90.3541 20.2852C90.313 20.2034 90.2565 20.1306 90.1873 20.0714C90.1049 20.0036 90.0062 19.9567 89.8998 19.9343Z" fill="#FFAA29"/>
<path id="Vector_3" d="M52.4585 53.3349C52.0572 53.2379 51.6676 53.0919 51.302 52.9009L11.1994 31.8038C10.9208 31.6532 10.7147 31.3974 10.6213 31.0906C10.5297 30.7841 10.5598 30.4518 10.7076 30.1662C10.8554 29.8807 11.106 29.6645 11.4066 29.5647C11.7089 29.4653 12.0346 29.4899 12.3166 29.6341L52.4201 50.7279C52.875 50.9654 53.3893 51.0649 53.8999 51.0139C54.4122 50.9634 54.8994 50.7644 55.3063 50.4415L91.0756 21.8662C91.1993 21.7608 91.3433 21.6819 91.497 21.6335C91.6507 21.5851 91.8137 21.569 91.9728 21.5852C92.1319 21.6014 92.2869 21.6504 92.4273 21.729C92.5678 21.8075 92.6919 21.9142 92.7902 22.0423C92.8885 22.1702 92.9613 22.3177 93.0014 22.475C93.0433 22.6325 93.0532 22.7972 93.0315 22.9596C93.008 23.1214 92.9537 23.2773 92.8726 23.4185C92.7897 23.5593 92.6789 23.6819 92.5495 23.7794L56.7783 52.3542C56.1742 52.8367 55.4735 53.1756 54.7243 53.3453C53.9769 53.5151 53.2026 53.5118 52.4585 53.3349ZM18.7114 70.742C18.4997 70.6922 18.3057 70.5845 18.1511 70.4305C17.9964 70.2766 17.8856 70.082 17.8308 69.8675C17.7776 69.6537 17.7823 69.4281 17.8445 69.2154C17.9085 69.0031 18.0263 68.8114 18.1872 68.6612C25.1301 62.1749 32.5982 56.2978 40.5118 51.0943C40.6444 51.0069 40.7932 50.9473 40.948 50.9181C41.1028 50.8888 41.2633 50.8913 41.4164 50.9246C41.5695 50.9579 41.7153 51.0219 41.8452 51.1129C41.975 51.204 42.0838 51.3197 42.1691 51.4544C42.2544 51.5891 42.3114 51.7392 42.3382 51.8967C42.3668 52.0547 42.3623 52.2162 42.3286 52.3732C42.2949 52.53 42.2291 52.6784 42.1388 52.8105C42.0485 52.9426 41.9343 53.0556 41.8017 53.1429C34.0031 58.2697 26.6447 64.0601 19.8043 70.4507C19.6583 70.586 19.4833 70.6838 19.293 70.7347C19.1027 70.7857 18.9031 70.7882 18.7114 70.742ZM87.8021 62.7851C87.7143 62.7639 87.6271 62.7321 87.5458 62.6916L63.8858 50.8017C63.7437 50.7305 63.6194 50.6323 63.5156 50.5115C63.4135 50.3914 63.3352 50.2512 63.2844 50.0991C63.1851 49.7928 63.2102 49.4577 63.3535 49.1674C63.4239 49.0234 63.521 48.8949 63.6409 48.7894C63.7609 48.6839 63.8996 48.6029 64.0484 48.5512C64.3499 48.447 64.6801 48.469 64.9643 48.6121L88.6269 60.499C88.8865 60.6336 89.0899 60.8611 89.1961 61.1381C89.3006 61.4147 89.3047 61.7227 89.2035 62.0033C89.1023 62.284 88.9043 62.5183 88.6463 62.6622C88.3883 62.8062 88.0879 62.8499 87.8021 62.7851Z" fill="black"/>
</g>
</svg>
