<svg width="17" height="17" viewBox="0 0 17 17" fill="none" xmlns="http://www.w3.org/2000/svg">
<g id="Group 2">
<path id="Vector" d="M8.27452 16.0747C12.5787 16.0747 16.0679 12.5852 16.0679 8.28124C16.0679 3.97692 12.5787 0.487793 8.27452 0.487793C3.97034 0.487793 0.48114 3.97692 0.48114 8.28124C0.48114 12.5852 3.97034 16.0747 8.27452 16.0747Z" fill="black"/>
<path id="Vector_2" d="M8.27446 16.3065C6.68706 16.3065 5.13532 15.8361 3.81546 14.9541C2.4956 14.0723 1.46685 12.8189 0.85938 11.3522C0.251867 9.88554 0.0928941 8.27179 0.402526 6.71495C0.712157 5.15811 1.4765 3.72802 2.59892 2.60538C3.7213 1.4831 5.15136 0.718543 6.70823 0.408875C8.26511 0.0988364 9.87886 0.25773 11.3455 0.865242C12.812 1.47275 14.0656 2.50116 14.9476 3.82114C15.8296 5.14074 16.3004 6.69241 16.3006 8.27993C16.2983 10.4081 15.452 12.4482 13.9473 13.953C12.4426 15.4577 10.4025 16.3043 8.27446 16.3065ZM8.27446 0.720018C6.77908 0.720018 5.31728 1.16346 4.07391 1.99417C2.83054 2.82488 1.86148 4.00591 1.28926 5.38722C0.716998 6.7689 0.567338 8.28916 0.859121 9.75584C1.1509 11.2225 1.87105 12.5698 2.92851 13.6271C3.98592 14.6843 5.33317 15.4045 6.79984 15.6961C8.26652 15.9876 9.78674 15.838 11.1683 15.2656C12.5498 14.6932 13.7305 13.7239 14.5613 12.4804C15.392 11.2373 15.8353 9.77543 15.8351 8.27993C15.8327 6.27558 15.0353 4.354 13.6179 2.93685C12.2005 1.51932 10.2788 0.722236 8.27446 0.720018Z" fill="black"/>
<path id="Vector_3" d="M8.27448 8.95789C8.14034 8.95789 8.0092 8.91798 7.89767 8.84371C7.78615 8.76906 7.69923 8.663 7.6479 8.53921C7.59654 8.41542 7.58313 8.27907 7.60929 8.14751C7.63545 8.01596 7.70005 7.89511 7.79491 7.80014C7.88976 7.70517 8.0106 7.64087 8.14215 7.61464C8.27371 7.5884 8.41007 7.60171 8.53401 7.65307C8.65795 7.70444 8.76386 7.79128 8.83839 7.90288C8.91289 8.01448 8.95269 8.14566 8.95269 8.2798C8.95232 8.45939 8.88074 8.6316 8.75366 8.75872C8.62654 8.88584 8.45423 8.95752 8.27448 8.95789ZM8.27448 8.06696C8.23239 8.06696 8.19127 8.07952 8.15627 8.1028C8.12128 8.12608 8.09401 8.15933 8.0779 8.19813C8.06178 8.2373 8.05757 8.2798 8.06577 8.32119C8.07401 8.36258 8.09426 8.40027 8.12401 8.4302C8.15376 8.45976 8.19167 8.48009 8.23295 8.48822C8.27423 8.49672 8.31702 8.49228 8.35589 8.47639C8.39477 8.46013 8.42799 8.43279 8.45138 8.39806C8.47477 8.36295 8.48723 8.32192 8.48723 8.2798C8.48708 8.22326 8.46461 8.16931 8.42474 8.1294C8.38487 8.08949 8.33084 8.06696 8.27448 8.06696ZM8.27452 2.73976C8.21281 2.73976 8.15361 2.71501 8.10997 2.6714C8.06633 2.6278 8.04179 2.56867 8.04179 2.50696V1.16445C8.04179 1.10274 8.06633 1.0436 8.10997 0.999999C8.15361 0.956394 8.21281 0.931641 8.27452 0.931641C8.33623 0.931641 8.39543 0.956394 8.43908 0.999999C8.48272 1.0436 8.50722 1.10274 8.50722 1.16445V2.50438C8.50759 2.53505 8.50182 2.56571 8.49029 2.59417C8.47876 2.62262 8.46165 2.64886 8.44004 2.67066C8.41838 2.69247 8.39259 2.70983 8.36421 2.72166C8.33579 2.73348 8.3053 2.73976 8.27452 2.73976ZM8.27452 15.4853C8.21281 15.4853 8.15361 15.4609 8.10997 15.4173C8.06633 15.3734 8.04179 15.3142 8.04179 15.2525V13.913C8.04179 13.8513 8.06633 13.7918 8.10997 13.7482C8.15361 13.7045 8.21281 13.6802 8.27452 13.6802C8.33623 13.6802 8.39543 13.7045 8.43908 13.7482C8.48272 13.7918 8.50722 13.8513 8.50722 13.913V15.2525C8.50722 15.3142 8.48272 15.3734 8.43908 15.4173C8.39543 15.4609 8.33623 15.4853 8.27452 15.4853ZM15.3172 8.44277H13.9774C13.9157 8.44277 13.8565 8.41801 13.8129 8.3744C13.7693 8.3308 13.7447 8.27167 13.7447 8.20996C13.7447 8.14825 13.7693 8.08912 13.8129 8.04552C13.8565 8.00155 13.9157 7.97715 13.9774 7.97715H15.3172C15.3789 7.97715 15.4381 8.00155 15.4818 8.04552C15.5254 8.08912 15.55 8.14825 15.55 8.20996C15.55 8.27167 15.5254 8.3308 15.4818 8.3744C15.4381 8.41801 15.3789 8.44277 15.3172 8.44277ZM2.5716 8.44277H1.23182C1.1701 8.44277 1.11091 8.41801 1.06726 8.3744C1.02362 8.3308 0.999084 8.27167 0.999084 8.20996C0.999084 8.14825 1.02362 8.08912 1.06726 8.04552C1.11091 8.00155 1.1701 7.97715 1.23182 7.97715H2.5716C2.63331 7.97715 2.69251 8.00155 2.73615 8.04552C2.77979 8.08912 2.80433 8.14825 2.80433 8.20996C2.80433 8.27167 2.77979 8.3308 2.73615 8.3744C2.69251 8.41801 2.63331 8.44277 2.5716 8.44277ZM5.04636 2.77746C5.00586 2.77746 4.96609 2.76637 4.93106 2.74604C4.89607 2.72572 4.86706 2.69653 4.84688 2.66106L4.59024 2.21762C4.56109 2.1644 4.55392 2.10195 4.57032 2.0432C4.58673 1.98481 4.62538 1.93493 4.67801 1.90462C4.73066 1.87395 4.79312 1.86545 4.85198 1.8806C4.91089 1.89575 4.96155 1.93308 4.99318 1.98518L5.24982 2.42862C5.28049 2.48183 5.28877 2.54539 5.27281 2.60489C5.25688 2.66438 5.21801 2.71537 5.16472 2.74641C5.1288 2.76711 5.08793 2.77819 5.04636 2.77746ZM13.8604 5.13545C13.8092 5.13545 13.7594 5.11845 13.7188 5.08741C13.6782 5.056 13.649 5.0124 13.6357 4.96288C13.6225 4.91336 13.6259 4.86089 13.6455 4.81359C13.6651 4.76629 13.6997 4.72674 13.7441 4.70125L14.1875 4.44516C14.214 4.4289 14.2435 4.41855 14.2741 4.41375C14.3048 4.40931 14.3361 4.41079 14.3662 4.41855C14.3962 4.42631 14.4244 4.43961 14.4491 4.45846C14.4738 4.47731 14.4946 4.50059 14.5101 4.52757C14.5256 4.55454 14.5356 4.5841 14.5395 4.61477C14.5434 4.64581 14.541 4.67685 14.5326 4.70679C14.5243 4.73672 14.51 4.76443 14.4907 4.78882C14.4714 4.81321 14.4475 4.83317 14.4203 4.84795L13.9767 5.10403C13.9414 5.12473 13.9013 5.13545 13.8604 5.13545ZM2.24515 11.8484C2.19397 11.8484 2.14419 11.8314 2.10358 11.8C2.06293 11.7689 2.03374 11.7253 2.02051 11.6758C2.00724 11.6263 2.01068 11.5738 2.03027 11.5265C2.04981 11.4792 2.08448 11.4397 2.12878 11.4142L2.5723 11.1581C2.59879 11.1418 2.62825 11.1315 2.65892 11.1267C2.68959 11.1222 2.72085 11.1237 2.75093 11.1315C2.78097 11.1392 2.80917 11.1525 2.83389 11.1714C2.85861 11.1902 2.87934 11.2135 2.89486 11.2405C2.91035 11.2675 2.92036 11.297 2.92424 11.3277C2.92808 11.3588 2.92579 11.3898 2.9174 11.4197C2.90905 11.4497 2.89479 11.4774 2.8755 11.5018C2.85617 11.5262 2.83223 11.5461 2.80499 11.5609L2.36152 11.817C2.32619 11.8377 2.28602 11.8484 2.24515 11.8484ZM11.7593 14.3963C11.7188 14.3959 11.6791 14.3849 11.6441 14.3645C11.6091 14.3442 11.5801 14.315 11.5598 14.2799L11.3032 13.8365C11.2878 13.8099 11.2779 13.7807 11.2738 13.7504C11.2698 13.7201 11.2718 13.6894 11.2797 13.6598C11.2875 13.6303 11.3011 13.6026 11.3197 13.5782C11.3383 13.5538 11.3615 13.5334 11.3879 13.5183C11.4144 13.5028 11.4436 13.4928 11.4739 13.4887C11.5042 13.4847 11.5351 13.4869 11.5646 13.4947C11.5941 13.5024 11.6218 13.5161 11.6461 13.5349C11.6704 13.5534 11.6908 13.5767 11.7061 13.6029L11.9628 14.0464C11.9936 14.0999 12.002 14.1635 11.9861 14.2234C11.9701 14.2829 11.9311 14.3339 11.8777 14.3649C11.8417 14.386 11.8009 14.3967 11.7593 14.3963ZM2.68393 5.14284C2.64329 5.14284 2.60338 5.13175 2.56827 5.11142L2.12409 4.85608C2.07058 4.82541 2.03152 4.77441 2.01548 4.71454C1.99945 4.65505 2.0078 4.5915 2.03866 4.53792C2.06951 4.48433 2.12036 4.44553 2.18004 4.42927C2.23972 4.41338 2.30328 4.42151 2.35682 4.45255L2.8003 4.70864C2.84464 4.73413 2.87927 4.77367 2.89885 4.82097C2.91844 4.86828 2.92188 4.92075 2.90861 4.97027C2.89534 5.01979 2.86615 5.06338 2.82554 5.09443C2.78493 5.12584 2.73515 5.14247 2.68393 5.14284ZM11.4953 2.77376C11.4547 2.77376 11.4147 2.76268 11.3796 2.74235C11.3531 2.7272 11.3299 2.70687 11.3112 2.68248C11.2926 2.65846 11.2789 2.63075 11.2709 2.60119C11.2629 2.57163 11.2609 2.54096 11.2648 2.51065C11.2687 2.48035 11.2786 2.45116 11.2939 2.42455L11.5498 1.98111C11.5643 1.95303 11.5843 1.92827 11.6086 1.90831C11.6328 1.88836 11.6609 1.87358 11.691 1.86471C11.7212 1.85584 11.7528 1.85326 11.7841 1.85695C11.8152 1.86065 11.8454 1.87063 11.8726 1.88652C11.8999 1.90204 11.9236 1.9231 11.9425 1.94823C11.9614 1.97335 11.975 2.00218 11.9825 2.03248C11.99 2.06315 11.9912 2.09493 11.9861 2.12597C11.981 2.15701 11.9697 2.18657 11.9528 2.21318L11.6975 2.65736C11.6769 2.69283 11.6475 2.72203 11.612 2.74235C11.5765 2.76305 11.5363 2.77376 11.4953 2.77376ZM4.7977 14.3963C4.75694 14.3963 4.71684 14.3856 4.68137 14.3656C4.62793 14.3346 4.58895 14.284 4.57302 14.2245C4.55706 14.1646 4.56541 14.1011 4.59627 14.0478L4.85158 13.6037C4.88243 13.5501 4.93328 13.5109 4.99296 13.495C5.05264 13.4791 5.1162 13.4873 5.16974 13.5183C5.22325 13.549 5.26231 13.6 5.27835 13.6595C5.29435 13.7193 5.28604 13.7829 5.25518 13.8365L4.99917 14.2799C4.97888 14.3154 4.94954 14.3446 4.91414 14.3653C4.87874 14.3856 4.83857 14.3963 4.7977 14.3963ZM14.3085 11.8403C14.2678 11.8403 14.2277 11.8299 14.1922 11.8096L13.7487 11.5539C13.7208 11.5391 13.6961 11.5191 13.6761 11.4951C13.6561 11.4707 13.6413 11.4426 13.6324 11.4127C13.6236 11.3824 13.621 11.3506 13.6247 11.3196C13.6284 11.2882 13.6384 11.2582 13.6541 11.2309C13.6698 11.2039 13.6908 11.1799 13.7159 11.1611C13.7411 11.1422 13.7698 11.1285 13.8003 11.1211C13.8308 11.1138 13.8625 11.1123 13.8935 11.1174C13.9246 11.1226 13.9542 11.1341 13.9807 11.1507L14.4249 11.4061C14.4692 11.4319 14.5038 11.4715 14.5234 11.5188C14.543 11.5661 14.5465 11.6185 14.5332 11.6677C14.5199 11.7172 14.4907 11.7612 14.4501 11.7922C14.4095 11.8233 14.3597 11.8403 14.3085 11.8403Z" fill="#FFDD29"/>
<path id="Vector_4" d="M8.27448 8.06654C8.21277 8.06654 8.15357 8.04215 8.10993 7.99854C8.06629 7.95457 8.04175 7.89544 8.04175 7.83373V3.84425C8.04175 3.78254 8.06629 3.72341 8.10993 3.6798C8.15357 3.6362 8.21277 3.61182 8.27448 3.61182C8.33619 3.61182 8.39539 3.6362 8.43903 3.6798C8.48268 3.72341 8.50718 3.78254 8.50718 3.84425V7.83373C8.50718 7.89544 8.48268 7.95457 8.43903 7.99854C8.39539 8.04215 8.33619 8.06654 8.27448 8.06654ZM8.27448 12.1957C8.21277 12.1957 8.15357 12.1709 8.10993 12.1273C8.06629 12.0837 8.04175 12.0246 8.04175 11.9629V8.72467C8.04175 8.66296 8.06629 8.60383 8.10993 8.56023C8.15357 8.51662 8.21277 8.49223 8.27448 8.49223C8.33619 8.49223 8.39539 8.51662 8.43903 8.56023C8.48268 8.60383 8.50718 8.66296 8.50718 8.72467V11.9629C8.50718 12.0246 8.48268 12.0837 8.43903 12.1273C8.39539 12.1709 8.33619 12.1957 8.27448 12.1957Z" fill="#FFDD29"/>
<path id="Vector_5" d="M8.26667 12.727C8.22244 12.7274 8.17909 12.7148 8.14166 12.6912C8.10423 12.6679 8.07426 12.6343 8.05523 12.5943L7.58248 11.5704C7.56582 11.5345 7.55839 11.4954 7.5609 11.4562C7.56342 11.417 7.5758 11.379 7.59686 11.3461C7.61796 11.3128 7.64708 11.2855 7.68152 11.2666C7.71596 11.2478 7.75465 11.2378 7.79393 11.2378H8.72017C8.75893 11.2378 8.79706 11.2474 8.83117 11.2659C8.86524 11.2844 8.89418 11.311 8.91532 11.3435C8.93645 11.376 8.94913 11.4133 8.95219 11.4521C8.95526 11.4906 8.94865 11.5294 8.9329 11.5648L8.47945 12.5888C8.46138 12.6298 8.43189 12.6646 8.3945 12.6893C8.3571 12.7137 8.31338 12.727 8.26867 12.727H8.26667ZM8.15762 11.703L8.26202 11.9299L8.36242 11.703H8.15762Z" fill="#FFDD29"/>
</g>
</svg>
