<svg width="52" height="56" viewBox="0 0 52 56" fill="none" xmlns="http://www.w3.org/2000/svg">
<g id="Group">
<path id="Vector" d="M18.0578 0.118774C14.7977 0.681082 11.7406 2.89787 10.1664 5.83917L9.84141 6.44474H4.91562H0V30.8835V55.3223H19.9062H39.8125V47.158V38.9937H41.0312H42.25L43.7734 35.7496L45.2969 32.5055H48.6484H52V27.6394V22.7733H50.4766H48.9531V19.367V15.9607L49.4812 15.6796C50.1617 15.3119 51.0758 14.3819 51.4211 13.7115C52.9344 10.7594 51.2789 7.13681 48.1508 6.54206C46.4141 6.21765 44.5555 7.10437 43.5703 8.73722C42.4227 10.6188 42.6969 13.2465 44.2102 14.8037C44.5047 15.1173 45.0125 15.5065 45.3273 15.6796L45.9062 15.9823V19.3778V22.7733H45.6016C45.307 22.7733 45.2664 22.6976 43.7734 19.5292L42.25 16.2851H41.0312H39.8125L39.7922 11.3866L39.7617 6.49881L34.8156 6.46636C31.8602 6.45555 29.8594 6.40148 29.8594 6.34741C29.8594 6.05545 28.5492 4.21713 27.757 3.40611C26.1117 1.70837 24.3953 0.724336 22.2016 0.216096C21.1758 -0.0218031 19.1344 -0.0758712 18.0578 0.118774ZM21.5109 3.37367C24.0805 3.92517 26.2437 5.79592 27.4625 8.49932C27.6453 8.91024 27.8281 9.34279 27.8586 9.47255C27.9094 9.68882 27.9602 9.68882 32.2867 9.68882H36.6641V11.3649V13.041H19.8555H3.04687V11.3649V9.68882H7.44453H11.832L12.1062 8.9535C12.9695 6.69345 14.625 4.84432 16.6461 3.91435C18.0375 3.25472 19.9977 3.03845 21.5109 3.37367ZM48.232 9.98079C48.6484 10.316 48.8719 10.7161 48.9227 11.2135C49.075 12.8897 46.9523 13.5925 46.0992 12.1543C45.8453 11.711 45.8758 10.8459 46.1703 10.4133C46.6375 9.72126 47.643 9.5158 48.232 9.98079ZM36.6641 27.6935V39.1018H19.8555H3.04687V27.6935V16.2851H19.8555H36.6641V27.6935ZM41.6203 22.1785L42.8594 24.8279V27.6394V30.451L41.6203 33.1003C40.4422 35.5982 40.3609 35.7496 40.0969 35.7496H39.8125V27.6394V19.5292H40.0969C40.3609 19.5292 40.4422 19.6806 41.6203 22.1785ZM48.9531 27.6394V29.2615H47.4297H45.9062V27.6394V26.0174H47.4297H48.9531V27.6394ZM36.6641 47.2121V52.0782H19.8555H3.04687V47.2121V42.3459H19.8555H36.6641V47.2121Z" fill="#8E69FF"/>
<path id="Vector_2" d="M6.09375 22.0167V23.6387H8.27734C9.47578 23.6387 10.4609 23.6604 10.4609 23.6928C10.4609 23.7252 9.59766 25.9745 8.53125 28.6887C7.475 31.4137 6.64219 33.6629 6.68281 33.7062C6.83516 33.8468 9.35391 34.9173 9.40469 34.8633C9.425 34.8308 10.5219 32.0517 11.832 28.6779L14.2187 22.5574V21.476V20.3946H10.1562H6.09375V22.0167Z" fill="#8E69FF"/>
<path id="Vector_3" d="M15.8438 22.0166V23.6386H17.9766C19.6016 23.6386 20.1094 23.671 20.1094 23.7684C20.1094 23.8441 19.2563 26.0933 18.2203 28.7534C17.1844 31.4244 16.3719 33.6412 16.4125 33.6953C16.5141 33.7926 18.9516 34.8848 19.0633 34.8848C19.1141 34.8848 20.2313 32.084 21.5617 28.6561L23.9789 22.4383L23.9484 21.4434L23.918 20.4486L19.8859 20.4162L15.8438 20.3945V22.0166Z" fill="#8E69FF"/>
<path id="Vector_4" d="M25.5633 20.4697C25.5227 20.5022 25.4922 21.2375 25.4922 22.0918V23.6381H27.6758C28.8742 23.6381 29.8594 23.6706 29.8594 23.7138C29.8594 23.7571 29.0164 25.963 27.9906 28.6124C26.9547 31.2617 26.1016 33.4893 26.0812 33.565C26.0406 33.738 28.7219 34.9492 28.8336 34.8194C28.8844 34.7653 29.9711 31.997 31.2711 28.6664L33.6172 22.6108V21.497V20.394H29.6258C27.4219 20.394 25.5937 20.4265 25.5633 20.4697Z" fill="#8E69FF"/>
<path id="Vector_5" d="M6.09375 47.2119V48.834H9.75H13.4062V47.2119V45.5899H9.75H6.09375V47.2119Z" fill="#8E69FF"/>
<path id="Vector_6" d="M16.25 47.2119V48.834L19.8859 48.8124L23.5117 48.7799L23.5422 47.1795L23.5727 45.5899H19.9062H16.25V47.2119Z" fill="#8E69FF"/>
<path id="Vector_7" d="M26.325 47.1795L26.3555 48.7799L29.9914 48.8124L33.6172 48.834V47.2119V45.5899H29.961H26.2946L26.325 47.1795Z" fill="#8E69FF"/>
</g>
</svg>
