<svg width="40" height="23" viewBox="0 0 40 23" fill="none" xmlns="http://www.w3.org/2000/svg">
<g id="Frame 37136">
<g id="Group 2">
<path id="Vector" d="M11 22.3128C16.899 22.3128 21.6812 17.5303 21.6812 11.6316C21.6812 5.7324 16.899 0.950439 11 0.950439C5.10104 0.950439 0.31897 5.7324 0.31897 11.6316C0.31897 17.5303 5.10104 22.3128 11 22.3128Z" fill="#FFF129"/>
<path id="Vector_2" d="M11 22.6313C8.82446 22.6313 6.69775 21.9866 4.88883 20.7777C3.07992 19.5693 1.67 17.8514 0.837433 15.8413C0.00481787 13.8312 -0.21306 11.6195 0.2113 9.48575C0.63566 7.35205 1.68322 5.39206 3.22153 3.85344C4.75979 2.31533 6.71973 1.26748 8.85348 0.843068C10.9872 0.41815 13.1989 0.635919 15.209 1.46853C17.2189 2.30115 18.937 3.71062 20.1458 5.51968C21.3546 7.32824 21.9999 9.45486 22.0001 11.6306C21.9969 14.5473 20.8371 17.3434 18.7748 19.4057C16.7126 21.468 13.9166 22.6283 11 22.6313ZM11 1.2695C8.95057 1.2695 6.94713 1.87725 5.24305 3.01576C3.53898 4.15428 2.21084 5.77292 1.42659 7.66605C0.642295 9.5597 0.437181 11.6433 0.837079 13.6534C1.23698 15.6635 2.22396 17.5101 3.67324 18.959C5.12246 20.408 6.9689 21.3951 8.97903 21.7947C10.9892 22.1943 13.0727 21.9892 14.9661 21.2047C16.8595 20.4201 18.4778 19.0917 19.6163 17.3875C20.7548 15.6838 21.3624 13.6802 21.3622 11.6306C21.3588 8.88358 20.266 6.25 18.3234 4.30773C16.3808 2.36497 13.7471 1.27254 11 1.2695Z" fill="#FFF129"/>
<path id="Vector_3" d="M11 12.5605C10.8161 12.5605 10.6364 12.5058 10.4836 12.404C10.3307 12.3017 10.2116 12.1564 10.1412 11.9867C10.0708 11.8171 10.0525 11.6302 10.0883 11.4499C10.1242 11.2696 10.2127 11.104 10.3427 10.9738C10.4727 10.8437 10.6383 10.7555 10.8186 10.7196C10.9989 10.6836 11.1858 10.7018 11.3557 10.7722C11.5255 10.8426 11.6707 10.9617 11.7728 11.1146C11.8749 11.2676 11.9295 11.4473 11.9295 11.6312C11.929 11.8773 11.8309 12.1133 11.6567 12.2876C11.4825 12.4618 11.2463 12.56 11 12.5605ZM11 11.3395C10.9423 11.3395 10.8859 11.3567 10.838 11.3886C10.79 11.4205 10.7526 11.4661 10.7305 11.5193C10.7085 11.5729 10.7027 11.6312 10.7139 11.6879C10.7252 11.7446 10.753 11.7963 10.7938 11.8373C10.8345 11.8778 10.8865 11.9057 10.9431 11.9168C10.9996 11.9285 11.0583 11.9224 11.1116 11.9006C11.1648 11.8783 11.2104 11.8409 11.2424 11.7933C11.2745 11.7452 11.2915 11.6889 11.2915 11.6312C11.2913 11.5537 11.2606 11.4798 11.2059 11.4251C11.1513 11.3704 11.0772 11.3395 11 11.3395ZM11 4.03839C10.9155 4.03839 10.8343 4.00447 10.7745 3.94471C10.7147 3.88494 10.6811 3.8039 10.6811 3.71932V1.87937C10.6811 1.79479 10.7147 1.71375 10.7745 1.65399C10.8343 1.59423 10.9155 1.5603 11 1.5603C11.0846 1.5603 11.1657 1.59423 11.2256 1.65399C11.2854 1.71375 11.3189 1.79479 11.3189 1.87937V3.71579C11.3195 3.75782 11.3116 3.79985 11.2958 3.83885C11.28 3.87785 11.2565 3.91381 11.2269 3.94369C11.1972 3.97357 11.1618 3.99737 11.123 4.01358C11.084 4.02978 11.0422 4.03839 11 4.03839ZM11 21.5066C10.9155 21.5066 10.8343 21.4732 10.7745 21.4134C10.7147 21.3531 10.6811 21.2721 10.6811 21.1875V19.3516C10.6811 19.267 10.7147 19.1855 10.7745 19.1257C10.8343 19.066 10.9155 19.0326 11 19.0326C11.0846 19.0326 11.1657 19.066 11.2256 19.1257C11.2854 19.1855 11.3189 19.267 11.3189 19.3516V21.1875C11.3189 21.2721 11.2854 21.3531 11.2256 21.4134C11.1657 21.4732 11.0846 21.5066 11 21.5066ZM20.6523 11.8545H18.8161C18.7315 11.8545 18.6504 11.8206 18.5906 11.7608C18.5307 11.7011 18.4971 11.6201 18.4971 11.5355C18.4971 11.4509 18.5307 11.3699 18.5906 11.3101C18.6504 11.2498 18.7315 11.2164 18.8161 11.2164H20.6523C20.7369 11.2164 20.818 11.2498 20.8778 11.3101C20.9376 11.3699 20.9713 11.4509 20.9713 11.5355C20.9713 11.6201 20.9376 11.7011 20.8778 11.7608C20.818 11.8206 20.7369 11.8545 20.6523 11.8545ZM3.18399 11.8545H1.34778C1.2632 11.8545 1.18206 11.8206 1.12225 11.7608C1.06244 11.7011 1.02881 11.6201 1.02881 11.5355C1.02881 11.4509 1.06244 11.3699 1.12225 11.3101C1.18206 11.2498 1.2632 11.2164 1.34778 11.2164H3.18399C3.26856 11.2164 3.3497 11.2498 3.40951 11.3101C3.46932 11.3699 3.50295 11.4509 3.50295 11.5355C3.50295 11.6201 3.46932 11.7011 3.40951 11.7608C3.3497 11.8206 3.26856 11.8545 3.18399 11.8545ZM6.57573 4.09005C6.52022 4.09005 6.46573 4.07485 6.41771 4.047C6.36975 4.01914 6.32999 3.97914 6.30234 3.93052L5.95061 3.32278C5.91065 3.24985 5.90082 3.16426 5.92331 3.08373C5.9458 3.00371 5.99877 2.93534 6.07089 2.89381C6.14306 2.85177 6.22865 2.84012 6.30933 2.86088C6.39006 2.88165 6.4595 2.9328 6.50285 3.00421L6.85458 3.61196C6.89662 3.68489 6.90796 3.772 6.88608 3.85354C6.86426 3.93508 6.81098 4.00496 6.73795 4.04751C6.68872 4.07587 6.6327 4.09107 6.57573 4.09005ZM18.6556 7.32176C18.5855 7.32176 18.5173 7.29846 18.4616 7.25591C18.406 7.21287 18.3659 7.15311 18.3478 7.08525C18.3296 7.01738 18.3343 6.94546 18.3611 6.88063C18.388 6.81581 18.4354 6.76162 18.4962 6.72667L19.104 6.3757C19.1403 6.35341 19.1807 6.33923 19.2227 6.33264C19.2648 6.32657 19.3076 6.32859 19.3488 6.33922C19.39 6.34986 19.4286 6.36809 19.4625 6.39392C19.4964 6.41975 19.5248 6.45167 19.5461 6.48864C19.5674 6.52561 19.581 6.56612 19.5864 6.60815C19.5917 6.6507 19.5885 6.69324 19.577 6.73426C19.5655 6.77528 19.546 6.81327 19.5196 6.84669C19.4931 6.88012 19.4602 6.90747 19.423 6.92773L18.8151 7.2787C18.7667 7.30706 18.7117 7.32176 18.6556 7.32176ZM2.73658 16.522C2.66644 16.522 2.59822 16.4987 2.54256 16.4557C2.48685 16.4132 2.44684 16.3534 2.42871 16.2855C2.41053 16.2177 2.41523 16.1458 2.44208 16.0809C2.46887 16.0161 2.51637 15.9619 2.5771 15.927L3.18495 15.576C3.22126 15.5537 3.26163 15.5395 3.30366 15.5329C3.3457 15.5269 3.38854 15.5289 3.42977 15.5395C3.47094 15.5502 3.50959 15.5684 3.54347 15.5942C3.57735 15.62 3.60576 15.652 3.62703 15.6889C3.64825 15.7259 3.66198 15.7664 3.6673 15.8085C3.67256 15.851 3.66943 15.8935 3.65793 15.9346C3.64648 15.9756 3.62693 16.0136 3.6005 16.047C3.57401 16.0804 3.54119 16.1078 3.50386 16.128L2.89607 16.479C2.84765 16.5074 2.7926 16.522 2.73658 16.522ZM15.776 20.0141C15.7205 20.0136 15.6661 19.9984 15.6182 19.9705C15.5702 19.9427 15.5304 19.9026 15.5026 19.8545L15.1509 19.2468C15.1299 19.2103 15.1163 19.1703 15.1107 19.1288C15.1052 19.0872 15.1079 19.0452 15.1187 19.0047C15.1295 18.9642 15.1481 18.9262 15.1736 18.8928C15.1991 18.8593 15.2308 18.8315 15.2671 18.8107C15.3033 18.7895 15.3434 18.7758 15.3849 18.7702C15.4265 18.7646 15.4687 18.7677 15.5092 18.7783C15.5496 18.789 15.5876 18.8077 15.6209 18.8335C15.6542 18.8588 15.6821 18.8907 15.7031 18.9267L16.0549 19.5345C16.0972 19.6079 16.1087 19.695 16.0868 19.777C16.065 19.8586 16.0115 19.9285 15.9382 19.971C15.889 19.9999 15.833 20.0146 15.776 20.0141ZM3.33795 7.33188C3.28224 7.33188 3.22754 7.31668 3.17943 7.28883L2.57067 6.93887C2.49733 6.89684 2.4438 6.82694 2.42182 6.7449C2.39984 6.66336 2.41128 6.57626 2.45357 6.50282C2.49586 6.42938 2.56555 6.3762 2.64734 6.35391C2.72914 6.33213 2.81625 6.34328 2.88963 6.38583L3.49743 6.7368C3.55821 6.77174 3.60566 6.82593 3.6325 6.89076C3.65935 6.95559 3.66406 7.02751 3.64587 7.09537C3.62769 7.16324 3.58768 7.22299 3.53202 7.26553C3.47636 7.30858 3.40814 7.33138 3.33795 7.33188ZM15.4143 4.08498C15.3586 4.08498 15.3038 4.0698 15.2557 4.04194C15.2194 4.02118 15.1875 3.99332 15.1619 3.95989C15.1364 3.92697 15.1176 3.88899 15.1067 3.84847C15.0958 3.80795 15.0929 3.76592 15.0983 3.72439C15.1037 3.68286 15.1172 3.64285 15.1381 3.60638L15.489 2.99864C15.5088 2.96014 15.5362 2.92621 15.5694 2.89886C15.6027 2.87152 15.6412 2.85126 15.6825 2.83911C15.7238 2.82695 15.7672 2.82341 15.81 2.82847C15.8527 2.83354 15.894 2.84721 15.9314 2.86899C15.9687 2.89026 16.0012 2.91913 16.0271 2.95357C16.053 2.98801 16.0716 3.02751 16.0819 3.06904C16.0922 3.11108 16.0939 3.15463 16.0869 3.19717C16.0799 3.23972 16.0643 3.28023 16.0412 3.31669L15.6913 3.92545C15.6631 3.97407 15.6228 4.01409 15.5741 4.04194C15.5255 4.0703 15.4704 4.08498 15.4143 4.08498ZM6.23493 20.0141C6.17907 20.0141 6.12412 19.9994 6.0755 19.972C6.00227 19.9295 5.94883 19.8601 5.92701 19.7786C5.90513 19.6965 5.91657 19.6094 5.95886 19.5365L6.30877 18.9277C6.35106 18.8543 6.42075 18.8006 6.50254 18.7788C6.58434 18.757 6.67145 18.7682 6.74483 18.8107C6.81817 18.8528 6.8717 18.9227 6.89368 19.0042C6.91561 19.0862 6.90422 19.1734 6.86193 19.2468L6.51105 19.8545C6.48325 19.9032 6.44304 19.9432 6.39452 19.9715C6.346 19.9994 6.29095 20.0141 6.23493 20.0141ZM19.2698 16.5109C19.214 16.5109 19.159 16.4967 19.1104 16.4689L18.5025 16.1184C18.4643 16.0981 18.4305 16.0708 18.4031 16.0379C18.3757 16.0044 18.3554 15.966 18.3432 15.9249C18.3311 15.8834 18.3275 15.8398 18.3326 15.7973C18.3377 15.7543 18.3514 15.7132 18.3729 15.6758C18.3944 15.6388 18.4232 15.6059 18.4577 15.58C18.4921 15.5542 18.5315 15.5355 18.5733 15.5253C18.6151 15.5152 18.6586 15.5132 18.7011 15.5203C18.7436 15.5274 18.7842 15.5431 18.8206 15.5659L19.4293 15.9158C19.4901 15.9513 19.5375 16.0055 19.5644 16.0703C19.5912 16.1351 19.5959 16.207 19.5777 16.2744C19.5596 16.3423 19.5196 16.4025 19.4639 16.4451C19.4082 16.4876 19.34 16.5109 19.2698 16.5109Z" fill="black"/>
<path id="Vector_4" d="M11.0001 11.3395C10.9155 11.3395 10.8343 11.306 10.7745 11.2463C10.7147 11.186 10.6811 11.105 10.6811 11.0204V5.55269C10.6811 5.46812 10.7147 5.38707 10.7745 5.32731C10.8343 5.26755 10.9155 5.23413 11.0001 5.23413C11.0846 5.23413 11.1658 5.26755 11.2256 5.32731C11.2854 5.38707 11.319 5.46812 11.319 5.55269V11.0204C11.319 11.105 11.2854 11.186 11.2256 11.2463C11.1658 11.306 11.0846 11.3395 11.0001 11.3395ZM11.0001 16.9986C10.9155 16.9986 10.8343 16.9647 10.7745 16.9049C10.7147 16.8452 10.6811 16.7641 10.6811 16.6796V12.2415C10.6811 12.1569 10.7147 12.0759 10.7745 12.0161C10.8343 11.9563 10.9155 11.9229 11.0001 11.9229C11.0846 11.9229 11.1658 11.9563 11.2256 12.0161C11.2854 12.0759 11.319 12.1569 11.319 12.2415V16.6796C11.319 16.7641 11.2854 16.8452 11.2256 16.9049C11.1658 16.9647 11.0846 16.9986 11.0001 16.9986Z" fill="black"/>
<path id="Vector_5" d="M10.9892 17.7263C10.9286 17.7268 10.8691 17.7096 10.8178 17.6772C10.7665 17.6453 10.7255 17.5992 10.6994 17.5445L10.0515 16.1411C10.0286 16.092 10.0185 16.0383 10.0219 15.9846C10.0253 15.9309 10.0423 15.8788 10.0712 15.8337C10.1001 15.7881 10.14 15.7506 10.1872 15.7248C10.2344 15.699 10.2874 15.6853 10.3413 15.6853H11.6107C11.6638 15.6853 11.7161 15.6985 11.7628 15.7238C11.8095 15.7491 11.8492 15.7856 11.8782 15.8302C11.9071 15.8747 11.9245 15.9259 11.9287 15.9791C11.9329 16.0317 11.9238 16.0849 11.9023 16.1335L11.2808 17.5369C11.256 17.5931 11.2156 17.6407 11.1644 17.6747C11.1131 17.7081 11.0532 17.7263 10.9919 17.7263H10.9892ZM10.8397 16.3229L10.9828 16.6339L11.1204 16.3229H10.8397Z" fill="black"/>
</g>
</g>
</svg>
