<svg width="17" height="17" viewBox="0 0 17 17" fill="none" xmlns="http://www.w3.org/2000/svg">
<g id="Group 2">
<path id="Vector" d="M8.29769 16.2016C12.6574 16.2016 16.1917 12.6671 16.1917 8.30759C16.1917 3.94773 12.6574 0.413574 8.29769 0.413574C3.93798 0.413574 0.403748 3.94773 0.403748 8.30759C0.403748 12.6671 3.93798 16.2016 8.29769 16.2016Z" fill="white"/>
<path id="Vector_2" d="M8.29778 16.4366C6.68989 16.4366 5.11812 15.9601 3.78123 15.0666C2.44434 14.1735 1.40232 12.9039 0.787004 11.4183C0.171652 9.93268 0.0106267 8.29811 0.324254 6.72117C0.637882 5.14424 1.41209 3.6957 2.54899 2.55857C3.68586 1.42181 5.13437 0.647385 6.71134 0.33372C8.28831 0.0196805 9.92288 0.180625 11.4084 0.795977C12.8939 1.41133 14.1637 2.45301 15.057 3.79002C15.9504 5.12665 16.4273 6.69835 16.4275 8.30635C16.4251 10.462 15.5679 12.5285 14.0438 14.0526C12.5197 15.5768 10.4533 16.4343 8.29778 16.4366ZM8.29778 0.648879C6.78309 0.648879 5.30243 1.09804 4.04302 1.93947C2.7836 2.7809 1.80203 3.97717 1.22243 5.37631C0.642785 6.77583 0.491193 8.3157 0.786742 9.8013C1.08229 11.2869 1.81173 12.6516 2.88283 13.7225C3.9539 14.7934 5.31852 15.5229 6.80413 15.8182C8.28973 16.1135 9.82957 15.9619 11.2289 15.3821C12.6283 14.8023 13.8243 13.8206 14.6657 12.561C15.5071 11.3019 15.9561 9.82115 15.956 8.30635C15.9535 6.27613 15.1459 4.32976 13.7102 2.89431C12.2745 1.45849 10.328 0.651125 8.29778 0.648879Z" fill="white"/>
<path id="Vector_3" d="M8.29769 8.99458C8.16182 8.99458 8.02899 8.95415 7.91602 8.87892C7.80306 8.80331 7.71502 8.69588 7.66303 8.57049C7.611 8.4451 7.59741 8.30699 7.62391 8.17374C7.65042 8.04049 7.71584 7.91808 7.81193 7.82189C7.90801 7.72569 8.03041 7.66056 8.16366 7.63399C8.29691 7.60741 8.43503 7.62089 8.56057 7.67292C8.68611 7.72494 8.79338 7.81291 8.86888 7.92594C8.94434 8.03898 8.98465 8.17186 8.98465 8.30773C8.98428 8.48964 8.91178 8.66407 8.78305 8.79283C8.65429 8.92159 8.47975 8.9942 8.29769 8.99458ZM8.29769 8.09214C8.25506 8.09214 8.2134 8.10487 8.17796 8.12845C8.14251 8.15203 8.11489 8.18571 8.09857 8.22501C8.08225 8.26469 8.07798 8.30774 8.08629 8.34966C8.09464 8.39158 8.11515 8.42976 8.14528 8.46007C8.17541 8.49002 8.21381 8.51061 8.25562 8.51884C8.29743 8.52745 8.34078 8.52296 8.38015 8.50686C8.41953 8.49039 8.45318 8.4627 8.47687 8.42751C8.50057 8.39196 8.51318 8.3504 8.51318 8.30773C8.51303 8.25046 8.49027 8.19582 8.44989 8.1554C8.4095 8.11497 8.35478 8.09214 8.29769 8.09214ZM8.29773 2.6962C8.23523 2.6962 8.17526 2.67113 8.13106 2.62696C8.08685 2.58279 8.062 2.5229 8.062 2.46039V1.10056C8.062 1.03805 8.08685 0.978154 8.13106 0.933986C8.17526 0.889819 8.23523 0.864746 8.29773 0.864746C8.36024 0.864746 8.42021 0.889819 8.46441 0.933986C8.50862 0.978154 8.53343 1.03805 8.53343 1.10056V2.45778C8.53381 2.48884 8.52797 2.51991 8.51629 2.54873C8.50461 2.57755 8.48728 2.60413 8.46538 2.62621C8.44345 2.6483 8.41732 2.66588 8.38858 2.67786C8.35979 2.68984 8.32891 2.6962 8.29773 2.6962ZM8.29773 15.6062C8.23523 15.6062 8.17526 15.5815 8.13106 15.5374C8.08685 15.4928 8.062 15.4329 8.062 15.3704V14.0136C8.062 13.9511 8.08685 13.8908 8.13106 13.8467C8.17526 13.8025 8.23523 13.7778 8.29773 13.7778C8.36024 13.7778 8.42021 13.8025 8.46441 13.8467C8.50862 13.8908 8.53343 13.9511 8.53343 14.0136V15.3704C8.53343 15.4329 8.50862 15.4928 8.46441 15.5374C8.42021 15.5815 8.36024 15.6062 8.29773 15.6062ZM15.4313 8.4728H14.0743C14.0117 8.4728 13.9518 8.44772 13.9076 8.40355C13.8634 8.35939 13.8385 8.2995 13.8385 8.23699C13.8385 8.17448 13.8634 8.1146 13.9076 8.07043C13.9518 8.02589 14.0117 8.00118 14.0743 8.00118H15.4313C15.4938 8.00118 15.5538 8.02589 15.598 8.07043C15.6422 8.1146 15.6671 8.17448 15.6671 8.23699C15.6671 8.2995 15.6422 8.35939 15.598 8.40355C15.5538 8.44772 15.4938 8.4728 15.4313 8.4728ZM2.52121 8.4728H1.16414C1.10163 8.4728 1.04167 8.44772 0.997464 8.40355C0.953259 8.35939 0.928406 8.2995 0.928406 8.23699C0.928406 8.17448 0.953259 8.1146 0.997464 8.07043C1.04167 8.02589 1.10163 8.00118 1.16414 8.00118H2.52121C2.58372 8.00118 2.64368 8.02589 2.68789 8.07043C2.73209 8.1146 2.75695 8.17448 2.75695 8.23699C2.75695 8.2995 2.73209 8.35939 2.68789 8.40355C2.64368 8.44772 2.58372 8.4728 2.52121 8.4728ZM5.02791 2.73438C4.98689 2.73438 4.94661 2.72315 4.91113 2.70256C4.87568 2.68198 4.8463 2.65241 4.82586 2.61648L4.56591 2.16732C4.53637 2.11342 4.52911 2.05016 4.54573 1.99065C4.56235 1.93151 4.6015 1.88098 4.6548 1.85029C4.70814 1.81922 4.7714 1.8106 4.83103 1.82595C4.89069 1.8413 4.94201 1.8791 4.97405 1.93188L5.234 2.38104C5.26507 2.43494 5.27345 2.49932 5.25728 2.55959C5.24115 2.61985 5.20177 2.6715 5.1478 2.70294C5.11142 2.7239 5.07002 2.73513 5.02791 2.73438ZM13.9557 5.1228C13.9038 5.1228 13.8534 5.10558 13.8123 5.07414C13.7711 5.04233 13.7416 4.99816 13.7281 4.94801C13.7147 4.89785 13.7182 4.8447 13.738 4.79679C13.7579 4.74888 13.7929 4.70883 13.8378 4.683L14.287 4.42361C14.3139 4.40714 14.3437 4.39666 14.3748 4.39179C14.4059 4.3873 14.4376 4.38879 14.468 4.39665C14.4984 4.40451 14.527 4.41799 14.552 4.43708C14.5771 4.45617 14.5981 4.47975 14.6138 4.50708C14.6295 4.5344 14.6396 4.56434 14.6435 4.59541C14.6475 4.62685 14.6451 4.65829 14.6366 4.68861C14.6281 4.71893 14.6137 4.747 14.5942 4.7717C14.5746 4.79641 14.5503 4.81662 14.5228 4.8316L14.0735 5.09098C14.0378 5.11194 13.9971 5.1228 13.9557 5.1228ZM2.19055 11.9224C2.13871 11.9224 2.08829 11.9051 2.04716 11.8733C2.00598 11.8419 1.97641 11.7977 1.96301 11.7476C1.94958 11.6974 1.95306 11.6443 1.97289 11.5963C1.9927 11.5484 2.02781 11.5084 2.07268 11.4826L2.52192 11.2232C2.54876 11.2067 2.57859 11.1962 2.60966 11.1914C2.64072 11.1869 2.67239 11.1884 2.70286 11.1962C2.73329 11.2041 2.76185 11.2176 2.78689 11.2366C2.81193 11.2557 2.83293 11.2793 2.84865 11.3066C2.86433 11.334 2.87448 11.3639 2.87841 11.395C2.8823 11.4264 2.87998 11.4579 2.87148 11.4882C2.86302 11.5185 2.84857 11.5466 2.82904 11.5713C2.80946 11.596 2.78521 11.6162 2.75762 11.6312L2.30842 11.8906C2.27264 11.9115 2.23195 11.9224 2.19055 11.9224ZM11.8275 14.5032C11.7865 14.5028 11.7463 14.4916 11.7108 14.471C11.6754 14.4504 11.6459 14.4208 11.6254 14.3853L11.3655 13.9361C11.3499 13.9092 11.3399 13.8796 11.3358 13.8489C11.3317 13.8182 11.3337 13.7871 11.3417 13.7572C11.3496 13.7272 11.3634 13.6992 11.3822 13.6745C11.4011 13.6498 11.4245 13.6292 11.4513 13.6138C11.4781 13.5981 11.5077 13.588 11.5384 13.5839C11.5691 13.5798 11.6003 13.582 11.6303 13.5899C11.6602 13.5977 11.6882 13.6116 11.7128 13.6307C11.7374 13.6494 11.7581 13.673 11.7736 13.6995L12.0336 14.1487C12.0649 14.203 12.0733 14.2674 12.0572 14.328C12.041 14.3883 12.0015 14.4399 11.9474 14.4714C11.911 14.4927 11.8696 14.5035 11.8275 14.5032ZM2.635 5.13029C2.59382 5.13029 2.5534 5.11905 2.51784 5.09847L2.06793 4.83983C2.01373 4.80876 1.97417 4.75711 1.95792 4.69647C1.94168 4.63621 1.95014 4.57183 1.98139 4.51756C2.01265 4.46329 2.06415 4.42398 2.1246 4.40751C2.18505 4.39141 2.24943 4.39965 2.30367 4.43109L2.75286 4.69048C2.79778 4.71631 2.83285 4.75636 2.85269 4.80427C2.87253 4.85218 2.87601 4.90533 2.86257 4.95549C2.84914 5.00565 2.81957 5.04981 2.77843 5.08125C2.73729 5.11307 2.68688 5.12991 2.635 5.13029ZM11.5601 2.73063C11.5189 2.73063 11.4785 2.71941 11.4429 2.69882C11.4161 2.68348 11.3925 2.66289 11.3736 2.63818C11.3547 2.61385 11.3408 2.58578 11.3328 2.55584C11.3247 2.52589 11.3226 2.49483 11.3266 2.46414C11.3306 2.43344 11.3406 2.40387 11.356 2.37692L11.6153 1.92776C11.63 1.89931 11.6502 1.87424 11.6748 1.85402C11.6994 1.83381 11.7278 1.81884 11.7583 1.80986C11.7889 1.80087 11.8209 1.79826 11.8526 1.802C11.8841 1.80574 11.9147 1.81585 11.9423 1.83195C11.9699 1.84767 11.9939 1.869 12.0131 1.89445C12.0322 1.9199 12.046 1.9491 12.0536 1.97979C12.0611 2.01086 12.0624 2.04305 12.0572 2.07449C12.0521 2.10593 12.0406 2.13587 12.0235 2.16282L11.7649 2.61273C11.744 2.64867 11.7142 2.67824 11.6783 2.69882C11.6423 2.71979 11.6016 2.73063 11.5601 2.73063ZM4.77604 14.5032C4.73476 14.5032 4.69414 14.4923 4.65821 14.4721C4.60409 14.4407 4.5646 14.3894 4.54846 14.3291C4.53229 14.2685 4.54076 14.2041 4.57201 14.1502L4.83061 13.7003C4.86187 13.646 4.91337 13.6064 4.97382 13.5903C5.03427 13.5742 5.09865 13.5824 5.15289 13.6138C5.20709 13.6449 5.24665 13.6966 5.26289 13.7568C5.2791 13.8175 5.27068 13.8818 5.23943 13.9361L4.98011 14.3853C4.95956 14.4212 4.92984 14.4508 4.89398 14.4717C4.85812 14.4923 4.81744 14.5032 4.77604 14.5032ZM14.4096 11.9141C14.3683 11.9141 14.3277 11.9036 14.2918 11.8831L13.8425 11.624C13.8143 11.6091 13.7893 11.5889 13.769 11.5645C13.7488 11.5398 13.7338 11.5114 13.7248 11.4811C13.7158 11.4504 13.7132 11.4182 13.7169 11.3867C13.7207 11.3549 13.7308 11.3246 13.7467 11.2969C13.7626 11.2696 13.7839 11.2453 13.8094 11.2262C13.8348 11.2071 13.8639 11.1932 13.8948 11.1857C13.9257 11.1783 13.9578 11.1768 13.9893 11.182C14.0207 11.1872 14.0507 11.1988 14.0776 11.2157L14.5275 11.4743C14.5724 11.5005 14.6074 11.5406 14.6273 11.5885C14.6471 11.6364 14.6506 11.6896 14.6372 11.7393C14.6237 11.7895 14.5942 11.834 14.553 11.8655C14.5119 11.8969 14.4615 11.9141 14.4096 11.9141Z" fill="#8E69FF"/>
<path id="Vector_4" d="M8.29775 8.09131C8.23524 8.09131 8.17528 8.0666 8.13107 8.02244C8.08687 7.97789 8.06201 7.91801 8.06201 7.8555V3.81454C8.06201 3.75203 8.08687 3.69213 8.13107 3.64797C8.17528 3.6038 8.23524 3.5791 8.29775 3.5791C8.36026 3.5791 8.42022 3.6038 8.46442 3.64797C8.50863 3.69213 8.53345 3.75203 8.53345 3.81454V7.8555C8.53345 7.91801 8.50863 7.97789 8.46442 8.02244C8.42022 8.0666 8.36026 8.09131 8.29775 8.09131ZM8.29775 12.2738C8.23524 12.2738 8.17528 12.2487 8.13107 12.2045C8.08687 12.1603 8.06201 12.1005 8.06201 12.0379V8.75794C8.06201 8.69543 8.08687 8.63554 8.13107 8.59137C8.17528 8.54721 8.23524 8.5225 8.29775 8.5225C8.36026 8.5225 8.42022 8.54721 8.46442 8.59137C8.50863 8.63554 8.53345 8.69543 8.53345 8.75794V12.0379C8.53345 12.1005 8.50863 12.1603 8.46442 12.2045C8.42022 12.2487 8.36026 12.2738 8.29775 12.2738Z" fill="#8E69FF"/>
<path id="Vector_5" d="M8.28983 12.8121C8.24502 12.8125 8.20112 12.7998 8.1632 12.7758C8.12528 12.7523 8.09493 12.7182 8.07565 12.6778L7.59681 11.6406C7.57993 11.6043 7.5724 11.5646 7.57495 11.5249C7.57749 11.4853 7.59003 11.4467 7.61137 11.4134C7.63274 11.3797 7.66224 11.352 7.69712 11.3329C7.73201 11.3138 7.77119 11.3037 7.81098 11.3037H8.74917C8.78843 11.3037 8.82706 11.3134 8.86161 11.3322C8.89612 11.3509 8.92543 11.3778 8.94684 11.4108C8.96825 11.4437 8.98109 11.4815 8.98419 11.5208C8.9873 11.5597 8.9806 11.599 8.96465 11.635L8.50535 12.6722C8.48704 12.7137 8.45718 12.7489 8.4193 12.774C8.38142 12.7987 8.33714 12.8121 8.29185 12.8121H8.28983ZM8.17937 11.775L8.28511 12.0048L8.38681 11.775H8.17937Z" fill="#8E69FF"/>
</g>
</svg>
