<svg width="181" height="66" viewBox="0 0 181 66" fill="none" xmlns="http://www.w3.org/2000/svg">
<g id="Group 1843">
<g id="Group 1842">
<path id="Vector" d="M8.15857 30.1666C7.3911 30.1666 6.6449 29.8334 6.04161 29.2167C5.43833 28.6 5.0123 27.7352 4.83339 26.764C4.65393 25.7929 4.73139 24.772 5.05322 23.8717C5.37504 22.9644 5.92216 22.2201 6.60673 21.7735C17.1599 14.7627 28.4621 9.85023 40.1356 7.19903C40.5857 7.07143 41.0515 7.05722 41.5037 7.17064C41.9564 7.28407 42.3873 7.51797 42.7697 7.85114C43.1521 8.18431 43.4782 8.61675 43.7292 9.12006C43.9801 9.61627 44.1503 10.1833 44.2294 10.7717C44.3084 11.3601 44.2948 11.9697 44.1895 12.551C44.0843 13.1323 43.889 13.6852 43.6157 14.1673C43.343 14.6493 42.9977 15.0533 42.6006 15.3581C42.204 15.6629 41.7639 15.8615 41.3067 15.9395C30.3035 18.4418 19.65 23.0708 9.70116 29.6775C9.22442 29.9965 8.69586 30.1666 8.15857 30.1666ZM17.0606 49.0937C16.243 49.1007 15.4515 48.725 14.8291 48.0303C14.2073 47.3427 13.7966 46.3857 13.6711 45.3366C13.5462 44.2874 13.7147 43.2099 14.1467 42.3096C14.5788 41.4094 15.2459 40.736 16.0259 40.417L28.1538 35.4088L40.2818 30.4006C40.7094 30.2233 41.1595 30.1524 41.6067 30.2021C42.054 30.2517 42.4893 30.4148 42.8881 30.6841C43.2873 30.9464 43.6413 31.315 43.931 31.7616C44.2206 32.2081 44.4405 32.7185 44.5768 33.2786C44.7132 33.8315 44.7645 34.4199 44.7268 35.0012C44.6892 35.5824 44.5643 36.1495 44.3587 36.667C44.1525 37.1845 43.8705 37.6453 43.5279 38.021C43.1848 38.3967 42.7888 38.6802 42.3611 38.8574L18.0954 48.881C17.761 49.0227 17.4119 49.0937 17.0606 49.0937Z" fill="#8E69FF"/>
<g id="Group 1841">
<g id="SSS">
<path d="M101.586 46.4548C101.586 57.789 96.5734 65.2324 84.2053 65.2324C70.6386 65.2324 64.9722 56.2665 64.9722 40.7877H75.2153C75.2153 49.2461 77.3402 52.3757 84.4233 52.3757C89.2724 52.3757 91.3973 50.8532 91.3973 47.1315C91.3973 45.0169 90.3076 43.4098 88.1282 42.5639L75.2698 37.3197C68.6227 34.5285 66.5522 28.523 66.5522 20.995C66.5522 9.40705 72.1097 3.23242 82.1894 3.23242C94.1761 3.23242 100.115 12.0291 100.115 24.9705H89.9262C89.9262 18.5421 87.5834 15.8354 82.3528 15.8354C78.7024 15.8354 76.7954 17.2733 76.7954 20.6567C76.7954 22.3484 77.3947 23.7863 79.7921 24.8013L92.2691 29.6226C98.6438 32.0755 101.586 37.7427 101.586 46.4548Z" fill="#8E69FF"/>
<path d="M141.279 46.4548C141.279 57.789 136.266 65.2324 123.898 65.2324C110.332 65.2324 104.665 56.2665 104.665 40.7877H114.908C114.908 49.2461 117.033 52.3757 124.116 52.3757C128.966 52.3757 131.09 50.8532 131.09 47.1315C131.09 45.0169 130.001 43.4098 127.821 42.5639L114.963 37.3197C108.316 34.5285 106.245 28.523 106.245 20.995C106.245 9.40705 111.803 3.23242 121.882 3.23242C133.869 3.23242 139.808 12.0291 139.808 24.9705H129.619C129.619 18.5421 127.276 15.8354 122.046 15.8354C118.395 15.8354 116.488 17.2733 116.488 20.6567C116.488 22.3484 117.088 23.7863 119.485 24.8013L131.962 29.6226C138.337 32.0755 141.279 37.7427 141.279 46.4548Z" fill="#8E69FF"/>
<path d="M180.972 46.4548C180.972 57.789 175.96 65.2324 163.591 65.2324C150.025 65.2324 144.358 56.2665 144.358 40.7877H154.601C154.601 49.2461 156.726 52.3757 163.809 52.3757C168.659 52.3757 170.783 50.8532 170.783 47.1315C170.783 45.0169 169.694 43.4098 167.514 42.5639L154.656 37.3197C148.009 34.5285 145.938 28.523 145.938 20.995C145.938 9.40705 151.496 3.23242 161.576 3.23242C173.562 3.23242 179.501 12.0291 179.501 24.9705H169.312C169.312 18.5421 166.97 15.8354 161.739 15.8354C158.089 15.8354 156.182 17.2733 156.182 20.6567C156.182 22.3484 156.781 23.7863 159.178 24.8013L171.655 29.6226C178.03 32.0755 180.972 37.7427 180.972 46.4548Z" fill="#8E69FF"/>
</g>
</g>
</g>
<path id="Vector_2" d="M25.9806 56.5973C21.0167 56.5973 16.1637 54.9671 12.0357 51.9076C7.90769 48.8517 4.6901 44.5008 2.78976 39.4159C0.889415 34.3274 0.391583 28.7308 1.35925 23.3283C2.32691 17.9294 4.71682 12.968 8.22644 9.07226C11.7361 5.18007 16.2079 2.52642 21.0765 1.45015C25.945 0.377417 30.9917 0.92794 35.5778 3.0346C40.1642 5.14125 44.0841 8.70879 46.8421 13.2891C49.6 17.8659 51.0722 23.2507 51.0722 28.7555C51.0661 36.1377 48.4208 43.2128 43.7167 48.4318C39.0126 53.6543 32.6341 56.5902 25.9806 56.5973ZM25.9806 5.34236C21.8043 5.34236 17.7218 6.71506 14.2487 9.28751C10.776 11.86 8.06897 15.5193 6.47051 19.7961C4.87173 24.0765 4.4531 28.7873 5.26776 33.3323C6.0821 37.8738 8.09314 42.0483 11.0461 45.323C13.999 48.6012 17.7615 50.8313 21.8574 51.7347C25.9533 52.638 30.199 52.1723 34.0569 50.4009C37.9152 48.6259 41.2123 45.6229 43.5319 41.7695C45.8512 37.9197 47.0886 33.3888 47.0876 28.7555C47.0816 22.5485 44.8558 16.5991 40.8987 12.2093C36.9418 7.81957 31.5767 5.34942 25.9806 5.34236Z" fill="white"/>
</g>
</svg>
