<svg width="186" height="373" viewBox="0 0 186 373" fill="none" xmlns="http://www.w3.org/2000/svg">
<path d="M96.4022 41.0099H96.4334L106.79 40.6452C106.93 40.6403 107.065 40.6045 107.188 40.5406L144.704 21.2462C144.811 21.1901 144.907 21.1146 144.988 21.0238L156.425 7.69064C156.55 7.54393 156.626 7.36234 156.645 7.1705C156.663 6.97866 156.621 6.78592 156.526 6.61843C156.431 6.45094 156.287 6.31671 156.112 6.23416C155.938 6.15145 155.744 6.12458 155.554 6.1568L111.038 13.7645C110.96 13.7779 110.882 13.8013 110.81 13.8342L100.175 18.621C100.047 18.6777 99.9361 18.762 99.8455 18.8679C99.7564 18.9736 99.6911 19.0982 99.654 19.2323C98.9843 21.7369 98.2582 25.738 97.5544 29.6049C96.8521 33.4718 96.1394 37.4004 95.4875 39.83C95.4504 39.9717 95.4474 40.1201 95.4771 40.2636C95.5068 40.4069 95.5707 40.5412 95.6613 40.6559C95.7503 40.7675 95.8617 40.8575 95.9909 40.9188C96.1186 40.9802 96.2596 41.0113 96.4022 41.0099ZM106.514 38.7761L97.6138 39.0898C98.1959 36.6121 98.8106 33.2278 99.4075 29.9401C100.062 26.3279 100.748 22.5978 101.36 20.1468L111.478 15.5881L153.312 8.43618L143.69 19.6534L106.514 38.7761Z" fill="black"/>
<path d="M106.759 39.7175L96.4021 40.0822C97.7236 35.1479 99.2441 24.4215 100.566 19.4873L111.202 14.7005L155.717 7.09277L144.275 20.4097L106.759 39.7175Z" fill="black"/>
<path d="M92.8224 3.95751C96.0608 11.0237 97.0408 14.5098 98.8909 23.0481C111.958 17.768 139.075 12.2411 154.84 8.8355L105.651 33.6914C106.455 36.0137 110.56 44.0801 112.773 53.0475C124.246 43.8817 143.017 30.2322 183.992 3.04849C184.048 3.01924 184.093 2.97232 184.119 2.91485C184.146 2.85739 184.152 2.7928 184.137 2.73133C184.124 2.66985 184.088 2.61492 184.039 2.57527C183.99 2.53548 183.929 2.51335 183.865 2.51216C161.657 0.356176 118.99 1.46372 92.8224 3.95751Z" fill="#A88CFF"/>
<path d="M112.773 53.9782C112.986 53.979 113.194 53.9061 113.361 53.7717C127.367 42.5947 149.31 27.1914 184.513 3.82895C184.722 3.68907 184.884 3.48758 184.976 3.25223C185.066 3.01704 185.083 2.75912 185.022 2.51412C184.961 2.26912 184.826 2.04877 184.636 1.88336C184.446 1.71795 184.208 1.6155 183.957 1.58981C161.456 -0.60642 118.614 0.565416 92.7302 3.02179C92.5802 3.03574 92.4347 3.08578 92.307 3.16775C92.1793 3.24986 92.0739 3.36137 91.9997 3.49307C91.9239 3.62463 91.8824 3.77237 91.8764 3.92383C91.8705 4.07528 91.9017 4.22569 91.967 4.3626C95.1357 11.2732 96.0963 14.6012 97.9732 23.2628C98.0014 23.3965 98.0593 23.5224 98.1424 23.6314C98.2241 23.7404 98.3295 23.83 98.4513 23.894C98.5716 23.9579 98.7052 23.9946 98.8418 24.0012C98.9784 24.0081 99.115 23.9848 99.2412 23.9332C110.419 19.4172 132.442 14.6092 147.916 11.2892L105.227 32.8604C105.025 32.9622 104.866 33.1342 104.78 33.3443C104.695 33.5544 104.689 33.7884 104.763 34.0027C104.986 34.649 105.415 35.6385 106.012 37.0116C107.598 40.6531 110.253 46.7485 111.864 53.2783C111.901 53.4311 111.977 53.5721 112.084 53.6879C112.189 53.8038 112.324 53.8906 112.473 53.9407C112.571 53.9699 112.672 53.9825 112.773 53.9782ZM181.932 3.29529C148.504 25.5046 127.195 40.4359 113.32 51.4065C111.66 45.2682 109.228 39.6823 107.735 36.2472C107.372 35.4159 107.059 34.6973 106.83 34.1394L155.264 9.66689C155.469 9.56473 155.63 9.39101 155.716 9.17853C155.802 8.9659 155.806 8.72936 155.73 8.51317C155.653 8.29698 155.5 8.11642 155.3 8.00535C155.099 7.89429 154.865 7.86058 154.642 7.91048C153.033 8.26179 151.289 8.63448 149.463 9.02604C133.422 12.4612 111.625 17.1352 99.5842 21.7718C97.9539 14.3437 96.9026 10.7395 94.221 4.77019C119.419 2.45873 159.498 1.3699 181.932 3.28995V3.29529Z" fill="#A88CFF"/>
<path d="M12.8295 36.3601L67.6765 19.2772C68.557 19.0028 69.4939 19.4944 69.7686 20.3754L78.1372 47.246C78.4119 48.1269 77.9204 49.0634 77.0399 49.3378L22.1914 66.4207C21.3109 66.6951 20.374 66.2035 20.1007 65.3225L11.7307 38.452C11.456 37.571 11.949 36.6345 12.8295 36.3601Z" fill="#FFF129"/>
<path d="M21.6837 67.4107C21.9465 67.4095 22.2078 67.3697 22.4587 67.2926L77.3176 50.2134C77.9769 50.0066 78.5293 49.5463 78.85 48.9336C79.1722 48.3208 79.2375 47.6054 79.0326 46.9444L70.667 20.0772C70.4606 19.4163 70.0004 18.8643 69.3871 18.5425C68.7739 18.2207 68.0582 18.1554 67.3974 18.3609L12.5415 35.4268C12.2148 35.5283 11.9104 35.6934 11.6461 35.9128C11.3833 36.1321 11.1651 36.4014 11.0062 36.7051C10.8458 37.0087 10.7478 37.3409 10.7166 37.6825C10.6869 38.024 10.724 38.3684 10.8265 38.6958L19.1906 65.5656C19.3554 66.0987 19.6866 66.5651 20.135 66.8969C20.5834 67.2288 21.1254 67.4087 21.6837 67.4107ZM21.9004 65.4986C21.8099 65.5273 21.7119 65.5375 21.6168 65.5286C21.5203 65.5199 21.4283 65.4924 21.3421 65.4476C21.2575 65.4027 21.1818 65.3414 21.1209 65.2675C21.0585 65.1934 21.0125 65.1078 20.9843 65.0159L12.6172 38.1486C12.589 38.0567 12.5786 37.9601 12.5875 37.8643C12.5964 37.7684 12.6232 37.6753 12.6677 37.59C12.7137 37.5048 12.7746 37.4294 12.8489 37.3678C12.9231 37.3063 13.0077 37.26 13.0998 37.2316L67.932 20.1415C68.1176 20.0836 68.318 20.1019 68.4918 20.1925C68.664 20.283 68.7932 20.4383 68.8511 20.6242L77.2315 47.4942C77.288 47.6804 77.2701 47.8818 77.1796 48.0546C77.135 48.1398 77.0741 48.2151 76.9999 48.2764C76.9257 48.3376 76.841 48.3835 76.749 48.4112L21.9004 65.4986Z" fill="#FFF129"/>
<path d="M75.1394 40.4068H75.2433C77.7022 40.3719 80.1804 39.1356 82.6126 36.7329C83.4174 35.9526 84.139 35.1239 84.8487 34.3007C85.7871 33.1761 86.8013 32.1187 87.8882 31.1364C89.9521 29.3584 92.2314 28.5539 94.1468 28.9321C96.2924 29.3504 98.19 31.3027 99.0215 33.9065C99.0587 34.0239 99.1195 34.1328 99.1997 34.2269C99.2784 34.3212 99.3764 34.3987 99.4863 34.4553C99.5947 34.5117 99.715 34.5461 99.8382 34.5564C99.96 34.5666 100.085 34.5527 100.202 34.5153C100.319 34.4777 100.428 34.4174 100.523 34.3378C100.616 34.2582 100.693 34.1608 100.75 34.0513C100.806 33.9418 100.842 33.8221 100.852 33.6992C100.861 33.5764 100.848 33.4527 100.811 33.3353C99.7758 30.0904 97.3036 27.6369 94.5091 27.0897C91.1103 26.422 88.1376 28.4467 86.6647 29.7124C85.5154 30.7522 84.4404 31.8705 83.447 33.0591C82.7581 33.8449 82.0439 34.6681 81.3014 35.3921C79.2256 37.4435 77.1825 38.4975 75.2255 38.5242C74.2499 38.5754 73.2907 38.2651 72.5305 37.6527C72.1934 37.3743 71.9336 37.0134 71.7777 36.605C71.6218 36.1965 71.5742 35.7547 71.6396 35.3224C71.6915 35.0788 71.644 34.8247 71.5074 34.6159C71.3723 34.4073 71.1585 34.2611 70.915 34.2095C70.6715 34.1579 70.4176 34.2052 70.2097 34.3411C70.0003 34.4768 69.8548 34.6899 69.8029 34.9335C69.6662 35.6945 69.7316 36.4782 69.9959 37.2053C70.2587 37.9323 70.7101 38.577 71.301 39.074C72.3805 39.9622 73.7421 40.435 75.1394 40.4068ZM60.8789 372.43C61.0334 372.43 61.1863 372.391 61.3229 372.319C61.4595 372.244 61.5753 372.139 61.6615 372.01C61.7476 371.881 61.7996 371.732 61.8144 371.578C61.8278 371.423 61.804 371.267 61.7446 371.125C60.4573 368.078 58.2953 365.313 54.9381 362.428C54.846 362.343 54.7377 362.28 54.6189 362.238C54.5016 362.198 54.3754 362.18 54.2506 362.188C54.1259 362.195 54.0041 362.228 53.8928 362.284C53.7799 362.339 53.6804 362.418 53.5988 362.511C53.5171 362.606 53.4547 362.716 53.4161 362.835C53.3775 362.954 53.3642 363.08 53.3746 363.205C53.385 363.329 53.4206 363.45 53.4785 363.561C53.5364 363.671 53.6166 363.769 53.7131 363.849C56.8432 366.531 58.8462 369.086 60.0148 371.857C60.086 372.026 60.2063 372.172 60.3607 372.274C60.5137 372.375 60.6933 372.43 60.8789 372.43ZM45.6578 357.754C45.8598 357.757 46.0588 357.694 46.2221 357.576C46.3869 357.457 46.5087 357.288 46.5681 357.095C46.629 356.902 46.6245 356.694 46.5577 356.502C46.4894 356.312 46.3617 356.147 46.1939 356.034L46.038 355.93C43.1529 353.991 40.1684 351.985 37.567 349.816C37.4734 349.731 37.3635 349.666 37.2433 349.624C37.1245 349.581 36.9968 349.565 36.8706 349.574C36.7444 349.583 36.6211 349.617 36.5083 349.673C36.3954 349.731 36.296 349.811 36.2143 349.909C36.1326 350.006 36.0717 350.119 36.0361 350.24C35.999 350.361 35.9886 350.488 36.0019 350.615C36.0168 350.741 36.0554 350.863 36.1178 350.973C36.1801 351.082 36.2647 351.179 36.3657 351.256C39.0473 353.489 42.066 355.522 44.9897 357.488L45.1456 357.593C45.2956 357.697 45.4737 357.755 45.6578 357.76V357.754ZM30.0047 343.407C30.1665 343.407 30.3254 343.364 30.4664 343.284C30.6075 343.204 30.7248 343.09 30.808 342.95C30.8911 342.812 30.9372 342.653 30.9416 342.491C30.9446 342.329 30.9075 342.169 30.8303 342.026C29.7211 339.97 29.0381 337.71 28.8242 335.383C28.7841 334.951 28.7633 334.518 28.7633 334.096C28.7633 333.489 28.8079 332.88 28.894 332.278C28.9118 332.157 28.9059 332.032 28.8747 331.913C28.845 331.793 28.7916 331.68 28.7173 331.582C28.6431 331.483 28.551 331.399 28.4441 331.337C28.3387 331.275 28.2214 331.233 28.0996 331.215C27.9779 331.197 27.8531 331.203 27.7344 331.235C27.6141 331.264 27.5012 331.319 27.4032 331.392C27.3038 331.466 27.2206 331.558 27.1583 331.665C27.0959 331.771 27.0543 331.888 27.0365 332.01C26.9355 332.702 26.8865 333.398 26.8865 334.096C26.8865 334.578 26.9103 335.073 26.9578 335.566C27.1924 338.141 27.9467 340.64 29.1761 342.914C29.2563 343.063 29.3766 343.188 29.5221 343.275C29.6676 343.361 29.8354 343.407 30.0047 343.407ZM32.9788 323.831C33.1065 323.831 33.2342 323.804 33.3515 323.754C33.4688 323.702 33.5757 323.628 33.6618 323.534C35.7079 321.353 38.1921 319.296 40.8217 317.121L41.5894 316.486C41.6844 316.407 41.7631 316.31 41.821 316.202C41.8775 316.092 41.9131 315.973 41.925 315.85C41.9369 315.728 41.9235 315.604 41.8864 315.486C41.8507 315.369 41.7913 315.259 41.7126 315.164C41.6339 315.069 41.5374 314.99 41.429 314.933C41.3192 314.876 41.2004 314.84 41.0771 314.829C40.9539 314.817 40.8306 314.83 40.7133 314.866C40.5945 314.903 40.4862 314.962 40.3911 315.041L39.6264 315.673C36.9448 317.889 34.4221 319.982 32.2928 322.251C32.1666 322.385 32.0835 322.553 32.0523 322.732C32.0211 322.914 32.0434 323.099 32.1176 323.267C32.1904 323.435 32.3106 323.577 32.4636 323.678C32.6165 323.778 32.7962 323.831 32.9788 323.831ZM48.8918 309.445C49.021 309.445 49.1502 309.418 49.269 309.366C49.3878 309.314 49.4947 309.237 49.5838 309.142C52.3367 306.124 54.2952 303.107 55.5662 299.919C55.6152 299.803 55.6419 299.68 55.6434 299.554C55.6449 299.429 55.6196 299.305 55.5721 299.189C55.5246 299.071 55.4534 298.966 55.3643 298.878C55.2752 298.791 55.1683 298.721 55.0524 298.675C54.9351 298.627 54.8104 298.605 54.6857 298.608C54.5595 298.611 54.4362 298.638 54.3219 298.69C54.2061 298.74 54.1036 298.815 54.0175 298.907C53.9329 298.999 53.866 299.107 53.823 299.224C52.6381 302.199 50.7984 305.03 48.191 307.872C48.0692 308.007 47.9876 308.175 47.9579 308.355C47.9297 308.534 47.9519 308.718 48.0262 308.885C48.1004 309.051 48.2207 309.194 48.3736 309.293C48.5251 309.391 48.7033 309.445 48.8859 309.445H48.8918ZM56.4007 290.026H56.4378C56.6858 290.015 56.9204 289.907 57.0896 289.724C57.2589 289.542 57.348 289.3 57.3391 289.05C57.1743 284.939 56.172 281.472 54.2788 278.456C54.2135 278.35 54.1274 278.26 54.0279 278.189C53.9269 278.117 53.8141 278.067 53.6938 278.039C53.5735 278.012 53.4488 278.008 53.3271 278.028C53.2053 278.049 53.0895 278.094 52.9856 278.159C52.8801 278.224 52.7895 278.31 52.7183 278.41C52.647 278.511 52.5965 278.624 52.5683 278.744C52.5416 278.864 52.5371 278.989 52.5579 279.111C52.5787 279.233 52.6232 279.348 52.6886 279.452C54.4051 282.186 55.3108 285.353 55.4637 289.126C55.4726 289.368 55.5751 289.597 55.7503 289.764C55.9255 289.932 56.1572 290.027 56.4007 290.026ZM45.7544 272.634C45.9578 272.634 46.1568 272.569 46.3201 272.445C46.4834 272.322 46.6022 272.15 46.6586 271.954C46.7151 271.758 46.7062 271.548 46.6319 271.358C46.5592 271.168 46.4255 271.006 46.2533 270.898C43.4157 269.134 40.3317 267.68 36.5988 265.97C36.486 265.918 36.3657 265.89 36.2425 265.885C36.1193 265.881 35.996 265.9 35.8802 265.943C35.7644 265.986 35.6589 266.052 35.5684 266.135C35.4778 266.219 35.405 266.32 35.3531 266.432C35.3011 266.545 35.2729 266.665 35.2684 266.788C35.264 266.913 35.2833 267.035 35.3263 267.15C35.3694 267.266 35.4347 267.373 35.5194 267.462C35.6025 267.553 35.7035 267.627 35.8163 267.677C39.4928 269.361 42.5204 270.785 45.2659 272.505C45.4158 272.594 45.5895 272.638 45.7648 272.634H45.7544ZM26.5717 263.028C26.7796 263.03 26.983 262.962 27.1478 262.835C27.3127 262.709 27.4315 262.531 27.4834 262.331C27.5369 262.129 27.5205 261.916 27.4389 261.725C27.3587 261.533 27.2147 261.374 27.0335 261.273C23.6199 259.34 20.8655 257.319 18.6189 255.107C18.4407 254.932 18.2002 254.834 17.9508 254.837C17.7013 254.838 17.4637 254.939 17.2885 255.117C17.1133 255.295 17.0168 255.534 17.0183 255.784C17.0198 256.033 17.1207 256.272 17.2989 256.448C19.6672 258.788 22.5493 260.907 26.1114 262.923C26.2555 263 26.4188 263.036 26.5836 263.028H26.5717ZM11.8852 247.988C12.0188 247.99 12.1524 247.96 12.2742 247.904C12.3855 247.852 12.488 247.779 12.5711 247.69C12.6558 247.599 12.7211 247.494 12.7642 247.378C12.8072 247.262 12.828 247.139 12.8236 247.016C12.8177 246.893 12.7894 246.771 12.7375 246.66C11.3269 243.482 10.3884 240.116 9.9519 236.668C9.91775 236.42 9.78709 236.197 9.58812 236.047C9.39064 235.896 9.13971 235.831 8.89323 235.865C8.64674 235.897 8.42399 236.028 8.27254 236.227C8.12257 236.425 8.05724 236.675 8.08991 236.922C8.55615 240.552 9.54952 244.097 11.0403 247.439C11.1145 247.602 11.2333 247.741 11.3818 247.837C11.5318 247.935 11.707 247.987 11.8852 247.988ZM9.90289 227.19C10.0959 227.19 10.283 227.131 10.4404 227.021C10.5978 226.913 10.7181 226.757 10.7849 226.577C11.8585 223.627 13.7086 220.822 16.4169 218.027C16.5684 217.846 16.6456 217.613 16.6337 217.377C16.6218 217.141 16.5208 216.918 16.3516 216.753C16.1823 216.589 15.9566 216.494 15.7205 216.488C15.4829 216.482 15.2543 216.565 15.0761 216.721C12.1851 219.708 10.2088 222.719 9.03428 225.93C8.9927 226.046 8.97338 226.169 8.97784 226.292C8.98378 226.415 9.01349 226.537 9.06546 226.648C9.11743 226.76 9.19018 226.861 9.28224 226.944C9.37281 227.027 9.47825 227.092 9.59555 227.134C9.69058 227.17 9.79304 227.187 9.89549 227.19H9.90289ZM24.0089 211.503C24.2004 211.504 24.3875 211.447 24.5449 211.337C27.0038 209.64 29.7923 207.896 33.5876 205.684C33.7717 205.546 33.8994 205.344 33.9454 205.118C33.9915 204.891 33.9514 204.656 33.8341 204.457C33.7183 204.258 33.5312 204.108 33.3114 204.039C33.0917 203.967 32.8541 203.981 32.6432 204.074C28.8064 206.312 25.9793 208.079 23.4803 209.806C23.3155 209.919 23.1907 210.083 23.1254 210.272C23.0615 210.462 23.0586 210.667 23.118 210.859C23.1774 211.05 23.2976 211.216 23.4595 211.335C23.6213 211.454 23.8158 211.516 24.0163 211.516L24.0089 211.503ZM42.4254 200.468C42.5902 200.469 42.7535 200.425 42.8961 200.341C45.5049 198.833 48.9082 196.827 52.0991 194.689C52.2045 194.622 52.2966 194.534 52.3678 194.432C52.4391 194.328 52.4896 194.212 52.5148 194.09C52.5401 193.967 52.5416 193.841 52.5178 193.718C52.494 193.594 52.4451 193.477 52.3753 193.373C52.3055 193.269 52.2164 193.18 52.111 193.112C52.0055 193.042 51.8883 192.996 51.765 192.974C51.6418 192.95 51.5156 192.953 51.3938 192.98C51.2706 193.008 51.1547 193.058 51.0523 193.131C47.9074 195.237 44.5398 197.22 41.9562 198.717C41.778 198.821 41.6384 198.98 41.5597 199.17C41.481 199.361 41.4662 199.572 41.5196 199.773C41.5731 199.972 41.6919 200.148 41.8552 200.275C42.0185 200.399 42.219 200.468 42.4254 200.468ZM60.0222 188.25C60.2642 188.249 60.4974 188.152 60.6696 187.982C63.6705 185.134 65.8532 182.278 67.338 179.257C67.3959 179.145 67.4301 179.025 67.439 178.9C67.4479 178.776 67.433 178.651 67.3944 178.534C67.3544 178.415 67.292 178.305 67.2103 178.211C67.1287 178.118 67.0291 178.041 66.9178 177.986C66.8064 177.931 66.6847 177.898 66.5599 177.891C66.4352 177.883 66.3105 177.901 66.1932 177.943C66.0759 177.983 65.9675 178.048 65.8755 178.131C65.7819 178.214 65.7076 178.315 65.6542 178.428C64.2673 181.249 62.2138 183.928 59.3763 186.623C59.2442 186.752 59.1536 186.919 59.115 187.101C59.0764 187.282 59.0927 187.471 59.1625 187.643C59.2323 187.815 59.3496 187.962 59.504 188.068C59.6569 188.173 59.8381 188.23 60.0222 188.231V188.25ZM69.8029 169.616C70.0226 169.616 70.2349 169.54 70.4027 169.4C70.572 169.259 70.6863 169.065 70.7249 168.849C71.0843 166.943 71.2624 165.008 71.2609 163.07C71.2609 161.32 71.105 159.572 70.7947 157.848C70.7517 157.603 70.6106 157.387 70.4072 157.244C70.2022 157.103 69.9498 157.046 69.7048 157.091C69.4598 157.136 69.2431 157.275 69.1005 157.48C68.958 157.683 68.903 157.936 68.9476 158.181C69.2386 159.795 69.3841 161.431 69.3841 163.07C69.3811 164.894 69.2089 166.714 68.8689 168.505C68.8451 168.642 68.8496 168.781 68.8837 168.913C68.9193 169.047 68.9817 169.172 69.0708 169.277C69.1584 169.383 69.2683 169.469 69.393 169.527C69.5178 169.586 69.6544 169.616 69.7924 169.616H69.8029ZM66.2956 148.904C66.4471 148.904 66.5985 148.865 66.7322 148.792C66.8421 148.736 66.9401 148.657 67.0188 148.562C67.099 148.467 67.1583 148.357 67.1955 148.238C67.2311 148.12 67.2445 147.995 67.2326 147.872C67.2207 147.748 67.1851 147.628 67.1272 147.52C65.3958 144.321 63.3675 141.295 61.069 138.48C60.9101 138.291 60.6859 138.174 60.4409 138.15C60.1974 138.127 59.9539 138.199 59.7623 138.354C59.5723 138.508 59.449 138.73 59.4193 138.973C59.3896 139.217 59.4579 139.462 59.6079 139.656C61.8307 142.379 63.7937 145.307 65.4671 148.399C65.5458 148.549 65.6631 148.675 65.8071 148.764C65.9526 148.853 66.1175 148.901 66.2867 148.904H66.2956ZM53.1147 132.094C53.3018 132.095 53.4844 132.04 53.6389 131.936C53.7948 131.832 53.9151 131.685 53.9863 131.512C54.0576 131.339 54.0754 131.149 54.0368 130.967C53.9997 130.784 53.9076 130.616 53.774 130.486C51.3879 128.134 48.7032 125.691 45.7974 123.223C45.6059 123.073 45.3639 123.004 45.1233 123.027C44.8813 123.051 44.6585 123.168 44.5012 123.354C44.3438 123.538 44.2651 123.777 44.2799 124.019C44.2948 124.261 44.4032 124.488 44.5813 124.653C47.4545 127.09 50.1035 129.504 52.4584 131.824C52.6307 131.994 52.8638 132.092 53.1073 132.094H53.1147ZM36.8245 118.166C37.0205 118.166 37.2106 118.104 37.3709 117.989C37.5298 117.875 37.6486 117.713 37.711 117.527C37.7748 117.342 37.7778 117.141 37.7199 116.954C37.6635 116.766 37.5477 116.601 37.3932 116.482C36.0094 115.426 34.5601 114.337 33.102 113.264C31.6439 112.191 30.1843 111.119 28.8109 110.046C28.6134 109.895 28.3639 109.828 28.1175 109.861C27.8695 109.893 27.6467 110.023 27.4953 110.22C27.3438 110.418 27.277 110.668 27.3097 110.915C27.3423 111.162 27.4715 111.386 27.669 111.537C29.047 112.594 30.5006 113.682 31.9884 114.768C33.4777 115.855 34.8853 116.914 36.2603 117.957C36.4207 118.087 36.6181 118.16 36.8245 118.166ZM19.93 104.978C20.0637 104.979 20.1973 104.95 20.3191 104.895C20.4408 104.839 20.5507 104.758 20.6383 104.656C20.7185 104.563 20.7808 104.455 20.8194 104.338C20.8595 104.221 20.8759 104.098 20.867 103.975C20.8581 103.852 20.8254 103.732 20.7705 103.621C20.7155 103.511 20.6398 103.412 20.5462 103.331C17.6478 100.808 15.0627 98.3381 12.8637 95.9943C12.6914 95.8218 12.4583 95.723 12.2148 95.7192C11.9713 95.7152 11.7352 95.8063 11.557 95.9734C11.3788 96.1404 11.2734 96.3701 11.2615 96.6138C11.2511 96.8575 11.3343 97.0961 11.4961 97.2789C13.7382 99.6683 16.3679 102.181 19.3123 104.747C19.4801 104.893 19.6925 104.975 19.9137 104.978H19.93ZM5.52112 89.1938C5.6904 89.1961 5.85818 89.1526 6.0037 89.0678C6.1507 88.9831 6.27099 88.8603 6.35414 88.7124C6.4358 88.5645 6.47739 88.3971 6.47293 88.2279C6.46699 88.0586 6.41651 87.8938 6.32593 87.7511C4.18034 84.3882 2.89892 81.2856 2.39408 78.2634C2.37923 78.1382 2.33765 78.0177 2.2738 77.9088C2.20995 77.7998 2.12532 77.705 2.02287 77.6298C1.9219 77.5545 1.80608 77.5005 1.68432 77.4709C1.56108 77.4412 1.43338 77.4368 1.31014 77.4574C1.18541 77.4782 1.06661 77.5238 0.959701 77.5917C0.852792 77.6594 0.760758 77.748 0.689486 77.852C0.618214 77.956 0.56918 78.0733 0.543938 78.197C0.518696 78.3207 0.518696 78.4483 0.543938 78.5718C1.07997 81.8488 2.46384 85.182 4.74307 88.762C4.82622 88.8909 4.93761 88.9975 5.07125 89.0727C5.2034 89.148 5.35336 89.1896 5.50481 89.1938H5.52112ZM2.89297 68.8964C3.07412 68.8964 3.25229 68.844 3.40374 68.7456C3.55668 68.6471 3.67697 68.5067 3.75121 68.3414C5.16478 65.2013 7.38018 62.3158 9.56289 59.6637C9.64456 59.5691 9.7084 59.4589 9.74701 59.3397C9.78562 59.2206 9.80043 59.0947 9.79004 58.9698C9.77965 58.8448 9.7455 58.7231 9.68611 58.612C9.6282 58.5008 9.54953 58.4023 9.45153 58.3226C9.35501 58.2429 9.24362 58.1833 9.12335 58.1474C9.00308 58.1116 8.87686 58.1003 8.75214 58.114C8.62741 58.1278 8.50716 58.1664 8.39728 58.2276C8.2874 58.2889 8.1909 58.3713 8.11517 58.4703C5.84931 61.2216 3.54184 64.2305 2.0377 67.5718C1.98721 67.6842 1.95899 67.8057 1.95602 67.9289C1.95157 68.0523 1.97238 68.1751 2.01692 68.2905C2.05998 68.4057 2.12681 68.5113 2.21145 68.601C2.29608 68.6908 2.39705 68.763 2.5099 68.8134C2.62572 68.866 2.75044 68.8942 2.87665 68.8964H2.89297Z" fill="black"/>
</svg>
