<svg width="108" height="217" viewBox="0 0 108 217" fill="none" xmlns="http://www.w3.org/2000/svg">
<path d="M48.8054 139.058H48.6917C48.4657 139.027 48.2604 138.908 48.1218 138.726C47.9831 138.546 47.9221 138.317 47.9512 138.09C50.6039 117.57 56.7399 97.4853 67.2605 74.8758C67.3576 74.6678 67.5323 74.5068 67.7486 74.4281C67.9636 74.3493 68.2021 74.3594 68.4087 74.4559C68.6167 74.5526 68.7789 74.7278 68.8566 74.9432C68.9356 75.1585 68.9259 75.3962 68.8289 75.6042C58.3817 98.0483 52.2845 117.972 49.6651 138.324C49.6332 138.529 49.5292 138.716 49.3711 138.851C49.2145 138.985 49.0134 139.059 48.8054 139.058Z" fill="black"/>
<path d="M59.1373 139H59.2512C59.4776 138.966 59.6831 138.836 59.822 138.636C59.9609 138.438 60.022 138.187 59.9929 137.938C57.3358 115.413 51.1897 93.3671 40.6517 68.5492C40.5545 68.3209 40.3795 68.1442 40.1628 68.0577C39.9475 67.9712 39.7086 67.9824 39.5016 68.0883C39.2933 68.1944 39.1308 68.3868 39.053 68.6232C38.9738 68.8595 38.9836 69.1204 39.0808 69.3488C49.5452 93.985 55.6524 115.855 58.2761 138.195C58.3081 138.42 58.4123 138.626 58.5706 138.773C58.7275 138.921 58.9289 139.002 59.1373 139Z" fill="black"/>
<path d="M49.0008 139.213C47.9414 139.213 43.8494 137.95 39.5729 135.149C35.4545 132.45 30.1352 127.602 28.1939 119.84C27.3716 116.551 27.8708 112.478 30.4167 111.058C32.1445 110.096 35.3283 110.093 40.6614 115.562C46.7586 121.814 49.0369 131.339 49.88 138.226C49.9091 138.454 49.8481 138.686 49.7094 138.87C49.5708 139.055 49.3669 139.177 49.1381 139.213C49.0924 139.217 49.0466 139.217 49.0008 139.213ZM29.8704 119.42C32.8212 131.22 44.4401 136.252 48.0108 137.287C47.2121 131.688 45.0793 122.567 39.419 116.766C35.9079 113.163 32.9308 111.631 31.2557 112.567C29.582 113.503 29.2159 116.795 29.8704 119.42Z" fill="black"/>
<path d="M104.616 142.864H2.98977C1.81526 142.864 0.864014 143.816 0.864014 144.991V213.98C0.864014 215.155 1.81526 216.106 2.98977 216.106H104.616C105.79 216.106 106.743 215.155 106.743 213.98V144.991C106.743 143.816 105.79 142.864 104.616 142.864Z" fill="#FFF129"/>
<path d="M104.617 216.97H2.98966C2.19649 216.97 1.4366 216.655 0.876383 216.094C0.314783 215.534 0 214.774 0 213.98V144.991C0 144.198 0.314783 143.438 0.876383 142.876C1.4366 142.316 2.19649 142.001 2.98966 142H104.617C105.409 142.001 106.17 142.316 106.73 142.876C107.291 143.438 107.607 144.198 107.607 144.991V213.98C107.607 214.774 107.291 215.534 106.73 216.094C106.17 216.655 105.409 216.97 104.617 216.97ZM2.98966 143.729C2.65547 143.729 2.33376 143.862 2.09803 144.098C1.86091 144.335 1.7278 144.655 1.7278 144.991V213.98C1.7278 214.315 1.86091 214.636 2.09803 214.872C2.33376 215.109 2.65547 215.242 2.98966 215.242H104.617C104.951 215.242 105.272 215.109 105.509 214.872C105.746 214.636 105.878 214.315 105.878 213.98V144.991C105.878 144.655 105.746 144.335 105.509 144.098C105.272 143.862 104.951 143.729 104.617 143.729H2.98966Z" fill="#FFF129"/>
<path d="M55.0175 215.505C54.7887 215.505 54.5682 215.415 54.4059 215.253C54.2451 215.091 54.1536 214.87 54.1536 214.641V140.864C54.1536 140.635 54.2451 140.415 54.4059 140.252C54.5682 140.09 54.7887 140 55.0175 140C55.2476 140 55.4668 140.09 55.629 140.252C55.7912 140.415 55.8814 140.635 55.8814 140.864V214.641C55.8828 214.755 55.8606 214.868 55.8176 214.973C55.7732 215.078 55.7094 215.173 55.629 215.253C55.55 215.333 55.4543 215.397 55.3489 215.44C55.2435 215.485 55.1312 215.507 55.0175 215.505Z" fill="black"/>
<path d="M106.743 170.824H0.863908C0.635108 170.824 0.414623 170.733 0.252383 170.571C0.0901428 170.408 0 170.189 0 169.959C0 169.73 0.0901428 169.511 0.252383 169.349C0.414623 169.187 0.635108 169.095 0.863908 169.095H106.743C106.972 169.095 107.192 169.187 107.353 169.349C107.515 169.511 107.607 169.73 107.607 169.959C107.607 170.189 107.515 170.408 107.353 170.571C107.192 170.733 106.972 170.824 106.743 170.824Z" fill="black"/>
<path d="M42.5016 67.6953C42.5016 67.6953 36.36 76.9626 38.0837 78.4688C39.8073 79.9752 42.6028 72.5426 44.3847 73.0833C46.1679 73.6241 49.3975 80.6246 51.8768 80.0862C54.3562 79.5479 50.7218 73.7278 47.097 67.2632C47.097 67.2607 46.7046 68.1225 42.5016 67.6953Z" fill="black"/>
<path d="M51.5883 80.9801C49.7634 80.9801 48.0842 78.7281 46.4548 76.5354C45.7365 75.5724 44.6619 74.1327 44.1807 73.9179C43.7231 74.0735 42.733 75.476 42.1354 76.3205C40.9803 77.9577 39.9819 79.3725 38.7824 79.5158C38.555 79.5429 38.3234 79.5208 38.1057 79.4509C37.8866 79.3811 37.6856 79.2651 37.515 79.1109C36.4001 78.1355 36.8092 76.039 38.8809 72.1029C40.2079 69.5892 41.718 67.3026 41.7832 67.2063C41.8691 67.0753 41.9912 66.9706 42.1326 66.9035C42.2754 66.8365 42.4335 66.8097 42.5902 66.8261C45.4176 67.115 46.2815 66.7742 46.4368 66.6977C46.527 66.5912 46.642 66.5083 46.771 66.4556C46.9 66.4029 47.04 66.3824 47.1787 66.3954C47.3174 66.4086 47.4505 66.455 47.5669 66.5307C47.6848 66.6066 47.7819 66.7096 47.8498 66.831L49.0077 68.8805C52.3246 74.7279 54.1606 78.1231 53.3688 79.8936C53.2509 80.1588 53.0706 80.3912 52.8418 80.5703C52.6144 80.7494 52.3454 80.8697 52.0598 80.9209C51.9058 80.9575 51.7477 80.9773 51.5883 80.9801ZM44.1807 72.182C44.3374 72.182 44.4941 72.2061 44.6439 72.2535C45.5979 72.54 46.484 73.6783 47.854 75.5105C48.9508 76.9922 50.791 79.4392 51.7062 79.2393C51.7394 79.235 51.7713 79.224 51.8004 79.2071C51.8004 79.2071 52.1221 78.7281 50.9976 76.2439C50.185 74.4537 48.8912 72.1671 47.5184 69.7473L46.7779 68.4385C45.9362 68.6855 44.6591 68.7521 42.9577 68.6089C42.4834 69.3497 41.4892 70.9399 40.5754 72.6462C38.5994 76.3502 38.6216 77.5181 38.6743 77.7873C39.1679 77.5625 40.1802 76.1304 40.7376 75.3402C41.908 73.6561 42.948 72.182 44.171 72.182H44.1807Z" fill="black"/>
<path d="M67.474 69.0933C67.474 69.0933 59.6352 72.5157 60.6045 74.4689C61.5724 76.4221 67.2855 71.7873 69.1187 72.2194C70.9504 72.6514 69.0091 78.037 71.1654 78.4667C73.3203 78.8963 72.7794 72.9725 72.7794 72.9725C72.7794 72.9725 73.427 76.3135 74.7208 76.3135C76.0145 76.3135 75.5139 72.8564 72.4979 69.513C72.4966 69.513 70.5178 70.1649 67.474 69.0933Z" fill="#A88CFF"/>
<path d="M71.3775 79.353C71.2485 79.3527 71.121 79.3404 70.9948 79.316C69.1838 78.9529 69.1672 76.8466 69.1547 75.1725C69.1547 74.5058 69.1381 73.2637 68.9079 73.0513C68.4433 72.9451 66.735 73.792 65.7158 74.2983C63.2849 75.5008 60.7765 76.7479 59.8308 74.8538C59.7254 74.6382 59.6657 74.403 59.6574 74.1633C59.6477 73.9235 59.6879 73.6844 59.7767 73.4612C60.5809 71.2536 66.0416 68.7695 67.1246 68.3004C67.3257 68.2129 67.5531 68.205 67.7597 68.2781C70.4485 69.2288 72.204 68.6955 72.2317 68.6905C72.3898 68.6409 72.5604 68.6377 72.7212 68.6815C72.8821 68.7252 73.0263 68.814 73.1372 68.9375C75.5029 71.5549 76.7605 74.7131 76.0644 76.2811C75.9549 76.5476 75.7691 76.7755 75.5292 76.9356C75.2907 77.0956 75.0092 77.1808 74.7208 77.1799C74.284 77.1745 73.8666 77.0043 73.5504 76.7034C73.3896 77.5997 73.0928 78.432 72.5631 78.8986C72.2372 79.1926 71.8157 79.3547 71.3775 79.353ZM68.8565 71.3253C69.0105 71.3245 69.1644 71.3419 69.3155 71.3772C70.8534 71.7377 70.8686 73.5551 70.8811 75.1576C70.8811 76.0466 70.9005 77.5331 71.3331 77.6269C71.3512 77.6296 71.3706 77.6296 71.39 77.6269C71.7991 77.4393 72.1305 75.3551 71.9211 73.0513C71.8989 72.8303 71.9641 72.6096 72.1014 72.4351C72.2386 72.2605 72.4369 72.1454 72.6574 72.1136C72.8765 72.0819 73.0998 72.1359 73.2814 72.2645C73.4617 72.3932 73.5865 72.5865 73.6295 72.8043C73.8167 73.7649 74.2091 74.7921 74.528 75.2367C74.5058 74.4464 73.9581 72.5698 72.1845 70.466C70.6162 70.6915 69.016 70.5382 67.517 70.0191C66.9541 70.2659 65.688 70.8759 64.4331 71.6018C61.8109 73.1228 61.4434 73.9179 61.3935 74.0712C61.9274 74.2341 63.8854 73.2661 64.9475 72.7378C66.4729 71.992 67.8193 71.3253 68.8565 71.3253Z" fill="#A88CFF"/>
<path d="M41.7584 68.8115C28.3146 68.8115 16.2853 55.0697 14.4397 37.0488C13.5064 27.9321 15.2842 19.0796 19.4455 12.1212C23.6582 5.08125 29.8011 0.814333 36.7456 0.103112C50.9852 -1.35622 64.1544 12.8471 66.0777 31.762C67.011 40.8787 65.2333 49.7311 61.0733 56.702C56.8606 63.742 50.7163 68.0089 43.7732 68.7201C43.1035 68.7848 42.4309 68.8154 41.7584 68.8115ZM38.7701 1.72787C38.153 1.72718 37.5374 1.75852 36.9231 1.82175C30.5319 2.47612 24.8535 6.44919 20.9293 13.0077C16.9565 19.6501 15.2495 28.1247 16.1591 36.8735C17.9146 54.003 29.1869 67.0828 41.7487 67.0828C42.3657 67.0835 42.9828 67.0522 43.5971 66.9891C49.9855 66.3347 55.6653 62.3617 59.5895 55.8032C63.5623 49.1607 65.2679 40.6861 64.3597 31.9374C62.6069 14.8077 51.3333 1.72787 38.7701 1.72787Z" fill="black"/>
<path d="M100.629 43.0206C104.365 25.549 96.8242 9.12518 83.7854 6.33715C70.7466 3.54898 57.1475 15.4523 53.4118 32.924C49.6762 50.3956 57.2168 66.8193 70.2557 69.6074C83.2945 72.3955 96.8935 60.4922 100.629 43.0206Z" fill="#FFEF00"/>
<path d="M74.0594 70.871C72.7185 70.8712 71.3817 70.7297 70.0713 70.4487C63.4902 69.0413 58.0503 64.3124 54.7612 57.1292C51.5039 50.0325 50.7246 41.3702 52.5716 32.74C54.4186 24.1098 58.6674 16.5242 64.5441 11.3806C70.4915 6.1752 77.3846 4.08383 83.9713 5.49129C97.4538 8.37293 105.308 25.2901 101.481 43.1975C98.0182 59.3443 86.2274 70.871 74.0594 70.871ZM79.9291 6.79254C75.0398 6.79254 70.088 8.81735 65.6728 12.6819C60.0748 17.5809 56.0189 24.8334 54.2509 33.103C52.4829 41.3727 53.2178 49.6473 56.3239 56.4083C59.3885 63.0754 64.3985 67.4682 70.4319 68.7548C82.9826 71.4389 96.149 59.8109 99.7793 42.8271C103.41 25.8506 96.1518 9.85458 83.5983 7.17041C82.3919 6.91582 81.1619 6.78908 79.9291 6.79254Z" fill="#FFEF00"/>
<path fill-rule="evenodd" clip-rule="evenodd" d="M65.2206 31.8385C67.1134 50.3093 57.4733 66.4279 43.6885 67.8402C29.9022 69.2525 17.1934 55.424 15.3006 36.953C13.4092 18.4822 23.0493 2.36361 36.8342 0.951288C50.619 -0.461033 63.3292 13.3675 65.2206 31.8385ZM50.3014 10.7058C50.1794 10.7054 50.0574 10.679 49.9451 10.6283C49.8342 10.5777 49.7343 10.504 49.6525 10.412C48.062 8.61596 45.9723 7.33565 43.6496 6.73522C43.5373 6.70985 43.4305 6.66201 43.3362 6.59475C43.2419 6.5275 43.1629 6.44208 43.1033 6.34363C43.0423 6.24504 43.002 6.13549 42.9854 6.02123C42.9674 5.90697 42.9743 5.79035 43.0021 5.67844C43.0312 5.56654 43.0811 5.46143 43.1518 5.36936C43.2212 5.27742 43.3085 5.20033 43.4097 5.14278C43.5096 5.08523 43.6205 5.04834 43.7342 5.0342C43.8493 5.0202 43.9658 5.02935 44.0767 5.0611C46.735 5.7457 49.1284 7.20725 50.9518 9.25882C51.1016 9.43132 51.1779 9.65651 51.164 9.88504C51.1487 10.1137 51.0433 10.3271 50.8728 10.4787C50.7175 10.6225 50.5136 10.7034 50.3014 10.7058Z" fill="black"/>
</svg>
