<svg width="241" height="156" viewBox="0 0 241 156" fill="none" xmlns="http://www.w3.org/2000/svg">
<path d="M161.973 78.2247C162.433 76.186 161.95 73.9836 163.687 72.0584C164.563 71.8033 165.022 71.5841 165.668 71.3093C172.309 69.1639 178.763 67.0742 185.446 64.9103C182.39 60.8087 179.527 56.9825 176.688 53.1412C176.206 52.4884 175.678 52.5219 175.039 52.6902C175.035 52.2628 175.034 52.0186 175.106 51.5771C174.477 49.6324 173.773 47.8849 173.133 46.296C171.882 46.0543 171.044 47.2953 169.794 46.2619C170.416 45.9518 170.888 45.7157 171.361 45.4808C173.698 44.3191 175.036 42.5312 175.308 40.135C175.74 36.3311 172.395 34.1425 168.591 35.7103C168.251 35.8506 167.927 36.0558 167.57 36.1262C160.639 37.4934 153.798 34.2052 151.11 28.2181C150.78 27.4829 150.518 26.7226 150.044 25.5151C147.494 29.9004 143.645 32.0859 139.072 33.3863C139.001 33.4065 138.963 33.5221 138.765 33.586C138.336 33.5693 138.049 33.5598 137.763 33.5503C136.718 33.2266 136.678 32.4986 136.8 31.6671C138.605 19.3393 148.511 7.06138 166.711 8.10879C170.258 8.31294 173.753 9.26661 177.245 9.86982C177.878 3.67991 180.722 0.458689 186.169 0.0287579C190.656 -0.325435 194.864 2.62885 195.903 6.86338C196.991 11.2983 194.349 14.8373 188.342 17.0853C190.143 20.3681 191.957 23.6498 193.746 26.9431C195.27 29.749 197.466 31.2488 201.184 31.1153C207.206 30.8991 211.778 33.4779 214.961 38.0548C215.552 38.905 215.95 39.9185 216.194 40.906C217.898 47.8098 222.109 52.7429 229.556 55.2476C234.94 57.0584 238.862 60.213 240.483 65.3819C241.152 67.5176 241.174 69.2443 240.537 71.689C225.108 71.689 209.618 71.689 193.645 71.689C194.279 72.844 194.702 73.6613 195.168 74.458C203.112 88.043 210.202 101.965 215.359 116.646C217.878 123.815 219.773 131.109 220.554 138.616C220.642 139.463 220.645 140.317 220.7 141.44C218.518 141.44 216.462 141.44 214.052 141.288C214.271 139.801 216.3 139.299 216.355 137.284C214.558 138.052 213.581 139.196 212.651 140.389C211.822 141.168 210.848 141.471 209.626 141.413C207.758 141.324 205.88 141.389 203.772 141.389C203.898 142.23 204.006 142.946 203.933 143.855C203.531 144.049 203.308 144.051 203.021 143.846C202.734 142.921 202.513 142.202 202.331 141.612C190.471 141.376 178.814 141.199 167.161 140.87C164.597 140.797 162.523 141.107 161.25 143.339C161.154 143.509 160.761 143.539 160.407 143.672C159.265 142.942 158.097 142.215 156.953 141.457C155.907 140.765 154.89 140.65 153.592 141.432C153.141 141.376 152.96 141.355 152.886 141.13C153.275 140.515 153.557 140.103 153.898 139.605C153.155 139.092 152.577 138.668 151.971 138.278C147.503 135.403 143.036 132.526 138.55 129.673C137.791 129.191 136.943 128.823 136.048 128.287C135.659 128.113 135.36 128.054 135.039 127.817C133.679 126.719 132.341 125.8 131 124.731C131.009 124.382 131.02 124.183 131.032 123.985C132.268 123.946 132.396 122.937 132.867 122.242C137.45 115.492 141.785 108.59 146.681 102.032C150.401 97.0488 154.748 92.4402 158.996 87.7997C160.213 86.4699 160.999 85.1672 161.182 83.4894C161.323 82.2037 161.551 80.9259 161.927 79.3702C162.067 78.8054 162.02 78.515 161.973 78.2247ZM190.237 84.2012C189.747 84.9395 189.637 85.6541 190.739 86.3755C190.851 85.5497 190.963 84.7238 191.165 83.42C191.175 82.0462 191.235 80.671 191.184 79.2992C191.133 77.943 191.444 76.5305 190.444 75.2476C190.057 78.1423 189.428 81.0125 190.237 84.2012ZM191.37 93.7687C191.961 93.1476 192.553 92.5265 193.527 91.5043C191.571 91.6224 191.062 92.2302 190.685 93.4625C188.27 94.5634 185.715 97.1152 185.259 99.2699C187.828 97.5393 189.672 95.7505 191.37 93.7687ZM192.336 131.544C191.767 132.502 192.574 132.544 193.221 132.55C196.263 132.577 199.306 132.581 202.348 132.541C202.738 132.535 203.123 132.222 203.511 132.051C203.497 131.836 203.483 131.621 203.468 131.407C199.925 131.374 196.379 131.366 192.336 131.544ZM163.977 122.405C163.438 123.402 161.512 123.711 162.164 125.718C165.043 123.25 167.504 120.862 169.652 118.164C167.281 118.866 165.966 120.723 163.977 122.405ZM204.227 102.908C203.158 103.878 202.013 104.789 201.042 105.833C200.103 106.844 198.372 107.417 198.457 109.223C200.166 108.498 205.215 104.199 206.038 102.78C206.117 102.643 205.866 102.35 205.685 101.942C205.229 102.218 204.866 102.439 204.227 102.908ZM157.288 101.236C158.583 100.55 160.397 100.63 161.352 98.9834C159.015 98.8307 157.366 99.9949 155.577 100.621C151.232 102.14 151.26 102.207 150.288 103.762C152.78 102.879 154.841 102.149 157.288 101.236ZM183.077 73.8825C183.597 73.5558 184.118 73.2292 184.638 72.9026C184.511 72.6868 184.383 72.471 184.255 72.2551C182.449 72.8869 180.631 73.4914 178.84 74.1558C174.501 75.7647 174.506 75.7759 173.865 77.267C176.997 76.1196 179.842 75.0774 183.077 73.8825ZM202.393 121.385C204.254 120.603 206.372 120.251 208.159 118.765C205.633 118.58 198.417 121.339 196.9 123.297C198.967 122.592 200.484 122.074 202.393 121.385ZM161.016 134.268C159.635 134.383 158.258 133.322 156.616 134.109C158.861 135.411 164.922 136.388 167.379 135.919C165.618 134.606 163.4 134.947 161.016 134.268ZM177.272 134.443C178.868 132.994 180.49 131.568 182.038 130.079C182.363 129.768 182.416 129.224 182.594 128.787C182.405 128.684 182.216 128.581 182.028 128.478C180.765 129.591 179.491 130.694 178.242 131.82C175.292 134.48 175.297 134.485 175.396 135.812C175.986 135.399 176.486 135.05 177.272 134.443ZM187.017 109.461C188.344 109.698 189.66 110.192 191.597 109.642C189.446 108.449 187.546 108.408 185.651 108.221C183.846 108.044 182.133 106.931 180.255 107.584C180.215 107.794 180.175 108.004 180.136 108.214C182.272 108.609 184.409 109.004 187.017 109.461ZM147.701 124.885C147.521 126.073 147.272 127.258 147.182 128.453C147.101 129.531 146.411 130.696 147.7 132.093C148.5 128.955 149.097 126.187 148.973 123.32C148.97 123.257 148.656 123.204 148.326 123.092C148.144 123.562 147.966 124.024 147.701 124.885ZM171.274 105.002C172.38 100.265 172.571 97.8528 171.936 96.6293C171.794 96.7199 171.542 96.7957 171.524 96.9032C171.094 99.5229 170.68 102.145 170.307 104.772C170.289 104.895 170.682 105.066 171.274 105.002ZM188.023 119.063C189.61 119.989 190.786 121.527 192.999 121.971C191.909 120.035 187.366 116.755 185.174 116.251C185.377 117.712 186.897 118 188.023 119.063ZM214.247 132.372C215.009 129.445 214.794 122.57 213.721 121.057C213.572 121.809 213.384 122.344 213.374 122.882C213.338 124.944 213.315 127.008 213.376 129.07C213.408 130.152 213.625 131.23 214.247 132.372ZM170.842 86.5191C172.458 86.5192 174.081 86.605 175.688 86.4943C177.139 86.3943 178.786 87.0525 180.204 85.7912C177.381 85.1363 170.577 85.2184 168.244 86.0501C169.198 86.2682 169.744 86.3932 170.842 86.5191ZM154.571 111.852C152.953 111.852 151.33 111.779 149.719 111.874C148.252 111.96 146.645 111.431 145.083 112.459C148.041 113.364 155.233 113.195 156.81 112.15C156.135 112.032 155.621 111.943 154.571 111.852Z" fill="#030303"/>
<path d="M56.5815 152.904C55.5662 152.948 54.5133 152.849 53.5423 153.062C49.952 153.85 46.3891 154.742 42.8152 155.592C42.3577 155.701 41.9016 155.83 41.4356 155.891C38.1141 156.324 36.5161 155.51 35.2392 152.625C31.8973 145.072 28.5681 137.515 25.2745 129.945C19.5285 116.738 13.8131 103.52 8.08461 90.3075C5.53448 84.4255 2.98024 78.5449 0.440498 72.6591C0.237773 72.1893 0.133673 71.6839 0 71.248C4.66121 67.5794 9.90026 68.4666 12.4214 73.4293C16.3354 81.1338 20.0808 88.91 23.8863 96.6604C26.7209 102.433 29.5386 108.213 32.3615 113.991C32.9413 115.178 33.5107 116.369 34.1706 117.919C35.1385 119.758 35.2992 121.636 37.1033 122.597C37.0852 122.603 37.0718 122.57 37.0628 122.772C37.0662 123.146 37.0269 123.34 37.0986 123.488C40.1932 129.901 43.2591 136.325 46.424 142.709C47.4004 144.679 48.9723 145.292 51.3289 144.829C55.3005 144.049 59.2562 143.201 63.3395 142.506C65.1087 144.169 65.9568 141.873 67.1533 141.857C67.4601 142.994 67.7321 144.002 68.044 145.157C69.3459 144.621 70.352 143.813 71.1215 143.971C72.8624 144.327 73.5554 143.393 74.3533 142.437C75.0974 141.545 75.7828 140.612 76.7174 139.696C80.1191 139.073 83.2973 138.452 86.6767 137.789C89.2679 139.318 91.6581 140.887 94 142.64C93.4746 143.034 93.0146 143.29 92.5172 143.445C90.6881 144.017 88.8466 144.556 86.8374 145.225C83.8841 145.848 81.0626 146.214 78.3309 146.887C72.7743 148.254 67.2662 149.787 61.5042 151.248C60.0394 151.536 58.8083 151.827 57.3907 152.17C56.9596 152.442 56.7152 152.662 56.5028 152.87C56.5348 152.857 56.5815 152.904 56.5815 152.904Z" fill="#9C8DF2"/>
<path d="M135.114 128.162C135.411 128.221 135.709 128.279 136 128.615C134.455 131.238 132.916 133.584 131.331 136C130.575 135.672 130.067 135.462 129.568 135.235C118.825 130.365 108.138 125.389 97.3255 120.652C86.5329 115.924 75.9664 110.66 64.1978 108.063C64.1237 108.047 64.0743 107.937 64.0042 107.726C63.9976 107.387 64.0001 107.194 64.0027 107C69.5108 107.92 74.7294 109.663 79.8083 111.757C84.5379 113.707 89.2974 115.62 93.8866 117.824C97.8867 119.744 102.019 120.84 106.507 121.265C114.581 122.031 122.624 123.062 130.895 124.062C131.097 124.341 131.085 124.54 130.829 124.922C127.777 124.77 124.971 124.432 122.164 124.101C119.262 123.759 116.369 123.324 113.456 123.115C110.765 122.923 108.097 122.181 104.835 122.547C113.811 126.647 122.291 130.521 130.817 134.416C132.317 132.233 133.715 130.198 135.114 128.162Z" fill="#2C2C2C"/>
<path d="M63.8441 106.733C64.0576 107.011 64.055 107.212 63.8168 107.607C60.3557 107.358 57.1412 106.808 53.8761 107.593C47.8474 109.044 42.7337 112.021 37.8992 115.834C37.3272 116.333 36.9233 116.761 36.5194 117.188C36.5982 117.292 36.6769 117.396 36.7556 117.5C37.2065 117.306 37.6574 117.112 38.3112 116.876C40.5094 115.488 42.4791 114.105 44.5248 112.828C44.8798 112.606 45.5563 112.834 45.9354 112.849C44.5461 114.313 43.31 115.676 42.002 116.977C40.6834 118.288 39.2211 119.488 38.6852 121.376C40.3313 120.576 41.6898 119.504 43.1187 118.52C44.5567 117.531 45.4883 115.877 47.7987 115.264C46.5817 118.331 43.4836 119.912 42.7502 123.205C45.7293 122.208 46.6408 119.326 49.0616 118.358C49.2224 118.508 49.3831 118.658 49.5439 118.808C48.3959 120.292 47.248 121.775 45.9309 123.337C45.5186 123.839 45.2753 124.263 45.0321 124.687C45.1463 124.776 45.2605 124.866 45.3748 124.955C45.8562 124.612 46.3375 124.269 46.9902 123.841C48.1044 123.049 49.0126 122.295 50.0085 121.662C50.3644 121.435 50.9323 121.5 51.4035 121.432C51.3707 121.597 51.3598 121.763 51.2085 122.154C49.5486 123.449 48.1188 124.622 46.5219 125.543C45.8382 125.937 44.4853 126.184 44.0044 125.828C43.1684 125.209 42.739 125.579 42.0396 125.799C40.5055 126.283 40.0314 125.844 40.2693 124.264C40.3344 123.831 40.5107 123.413 40.7578 122.894C40.8256 122.525 40.7717 122.251 40.7178 121.976C40.5082 122.114 40.2986 122.251 39.8669 122.459C38.7492 122.612 37.8535 122.695 36.9579 122.777C36.9579 122.777 36.9714 122.811 36.9464 122.59C37.2791 121.144 37.6369 119.92 37.9432 118.872C36.984 118.567 35.992 118.25 35 117.934C35.3589 117.225 35.528 116.315 36.1066 115.838C41.0367 111.779 46.3789 108.315 52.791 106.595C56.389 105.63 60.0197 105.957 63.8441 106.733ZM42.7351 123.613C42.6198 123.541 42.5045 123.469 42.3892 123.397C42.4084 123.559 42.4276 123.72 42.7351 123.613Z" fill="#222222"/>
<path d="M138 34.1582C138.291 33.9368 138.575 33.9463 139.05 34.196C139.454 36.6796 139.406 38.9757 139.925 41.1571C141.739 48.7722 145.285 55.2601 153.989 58.2122C153.991 58.5798 153.996 58.7899 154 59C150.148 58.4567 147.236 56.4458 144.818 53.8072C140.589 49.1912 138.683 43.7038 138.086 37.7792C137.973 36.6562 138.02 35.5195 138 34.1582Z" fill="#2C2C2C"/>
<path d="M154.155 58.3741C153.948 58.0709 153.944 57.8436 154.167 57.4426C156.28 57.3666 158.194 57.7206 160.041 57.4948C162.173 57.2341 164.245 56.4622 166.503 56C166.831 56.2593 166.999 56.4309 167 56.7045C164.312 57.9012 161.938 61.1951 161.477 64C161.076 63.9922 160.846 63.9829 160.617 63.9736C159.937 62.3807 159.257 60.7879 158.538 59.1047C157.164 58.8895 155.761 58.6697 154.155 58.3741Z" fill="#0D0D0E"/>
<path d="M161 64.1349C161.25 63.9556 161.504 63.9639 162.084 64.1074C163.607 66.6159 164.804 68.9891 166 71.3623C165.51 71.5734 165.021 71.7845 164.323 72C164.073 71.4793 164.177 70.9095 163.962 70.437C163.026 68.3833 161.998 66.358 161 64.1349Z" fill="#2C2C2C"/>
<path d="M34.7817 118C35.9721 118.284 37.0031 118.555 38 118.817C37.6817 119.716 37.3099 120.766 36.983 122C35.1104 121.338 34.9413 119.672 34 118.195C34.1987 118.014 34.4105 118.001 34.7817 118Z" fill="#C6BEE5"/>
<path d="M213 141.027C213.737 139.759 214.535 138.707 216 138C215.955 139.854 214.3 140.316 213.905 141.702C213.144 142.417 213.15 141.705 213 141.027Z" fill="#C6BEE5"/>
<path d="M45.9556 123.378C47.0925 121.958 48.2295 120.538 49.3664 119.118C49.2072 118.974 49.048 118.83 48.8888 118.686C46.4912 119.613 45.5884 122.372 42.638 123.326C43.3643 120.174 46.4327 118.66 47.638 115.725C45.3498 116.311 44.4271 117.894 43.0029 118.842C41.5877 119.783 40.2422 120.81 38.612 121.575C39.1428 119.768 40.591 118.619 41.8969 117.364C43.1924 116.119 44.4166 114.814 45.7925 113.413C45.4172 113.399 44.7471 113.18 44.3955 113.393C42.3694 114.615 40.4187 115.939 38.2298 117.084C38.0115 116.693 38.0057 116.448 38 116.202C42.6216 112.621 47.6862 109.77 53.657 108.382C56.8907 107.63 60.0743 108.156 63.5114 108.538C63.8151 108.562 63.8648 108.671 63.9392 108.687C75.7625 111.262 86.3781 116.484 97.2209 121.174C108.084 125.872 118.821 130.808 129.613 135.639C130.115 135.863 130.625 136.072 131.384 136.397C132.977 134.001 134.523 131.674 136.164 129.187C137.066 129.446 137.912 129.811 138.67 130.291C143.151 133.128 147.613 135.988 152.076 138.847C152.681 139.235 153.258 139.657 154 140.166C153.659 140.662 153.378 141.071 152.989 141.682C151.564 143.444 150.238 144.997 148.929 146.563C145.011 151.249 140.037 154.496 133.571 155.638C129.079 156.431 124.693 155.853 120.39 154.576C115.029 152.986 110.088 150.608 105.416 147.806C99.5662 144.297 93.8193 140.646 88.0509 137.027C81.8123 133.112 75.6113 129.11 68.6973 126.229C64.413 124.444 59.8883 123.112 55.4141 121.728C54.2487 121.367 52.868 121.574 51.3972 121.575C50.7415 121.694 50.179 121.632 49.8265 121.849C48.8402 122.455 47.9407 123.177 46.6739 123.875C46.2124 123.724 46.084 123.551 45.9556 123.378Z" fill="#FCFCFC"/>
<path d="M166.472 56.4449C164.321 56.9611 162.198 57.6858 160.013 57.9305C158.12 58.1425 156.157 57.8102 153.995 57.7214C145.078 54.8859 141.541 48.2957 139.731 40.5605C139.213 38.3447 139.261 36.0124 139 33.497C139.004 33.1878 139.042 33.0695 139.112 33.0488C143.636 31.7191 147.445 29.4842 149.968 25C150.437 26.2348 150.696 27.0122 151.022 27.764C153.681 33.8862 160.45 37.2487 167.307 35.8506C167.66 35.7787 167.981 35.5688 168.317 35.4254C172.081 33.8221 175.39 36.0602 174.963 39.9499C174.693 42.4002 173.369 44.2284 171.057 45.4164C170.59 45.6566 170.123 45.898 169.507 46.2152C170.744 47.2718 171.573 46.0028 172.811 46.2499C173.444 47.8747 174.14 49.6617 174.577 51.6986C171.702 53.4474 169.087 54.9461 166.472 56.4449ZM153.448 49.2439C153.529 49.5763 153.61 49.9086 153.691 50.2409C154.834 49.7214 156.152 49.3884 157.074 48.6316C158.065 47.8192 158.724 46.6173 157.976 44.7759C156.758 46.6999 156.221 48.7541 153.448 49.2439ZM171.995 40.0633C170.949 38.7923 169.832 39.4072 168.879 40.0898C167.973 40.7393 167.201 41.5885 167.9 43.2951C168.979 41.6872 169.93 40.3942 171.995 40.0633Z" fill="#FCFCFC"/>
<path d="M165.606 71C164.323 68.6798 163.224 66.3059 162 63.7955C162.168 61.1794 164.579 58.2662 167.511 57.2029C170.187 55.8182 172.493 54.5285 174.799 53.2389C175.422 52.9002 175.939 52.8679 176.412 53.4969C179.195 57.1976 182.003 60.8837 185 64.8352C178.447 66.9199 172.118 68.9331 165.606 71Z" fill="#F6F6F6"/>
<path d="M135 128.551C133.635 130.771 132.248 132.812 130.762 135C122.308 131.095 113.899 127.211 105 123.1C108.234 122.733 110.88 123.477 113.547 123.67C116.436 123.879 119.305 124.315 122.181 124.658C124.965 124.99 127.748 125.329 130.776 125.632C132.341 126.523 133.66 127.447 135 128.551Z" fill="#F6F6F6"/>
<path d="M192.336 132.08C196.04 131.984 199.5 131.99 202.959 132.018C202.972 132.199 202.986 132.38 203 132.561C202.622 132.706 202.246 132.97 201.865 132.975C198.897 133.009 195.927 133.005 192.959 132.982C192.327 132.977 191.54 132.942 192.336 132.08Z" fill="#C6BEE5"/>
<path d="M164.189 122.803C166.13 121.371 167.511 119.65 170 119C167.745 121.5 165.162 123.713 162.139 126C161.455 124.14 163.477 123.853 164.189 122.803Z" fill="#C2BBE3"/>
<path d="M204.224 102.925C204.751 102.546 205.133 102.304 205.612 102C205.803 102.448 206.067 102.771 205.984 102.921C205.118 104.48 199.802 109.204 198.003 110C197.914 108.016 199.737 107.386 200.725 106.276C201.747 105.128 202.953 104.127 204.224 102.925Z" fill="#ABABAB"/>
<path d="M156.768 101.46C154.527 102.317 152.477 103.079 150 104C150.967 102.378 150.939 102.308 155.258 100.723C157.038 100.07 158.677 98.8549 161 99.0143C160.051 100.732 158.247 100.649 156.768 101.46Z" fill="#C6BEE5"/>
<path d="M183.207 73.6997C180.103 74.8156 177.198 75.8553 174 77C174.655 75.5124 174.65 75.5012 179.08 73.8961C180.909 73.2333 182.765 72.6302 184.609 72C184.739 72.2153 184.87 72.4306 185 72.646C184.469 72.9718 183.937 73.2976 183.207 73.6997Z" fill="#C6BEE5"/>
<path d="M202.175 121.989C200.502 122.653 199.02 123.223 197 124C198.482 121.844 205.532 118.806 208 119.01C206.254 120.646 204.185 121.033 202.175 121.989Z" fill="#C6BEE5"/>
<path d="M161.306 134.451C163.303 135.017 165.363 134.71 167 135.893C164.717 136.315 159.086 135.435 157 134.263C158.525 133.554 159.805 134.51 161.306 134.451Z" fill="#C6BEE5"/>
<path d="M176.949 134.817C176.238 135.273 175.685 135.606 175.032 136C174.922 134.733 174.917 134.729 178.183 132.19C179.565 131.115 180.976 130.063 182.374 129C182.582 129.098 182.791 129.197 183 129.295C182.803 129.712 182.744 130.231 182.385 130.529C180.671 131.95 178.875 133.311 176.949 134.817Z" fill="#C6BEE5"/>
<path d="M186.958 109.633C184.474 109.293 182.237 108.978 180 108.663C180.041 108.496 180.083 108.329 180.124 108.162C182.091 107.642 183.884 108.528 185.774 108.67C187.758 108.818 189.748 108.851 192 109.801C189.972 110.24 188.594 109.846 186.958 109.633Z" fill="#C6BEE5"/>
<path d="M147.794 124.77C148.008 124.036 148.182 123.522 148.357 123C148.677 123.125 148.981 123.183 148.984 123.253C149.104 126.438 148.526 129.513 147.751 133C146.501 131.447 147.17 130.153 147.249 128.955C147.336 127.628 147.578 126.312 147.794 124.77Z" fill="#C6BEE5"/>
<path d="M170.78 105C170.379 104.96 169.983 104.799 170.001 104.683C170.377 102.204 170.795 99.73 171.23 97.2582C171.247 97.1568 171.501 97.0852 171.645 97C172.286 98.1542 172.094 100.43 170.78 105Z" fill="#C6BEE5"/>
<path d="M187.755 119.356C186.761 118.528 185.207 118.277 185 117C187.241 117.44 191.886 120.308 193 122C190.738 121.612 189.535 120.267 187.755 119.356Z" fill="#C6BEE5"/>
<path d="M213.505 133C213.218 131.818 213.053 130.672 213.029 129.521C212.982 127.329 213 125.134 213.027 122.941C213.035 122.369 213.178 121.8 213.291 121C214.108 122.609 214.271 129.921 213.505 133Z" fill="#C6BEE5"/>
<path d="M170.33 86.9511C169.505 86.8485 168.956 86.7463 168 86.5679C170.34 85.8876 177.168 85.8204 180 86.3561C178.577 87.3878 176.924 86.8494 175.469 86.9312C173.857 87.0218 172.228 86.9516 170.33 86.9511Z" fill="#C6BEE5"/>
<path d="M175 52.8561C172.695 54.3562 170.386 55.6756 167.876 57C167.504 56.8498 167.333 56.6945 167 56.4599C169.433 54.9358 172.028 53.4912 174.808 52C174.994 52.1942 174.995 52.4348 175 52.8561Z" fill="#2C2C2C"/>
<path d="M154.983 112.032C155.783 112.105 156.309 112.178 157 112.273C155.386 113.12 148.026 113.257 145 112.523C146.598 111.69 148.243 112.119 149.743 112.049C151.392 111.972 153.053 112.032 154.983 112.032Z" fill="#C6BEE5"/>
<path d="M190.994 94.097C189.594 96.3868 187.675 98.2233 185 100C185.475 97.7879 188.135 95.168 190.847 94.0054C191.044 93.973 190.994 94.097 190.994 94.097Z" fill="#B0A9D2"/>
<path d="M190.449 83.9991C189.635 80.9974 190.119 78.0115 190.417 75C191.187 76.3347 190.948 77.8042 190.987 79.2151C191.026 80.6422 190.98 82.0729 190.824 83.7563C190.601 84.0068 190.525 84.0029 190.449 83.9991Z" fill="#C6BEE5"/>
<path d="M190.444 84.1773C190.66 83.9976 190.755 84.0021 190.994 84C191.028 84.9956 190.919 85.9978 190.811 87C189.743 86.1245 189.849 85.2573 190.444 84.1773Z" fill="#7F7F7F"/>
<path d="M191.118 94C190.975 93.8839 191.014 93.771 191 93.7132C191.012 92.6784 191.423 92.1104 193 92C192.215 92.9552 191.737 93.5357 191.118 94Z" fill="#C2BBE3"/>
<path d="M40.6987 122.689C40.5732 123.102 40.3967 123.508 40.3315 123.928C40.0934 125.463 40.568 125.89 42.1035 125.42C42.8036 125.205 43.2334 124.847 44.0702 125.448C44.5516 125.794 45.9057 125.554 46.59 125.171C48.1884 124.277 49.6196 123.137 51.2846 122.001C55.8468 121.966 59.7977 123.557 63.8085 124.909C65.4986 125.479 67.1135 126.232 69 126.998C68.4835 127.645 68.0799 128.187 67.6357 128.7C66.1033 130.47 64.5313 132.212 63.0277 134.002C62.3942 134.756 61.8331 135.573 61.349 136.413C60.8301 137.314 60.0029 138.397 60.9873 139.254C61.4851 139.688 62.6945 139.449 63.7754 139.529C63.7127 140.237 63.6399 141.059 63.5431 142.137C59.503 143.216 55.4935 144.068 51.4679 144.853C49.0793 145.318 47.486 144.701 46.4963 142.722C43.2884 136.307 40.1808 129.851 37.0441 123.406C36.9715 123.257 37.0113 123.063 37.0078 122.687C37.9135 122.404 38.81 122.324 40.0604 122.325C40.5091 122.5 40.6039 122.595 40.6987 122.689Z" fill="#FCFCFC"/>
<path d="M77 140C77.2487 138.393 78.6611 138.206 79.9479 138.101C81.8768 137.942 83.8249 138.015 86 138.03C83.2273 138.714 80.2194 139.356 77 140Z" fill="#F6F6F6"/>
<path d="M93.8458 143C94.5967 143.118 95.2984 143.385 96 143.653C95.9636 143.775 95.9272 143.897 95.8909 144.019C93.0178 144.345 90.1447 144.672 87 145C88.5986 144.555 90.4736 144.117 92.336 143.653C92.8425 143.527 93.3108 143.319 93.8458 143Z" fill="#C6BEE5"/>
<path d="M62 151C60.9678 151.748 59.6974 152.491 58.2163 153C58.0036 152.609 58.0018 152.453 58 152.296C59.2539 151.862 60.5079 151.429 62 151Z" fill="#C6BEE5"/>
<path d="M57.7923 152C57.9933 152.065 57.9952 152.193 58 152.513C57.7315 152.848 57.4602 152.991 57 153C57.0718 152.599 57.3325 152.331 57.7923 152Z" fill="#FEFEFF"/>
<path d="M62 137.815C63.3207 135.949 64.5547 134.028 65.9892 132.236C67.1543 130.78 68.56 129.479 69.9623 128C75.2122 130.434 79.9985 133.275 85 136.384C82.0959 136.775 79.3692 136.587 77.3541 137.572C75.4312 138.512 74.2498 140.674 72.387 142.252C73.0658 140.187 73.7446 138.121 74.5903 135.548C72.4732 136.622 72.4281 138.194 71.672 139.34C70.8657 140.563 70.1482 141.833 69.1968 143C68.9783 139.681 71.1258 136.892 71.67 133.776C71.4858 133.69 71.3017 133.604 71.1175 133.518C69.1937 136.16 67.2698 138.802 65.0924 141.408C64.8389 141.372 64.7262 141.249 64.7262 141.249C65.615 139.276 66.4521 137.282 67.412 135.337C67.9851 134.176 68.7509 133.092 69.0479 131.587C68.6031 131.846 68.0575 132.03 67.7303 132.379C66.0108 134.211 64.3465 136.085 62.4199 137.957C62.1766 137.97 62 137.815 62 137.815Z" fill="#F6F6F6"/>
<path d="M37.8749 116C37.9851 116.222 37.9888 116.53 38 117.07C37.7216 117.534 37.4357 117.767 37.1498 118C37.0998 117.875 37.0499 117.75 37 117.625C37.2561 117.112 37.5122 116.599 37.8749 116Z" fill="#C6BEE5"/>
<path d="M46.1084 123C46.4768 123.127 46.6367 123.351 47 123.652C46.6098 124.153 46.0162 124.576 45.4226 125C45.2817 124.89 45.1409 124.78 45 124.669C45.2999 124.145 45.5999 123.621 46.1084 123Z" fill="#ABABAB"/>
<path d="M40 122.617C40.1372 122.299 40.5056 122.15 40.8739 122C40.9687 122.299 41.0634 122.598 40.9442 123C40.5639 122.997 40.3975 122.891 40 122.617Z" fill="#FCFCFC"/>
<path d="M161.973 78.2247C162.433 76.186 161.95 73.9836 163.687 72.0584C164.563 71.8033 165.022 71.5841 165.668 71.3093C172.309 69.1639 178.763 67.0742 185.446 64.9103C182.39 60.8087 179.527 56.9825 176.688 53.1412C176.206 52.4884 175.678 52.5219 175.039 52.6902C175.035 52.2628 175.034 52.0186 175.106 51.5771C174.477 49.6324 173.773 47.8849 173.133 46.296C171.882 46.0543 171.044 47.2953 169.794 46.2619C170.416 45.9518 170.888 45.7157 171.361 45.4808C173.698 44.3191 175.036 42.5312 175.308 40.135C175.74 36.3311 172.395 34.1425 168.591 35.7103C168.251 35.8506 167.927 36.0558 167.57 36.1262C160.639 37.4934 153.798 34.2052 151.11 28.2181C150.78 27.4829 150.518 26.7226 150.044 25.5151C147.494 29.9004 143.645 32.0859 139.072 33.3863C139.001 33.4065 138.963 33.5221 138.765 33.586C138.336 33.5693 138.049 33.5598 137.763 33.5503C136.718 33.2266 136.678 32.4986 136.8 31.6671C138.605 19.3393 148.511 7.06138 166.711 8.10879C170.258 8.31294 173.753 9.26661 177.245 9.86982C177.878 3.67991 180.722 0.458689 186.169 0.0287579C190.656 -0.325435 194.864 2.62885 195.903 6.86338C196.991 11.2983 194.349 14.8373 188.342 17.0853C190.143 20.3681 191.957 23.6498 193.746 26.9431C195.27 29.749 197.466 31.2488 201.184 31.1153C207.206 30.8991 211.778 33.4779 214.961 38.0548C215.552 38.905 215.95 39.9185 216.194 40.906C217.898 47.8098 222.109 52.7429 229.556 55.2476C234.94 57.0584 238.862 60.213 240.483 65.3819C241.152 67.5176 241.174 69.2443 240.537 71.689C225.108 71.689 209.618 71.689 193.645 71.689C194.279 72.844 194.702 73.6613 195.168 74.458C203.112 88.043 210.202 101.965 215.359 116.646C217.878 123.815 219.773 131.109 220.554 138.616C220.642 139.463 220.645 140.317 220.7 141.44C218.518 141.44 216.462 141.44 214.052 141.288C214.271 139.801 216.3 139.299 216.355 137.284C214.558 138.052 213.581 139.196 212.651 140.389C211.822 141.168 210.848 141.471 209.626 141.413C207.758 141.324 205.88 141.389 203.772 141.389C203.898 142.23 204.006 142.946 203.933 143.855C203.531 144.049 203.308 144.051 203.021 143.846C202.734 142.921 202.513 142.202 202.331 141.612C190.471 141.376 178.814 141.199 167.161 140.87C164.597 140.797 162.523 141.107 161.25 143.339C161.154 143.509 160.761 143.539 160.407 143.672C159.265 142.942 158.097 142.215 156.953 141.457C155.907 140.765 154.89 140.65 153.592 141.432C153.141 141.376 152.96 141.355 152.886 141.13C153.275 140.515 153.557 140.103 153.898 139.605C153.155 139.092 152.577 138.668 151.971 138.278C147.503 135.403 143.036 132.526 138.55 129.673C137.791 129.191 136.943 128.823 136.048 128.287C135.659 128.113 135.36 128.054 135.039 127.817C133.679 126.719 132.341 125.8 131 124.731C131.009 124.382 131.02 124.183 131.032 123.985C132.268 123.946 132.396 122.937 132.867 122.242C137.45 115.492 141.785 108.59 146.681 102.032C150.401 97.0488 154.748 92.4402 158.996 87.7997C160.213 86.4699 160.999 85.1672 161.182 83.4894C161.323 82.2037 161.551 80.9259 161.927 79.3702C162.067 78.8054 162.02 78.515 161.973 78.2247ZM190.237 84.2012C189.747 84.9395 189.637 85.6541 190.739 86.3755C190.851 85.5497 190.963 84.7238 191.165 83.42C191.175 82.0462 191.235 80.671 191.184 79.2992C191.133 77.943 191.444 76.5305 190.444 75.2476C190.057 78.1423 189.428 81.0125 190.237 84.2012ZM191.37 93.7687C191.961 93.1476 192.553 92.5265 193.527 91.5043C191.571 91.6224 191.062 92.2302 190.685 93.4625C188.27 94.5634 185.715 97.1152 185.259 99.2699C187.828 97.5393 189.672 95.7505 191.37 93.7687ZM192.336 131.544C191.767 132.502 192.574 132.544 193.221 132.55C196.263 132.577 199.306 132.581 202.348 132.541C202.738 132.535 203.123 132.222 203.511 132.051C203.497 131.836 203.483 131.621 203.468 131.407C199.925 131.374 196.379 131.366 192.336 131.544ZM163.977 122.405C163.438 123.402 161.512 123.711 162.164 125.718C165.043 123.25 167.504 120.862 169.652 118.164C167.281 118.866 165.966 120.723 163.977 122.405ZM204.227 102.908C203.158 103.878 202.013 104.789 201.042 105.833C200.103 106.844 198.372 107.417 198.457 109.223C200.166 108.498 205.215 104.199 206.038 102.78C206.117 102.643 205.866 102.35 205.685 101.942C205.229 102.218 204.866 102.439 204.227 102.908ZM157.288 101.236C158.583 100.55 160.397 100.63 161.352 98.9834C159.015 98.8307 157.366 99.9949 155.577 100.621C151.232 102.14 151.26 102.207 150.288 103.762C152.78 102.879 154.841 102.149 157.288 101.236ZM183.077 73.8825C183.597 73.5558 184.118 73.2292 184.638 72.9026C184.511 72.6868 184.383 72.471 184.255 72.2551C182.449 72.8869 180.631 73.4914 178.84 74.1558C174.501 75.7647 174.506 75.7759 173.865 77.267C176.997 76.1196 179.842 75.0774 183.077 73.8825ZM202.393 121.385C204.254 120.603 206.372 120.251 208.159 118.765C205.633 118.58 198.417 121.339 196.9 123.297C198.967 122.592 200.484 122.074 202.393 121.385ZM161.016 134.268C159.635 134.383 158.258 133.322 156.616 134.109C158.861 135.411 164.922 136.388 167.379 135.919C165.618 134.606 163.4 134.947 161.016 134.268ZM177.272 134.443C178.868 132.994 180.49 131.568 182.038 130.079C182.363 129.768 182.416 129.224 182.594 128.787C182.405 128.684 182.216 128.581 182.028 128.478C180.765 129.591 179.491 130.694 178.242 131.82C175.292 134.48 175.297 134.485 175.396 135.812C175.986 135.399 176.486 135.05 177.272 134.443ZM187.017 109.461C188.344 109.698 189.66 110.192 191.597 109.642C189.446 108.449 187.546 108.408 185.651 108.221C183.846 108.044 182.133 106.931 180.255 107.584C180.215 107.794 180.175 108.004 180.136 108.214C182.272 108.609 184.409 109.004 187.017 109.461ZM147.701 124.885C147.521 126.073 147.272 127.258 147.182 128.453C147.101 129.531 146.411 130.696 147.7 132.093C148.5 128.955 149.097 126.187 148.973 123.32C148.97 123.257 148.656 123.204 148.326 123.092C148.144 123.562 147.966 124.024 147.701 124.885ZM171.274 105.002C172.38 100.265 172.571 97.8528 171.936 96.6293C171.794 96.7199 171.542 96.7957 171.524 96.9032C171.094 99.5229 170.68 102.145 170.307 104.772C170.289 104.895 170.682 105.066 171.274 105.002ZM188.023 119.063C189.61 119.989 190.786 121.527 192.999 121.971C191.909 120.035 187.366 116.755 185.174 116.251C185.377 117.712 186.897 118 188.023 119.063ZM214.247 132.372C215.009 129.445 214.794 122.57 213.721 121.057C213.572 121.809 213.384 122.344 213.374 122.882C213.338 124.944 213.315 127.008 213.376 129.07C213.408 130.152 213.625 131.23 214.247 132.372ZM170.842 86.5191C172.458 86.5192 174.081 86.605 175.688 86.4943C177.139 86.3943 178.786 87.0525 180.204 85.7912C177.381 85.1363 170.577 85.2184 168.244 86.0501C169.198 86.2682 169.744 86.3932 170.842 86.5191ZM154.571 111.852C152.953 111.852 151.33 111.779 149.719 111.874C148.252 111.96 146.645 111.431 145.083 112.459C148.041 113.364 155.233 113.195 156.81 112.15C156.135 112.032 155.621 111.943 154.571 111.852Z" fill="#030303"/>
<path d="M56.5815 152.904C55.5662 152.948 54.5133 152.849 53.5423 153.062C49.952 153.85 46.3891 154.742 42.8152 155.592C42.3577 155.701 41.9016 155.83 41.4356 155.891C38.1141 156.324 36.5161 155.51 35.2392 152.625C31.8973 145.072 28.5681 137.515 25.2745 129.945C19.5285 116.738 13.8131 103.52 8.08461 90.3075C5.53448 84.4255 2.98024 78.5449 0.440498 72.6591C0.237773 72.1893 0.133673 71.6839 0 71.248C4.66121 67.5794 9.90026 68.4666 12.4214 73.4293C16.3354 81.1338 20.0808 88.91 23.8863 96.6604C26.7209 102.433 29.5386 108.213 32.3615 113.991C32.9413 115.178 33.5107 116.369 34.1706 117.919C35.1385 119.758 35.2992 121.636 37.1033 122.597C37.0852 122.603 37.0718 122.57 37.0628 122.772C37.0662 123.146 37.0269 123.34 37.0986 123.488C40.1932 129.901 43.2591 136.325 46.424 142.709C47.4004 144.679 48.9723 145.292 51.3289 144.829C55.3005 144.049 59.2562 143.201 63.3395 142.506C65.1087 144.169 65.9568 141.873 67.1533 141.857C67.4601 142.994 67.7321 144.002 68.044 145.157C69.3459 144.621 70.352 143.813 71.1215 143.971C72.8624 144.327 73.5554 143.393 74.3533 142.437C75.0974 141.545 75.7828 140.612 76.7174 139.696C80.1191 139.073 83.2973 138.452 86.6767 137.789C89.2679 139.318 91.6581 140.887 94 142.64C93.4746 143.034 93.0146 143.29 92.5172 143.445C90.6881 144.017 88.8466 144.556 86.8374 145.225C83.8841 145.848 81.0626 146.214 78.3309 146.887C72.7743 148.254 67.2662 149.787 61.5042 151.248C60.0394 151.536 58.8083 151.827 57.3907 152.17C56.9596 152.442 56.7152 152.662 56.5028 152.87C56.5348 152.857 56.5815 152.904 56.5815 152.904Z" fill="#FFF129"/>
<path d="M135.114 128.162C135.411 128.221 135.709 128.279 136 128.615C134.455 131.238 132.916 133.584 131.331 136C130.575 135.672 130.067 135.462 129.568 135.235C118.825 130.365 108.138 125.389 97.3255 120.652C86.5329 115.924 75.9664 110.66 64.1978 108.063C64.1237 108.047 64.0743 107.937 64.0042 107.726C63.9976 107.387 64.0001 107.194 64.0027 107C69.5108 107.92 74.7294 109.663 79.8083 111.757C84.5379 113.707 89.2974 115.62 93.8866 117.824C97.8867 119.744 102.019 120.84 106.507 121.265C114.581 122.031 122.624 123.062 130.895 124.062C131.097 124.341 131.085 124.54 130.829 124.922C127.777 124.77 124.971 124.432 122.164 124.101C119.262 123.759 116.369 123.324 113.456 123.115C110.765 122.923 108.097 122.181 104.835 122.547C113.811 126.647 122.291 130.521 130.817 134.416C132.317 132.233 133.715 130.198 135.114 128.162Z" fill="#2C2C2C"/>
<path d="M63.8441 106.733C64.0576 107.011 64.055 107.212 63.8168 107.607C60.3557 107.358 57.1412 106.808 53.8761 107.593C47.8474 109.044 42.7337 112.021 37.8992 115.834C37.3272 116.333 36.9233 116.761 36.5194 117.188C36.5982 117.292 36.6769 117.396 36.7556 117.5C37.2065 117.306 37.6574 117.112 38.3112 116.876C40.5094 115.488 42.4791 114.105 44.5248 112.828C44.8798 112.606 45.5563 112.834 45.9354 112.849C44.5461 114.313 43.31 115.676 42.002 116.977C40.6834 118.288 39.2211 119.488 38.6852 121.376C40.3313 120.576 41.6898 119.504 43.1187 118.52C44.5567 117.531 45.4883 115.877 47.7987 115.264C46.5817 118.331 43.4836 119.912 42.7502 123.205C45.7293 122.208 46.6408 119.326 49.0616 118.358C49.2224 118.508 49.3831 118.658 49.5439 118.808C48.3959 120.292 47.248 121.775 45.9309 123.337C45.5186 123.839 45.2753 124.263 45.0321 124.687C45.1463 124.776 45.2605 124.866 45.3748 124.955C45.8562 124.612 46.3375 124.269 46.9902 123.841C48.1044 123.049 49.0126 122.295 50.0085 121.662C50.3644 121.435 50.9323 121.5 51.4035 121.432C51.3707 121.597 51.3598 121.763 51.2085 122.154C49.5486 123.449 48.1188 124.622 46.5219 125.543C45.8382 125.937 44.4853 126.184 44.0044 125.828C43.1684 125.209 42.739 125.579 42.0396 125.799C40.5055 126.283 40.0314 125.844 40.2693 124.264C40.3344 123.831 40.5107 123.413 40.7578 122.894C40.8256 122.525 40.7717 122.251 40.7178 121.976C40.5082 122.114 40.2986 122.251 39.8669 122.459C38.7492 122.612 37.8535 122.695 36.9579 122.777C36.9579 122.777 36.9714 122.811 36.9464 122.59C37.2791 121.144 37.6369 119.92 37.9432 118.872C36.984 118.567 35.992 118.25 35 117.934C35.3589 117.225 35.528 116.315 36.1066 115.838C41.0367 111.779 46.3789 108.315 52.791 106.595C56.389 105.63 60.0197 105.957 63.8441 106.733ZM42.7351 123.613C42.6198 123.541 42.5045 123.469 42.3892 123.397C42.4084 123.559 42.4276 123.72 42.7351 123.613Z" fill="#222222"/>
<path d="M138 34.1582C138.291 33.9368 138.575 33.9463 139.05 34.196C139.454 36.6796 139.406 38.9757 139.925 41.1571C141.739 48.7722 145.285 55.2601 153.989 58.2122C153.991 58.5798 153.996 58.7899 154 59C150.148 58.4567 147.236 56.4458 144.818 53.8072C140.589 49.1912 138.683 43.7038 138.086 37.7792C137.973 36.6562 138.02 35.5195 138 34.1582Z" fill="#2C2C2C"/>
<path d="M154.155 58.3741C153.948 58.0709 153.944 57.8436 154.167 57.4426C156.28 57.3666 158.194 57.7206 160.041 57.4948C162.173 57.2341 164.245 56.4622 166.503 56C166.831 56.2593 166.999 56.4309 167 56.7045C164.312 57.9012 161.938 61.1951 161.477 64C161.076 63.9922 160.846 63.9829 160.617 63.9736C159.937 62.3807 159.257 60.7879 158.538 59.1047C157.164 58.8895 155.761 58.6697 154.155 58.3741Z" fill="#0D0D0E"/>
<path d="M161 64.1349C161.25 63.9556 161.504 63.9639 162.084 64.1074C163.607 66.6159 164.804 68.9891 166 71.3623C165.51 71.5734 165.021 71.7845 164.323 72C164.073 71.4793 164.177 70.9095 163.962 70.437C163.026 68.3833 161.998 66.358 161 64.1349Z" fill="#2C2C2C"/>
<path d="M34.7817 118C35.9721 118.284 37.0031 118.555 38 118.817C37.6817 119.716 37.3099 120.766 36.983 122C35.1104 121.338 34.9413 119.672 34 118.195C34.1987 118.014 34.4105 118.001 34.7817 118Z" fill="#C6BEE5"/>
<path d="M45.9556 123.378C47.0925 121.958 48.2295 120.538 49.3664 119.118C49.2072 118.974 49.048 118.83 48.8888 118.686C46.4912 119.613 45.5884 122.372 42.638 123.326C43.3643 120.174 46.4327 118.66 47.638 115.725C45.3498 116.311 44.4271 117.894 43.0029 118.842C41.5877 119.783 40.2422 120.81 38.612 121.575C39.1428 119.768 40.591 118.619 41.8969 117.364C43.1924 116.119 44.4166 114.814 45.7925 113.413C45.4172 113.399 44.7471 113.18 44.3955 113.393C42.3694 114.615 40.4187 115.939 38.2298 117.084C38.0115 116.693 38.0057 116.448 38 116.202C42.6216 112.621 47.6862 109.77 53.657 108.382C56.8907 107.63 60.0743 108.156 63.5114 108.538C63.8151 108.562 63.8648 108.671 63.9392 108.687C75.7625 111.262 86.3781 116.484 97.2209 121.174C108.084 125.872 118.821 130.808 129.613 135.639C130.115 135.863 130.625 136.072 131.384 136.397C132.977 134.001 134.523 131.674 136.164 129.187C137.066 129.446 137.912 129.811 138.67 130.291C143.151 133.128 147.613 135.988 152.076 138.847C152.681 139.235 153.258 139.657 154 140.166C153.659 140.662 153.378 141.071 152.989 141.682C151.564 143.444 150.238 144.997 148.929 146.563C145.011 151.249 140.037 154.496 133.571 155.638C129.079 156.431 124.693 155.853 120.39 154.576C115.029 152.986 110.088 150.608 105.416 147.806C99.5662 144.297 93.8193 140.646 88.0509 137.027C81.8123 133.112 75.6113 129.11 68.6973 126.229C64.413 124.444 59.8883 123.112 55.4141 121.728C54.2487 121.367 52.868 121.574 51.3972 121.575C50.7415 121.694 50.179 121.632 49.8265 121.849C48.8402 122.455 47.9407 123.177 46.6739 123.875C46.2124 123.724 46.084 123.551 45.9556 123.378Z" fill="white"/>
<path d="M166.472 56.4449C164.321 56.9611 162.198 57.6858 160.013 57.9305C158.12 58.1425 156.157 57.8102 153.995 57.7214C145.078 54.8859 141.541 48.2957 139.731 40.5605C139.213 38.3447 139.261 36.0124 139 33.497C139.004 33.1878 139.042 33.0695 139.112 33.0488C143.636 31.7191 147.445 29.4842 149.968 25C150.437 26.2348 150.696 27.0122 151.022 27.764C153.681 33.8862 160.45 37.2487 167.307 35.8506C167.66 35.7787 167.981 35.5688 168.317 35.4254C172.081 33.8221 175.39 36.0602 174.963 39.9499C174.693 42.4002 173.369 44.2284 171.057 45.4164C170.59 45.6566 170.123 45.898 169.507 46.2152C170.744 47.2718 171.573 46.0028 172.811 46.2499C173.444 47.8747 174.14 49.6617 174.577 51.6986C171.702 53.4474 169.087 54.9461 166.472 56.4449ZM153.448 49.2439C153.529 49.5763 153.61 49.9086 153.691 50.2409C154.834 49.7214 156.152 49.3884 157.074 48.6316C158.065 47.8192 158.724 46.6173 157.976 44.7759C156.758 46.6999 156.221 48.7541 153.448 49.2439ZM171.995 40.0633C170.949 38.7923 169.832 39.4072 168.879 40.0898C167.973 40.7393 167.201 41.5885 167.9 43.2951C168.979 41.6872 169.93 40.3942 171.995 40.0633Z" fill="#FCFCFC"/>
<path d="M165.606 71C164.323 68.6798 163.224 66.3059 162 63.7955C162.168 61.1794 164.579 58.2662 167.511 57.2029C170.187 55.8182 172.493 54.5285 174.799 53.2389C175.422 52.9002 175.939 52.8679 176.412 53.4969C179.195 57.1976 182.003 60.8837 185 64.8352C178.447 66.9199 172.118 68.9331 165.606 71Z" fill="#F6F6F6"/>
<path d="M135 128.551C133.635 130.771 132.248 132.812 130.762 135C122.308 131.095 113.899 127.211 105 123.1C108.234 122.733 110.88 123.477 113.547 123.67C116.436 123.879 119.305 124.315 122.181 124.658C124.965 124.99 127.748 125.329 130.776 125.632C132.341 126.523 133.66 127.447 135 128.551Z" fill="#F6F6F6"/>
<path d="M164.189 122.803C166.13 121.371 167.511 119.65 170 119C167.745 121.5 165.162 123.713 162.139 126C161.455 124.14 163.477 123.853 164.189 122.803Z" fill="#C2BBE3"/>
<path d="M156.768 101.46C154.527 102.317 152.477 103.079 150 104C150.967 102.378 150.939 102.308 155.258 100.723C157.038 100.07 158.677 98.8549 161 99.0143C160.051 100.732 158.247 100.649 156.768 101.46Z" fill="#C6BEE5"/>
<path d="M161.306 134.451C163.303 135.017 165.363 134.71 167 135.893C164.717 136.315 159.086 135.435 157 134.263C158.525 133.554 159.805 134.51 161.306 134.451Z" fill="#C6BEE5"/>
<path d="M147.794 124.77C148.008 124.036 148.182 123.522 148.357 123C148.677 123.125 148.981 123.183 148.984 123.253C149.104 126.438 148.526 129.513 147.751 133C146.501 131.447 147.17 130.153 147.249 128.955C147.336 127.628 147.578 126.312 147.794 124.77Z" fill="#C6BEE5"/>
<path d="M170.33 86.9511C169.505 86.8485 168.956 86.7463 168 86.5679C170.34 85.8876 177.168 85.8204 180 86.3561C178.577 87.3878 176.924 86.8494 175.469 86.9312C173.857 87.0218 172.228 86.9516 170.33 86.9511Z" fill="#C6BEE5"/>
<path d="M175 52.8561C172.695 54.3562 170.386 55.6756 167.876 57C167.504 56.8498 167.333 56.6945 167 56.4599C169.433 54.9358 172.028 53.4912 174.808 52C174.994 52.1942 174.995 52.4348 175 52.8561Z" fill="#2C2C2C"/>
<path d="M154.983 112.032C155.783 112.105 156.309 112.178 157 112.273C155.386 113.12 148.026 113.257 145 112.523C146.598 111.69 148.243 112.119 149.743 112.049C151.392 111.972 153.053 112.032 154.983 112.032Z" fill="#C6BEE5"/>
<path d="M40.6987 122.689C40.5732 123.102 40.3967 123.508 40.3315 123.928C40.0934 125.463 40.568 125.89 42.1035 125.42C42.8036 125.205 43.2334 124.847 44.0702 125.448C44.5516 125.794 45.9057 125.554 46.59 125.171C48.1884 124.277 49.6196 123.137 51.2846 122.001C55.8468 121.966 59.7977 123.557 63.8085 124.909C65.4986 125.479 67.1135 126.232 69 126.998C68.4835 127.645 68.0799 128.187 67.6357 128.7C66.1033 130.47 64.5313 132.212 63.0277 134.002C62.3942 134.756 61.8331 135.573 61.349 136.413C60.8301 137.314 60.0029 138.397 60.9873 139.254C61.4851 139.688 62.6945 139.449 63.7754 139.529C63.7127 140.237 63.6399 141.059 63.5431 142.137C59.503 143.216 55.4935 144.068 51.4679 144.853C49.0793 145.318 47.486 144.701 46.4963 142.722C43.2884 136.307 40.1808 129.851 37.0441 123.406C36.9715 123.257 37.0113 123.063 37.0078 122.687C37.9135 122.404 38.81 122.324 40.0604 122.325C40.5091 122.5 40.6039 122.595 40.6987 122.689Z" fill="#FCFCFC"/>
<path d="M77 140C77.2487 138.393 78.6611 138.206 79.9479 138.101C81.8768 137.942 83.8249 138.015 86 138.03C83.2273 138.714 80.2194 139.356 77 140Z" fill="#F6F6F6"/>
<path d="M93.8458 143C94.5967 143.118 95.2984 143.385 96 143.653C95.9636 143.775 95.9272 143.897 95.8909 144.019C93.0178 144.345 90.1447 144.672 87 145C88.5986 144.555 90.4736 144.117 92.336 143.653C92.8425 143.527 93.3108 143.319 93.8458 143Z" fill="#C6BEE5"/>
<path d="M62 151C60.9678 151.748 59.6974 152.491 58.2163 153C58.0036 152.609 58.0018 152.453 58 152.296C59.2539 151.862 60.5079 151.429 62 151Z" fill="#C6BEE5"/>
<path d="M57.7923 152C57.9933 152.065 57.9952 152.193 58 152.513C57.7315 152.848 57.4602 152.991 57 153C57.0718 152.599 57.3325 152.331 57.7923 152Z" fill="#FEFEFF"/>
<path d="M62 137.815C63.3207 135.949 64.5547 134.028 65.9892 132.236C67.1543 130.78 68.56 129.479 69.9623 128C75.2122 130.434 79.9985 133.275 85 136.384C82.0959 136.775 79.3692 136.587 77.3541 137.572C75.4312 138.512 74.2498 140.674 72.387 142.252C73.0658 140.187 73.7446 138.121 74.5903 135.548C72.4732 136.622 72.4281 138.194 71.672 139.34C70.8657 140.563 70.1482 141.833 69.1968 143C68.9783 139.681 71.1258 136.892 71.67 133.776C71.4858 133.69 71.3017 133.604 71.1175 133.518C69.1937 136.16 67.2698 138.802 65.0924 141.408C64.8389 141.372 64.7262 141.249 64.7262 141.249C65.615 139.276 66.4521 137.282 67.412 135.337C67.9851 134.176 68.7509 133.092 69.0479 131.587C68.6031 131.846 68.0575 132.03 67.7303 132.379C66.0108 134.211 64.3465 136.085 62.4199 137.957C62.1766 137.97 62 137.815 62 137.815Z" fill="#F6F6F6"/>
<path d="M37.8749 116C37.9851 116.222 37.9888 116.53 38 117.07C37.7216 117.534 37.4357 117.767 37.1498 118C37.0998 117.875 37.0499 117.75 37 117.625C37.2561 117.112 37.5122 116.599 37.8749 116Z" fill="#C6BEE5"/>
<path d="M46.1084 123C46.4768 123.127 46.6367 123.351 47 123.652C46.6098 124.153 46.0162 124.576 45.4226 125C45.2817 124.89 45.1409 124.78 45 124.669C45.2999 124.145 45.5999 123.621 46.1084 123Z" fill="#ABABAB"/>
<path d="M40 122.617C40.1372 122.299 40.5056 122.15 40.8739 122C40.9687 122.299 41.0634 122.598 40.9442 123C40.5639 122.997 40.3975 122.891 40 122.617Z" fill="#FCFCFC"/>
</svg>
