<svg width="40" height="23" viewBox="0 0 40 23" fill="none" xmlns="http://www.w3.org/2000/svg">
<g id="Frame 37138">
<path id="Vector" d="M10.9999 21.8329C16.7792 21.8329 21.4641 17.148 21.4641 11.3686C21.4641 5.58933 16.7792 0.905273 10.9999 0.905273C5.22054 0.905273 0.536499 5.58933 0.536499 11.3686C0.536499 17.148 5.22054 21.8329 10.9999 21.8329Z" fill="#FFF129"/>
<path id="Vector_2" d="M10.9998 22.3689C8.82402 22.3689 6.69759 21.7239 4.88891 20.5152C3.07935 19.3065 1.6698 17.5879 0.836888 15.5783C0.00484053 13.5679 -0.213342 11.3566 0.211773 9.22236C0.636022 7.08899 1.68366 5.12879 3.22135 3.59024C4.7599 2.05256 6.72009 1.00492 8.85345 0.580669C10.9877 0.155554 13.199 0.373737 15.2094 1.20578C17.219 2.0387 18.9376 3.44825 20.1463 5.2578C21.355 7.06649 22 9.19293 22 11.3687C21.9965 14.2848 20.8363 17.0814 18.774 19.1429C16.7125 21.2052 13.9159 22.3654 10.9998 22.3689ZM10.9998 1.44215C9.03614 1.44215 7.11664 2.02484 5.48371 3.11577C3.85165 4.20669 2.5789 5.75737 1.82738 7.57126C1.07585 9.386 0.880172 11.3817 1.26286 13.3073C1.64642 15.2337 2.5919 17.0026 3.98067 18.3905C5.36857 19.7792 7.13829 20.7247 9.06386 21.1074C10.9903 21.4901 12.986 21.2935 14.7999 20.542C16.6138 19.7905 18.1644 18.5177 19.2554 16.8848C20.3463 15.2519 20.9281 13.3324 20.9273 11.3687C20.9221 8.73837 19.8744 6.21712 18.0138 4.35822C16.1523 2.49845 13.6302 1.4534 10.9998 1.44994V1.44215Z" fill="#FFF129"/>
<path id="Vector_3" d="M10.8607 16.6208C9.35156 16.6407 7.89093 16.0874 6.7749 15.0718C6.671 14.9749 6.61127 14.8398 6.60694 14.6978C6.60261 14.5558 6.65542 14.4173 6.75325 14.3142C6.85109 14.2103 6.98616 14.1506 7.12816 14.1463C7.27015 14.1419 7.40781 14.1948 7.51171 14.2926C8.40436 15.135 9.69271 15.593 11.0512 15.5454C12.4096 15.4978 13.6642 14.9523 14.4954 14.0493C14.5924 13.9471 14.7257 13.8865 14.8659 13.8822C15.0071 13.877 15.1439 13.9281 15.2478 14.0233C15.3517 14.1186 15.4131 14.251 15.4201 14.3913C15.427 14.5324 15.3785 14.6701 15.2841 14.7749C14.2599 15.8883 12.73 16.5593 11.0875 16.613C11.0131 16.619 10.936 16.6208 10.8607 16.6208Z" fill="black"/>
<path id="Vector_4" d="M7.65343 10.4863C7.44304 10.4872 7.23697 10.4248 7.06208 10.3079C6.88718 10.1911 6.75038 10.0257 6.66986 9.83088C6.58934 9.63694 6.56856 9.42309 6.60926 9.21702C6.64995 9.01009 6.75126 8.82047 6.90018 8.67242C7.0491 8.5235 7.23872 8.4222 7.44478 8.38064C7.65084 8.33995 7.86469 8.36159 8.0595 8.44211C8.25344 8.52263 8.41968 8.65943 8.53656 8.83433C8.65258 9.00922 8.71492 9.21443 8.71492 9.42482C8.71406 9.70621 8.60236 9.97634 8.40322 10.1755C8.20408 10.3737 7.93482 10.4863 7.65343 10.4863ZM7.64303 9.42482C7.64303 9.42742 7.64477 9.43001 7.6465 9.43174C7.64823 9.43347 7.65084 9.43434 7.65343 9.43434V9.42482H7.64303ZM14.3522 10.4863C14.1418 10.4872 13.9367 10.4248 13.7618 10.3079C13.586 10.1911 13.4501 10.0257 13.3695 9.83088C13.289 9.63694 13.2674 9.42309 13.3081 9.21702C13.3496 9.01009 13.4509 8.82047 13.5998 8.67242C13.7479 8.5235 13.9375 8.4222 14.1444 8.38064C14.3505 8.33995 14.5644 8.36159 14.7583 8.44211C14.9531 8.52263 15.1185 8.65943 15.2354 8.83433C15.3523 9.00922 15.4146 9.21443 15.4137 9.42482C15.4137 9.70621 15.3012 9.97634 15.1029 10.1755C14.9038 10.3737 14.6336 10.4863 14.3522 10.4863ZM14.3419 9.42482C14.3419 9.42742 14.3436 9.43001 14.3453 9.43174C14.3471 9.43347 14.3496 9.43434 14.3522 9.43434V9.42482H14.3419Z" fill="black"/>
</g>
</svg>
