<svg width="24" height="24" viewBox="0 0 24 24" fill="none" xmlns="http://www.w3.org/2000/svg">
<path fill-rule="evenodd" clip-rule="evenodd" d="M18.3667 15.8321L18.3727 10.0391L14.2497 5.92908C13.0055 4.69031 10.994 4.69031 9.74974 5.92908L5.63574 10.0291V15.8291C5.63905 17.5833 7.06352 19.0028 8.81774 19.0001H15.1847C16.9378 19.0029 18.3618 17.5851 18.3667 15.8321Z" stroke="black" stroke-width="1.5" stroke-linecap="round" stroke-linejoin="round"/>
<path fill-rule="evenodd" clip-rule="evenodd" d="M13.4997 11.3649C13.4843 12.1895 12.8061 12.847 11.9814 12.8368C11.1567 12.8266 10.495 12.1525 10.5 11.3278C10.5051 10.503 11.175 9.83706 11.9997 9.83691C12.4013 9.84061 12.7849 10.0037 13.0662 10.2902C13.3475 10.5768 13.5035 10.9634 13.4997 11.3649V11.3649Z" stroke="black" stroke-width="1.5" stroke-linecap="round" stroke-linejoin="round"/>
<path d="M19.13 5.76277C19.1306 5.34856 18.7953 5.0123 18.3811 5.01172C17.9668 5.01114 17.6306 5.34645 17.63 5.76067L19.13 5.76277ZM18.374 10.0387L17.624 10.0377C17.6237 10.2373 17.7031 10.4289 17.8445 10.5699L18.374 10.0387ZM19.4705 12.1909C19.7638 12.4833 20.2387 12.4826 20.5311 12.1892C20.8236 11.8959 20.8229 11.421 20.5295 11.1286L19.4705 12.1909ZM6.16552 10.5599C6.45886 10.2674 6.45959 9.79254 6.16714 9.4992C5.8747 9.20586 5.39982 9.20513 5.10648 9.49758L6.16552 10.5599ZM3.47048 11.1286C3.17714 11.421 3.17641 11.8959 3.46886 12.1892C3.7613 12.4826 4.23618 12.4833 4.52952 12.1909L3.47048 11.1286ZM10 15.1967C9.58579 15.1967 9.25 15.5325 9.25 15.9467C9.25 16.3609 9.58579 16.6967 10 16.6967V15.1967ZM14 16.6967C14.4142 16.6967 14.75 16.3609 14.75 15.9467C14.75 15.5325 14.4142 15.1967 14 15.1967V16.6967ZM17.63 5.76067L17.624 10.0377L19.124 10.0398L19.13 5.76277L17.63 5.76067ZM17.8445 10.5699L19.4705 12.1909L20.5295 11.1286L18.9035 9.50757L17.8445 10.5699ZM5.10648 9.49758L3.47048 11.1286L4.52952 12.1909L6.16552 10.5599L5.10648 9.49758ZM10 16.6967H14V15.1967H10V16.6967Z" fill="black"/>
</svg>
