<svg width="24" height="24" viewBox="0 0 24 24" fill="none" xmlns="http://www.w3.org/2000/svg">
<path d="M12.026 17.1016C11.9245 16.8841 11.7142 16.7255 11.4597 16.6972C11.2443 16.6733 11.0333 16.6283 10.8327 16.5634C10.7427 16.5338 10.6583 16.5016 10.5802 16.4671L10.71 16.122C10.8017 16.1619 10.8962 16.1985 10.9929 16.2315L10.9969 16.2329L11.001 16.2342C11.3114 16.3341 11.6167 16.3848 11.9086 16.3848C12.2016 16.3848 12.414 16.3466 12.5772 16.2644L12.5869 16.2595L12.5965 16.2542C12.8437 16.1159 12.9855 15.8781 12.9855 15.6019C12.9855 15.2953 12.8158 15.0408 12.5199 14.9032C12.3712 14.8326 12.1598 14.7653 11.8552 14.6915C11.543 14.6145 11.2806 14.5328 11.0771 14.4491C10.9283 14.3835 10.7994 14.2787 10.683 14.1291C10.583 13.9955 10.5322 13.7945 10.5322 13.5316C10.5322 13.2145 10.6238 12.9527 10.8123 12.7313C10.9802 12.5372 11.2184 12.4055 11.5383 12.3316C11.7754 12.2767 11.9605 12.1117 12.0437 11.8984C12.1377 12.1146 12.3379 12.2753 12.5868 12.314C12.7948 12.3463 12.9858 12.3977 13.1575 12.4675L13.038 12.8057C12.7138 12.6788 12.3947 12.6146 12.0861 12.6146C11.0612 12.6146 11.0092 13.3041 11.0092 13.4423C11.0092 13.7419 11.1752 13.9931 11.4645 14.1316L11.4727 14.1355L11.4809 14.1391C11.627 14.2026 11.8344 14.2639 12.1337 14.332C12.4432 14.4001 12.7012 14.4782 12.904 14.5649L12.9081 14.5666L12.9123 14.5684C13.0629 14.6295 13.1921 14.7315 13.3072 14.8802L13.309 14.8826L13.3109 14.8849C13.4115 15.0118 13.4625 15.2079 13.4625 15.4678C13.4625 15.768 13.3734 16.022 13.19 16.2445C13.031 16.4375 12.8089 16.5711 12.5109 16.6529C12.2809 16.7161 12.1024 16.8875 12.026 17.1016Z" fill="black"/>
<path d="M12.2852 18H11.7914C11.681 18 11.5914 17.9105 11.5914 17.8V17.3985C11.5914 17.2929 11.5092 17.2061 11.4043 17.1944C11.1542 17.1667 10.9123 17.115 10.6786 17.0394C10.4515 16.9648 10.2548 16.8764 10.0884 16.7739C10.012 16.7268 9.98414 16.6312 10.0158 16.5472L10.3545 15.6466C10.4001 15.5254 10.5473 15.479 10.6607 15.5417C10.8137 15.6262 10.9782 15.6985 11.154 15.7585C11.416 15.8429 11.6675 15.8851 11.9084 15.8851C12.1155 15.8851 12.2634 15.8628 12.3521 15.8181C12.4409 15.7684 12.4852 15.6964 12.4852 15.6021C12.4852 15.4929 12.4261 15.411 12.3078 15.3564C12.1936 15.3018 12.0035 15.2422 11.7372 15.1777C11.3949 15.0933 11.1097 15.0039 10.8814 14.9096C10.6532 14.8103 10.4546 14.6514 10.2856 14.433C10.1165 14.2096 10.032 13.9092 10.032 13.5319C10.032 13.095 10.1651 12.7202 10.4314 12.4074C10.6713 12.13 11.0026 11.9424 11.4254 11.8447C11.5206 11.8227 11.5914 11.7401 11.5914 11.6425V11.2C11.5914 11.0895 11.681 11 11.7914 11H12.2852C12.3957 11 12.4852 11.0895 12.4852 11.2V11.6172C12.4852 11.7194 12.5624 11.8045 12.6634 11.8202C13.0337 11.8777 13.3591 11.9866 13.6395 12.1469C13.7191 12.1924 13.7507 12.2892 13.7202 12.3756L13.4032 13.2725C13.3612 13.3914 13.2211 13.4417 13.1086 13.3849C12.7515 13.2049 12.4106 13.1149 12.0859 13.1149C11.7013 13.1149 11.509 13.2241 11.509 13.4425C11.509 13.5468 11.5661 13.6262 11.6802 13.6809C11.7943 13.7305 11.9823 13.7851 12.2444 13.8447C12.5824 13.9192 12.8677 14.006 13.1001 14.1053C13.3326 14.1996 13.5333 14.356 13.7024 14.5745C13.8756 14.7929 13.9623 15.0908 13.9623 15.4681C13.9623 15.8851 13.8334 16.25 13.5756 16.5628C13.351 16.8354 13.0402 17.0262 12.6431 17.1353C12.5519 17.1604 12.4852 17.2412 12.4852 17.3358V17.8C12.4852 17.9105 12.3957 18 12.2852 18Z" fill="black"/>
<path fill-rule="evenodd" clip-rule="evenodd" d="M9.83831 5H14.1683C15.2773 5 14.6683 6.664 14.2193 7.679L13.7083 8.843L13.6393 9C14.1233 8.97651 14.6019 9.11054 15.0033 9.382C16.5047 10.7558 17.7233 12.4098 18.5903 14.251C18.9282 14.9318 19.0623 15.6958 18.9763 16.451C18.8732 18.3759 17.3289 19.9098 15.4033 20H8.60331C6.67726 19.9125 5.13066 18.3802 5.02531 16.455C4.93935 15.6998 5.07339 14.9358 5.41131 14.255C6.27941 12.412 7.49965 10.7565 9.00331 9.382C9.40472 9.11054 9.8833 8.97651 10.3673 9L10.2873 8.819L9.78731 7.679C9.34031 6.664 8.72831 5 9.83831 5Z" stroke="black" stroke-width="1.5" stroke-linecap="round" stroke-linejoin="round"/>
<path d="M13.6389 9.75C14.0531 9.75 14.3889 9.41421 14.3889 9C14.3889 8.58579 14.0531 8.25 13.6389 8.25V9.75ZM10.3669 8.25C9.95272 8.25 9.61693 8.58579 9.61693 9C9.61693 9.41421 9.95272 9.75 10.3669 9.75V8.25ZM16.3702 8.65392C16.7314 8.45107 16.8597 7.99387 16.6568 7.63272C16.454 7.27157 15.9968 7.14324 15.6357 7.34608L16.3702 8.65392ZM13.7079 8.843L13.8491 9.57959L13.8513 9.57918L13.7079 8.843ZM10.2869 8.819L10.4385 8.08444L10.4318 8.08312L10.2869 8.819ZM8.3587 7.33975C7.99405 7.14327 7.53916 7.27959 7.34268 7.64423C7.1462 8.00888 7.28252 8.46377 7.64716 8.66025L8.3587 7.33975ZM13.6389 8.25H10.3669V9.75H13.6389V8.25ZM15.6357 7.34608C14.9903 7.70854 14.2911 7.96537 13.5646 8.10682L13.8513 9.57918C14.7349 9.40713 15.5853 9.09476 16.3702 8.65392L15.6357 7.34608ZM13.5667 8.10642C12.5326 8.30467 11.4697 8.29721 10.4385 8.08447L10.1354 9.55353C11.3596 9.80609 12.6215 9.81495 13.8491 9.57958L13.5667 8.10642ZM10.4318 8.08312C9.70743 7.94053 9.00861 7.68995 8.3587 7.33975L7.64716 8.66025C8.42931 9.0817 9.27033 9.38327 10.1421 9.55488L10.4318 8.08312Z" fill="black"/>
</svg>
