<svg width="24" height="24" viewBox="0 0 24 24" fill="none" xmlns="http://www.w3.org/2000/svg">
<path fill-rule="evenodd" clip-rule="evenodd" d="M5 12.9543C5.01239 14.0398 5.45555 15.076 6.23197 15.8348C7.00838 16.5936 8.05445 17.0128 9.14 17.0003H11.146C11.6915 17.0007 12.2131 17.224 12.59 17.6183L13.659 18.7363C13.8281 18.9076 14.0588 19.004 14.2995 19.004C14.5402 19.004 14.7709 18.9076 14.94 18.7363L16.6 17.0003L17.145 16.3923C17.2454 16.2833 17.3548 16.1829 17.472 16.0923C18.4349 15.3354 18.9979 14.179 19 12.9543V8.04428C18.9731 5.7845 17.1198 3.97417 14.86 4.00028H9.14C6.88021 3.97417 5.0269 5.7845 5 8.04428V12.9543Z" stroke="black" stroke-width="1.5" stroke-linecap="round" stroke-linejoin="round"/>
<path d="M15.6957 12.3242C15.8504 11.94 15.6644 11.503 15.2802 11.3483C14.896 11.1936 14.459 11.3796 14.3043 11.7638L15.6957 12.3242ZM14.116 13.25L14.5898 13.8314L14.5926 13.8291L14.116 13.25ZM9.864 13.219L9.37845 13.7906L9.38182 13.7935L9.864 13.219ZM9.70018 11.7312C9.55173 11.3445 9.11791 11.1514 8.73121 11.2998C8.34451 11.4483 8.15137 11.8821 8.29982 12.2688L9.70018 11.7312ZM9.75 8C9.75 7.58579 9.41421 7.25 9 7.25C8.58579 7.25 8.25 7.58579 8.25 8H9.75ZM8.25 9C8.25 9.41421 8.58579 9.75 9 9.75C9.41421 9.75 9.75 9.41421 9.75 9H8.25ZM15.75 8C15.75 7.58579 15.4142 7.25 15 7.25C14.5858 7.25 14.25 7.58579 14.25 8H15.75ZM14.25 9C14.25 9.41421 14.5858 9.75 15 9.75C15.4142 9.75 15.75 9.41421 15.75 9H14.25ZM14.3043 11.7638C14.162 12.117 13.9334 12.4289 13.6394 12.6709L14.5926 13.8291C15.0804 13.4276 15.4597 12.9102 15.6957 12.3242L14.3043 11.7638ZM13.6422 12.6686C12.6801 13.4525 11.2968 13.4424 10.3462 12.6445L9.38182 13.7935C10.8838 15.0542 13.0696 15.0701 14.5898 13.8314L13.6422 12.6686ZM10.3495 12.6474C10.0597 12.4012 9.83645 12.0862 9.70018 11.7312L8.29982 12.2688C8.52618 12.8584 8.89708 13.3817 9.37846 13.7906L10.3495 12.6474ZM8.25 8V9H9.75V8H8.25ZM14.25 8V9H15.75V8H14.25Z" fill="black"/>
</svg>
