<svg width="24" height="24" viewBox="0 0 24 24" fill="none" xmlns="http://www.w3.org/2000/svg">
<path fill-rule="evenodd" clip-rule="evenodd" d="M13.0641 18.6001L11.0541 12.4651C10.9637 12.0699 11.0828 11.6561 11.3695 11.3695C11.6561 11.0828 12.0699 10.9637 12.4651 11.0541L18.6001 13.0641C18.8201 13.0972 18.99 13.2747 19.0136 13.496C19.0371 13.7172 18.9082 13.9265 18.7001 14.0051L15.8161 15.3171C15.59 15.4164 15.4094 15.597 15.3101 15.8231L14.0001 18.7071C13.9215 18.9152 13.7122 19.0441 13.491 19.0206C13.2697 18.997 13.0922 18.8271 13.0591 18.6071L13.0641 18.6001Z" stroke="black" stroke-width="1.5" stroke-linecap="round" stroke-linejoin="round"/>
<path d="M6.552 11.957C6.96621 11.957 7.302 11.6212 7.302 11.207C7.302 10.7928 6.96621 10.457 6.552 10.457V11.957ZM5 10.457C4.58579 10.457 4.25 10.7928 4.25 11.207C4.25 11.6212 4.58579 11.957 5 11.957V10.457ZM11.958 5C11.958 4.58579 11.6222 4.25 11.208 4.25C10.7938 4.25 10.458 4.58579 10.458 5H11.958ZM10.458 6.552C10.458 6.96621 10.7938 7.302 11.208 7.302C11.6222 7.302 11.958 6.96621 11.958 6.552H10.458ZM16.1273 7.34833C16.4202 7.05544 16.4202 6.58056 16.1273 6.28767C15.8344 5.99478 15.3596 5.99478 15.0667 6.28767L16.1273 7.34833ZM13.9667 7.38767C13.6738 7.68056 13.6738 8.15544 13.9667 8.44833C14.2596 8.74122 14.7344 8.74122 15.0273 8.44833L13.9667 7.38767ZM8.44533 15.0303C8.73822 14.7374 8.73822 14.2626 8.44533 13.9697C8.15244 13.6768 7.67756 13.6768 7.38467 13.9697L8.44533 15.0303ZM6.28467 15.0697C5.99178 15.3626 5.99178 15.8374 6.28467 16.1303C6.57756 16.4232 7.05244 16.4232 7.34533 16.1303L6.28467 15.0697ZM7.34533 6.29067C7.05244 5.99778 6.57756 5.99778 6.28467 6.29067C5.99178 6.58356 5.99178 7.05844 6.28467 7.35133L7.34533 6.29067ZM7.38467 8.45133C7.67756 8.74422 8.15244 8.74422 8.44533 8.45133C8.73822 8.15844 8.73822 7.68356 8.44533 7.39067L7.38467 8.45133ZM6.552 10.457H5V11.957H6.552V10.457ZM10.458 5V6.552H11.958V5H10.458ZM15.0667 6.28767L13.9667 7.38767L15.0273 8.44833L16.1273 7.34833L15.0667 6.28767ZM7.38467 13.9697L6.28467 15.0697L7.34533 16.1303L8.44533 15.0303L7.38467 13.9697ZM6.28467 7.35133L7.38467 8.45133L8.44533 7.39067L7.34533 6.29067L6.28467 7.35133Z" fill="black"/>
</svg>
