<svg width="24" height="24" viewBox="0 0 24 24" fill="none" xmlns="http://www.w3.org/2000/svg">
<path fill-rule="evenodd" clip-rule="evenodd" d="M9.308 4.00001H14.829C14.8863 4.00001 14.9433 4.00367 15 4.01101C17.2473 4.16817 18.9924 6.0332 19 8.28601V14.715C18.9917 17.0871 17.0641 19.0044 14.692 19H9.308C6.93551 19.0044 5.00772 17.0865 5 14.714V8.28601C5.00772 5.91353 6.93551 3.99558 9.308 4.00001Z" stroke="black" stroke-width="1.5" stroke-linecap="round" stroke-linejoin="round"/>
<path fill-rule="evenodd" clip-rule="evenodd" d="M9.71393 7.12939L8.22293 8.32939C8.07891 8.46664 7.9979 8.65724 7.99904 8.85618C8.00017 9.05513 8.08335 9.24479 8.22893 9.38039L9.19193 10.5394L13.2179 15.3804C13.285 15.4583 13.3749 15.5133 13.4749 15.5374L15.4749 15.9944C15.7394 16.0094 15.9696 15.8155 15.9999 15.5524L15.9069 13.6064C15.9001 13.5065 15.8599 13.4118 15.7929 13.3374L11.8599 8.60739L10.7999 7.33439C10.5447 6.99658 10.0747 6.90786 9.71393 7.12939Z" stroke="black" stroke-width="1.5" stroke-linecap="round" stroke-linejoin="round"/>
<path d="M19.0004 9.07574C19.4146 9.07574 19.7504 8.73996 19.7504 8.32574C19.7504 7.91153 19.4146 7.57574 19.0004 7.57574V9.07574ZM15.0004 8.32574H14.2504C14.2504 8.73996 14.5862 9.07574 15.0004 9.07574V8.32574ZM15.7504 4.01074C15.7504 3.59653 15.4146 3.26074 15.0004 3.26074C14.5862 3.26074 14.2504 3.59653 14.2504 4.01074H15.7504ZM12.5993 8.73945C12.6703 8.33139 12.3972 7.94295 11.9891 7.87187C11.581 7.80078 11.1926 8.07396 11.1215 8.48203L12.5993 8.73945ZM9.30319 9.79397C8.89352 9.73277 8.51181 10.0153 8.45061 10.4249C8.38942 10.8346 8.67191 11.2163 9.08157 11.2775L9.30319 9.79397ZM19.0004 7.57574H15.0004V9.07574H19.0004V7.57574ZM15.7504 8.32574V4.01074H14.2504V8.32574H15.7504ZM11.1215 8.48203C10.972 9.3404 10.1649 9.9227 9.30319 9.79397L9.08157 11.2775C10.7487 11.5265 12.31 10.4 12.5993 8.73945L11.1215 8.48203Z" fill="black"/>
</svg>
