<svg width="350" height="254" viewBox="0 0 350 254" fill="none" xmlns="http://www.w3.org/2000/svg">
<path d="M65.9248 91.8305L32.1048 83.3477L31.0298 252.437H70.1248L65.9248 245.037C84.8298 191.615 65.9248 91.8305 65.9248 91.8305Z" fill="#FFF129"/>
<path d="M56.1598 195.779C56.1598 156.174 45.9598 124.071 33.3698 124.071C32.8545 124.074 32.3418 124.129 31.8448 124.237L31.0298 252.437H47.3398C52.7048 239.316 56.1598 218.82 56.1598 195.779Z" fill="black"/>
<path d="M54.7751 93.8955C54.7751 93.8955 62.8502 197.75 40.0402 246.921L44.8052 252.437H4.24015C4.24015 252.437 0.285156 125.266 0.285156 96.7559L54.7751 93.8955Z" fill="#FFF129"/>
<path d="M46.1599 13.5424V27.0408L24.9399 31.1502V8.37309L46.1599 4.26367V13.5424Z" fill="#EDEEEF"/>
<path d="M32.105 20.6069C32.105 20.6069 37.27 19.2673 38.97 21.3161C38.97 21.3161 41.125 19.4092 43.905 20.9497" stroke="#FF6498" stroke-width="1.5" stroke-miterlimit="10"/>
<path d="M34.1749 18.2117C34.4869 18.2117 34.7399 18.0124 34.7399 17.7665C34.7399 17.5206 34.4869 17.3213 34.1749 17.3213C33.8628 17.3213 33.6099 17.5206 33.6099 17.7665C33.6099 18.0124 33.8628 18.2117 34.1749 18.2117Z" fill="black"/>
<path d="M42.8848 18.2117C43.1969 18.2117 43.4498 18.0124 43.4498 17.7665C43.4498 17.5206 43.1969 17.3213 42.8848 17.3213C42.5728 17.3213 42.3198 17.5206 42.3198 17.7665C42.3198 18.0124 42.5728 18.2117 42.8848 18.2117Z" fill="black"/>
<path d="M40.3301 20.434V13.543H44.7101" stroke="black" stroke-width="2" stroke-miterlimit="10"/>
<path d="M33.105 13.543H37.485" stroke="black" stroke-width="2" stroke-miterlimit="10"/>
<path d="M26.34 17.0726V19.4642C25.9504 19.4647 25.5646 19.4046 25.2046 19.2874C24.8445 19.1702 24.5174 18.9981 24.242 18.781C23.9665 18.564 23.7481 18.3062 23.5994 18.0225C23.4506 17.7388 23.3743 17.4348 23.375 17.1278C23.375 17.0569 23.375 16.9859 23.375 16.915C23.55 15.4651 26.34 15.6148 26.34 17.0726Z" fill="#EDEEEF"/>
<path d="M26.34 19.4644C25.9504 19.4649 25.5646 19.4048 25.2046 19.2876C24.8445 19.1703 24.5174 18.9982 24.242 18.7812C23.9665 18.5641 23.7481 18.3064 23.5994 18.0227C23.4506 17.739 23.3743 17.4349 23.375 17.1279" stroke="black" stroke-width="2" stroke-miterlimit="10"/>
<path d="M37.7552 22.1315C37.5344 22.132 37.3156 22.0981 37.1115 22.0317C36.9074 21.9654 36.7219 21.8679 36.5658 21.7449C36.4097 21.6218 36.2859 21.4757 36.2017 21.3148C36.1175 21.154 36.0745 20.9816 36.0752 20.8076" stroke="#FF6498" stroke-width="1.5" stroke-miterlimit="10"/>
<path d="M31.0299 29.9688L24.9399 31.1508" stroke="black" stroke-width="2" stroke-miterlimit="10"/>
<path d="M40.33 20.4375L38.415 20.8079" stroke="black" stroke-width="2" stroke-miterlimit="10" stroke-linecap="round"/>
<path d="M65.9252 55.3188V91.8307L0.285156 104.541V63.8804C0.285279 56.874 3.26643 50.0699 8.75202 44.5559C14.2376 39.0419 21.9109 35.1363 30.5452 33.4636C34.7509 32.6486 39.1367 32.598 43.3709 33.3157C47.605 34.0334 51.5766 35.5005 54.9852 37.606C58.3937 39.7116 61.1499 42.4004 63.0452 45.4691C64.9405 48.5378 65.9253 51.9059 65.9252 55.3188Z" fill="#EDEEEF"/>
<path d="M27.3801 17.7661C27.3801 17.7661 24.1801 26.0401 31.6501 30.3505C38.6001 34.3614 49.5601 32.0131 46.9651 22.632C46.4274 20.6746 46.1575 18.6774 46.1601 16.6747V16.1152" stroke="#FFEF00" stroke-width="1.5" stroke-miterlimit="10"/>
<path d="M24.8549 15.9028C24.8549 15.9028 17.7999 5.70999 28.6649 3.88183C28.6649 3.88183 33.0849 -0.452175 39.3749 1.63997C45.6649 3.7321 48.6799 2.26643 48.7649 4.26401C48.8499 6.26159 49.1599 9.59089 46.1599 11.289" stroke="#FFEF00" stroke-width="1.5" stroke-miterlimit="10"/>
<path d="M29.25 15.9026L31.03 10.1778C31.03 10.1778 44.005 10.3354 46.16 7.55371" stroke="#FFEF00" stroke-width="1.5" stroke-miterlimit="10"/>
<path d="M54.775 93.8945C54.775 93.8945 62.85 197.749 40.04 246.92L44.805 252.436" stroke="black" stroke-width="2" stroke-miterlimit="10"/>
<path d="M13.7399 40.3818C13.7399 40.3818 2.73987 74.6835 16.0499 87.5003C29.3599 100.317 91.7799 92.7523 109.915 78.8835C109.915 78.8835 116.315 77.6227 117.65 75.1011C117.65 75.1011 123.78 78.6747 123.515 76.3619C123.25 74.0491 121.115 66.8468 110.18 68.6632C99.2449 70.4795 46.1799 71.3187 46.1799 71.3187L47.3749 53.2499" stroke="black" stroke-width="2" stroke-miterlimit="10"/>
<path d="M62.8999 45.208C62.8999 45.208 70.8999 57.4535 69.8999 70.7983" stroke="black" stroke-width="2" stroke-miterlimit="10"/>
<path d="M67.2798 99.7457C67.2798 99.7457 88.6448 106.444 97.6798 85.2031" stroke="black" stroke-width="2" stroke-miterlimit="10"/>
<path d="M77.1299 70.5861C77.1299 70.5861 99.7699 61.3744 103.25 65.2356L106.75 69.0968" stroke="black" stroke-width="2" stroke-miterlimit="10"/>
<path d="M101.345 252.437H349.715" stroke="black" stroke-width="2" stroke-miterlimit="10"/>
<path d="M320.34 250.896C320.34 250.896 324.62 244.931 313.755 243.635C307.299 242.847 300.693 243.475 294.66 245.451C294.66 245.451 302.235 238.186 290.38 235.073C278.525 231.961 266.35 239.222 266.35 239.222C266.35 239.222 278.2 221.843 268.985 220.546C259.77 219.25 254.83 226.772 254.83 226.772C254.83 226.772 255.83 205.24 236.725 204.708C217.62 204.176 219.605 232.205 219.605 232.205C219.605 232.205 211.375 219.766 197.55 219.258C183.725 218.75 190.635 240.116 190.635 240.116C190.635 240.116 188 235.081 178.785 234.561C169.57 234.041 170.225 240.14 170.225 240.14C170.225 240.14 158.375 227.047 145.225 227.824C132.075 228.6 137.655 241.574 137.655 241.574C124.155 240.786 121.195 252.453 121.195 252.453H329.885L320.34 250.896Z" fill="#FFF129"/>
<path d="M149.34 124.607H309.37V198.25H149.34V124.607Z" fill="black"/>
<path d="M128.675 108.323H288.705V181.966H128.675V108.323Z" fill="#EDEEEF"/>
<path d="M288.705 108.362V182.005L128.675 181.926" stroke="black" stroke-width="2" stroke-miterlimit="10"/>
<path d="M208.69 168.322C224.936 168.322 238.105 157.944 238.105 145.143C238.105 132.341 224.936 121.964 208.69 121.964C192.445 121.964 179.275 132.341 179.275 145.143C179.275 157.944 192.445 168.322 208.69 168.322Z" fill="#FFF129"/>
<path d="M146.715 172.534C150.029 172.534 152.715 170.417 152.715 167.806C152.715 165.195 150.029 163.078 146.715 163.078C143.401 163.078 140.715 165.195 140.715 167.806C140.715 170.417 143.401 172.534 146.715 172.534Z" fill="#D6D6D6"/>
<path d="M270.665 127.212C273.979 127.212 276.665 125.095 276.665 122.484C276.665 119.873 273.979 117.756 270.665 117.756C267.351 117.756 264.665 119.873 264.665 122.484C264.665 125.095 267.351 127.212 270.665 127.212Z" fill="#D6D6D6"/>
<path d="M270.665 172.534C273.979 172.534 276.665 170.417 276.665 167.806C276.665 165.195 273.979 163.078 270.665 163.078C267.351 163.078 264.665 165.195 264.665 167.806C264.665 170.417 267.351 172.534 270.665 172.534Z" fill="#D6D6D6"/>
<path d="M146.715 127.212C150.029 127.212 152.715 125.095 152.715 122.484C152.715 119.873 150.029 117.756 146.715 117.756C143.401 117.756 140.715 119.873 140.715 122.484C140.715 125.095 143.401 127.212 146.715 127.212Z" fill="#D6D6D6"/>
<path d="M208.69 145.143C207.039 145.143 205.425 144.757 204.053 144.034C202.681 143.312 201.611 142.284 200.979 141.083C200.348 139.881 200.183 138.558 200.505 137.283C200.828 136.007 201.623 134.835 202.791 133.916C203.958 132.996 205.446 132.37 207.065 132.117C208.684 131.864 210.362 131.995 211.887 132.493C213.411 132.991 214.714 133.835 215.631 134.917C216.547 135.999 217.036 137.27 217.035 138.571" stroke="black" stroke-width="1.5" stroke-miterlimit="10"/>
<path d="M208.69 145.143C210.34 145.143 211.954 145.528 213.326 146.251C214.698 146.973 215.768 148 216.4 149.202C217.031 150.404 217.196 151.726 216.874 153.001C216.552 154.277 215.758 155.449 214.591 156.368C213.423 157.288 211.937 157.914 210.318 158.168C208.699 158.422 207.021 158.291 205.496 157.794C203.971 157.296 202.668 156.453 201.751 155.372C200.834 154.29 200.345 153.019 200.345 151.718" stroke="black" stroke-width="1.5" stroke-miterlimit="10"/>
<path d="M208.689 128.217V162.069" stroke="black" stroke-width="1.5" stroke-miterlimit="10"/>
</svg>
