<svg width="24" height="24" viewBox="0 0 24 24" fill="none" xmlns="http://www.w3.org/2000/svg">
<path fill-rule="evenodd" clip-rule="evenodd" d="M17.6938 7.55492H8.25977L8.91177 13.9439L16.1998 13.2139C16.6548 13.2155 17.0781 12.9807 17.3178 12.5939L18.8118 9.49392C19.0526 9.09552 19.0578 8.59764 18.8253 8.19432C18.5927 7.791 18.1592 7.54605 17.6938 7.55492Z" stroke="black" stroke-width="1.5" stroke-linecap="round" stroke-linejoin="round"/>
<path fill-rule="evenodd" clip-rule="evenodd" d="M9.66677 19.063C9.66457 19.5777 9.24588 19.9934 8.73112 19.992C8.21636 19.9905 7.80005 19.5724 7.80078 19.0576C7.80151 18.5429 8.21901 18.126 8.73377 18.126C8.98175 18.1265 9.21936 18.2255 9.39433 18.4012C9.5693 18.577 9.6673 18.815 9.66677 19.063V19.063Z" stroke="black" stroke-width="1.5" stroke-linecap="round" stroke-linejoin="round"/>
<path fill-rule="evenodd" clip-rule="evenodd" d="M15.2674 19.063C15.2652 19.5777 14.8465 19.9934 14.3317 19.992C13.8169 19.9905 13.4006 19.5724 13.4014 19.0576C13.4021 18.5429 13.8196 18.126 14.3344 18.126C14.5823 18.1265 14.8199 18.2255 14.9949 18.4012C15.1699 18.577 15.2679 18.815 15.2674 19.063V19.063Z" stroke="black" stroke-width="1.5" stroke-linecap="round" stroke-linejoin="round"/>
<path d="M7.53326 7.74034C7.63561 8.14171 8.04395 8.38411 8.44532 8.28176C8.84669 8.17941 9.08909 7.77106 8.98674 7.36969L7.53326 7.74034ZM7.636 5.10801L8.36281 4.92267L8.36017 4.91288L7.636 5.10801ZM7.493 5.00001L7.493 5.75009L7.50342 5.74994L7.493 5.00001ZM5 4.25001C4.58579 4.25001 4.25 4.5858 4.25 5.00001C4.25 5.41423 4.58579 5.75001 5 5.75001V4.25001ZM8.94322 14.6934C9.35707 14.6761 9.67859 14.3267 9.66135 13.9128C9.64411 13.4989 9.29464 13.1774 8.88078 13.1947L8.94322 14.6934ZM8.912 16.25L8.88078 16.9994C8.89118 16.9998 8.90159 17 8.912 17L8.912 16.25ZM15.554 17C15.9682 17 16.304 16.6642 16.304 16.25C16.304 15.8358 15.9682 15.5 15.554 15.5V17ZM8.98674 7.36969L8.36274 4.92269L6.90926 5.29334L7.53326 7.74034L8.98674 7.36969ZM8.36017 4.91288C8.25358 4.51729 7.89224 4.2444 7.48258 4.25009L7.50342 5.74994C7.22726 5.75378 6.98369 5.56982 6.91183 5.30315L8.36017 4.91288ZM7.493 4.25001H5V5.75001H7.493V4.25001ZM8.88078 13.1947C7.86094 13.2371 7.05603 14.0763 7.05603 15.097H8.55603C8.55603 14.8804 8.72682 14.7024 8.94322 14.6934L8.88078 13.1947ZM7.05603 15.097C7.05603 16.1177 7.86094 16.9569 8.88078 16.9994L8.94322 15.5007C8.72682 15.4916 8.55603 15.3136 8.55603 15.097H7.05603ZM8.912 17H15.554V15.5H8.912V17Z" fill="black"/>
</svg>
