<svg width="24" height="24" viewBox="0 0 24 24" fill="none" xmlns="http://www.w3.org/2000/svg">
<path fill-rule="evenodd" clip-rule="evenodd" d="M5.74033 8.16758C6.49433 7.37258 6.76133 7.14958 7.08233 7.04658C7.30482 6.98806 7.53822 6.98463 7.76233 7.03658C8.05733 7.12258 8.13433 7.18758 9.10233 8.15058C9.95233 8.99658 10.0363 9.08858 10.1183 9.25058C10.2769 9.54216 10.3024 9.88789 10.1883 10.1996C10.1043 10.4346 9.98033 10.5906 9.46533 11.1086L9.12933 11.4456C9.04093 11.5353 9.01997 11.6715 9.07733 11.7836C9.82321 13.0562 10.8812 14.1176 12.1513 14.8676C12.2978 14.9461 12.4783 14.9206 12.5973 14.8046L12.9203 14.4866C13.1199 14.2818 13.3313 14.0888 13.5533 13.9086C13.9015 13.6931 14.3362 13.6723 14.7033 13.8536C14.8823 13.9376 14.9423 13.9926 15.8193 14.8666C16.7193 15.7666 16.7483 15.7956 16.8493 16.0026C17.0379 16.3455 17.036 16.7614 16.8443 17.1026C16.7443 17.2946 16.6883 17.3646 16.1803 17.8836C15.8733 18.1976 15.5803 18.4836 15.5383 18.5256C15.1188 18.8723 14.581 19.0426 14.0383 19.0006C13.0455 18.9097 12.0847 18.6025 11.2233 18.1006C9.31416 17.0891 7.68898 15.6152 6.49633 13.8136C6.23552 13.4369 6.00353 13.0412 5.80233 12.6296C5.26624 11.7106 4.98909 10.6635 5.00033 9.59958C5.04065 9.0411 5.3081 8.52355 5.74033 8.16758Z" stroke="black" stroke-width="1.5" stroke-linecap="round" stroke-linejoin="round"/>
<path d="M14.3416 4.29409C13.9518 4.15416 13.5223 4.35677 13.3824 4.74664C13.2424 5.1365 13.4451 5.56598 13.8349 5.70591L14.3416 4.29409ZM18.2867 10.0832C18.4332 10.4707 18.8661 10.666 19.2535 10.5195C19.641 10.373 19.8363 9.94021 19.6898 9.55276L18.2867 10.0832ZM13.1535 6.52142C12.7495 6.43018 12.348 6.68374 12.2567 7.08778C12.1655 7.49182 12.419 7.89333 12.8231 7.98458L13.1535 6.52142ZM16.0696 11.1774C16.1675 11.5799 16.5732 11.8267 16.9757 11.7287C17.3781 11.6307 17.625 11.2251 17.527 10.8226L16.0696 11.1774ZM13.8349 5.70591C15.8882 6.44286 17.5153 8.04271 18.2867 10.0832L19.6898 9.55276C18.763 7.10139 16.8083 5.17942 14.3416 4.29409L13.8349 5.70591ZM12.8231 7.98458C14.4237 8.34607 15.6814 9.58301 16.0696 11.1774L17.527 10.8226C17.0041 8.67475 15.3098 7.0084 13.1535 6.52142L12.8231 7.98458Z" fill="black"/>
</svg>
